<svg width="32" height="32" viewBox="0 0 32 32" fill="none" xmlns="http://www.w3.org/2000/svg">
<path d="M9.26345 3.8584C14.421 11.5947 9.26345 18.0415 9.26345 18.0415M8.9814 3.8584C3.82389 11.5947 8.9814 18.0415 8.9814 18.0415M2.17188 10.95H16.355" stroke="currentColor" stroke-opacity="0.5" stroke-width="1.33333"/>
<circle cx="9.26302" cy="10.95" r="7.33333" stroke="currentColor" stroke-width="2"/>
<path d="M19.3411 6.1333H24.1432C26.3524 6.1333 28.1432 7.92416 28.1432 10.1333V20.8C28.1432 23.0091 26.3524 24.8 24.1432 24.8H21.5318C21.0555 24.8 20.6153 25.0541 20.3771 25.4666L19.03 27.8C18.7734 28.2444 18.1319 28.2444 17.8753 27.8L16.3357 25.1333C16.2166 24.927 15.9965 24.8 15.7583 24.8H8.14323C6.67047 24.8 5.47656 23.6061 5.47656 22.1333V21.2" stroke="currentColor" stroke-width="2" stroke-linecap="round" stroke-linejoin="round"/>
<path d="M21.3779 13.2336C21.4189 13.2336 21.4566 13.2581 21.4717 13.2961L24.0957 19.9631C24.1078 19.9939 24.1035 20.0286 24.085 20.0559C24.0664 20.0832 24.0359 20.0997 24.0029 20.0999H22.5752C22.5343 20.0999 22.4967 20.0753 22.4814 20.0374L21.8438 18.4377H19.4854L18.8564 20.0364C18.8414 20.0746 18.8048 20.0999 18.7637 20.0999H17.3359C17.3028 20.0999 17.2715 20.0833 17.2529 20.0559C17.2345 20.0286 17.231 19.9938 17.2432 19.9631L19.877 13.2961L19.8926 13.2708C19.9112 13.2475 19.9399 13.2336 19.9707 13.2336H21.3779ZM19.792 17.3274H21.5176L20.6719 14.9661L19.792 17.3274Z" fill="currentColor" stroke="currentColor" stroke-width="0.2" stroke-linejoin="round"/>
</svg>
