<svg width="390" height="893" viewBox="0 0 390 893" fill="none" xmlns="http://www.w3.org/2000/svg">
<path d="M1056.42 685.871C1056.42 685.871 549.246 633.59 -54.5997 590.238C-105.853 586.559 -157.613 582.963 -209.88 579.45C-879.565 534.53 -1195.82 547.606 -1195.82 547.606" stroke="white" strokeWidth="2"/>
<path d="M49.998 254.389C55.5209 254.389 59.998 249.912 59.998 244.389C59.998 238.866 55.5209 234.389 49.998 234.389C44.4752 234.389 39.998 238.866 39.998 244.389C39.998 249.912 44.4752 254.389 49.998 254.389Z" fill="white"/>
<path d="M100.998 285.389C105.969 285.389 109.998 281.583 109.998 276.889C109.998 272.194 105.969 268.389 100.998 268.389C96.0275 268.389 91.998 272.194 91.998 276.889C91.998 281.583 96.0275 285.389 100.998 285.389Z" fill="white"/>
<path d="M503.404 853.726C686.146 838.474 819.525 649.232 801.315 431.043C783.104 212.854 620.2 48.3407 437.458 63.5927C254.716 78.8448 121.337 268.086 139.547 486.276C157.758 704.465 320.662 868.978 503.404 853.726Z" stroke="url(#paint0_linear_446_34636)" strokeWidth="2.00024"/>
<path d="M1062.42 249.601C908.077 55.6973 502.76 -90.3145 252.386 188.897C2.013 468.108 216.519 900.822 600.51 844.818C659.202 836.258 824.348 787.389 935.143 703.365C1045.94 619.341 1216.76 443.504 1062.42 249.601Z" fill="#E2ECFF"/>
<defs>
<linearGradient id="paint0_linear_446_34636" x1="339" y1="-10" x2="453" y2="832.5" gradientUnits="userSpaceOnUse">
<stop stop-color="white" stop-opacity="0.1"/>
<stop offset="1" stop-color="white"/>
</linearGradient>
</defs>
</svg>
