<svg width="3840" height="1222" viewBox="0 0 3840 1222" fill="none" xmlns="http://www.w3.org/2000/svg">
<path d="M2533.75 1115.67C2758.14 1057.31 2877.6 784.096 2800.56 505.415C2723.53 226.735 2479.17 48.125 2254.77 106.478C2030.37 164.831 1910.92 438.051 1987.95 716.731C2064.99 995.411 2309.35 1174.02 2533.75 1115.67Z" stroke="white" stroke-width="2.00024"/>
<path d="M1214.13 307.872C1221.03 307.872 1226.63 302.389 1226.63 295.625C1226.63 288.861 1221.03 283.378 1214.13 283.378C1207.23 283.378 1201.63 288.861 1201.63 295.625C1201.63 302.389 1207.23 307.872 1214.13 307.872Z" fill="white"/>
<path d="M1930.13 951.577C1937.03 951.577 1942.63 946.094 1942.63 939.33C1942.63 932.566 1937.03 927.083 1930.13 927.083C1923.23 927.083 1917.63 932.566 1917.63 939.33C1917.63 946.094 1923.23 951.577 1930.13 951.577Z" fill="white"/>
<path d="M1277.63 346.083C1283.7 346.083 1288.63 341.258 1288.63 335.306C1288.63 329.354 1283.7 324.528 1277.63 324.528C1271.55 324.528 1266.63 329.354 1266.63 335.306C1266.63 341.258 1271.55 346.083 1277.63 346.083Z" fill="white"/>
<path d="M2037.63 227.532C2042.05 227.532 2045.63 224.022 2045.63 219.694C2045.63 215.365 2042.05 211.855 2037.63 211.855C2033.21 211.855 2029.63 215.365 2029.63 219.694C2029.63 224.022 2033.21 227.532 2037.63 227.532Z" fill="white"/>
<path d="M2558.13 943.74C2562.27 943.74 2565.63 940.45 2565.63 936.392C2565.63 932.334 2562.27 929.044 2558.13 929.044C2553.99 929.044 2550.63 932.334 2550.63 936.392C2550.63 940.45 2553.99 943.74 2558.13 943.74Z" fill="white"/>
<path d="M2227.44 971.186C2227.44 971.186 1720.27 919.963 1116.43 877.488C1065.17 873.883 1013.41 870.359 961.146 866.918C291.461 822.906 -24.7929 835.718 -24.7929 835.718" stroke="white" stroke-width="2"/>
<g filter="url(#filter0_b_446_15312)">
<path d="M3257.39 297.211C3034.2 61.1156 2484.09 -88.6149 2180.85 297.211C1877.62 683.038 2203.96 1222.51 2705.88 1112.74C2782.6 1095.96 2996.02 1016.66 3134.12 897.109C3272.22 777.562 3480.56 533.306 3257.39 297.211Z" fill="#E2ECFF"/>
</g>
<defs>
<filter id="filter0_b_446_15312" x="2023.96" y="20.7031" width="1371.56" height="1146.48" filterUnits="userSpaceOnUse" color-interpolation-filters="sRGB">
<feFlood flood-opacity="0" result="BackgroundImageFix"/>
<feGaussianBlur in="BackgroundImageFix" stdDeviation="20"/>
<feComposite in2="SourceAlpha" operator="in" result="effect1_backgroundBlur_446_15312"/>
<feBlend mode="normal" in="SourceGraphic" in2="effect1_backgroundBlur_446_15312" result="shape"/>
</filter>
</defs>
</svg>
