<svg width="390" height="1075" viewBox="0 0 390 1075" fill="none" xmlns="http://www.w3.org/2000/svg">
<path opacity="0.14" d="M-1095 0H2745V927H-1095V0Z" fill="url(#paint0_radial_446_34637)"/>
<path d="M1056.42 867.871C1056.42 867.871 549.246 815.59 -54.5997 772.238C-105.853 768.559 -157.613 764.963 -209.88 761.45C-879.565 716.53 -1195.82 729.606 -1195.82 729.606" stroke="#485064" strokeWidth="2"/>
<path d="M49.998 436.389C55.5209 436.389 59.998 431.912 59.998 426.389C59.998 420.866 55.5209 416.389 49.998 416.389C44.4752 416.389 39.998 420.866 39.998 426.389C39.998 431.912 44.4752 436.389 49.998 436.389Z" fill="#485064"/>
<path d="M100.998 467.389C105.969 467.389 109.998 463.583 109.998 458.889C109.998 454.194 105.969 450.389 100.998 450.389C96.0275 450.389 91.998 454.194 91.998 458.889C91.998 463.583 96.0275 467.389 100.998 467.389Z" fill="#485064"/>
<path d="M503.404 1035.73C686.146 1020.47 819.525 831.232 801.315 613.043C783.104 394.854 620.2 230.341 437.458 245.593C254.716 260.845 121.337 450.086 139.547 668.276C157.758 886.465 320.662 1050.98 503.404 1035.73Z" stroke="url(#paint1_linear_446_34637)" strokeWidth="2.00024"/>
<path d="M1062.42 431.601C908.077 237.697 502.76 91.6855 252.386 370.897C2.013 650.108 216.519 1082.82 600.51 1026.82C659.202 1018.26 824.348 969.389 935.143 885.365C1045.94 801.341 1216.76 625.504 1062.42 431.601Z" fill="url(#paint2_linear_446_34637)"/>
<defs>
<radialGradient id="paint0_radial_446_34637" cx="0" cy="0" r="1" gradientUnits="userSpaceOnUse" gradientTransform="translate(825 463.5) scale(2514 898.505)">
<stop stop-color="#6B9CFF"/>
<stop offset="1" stop-color="#1E2638"/>
</radialGradient>
<linearGradient id="paint1_linear_446_34637" x1="334.5" y1="382" x2="453" y2="1014.5" gradientUnits="userSpaceOnUse">
<stop stop-color="#485064" stop-opacity="0.1"/>
<stop offset="1" stop-color="#485064"/>
</linearGradient>
<linearGradient id="paint2_linear_446_34637" x1="148.953" y1="570.898" x2="841.313" y2="616.986" gradientUnits="userSpaceOnUse">
<stop stop-color="#435781"/>
<stop offset="0.392" stop-color="#2F3C56"/>
<stop offset="0.61" stop-color="#2A3651"/>
<stop offset="1" stop-color="#263047" stop-opacity="0.557"/>
</linearGradient>
</defs>
</svg>
