<svg width="3916" height="1248" viewBox="0 0 3916 1248" fill="none" xmlns="http://www.w3.org/2000/svg">
<path d="M2609.75 1140.67C2834.14 1082.31 2953.6 809.093 2876.56 530.413C2799.53 251.732 2555.17 73.1221 2330.77 131.475C2106.37 189.828 1986.92 463.048 2063.95 741.728C2140.99 1020.41 2385.35 1199.02 2609.75 1140.67Z" stroke="url(#paint0_linear_446_15313)" stroke-width="2.00024"/>
<path d="M1290.13 332.871C1297.03 332.871 1302.63 327.388 1302.63 320.624C1302.63 313.86 1297.03 308.377 1290.13 308.377C1283.23 308.377 1277.63 313.86 1277.63 320.624C1277.63 327.388 1283.23 332.871 1290.13 332.871Z" fill="#485064"/>
<path d="M2006.13 976.576C2013.03 976.576 2018.63 971.093 2018.63 964.329C2018.63 957.565 2013.03 952.082 2006.13 952.082C1999.23 952.082 1993.63 957.565 1993.63 964.329C1993.63 971.093 1999.23 976.576 2006.13 976.576Z" fill="#485064"/>
<path d="M1353.63 371.08C1359.7 371.08 1364.63 366.255 1364.63 360.303C1364.63 354.351 1359.7 349.525 1353.63 349.525C1347.55 349.525 1342.63 354.351 1342.63 360.303C1342.63 366.255 1347.55 371.08 1353.63 371.08Z" fill="#485064"/>
<path d="M2113.63 252.53C2118.05 252.53 2121.63 249.021 2121.63 244.692C2121.63 240.363 2118.05 236.854 2113.63 236.854C2109.21 236.854 2105.63 240.363 2105.63 244.692C2105.63 249.021 2109.21 252.53 2113.63 252.53Z" fill="#485064"/>
<path d="M2634.13 968.737C2638.27 968.737 2641.63 965.448 2641.63 961.389C2641.63 957.331 2638.27 954.041 2634.13 954.041C2629.99 954.041 2626.63 957.331 2626.63 961.389C2626.63 965.448 2629.99 968.737 2634.13 968.737Z" fill="#485064"/>
<path d="M2303.44 996.184C2303.44 996.184 1796.27 944.961 1192.43 902.486C1141.17 898.881 1089.41 895.358 1037.15 891.916C367.461 847.905 51.2071 860.716 51.2071 860.716" stroke="url(#paint1_linear_446_15313)" stroke-width="2"/>

<g filter="url(#filter0_b_446_15313)">
<path d="M3333.39 322.213C3110.2 86.1175 2560.09 -63.613 2256.85 322.213C1953.62 708.04 2279.96 1247.52 2781.88 1137.74C2858.6 1120.96 3072.02 1041.66 3210.12 922.111C3348.22 802.563 3556.56 558.308 3333.39 322.213Z" fill="url(#paint3_linear_446_15313)"/>
</g>
<defs>
<filter id="filter0_b_446_15313" x="2099.96" y="45.7051" width="1371.56" height="1146.48" filterUnits="userSpaceOnUse" color-interpolation-filters="sRGB">
<feFlood flood-opacity="0" result="BackgroundImageFix"/>
<feGaussianBlur in="BackgroundImageFix" stdDeviation="20"/>
<feComposite in2="SourceAlpha" operator="in" result="effect1_backgroundBlur_446_15313"/>
<feBlend mode="normal" in="SourceGraphic" in2="effect1_backgroundBlur_446_15313" result="shape"/>
</filter>
<linearGradient id="paint0_linear_446_15313" x1="1991" y1="536.5" x2="2470.04" y2="533.825" gradientUnits="userSpaceOnUse">
<stop offset="0.00141973" stop-color="#485064"/>
<stop offset="1" stop-color="#212B3E"/>
<stop offset="1" stop-color="#485064"/>
</linearGradient>
<linearGradient id="paint1_linear_446_15313" x1="1178.99" y1="897.245" x2="256.447" y2="872.472" gradientUnits="userSpaceOnUse">
<stop stop-color="#485064"/>
<stop offset="1" stop-color="#485064" stop-opacity="0"/>
</linearGradient>
<radialGradient id="paint2_radial_446_15313" cx="0" cy="0" r="1" gradientUnits="userSpaceOnUse" gradientTransform="translate(1996 623.843) scale(2514 862.342)">
<stop stop-color="#6B9CFF"/>
<stop offset="1" stop-color="#1E2638"/>
</radialGradient>
<linearGradient id="paint3_linear_446_15313" x1="2156.5" y1="546.998" x2="3068.5" y2="548.998" gradientUnits="userSpaceOnUse">
<stop stop-color="#42516F"/>
<stop offset="0.411458" stop-color="#2F3C56"/>
<stop offset="0.640625" stop-color="#2F3C56"/>
<stop offset="1" stop-color="#263047" stop-opacity="0.557"/>
</linearGradient>
</defs>
</svg>
