<svg width="32" height="30" viewBox="0 0 32 30" fill="none" xmlns="http://www.w3.org/2000/svg">
<path d="M31.5603 14.8656C31.5003 10.865 29.854 7.05214 26.9834 4.26516C24.1128 1.47818 20.2528 -0.0546962 16.2523 0.0035546C12.252 -0.0544285 8.3923 1.47857 5.5219 4.26552C2.65151 7.05246 1.00534 10.8652 0.945312 14.8656C0.988248 18.4525 2.31456 21.9055 4.68395 24.5988C7.05334 27.2922 10.3091 29.0478 13.8613 29.5476V19.1616H9.97431V14.8616H13.8613V11.5916C13.8613 7.86655 16.1463 5.80956 19.6433 5.80956C20.7911 5.8249 21.9363 5.92181 23.0703 6.09956V9.75655H21.1403C20.8165 9.70832 20.4861 9.73361 20.1734 9.83057C19.8607 9.92753 19.5739 10.0936 19.3342 10.3166C19.0946 10.5396 18.9082 10.8137 18.7889 11.1185C18.6696 11.4233 18.6206 11.7511 18.6453 12.0776V14.8656H22.8903L22.2113 19.1656H18.6453V29.5476C22.1974 29.0476 25.4529 27.2919 27.8221 24.5985C30.1912 21.9052 31.5174 18.4524 31.5603 14.8656Z" fill="white"/>
</svg>
