<svg width="32" height="32" viewBox="0 0 32 32" fill="none" xmlns="http://www.w3.org/2000/svg">
<path d="M15.8641 0.988281C12.1889 1.02539 8.64768 2.37351 5.87823 4.78986C3.10877 7.20622 1.29307 10.532 0.758123 14.1683C0.154905 17.8125 0.853087 21.5528 2.73038 24.7341C4.60767 27.9153 7.54438 30.3346 11.0261 31.5683C11.7911 31.7053 12.0781 31.2353 12.0781 30.8233C12.0781 30.4503 12.0591 29.2143 12.0591 27.9003C8.21312 28.6263 7.21812 26.9393 6.91212 26.0563C6.57483 25.2023 6.03622 24.4424 5.34212 23.8413C4.80612 23.5473 4.04212 22.8213 5.32312 22.8013C5.81643 22.8585 6.28841 23.0349 6.69835 23.3152C7.10828 23.5955 7.44386 23.9713 7.67612 24.4103C7.88172 24.7939 8.16147 25.1329 8.49914 25.4076C8.8368 25.6822 9.22565 25.8871 9.64312 26.0103C10.0571 26.1307 10.4912 26.1662 10.9193 26.1146C11.3473 26.063 11.7605 25.9255 12.1341 25.7103C12.1983 24.9162 12.5445 24.1713 13.1101 23.6103C9.70412 23.2183 6.14612 21.8643 6.14612 15.8613C6.12159 14.3078 6.68118 12.8018 7.71412 11.6413C7.246 10.2838 7.30055 8.80067 7.86712 7.48128C7.86712 7.48128 9.14912 7.06928 12.0761 9.09028C14.5782 8.38396 17.227 8.38396 19.7291 9.09028C22.6581 7.05028 23.9381 7.48128 23.9381 7.48128C24.5045 8.80035 24.5591 10.2832 24.0911 11.6403C25.1267 12.7984 25.6864 14.305 25.6581 15.8583C25.6581 21.8813 22.0801 23.2153 18.6751 23.6073C19.0415 23.9909 19.3229 24.4474 19.5009 24.9471C19.6789 25.4468 19.7495 25.9784 19.7081 26.5073C19.7081 28.6073 19.6891 30.2933 19.6891 30.8233C19.6891 31.2353 19.9761 31.7233 20.7411 31.5683C24.2169 30.3256 27.1455 27.9011 29.0153 24.7185C30.885 21.5358 31.5769 17.7973 30.9701 14.1563C30.431 10.5229 28.6138 7.20085 25.8449 4.78721C23.076 2.37357 19.5371 1.02657 15.8641 0.988281Z" fill="white"/>
</svg>
