<svg xmlns="http://www.w3.org/2000/svg" width="33" height="33.001" viewBox="0 0 33 33.001">
  <g id="Gruppe_3760" data-name="Gruppe 3760" transform="translate(-1600.5 -219.5)">
    <path id="Pfad_4043" data-name="Pfad 4043" d="M.339,15.02a1.117,1.117,0,0,0-.33.864v.038L10.97,13.005,11,12.967h0l7.89-2.092-.026-.083L17.6,6.1,15.982.122,15.95,0a1.145,1.145,0,0,0-.757.326Z" transform="translate(1600.998 220)" fill="none" stroke="#fff" stroke-linejoin="round" stroke-width="1" style="isolation: isolate"/>
    <path id="Pfad_4044" data-name="Pfad 4044" d="M27.6,10.946h0l2.111,7.849.09.064,10.846-2.934.045-.064a1.132,1.132,0,0,0-.329-.753L25.532.337A1.137,1.137,0,0,0,24.66.009l1.653,6.144,1.291,4.8h0Z" transform="translate(1592.31 219.998)" fill="none" stroke="#fff" stroke-linejoin="round" stroke-width="1" style="isolation: isolate"/>
    <path id="Pfad_4045" data-name="Pfad 4045" d="M28.035,27.606l-7.7,2.1-.051.013.038.136,2.8,10.645.064.233a1.11,1.11,0,0,0,.744-.33l14.6-14.874a1.15,1.15,0,0,0,.324-.874L28.041,27.613h0Z" transform="translate(1594.143 211.262)" fill="none" stroke="#fff" stroke-linejoin="round" stroke-width="1" style="isolation: isolate"/>
    <path id="Pfad_4046" data-name="Pfad 4046" d="M0,23.242A1.138,1.138,0,0,0,.335,24l15.1,14.919a1.164,1.164,0,0,0,.888.331L11.178,20.28,0,23.242Z" transform="translate(1601 212.746)" fill="none" stroke="#fff" stroke-linejoin="round" stroke-width="1" style="isolation: isolate"/>
  </g>
</svg>
