<svg xmlns="http://www.w3.org/2000/svg" width="31.516" height="31.337" viewBox="0 0 31.516 31.337">
  <g id="Gruppe_3760" data-name="Gruppe 3760" transform="translate(-1601 -220.665)">
    <path id="Pfad_4043" data-name="Pfad 4043" d="M.308,14.15a1.074,1.074,0,0,0-.3.814V15l9.966-2.749.03-.036h0l7.177-1.97-.023-.078L16,5.749,14.532.115,14.5,0a1.025,1.025,0,0,0-.688.308Z" transform="translate(1600.998 220.665)" fill="#fff" style="isolation: isolate"/>
    <path id="Pfad_4044" data-name="Pfad 4044" d="M27.408,10h0l1.976,7.171.084.059,10.15-2.681.042-.059a1.023,1.023,0,0,0-.308-.688L25.476.308a1.079,1.079,0,0,0-.816-.3l1.547,5.613,1.208,4.384h0Z" transform="translate(1592.856 220.658)" fill="#fff" style="isolation: isolate"/>
    <path id="Pfad_4045" data-name="Pfad 4045" d="M27.465,27.407l-7.138,1.962-.047.012.036.127,2.6,9.934.059.218a1.028,1.028,0,0,0,.69-.308L37.193,25.476a1.077,1.077,0,0,0,.3-.816L27.472,27.414h0Z" transform="translate(1595.021 212.341)" fill="#fff" style="isolation: isolate"/>
    <path id="Pfad_4046" data-name="Pfad 4046" d="M0,22.969a1.028,1.028,0,0,0,.308.69L14.184,37.2a1.077,1.077,0,0,0,.816.3L10.269,20.28Z" transform="translate(1601 214.499)" fill="#fff" style="isolation: isolate"/>
  </g>
</svg>
