<?xml version="1.0" encoding="UTF-8"?>
<svg id="Ebene_1" data-name="Ebene 1" xmlns="http://www.w3.org/2000/svg" width="626" height="626" viewBox="0 0 626 626">
  <defs>
    <style>
      .cls-1 {
        fill: none;
        stroke: #fff;
        stroke-miterlimit: 10;
        stroke-width: 8px;
      }
    </style>
  </defs>
  <path class="cls-1" d="m69.66,300.32c-3.73,3.73-5.41,8.7-5.17,13.59l170.81-45.77h0l122.56-32.84-20.08-74.93-25.69-95.88c-4.28.22-8.51,1.9-11.78,5.17l-230.66,230.66Z"/>
  <path class="cls-1" d="m390.7,357.86l-122.56,32.84,45.77,170.81c4.28-.22,8.51-1.9,11.78-5.17l230.66-230.66c3.73-3.73,5.41-8.7,5.17-13.59l-170.81,45.77h0Z"/>
  <path class="cls-1" d="m64.49,313.91c.22,4.28,1.9,8.51,5.17,11.78l230.66,230.66c3.73,3.73,8.7,5.41,13.59,5.17l-78.61-293.37-170.81,45.77Z"/>
  <path class="cls-1" d="m357.86,235.3h0l32.84,122.56,170.81-45.77c-.22-4.28-1.9-8.51-5.17-11.78l-230.66-230.66c-3.73-3.73-8.7-5.41-13.59-5.17l25.69,95.88,20.08,74.93Z"/>
</svg>