<svg width="30" height="29" viewBox="0 0 30 29" fill="none" xmlns="http://www.w3.org/2000/svg">
<path d="M22.509 5.28096C22.1698 5.28096 21.8383 5.38154 21.5562 5.56999C21.2742 5.75844 21.0544 6.02628 20.9246 6.33966C20.7948 6.65303 20.7608 6.99786 20.827 7.33054C20.8932 7.66322 21.0565 7.9688 21.2963 8.20865C21.5362 8.4485 21.8418 8.61183 22.1745 8.67801C22.5071 8.74418 22.852 8.71022 23.1653 8.58041C23.4787 8.45061 23.7466 8.23079 23.935 7.94876C24.1234 7.66673 24.224 7.33516 24.224 6.99596C24.224 6.54111 24.0433 6.1049 23.7217 5.78327C23.4001 5.46165 22.9639 5.28096 22.509 5.28096ZM29.082 8.73496C29.054 7.54911 28.8318 6.37587 28.424 5.26196C28.0611 4.31011 27.4965 3.44805 26.769 2.73496C26.0613 2.00222 25.1961 1.44004 24.239 1.09096C23.128 0.670942 21.9535 0.443677 20.766 0.418961C19.25 0.334961 18.764 0.334961 14.876 0.334961C10.988 0.334961 10.502 0.334961 8.98203 0.420961C7.79456 0.445677 6.62002 0.672941 5.50903 1.09296C4.55499 1.44541 3.69167 2.00638 2.98203 2.73496C2.24929 3.44273 1.68711 4.30788 1.33803 5.26496C0.91903 6.37512 0.692447 7.54861 0.668031 8.73496C0.582031 10.255 0.582031 10.741 0.582031 14.629C0.582031 18.517 0.582031 19.003 0.668031 20.518C0.692747 21.7054 0.920012 22.88 1.34003 23.991C1.6884 24.9482 2.24989 25.8137 2.98203 26.522C3.69233 27.2516 4.55673 27.8133 5.51203 28.166C6.62225 28.5846 7.79574 28.8109 8.98203 28.835C10.497 28.921 10.982 28.921 14.871 28.921C18.76 28.921 19.245 28.921 20.76 28.835C21.9475 28.8102 23.122 28.583 24.233 28.163C25.1901 27.8139 26.0553 27.2517 26.763 26.519C27.4952 25.8079 28.0613 24.944 28.421 23.989C28.8288 22.875 29.051 21.7018 29.079 20.516C29.079 19.001 29.165 18.516 29.165 14.627C29.165 10.738 29.17 10.255 29.082 8.73496ZM26.512 20.347C26.5017 21.2544 26.3373 22.1535 26.026 23.006C25.7978 23.6281 25.4313 24.1902 24.954 24.65C24.4903 25.1224 23.9293 25.4882 23.31 25.722C22.4576 26.0333 21.5585 26.1976 20.651 26.208C19.222 26.279 18.693 26.294 14.933 26.294C11.173 26.294 10.645 26.294 9.21503 26.208C8.2729 26.2255 7.33481 26.0804 6.44203 25.779C5.85007 25.5332 5.31499 25.1683 4.87003 24.707C4.39548 24.2477 4.0334 23.6851 3.81203 23.063C3.46296 22.1984 3.26932 21.2789 3.24003 20.347C3.24003 18.918 3.15403 18.389 3.15403 14.629C3.15403 10.869 3.15403 10.341 3.24003 8.91096C3.24633 7.98333 3.41557 7.06402 3.74003 6.19496C3.99194 5.59167 4.37845 5.05397 4.87003 4.62296C5.30454 4.13159 5.84147 3.74144 6.44303 3.47996C7.31437 3.16555 8.23273 3.00122 9.15903 2.99396C10.588 2.99396 11.117 2.90796 14.877 2.90796C18.637 2.90796 19.165 2.90796 20.595 2.99396C21.5025 3.00433 22.4016 3.16867 23.254 3.47996C23.9033 3.72131 24.4859 4.1134 24.954 4.62396C25.4224 5.06295 25.7884 5.59965 26.026 6.19596C26.3437 7.06642 26.5082 7.98535 26.512 8.91196C26.583 10.341 26.598 10.87 26.598 14.63C26.598 18.39 26.582 18.917 26.512 20.347ZM14.876 7.29596C13.1837 7.30297 11.5461 7.89622 10.242 8.97473C8.93784 10.0532 8.04774 11.5504 7.7232 13.2113C7.39865 14.8722 7.6597 16.5943 8.46193 18.0844C9.26416 19.5745 10.558 20.7405 12.1232 21.3841C13.6884 22.0276 15.4282 22.1089 17.0466 21.614C18.6649 21.1191 20.0618 20.0787 20.9994 18.6698C21.937 17.261 22.3574 15.5707 22.189 13.8868C22.0207 12.2029 21.274 10.6293 20.076 9.43396C19.3925 8.75303 18.5814 8.21368 17.6891 7.8468C16.7968 7.47992 15.8408 7.29273 14.876 7.29596ZM14.876 19.389C13.9346 19.389 13.0143 19.1098 12.2315 18.5868C11.4487 18.0637 10.8386 17.3203 10.4784 16.4505C10.1181 15.5808 10.0238 14.6237 10.2075 13.7003C10.3912 12.777 10.8445 11.9288 11.5102 11.2631C12.1759 10.5974 13.0241 10.1441 13.9474 9.96042C14.8708 9.77676 15.8278 9.87102 16.6976 10.2313C17.5674 10.5916 18.3108 11.2017 18.8338 11.9844C19.3569 12.7672 19.636 13.6875 19.636 14.629C19.636 15.8914 19.1345 17.1021 18.2419 17.9948C17.3492 18.8875 16.1385 19.389 14.876 19.389Z" fill="white"/>
</svg>
