<svg width="32" height="32" viewBox="0 0 32 32" fill="none" xmlns="http://www.w3.org/2000/svg">
<path d="M16.2513 0.988281C13.2239 0.988479 10.2646 1.88639 7.74748 3.56846C5.23039 5.25054 3.26861 7.64123 2.11021 10.4382C0.951812 13.2352 0.648824 16.3129 1.23956 19.2821C1.8303 22.2513 3.28823 24.9787 5.42899 27.1193C7.56975 29.2599 10.2972 30.7177 13.2664 31.3082C16.2357 31.8988 19.3134 31.5956 22.1103 30.437C24.9072 29.2784 27.2978 27.3165 28.9797 24.7993C30.6616 22.2821 31.5593 19.3227 31.5593 16.2953C31.5593 14.2851 31.1634 12.2945 30.394 10.4373C29.6247 8.58012 28.4971 6.89264 27.0756 5.47124C25.6542 4.04984 23.9666 2.92236 22.1094 2.15317C20.2521 1.38398 18.2615 0.98815 16.2513 0.988281ZM12.1673 23.6963H8.80632V12.8383H12.1673V23.6963ZM10.4673 11.4163C10.0712 11.4189 9.68326 11.3038 9.35266 11.0856C9.02206 10.8674 8.76369 10.5559 8.61032 10.1907C8.45695 9.82548 8.41548 9.42295 8.49118 9.03413C8.56687 8.64532 8.75632 8.28774 9.0355 8.00673C9.31468 7.72572 9.67102 7.53394 10.0593 7.45571C10.4476 7.37748 10.8504 7.41633 11.2167 7.56731C11.5829 7.7183 11.896 7.97463 12.1163 8.3038C12.3367 8.63298 12.4543 9.02017 12.4543 9.41628C12.4543 9.94378 12.246 10.4499 11.8746 10.8245C11.5032 11.1991 10.9988 11.4118 10.4713 11.4163H10.4673ZM24.7583 23.6963H21.4193V17.9963C21.4193 16.4333 20.8253 15.5603 19.5893 15.5603C18.2443 15.5603 17.5413 16.4693 17.5413 17.9963V23.6963H14.3193V12.8383H17.5423V14.3003C17.8864 13.7442 18.3686 13.2867 18.942 12.9723C19.5154 12.6579 20.1605 12.4974 20.8143 12.5063C23.1143 12.5063 24.7653 13.9123 24.7653 16.8203L24.7583 23.6963Z" fill="white"/>
</svg>
