<svg width="31" height="32" viewBox="0 0 31 32" fill="none" xmlns="http://www.w3.org/2000/svg">
<path d="M23.1675 29.5525V27.7905C23.1591 26.9077 22.9974 26.033 22.6895 25.2055C24.5464 23.7189 25.8957 21.6922 26.5509 19.4055C27.2061 17.1189 27.1349 14.6852 26.3471 12.4407C25.5593 10.1963 24.0939 8.25195 22.1533 6.87641C20.2127 5.50088 17.8927 4.76206 15.514 4.76206C13.1354 4.76206 10.8154 5.50088 8.8748 6.87641C6.93419 8.25195 5.46874 10.1963 4.68096 12.4407C3.89318 14.6852 3.82197 17.1189 4.47718 19.4055C5.13239 21.6922 6.48167 23.7189 8.33854 25.2055C8.03071 26.033 7.86897 26.9077 7.86054 27.7905V29.5525C4.94238 27.8677 2.6617 25.2671 1.37221 22.154C0.0827247 19.0409 -0.143505 15.5893 0.72861 12.3345C1.60073 9.07974 3.52245 6.20368 6.19573 4.1524C8.869 2.10112 12.1444 0.989258 15.514 0.989258C18.8836 0.989258 22.1591 2.10112 24.8323 4.1524C27.5056 6.20368 29.4273 9.07974 30.2995 12.3345C31.1716 15.5893 30.9453 19.0409 29.6559 22.154C28.3664 25.2671 26.0857 27.8677 23.1675 29.5525ZM15.5135 6.74251C17.4568 6.73581 19.3556 7.32319 20.9556 8.42594C22.5557 9.52868 23.7804 11.0941 24.4658 12.9125C25.1512 14.7308 25.2645 16.7152 24.7904 18.5997C24.3164 20.4842 23.2777 22.1789 21.8135 23.4565C21.0632 22.382 20.05 21.5178 18.8705 20.9465C19.8545 20.2361 20.588 19.2321 20.9656 18.0787C21.3432 16.9253 21.3456 15.6819 20.9722 14.5271C20.5989 13.3723 19.8692 12.3655 18.8879 11.6515C17.9066 10.9374 16.7242 10.5527 15.5105 10.5527C14.2969 10.5527 13.1145 10.9374 12.1332 11.6515C11.1519 12.3655 10.4221 13.3723 10.0488 14.5271C9.67552 15.6819 9.67784 16.9253 10.0555 18.0787C10.4331 19.2321 11.1666 20.2361 12.1505 20.9465C10.9711 21.5183 9.95764 22.3824 9.20654 23.4565C7.74238 22.1789 6.70368 20.4842 6.22965 18.5997C5.75561 16.7152 5.86887 14.7308 6.55426 12.9125C7.23965 11.0941 8.46442 9.52868 10.0644 8.42594C11.6645 7.32319 13.5633 6.73581 15.5065 6.74251H15.5135ZM11.6865 16.3095C11.6865 15.5526 11.911 14.8127 12.3315 14.1833C12.752 13.554 13.3497 13.0635 14.049 12.7738C14.7483 12.4842 15.5178 12.4084 16.2601 12.556C17.0025 12.7037 17.6844 13.0682 18.2196 13.6034C18.7549 14.1386 19.1193 14.8205 19.267 15.5629C19.4147 16.3053 19.3389 17.0747 19.0492 17.774C18.7596 18.4733 18.2691 19.071 17.6397 19.4915C17.0104 19.9121 16.2704 20.1365 15.5135 20.1365C14.4986 20.1362 13.5254 19.733 12.8077 19.0153C12.0901 18.2977 11.6868 17.3244 11.6865 16.3095ZM15.5135 22.0495C17.0359 22.0495 18.4959 22.6543 19.5723 23.7307C20.6488 24.8072 21.2535 26.2672 21.2535 27.7895V31.6165H9.77354V27.7905C9.77354 26.2682 10.3783 24.8082 11.4547 23.7317C12.5312 22.6553 13.9912 22.0505 15.5135 22.0505V22.0495Z" fill="white"/>
</svg>
