<svg width="34" height="29" viewBox="0 0 34 29" fill="none" xmlns="http://www.w3.org/2000/svg">
<path d="M33.8103 4.04011C32.5531 4.58535 31.2237 4.94576 29.8633 5.11011C31.2992 4.25181 32.3747 2.90155 32.8903 1.31011C31.5415 2.11284 30.0652 2.67837 28.5253 2.98211C27.4959 1.86661 26.1254 1.12421 24.6287 0.871273C23.1321 0.618334 21.5938 0.869156 20.2549 1.58442C18.9161 2.29969 17.8525 3.43898 17.2307 4.8237C16.609 6.20842 16.4643 7.76031 16.8193 9.23611C14.0928 9.09869 11.4257 8.38931 8.99119 7.15406C6.55669 5.91881 4.40924 4.1853 2.68828 2.06611C2.08293 3.11954 1.76402 4.31314 1.76328 5.52811C1.76163 6.65549 2.03867 7.76579 2.56974 8.76024C3.10081 9.75469 3.86945 10.6025 4.80728 11.2281C3.71672 11.1985 2.64945 10.9059 1.69628 10.3751V10.4591C1.70463 12.0392 2.25846 13.568 3.2641 14.7869C4.26975 16.0057 5.66549 16.8398 7.21528 17.1481C6.61853 17.3296 5.99898 17.4252 5.37528 17.4321C4.94354 17.4271 4.51286 17.388 4.08728 17.3151C4.52866 18.6743 5.38276 19.8622 6.53073 20.7134C7.6787 21.5645 9.06345 22.0367 10.4923 22.0641C8.07939 23.9625 5.10045 24.9986 2.03028 25.0071C1.47313 25.0098 0.916358 24.9774 0.363281 24.9101C3.49794 26.9341 7.15097 28.0086 10.8823 28.0041C13.457 28.0306 16.0112 27.5439 18.3957 26.5722C20.7802 25.6006 22.9473 24.1636 24.7702 22.3451C26.5931 20.5266 28.0355 18.3631 29.013 15.981C29.9904 13.5989 30.4835 11.0459 30.4633 8.47111V7.58511C31.7756 6.60658 32.9075 5.407 33.8083 4.04011H33.8103Z" fill="white"/>
</svg>
