<svg width="46" height="109" viewBox="0 0 46 109" fill="none" xmlns="http://www.w3.org/2000/svg">
<path d="M4.39844 8.27539C6.60758 8.27539 8.39844 6.48453 8.39844 4.27539C8.39844 2.06625 6.60758 0.275391 4.39844 0.275391C2.1893 0.275391 0.398438 2.06625 0.398438 4.27539C0.398438 6.48453 2.1893 8.27539 4.39844 8.27539Z" fill="#5C8FFF"/>
<path d="M24.3984 8.27539C26.6076 8.27539 28.3984 6.48453 28.3984 4.27539C28.3984 2.06625 26.6076 0.275391 24.3984 0.275391C22.1893 0.275391 20.3984 2.06625 20.3984 4.27539C20.3984 6.48453 22.1893 8.27539 24.3984 8.27539Z" fill="#5C8FFF"/>
<path d="M44.3984 8.27539C46.6076 8.27539 48.3984 6.48453 48.3984 4.27539C48.3984 2.06625 46.6076 0.275391 44.3984 0.275391C42.1893 0.275391 40.3984 2.06625 40.3984 4.27539C40.3984 6.48453 42.1893 8.27539 44.3984 8.27539Z" fill="#5C8FFF"/>
<path d="M4.39844 28.2754C6.60758 28.2754 8.39844 26.4845 8.39844 24.2754C8.39844 22.0663 6.60758 20.2754 4.39844 20.2754C2.1893 20.2754 0.398438 22.0663 0.398438 24.2754C0.398438 26.4845 2.1893 28.2754 4.39844 28.2754Z" fill="#5C8FFF"/>
<path d="M24.3984 28.2754C26.6076 28.2754 28.3984 26.4845 28.3984 24.2754C28.3984 22.0663 26.6076 20.2754 24.3984 20.2754C22.1893 20.2754 20.3984 22.0663 20.3984 24.2754C20.3984 26.4845 22.1893 28.2754 24.3984 28.2754Z" fill="#5C8FFF"/>
<path d="M44.3984 28.2754C46.6076 28.2754 48.3984 26.4845 48.3984 24.2754C48.3984 22.0663 46.6076 20.2754 44.3984 20.2754C42.1893 20.2754 40.3984 22.0663 40.3984 24.2754C40.3984 26.4845 42.1893 28.2754 44.3984 28.2754Z" fill="#5C8FFF"/>
<path d="M4.39844 48.2754C6.60758 48.2754 8.39844 46.4845 8.39844 44.2754C8.39844 42.0663 6.60758 40.2754 4.39844 40.2754C2.1893 40.2754 0.398438 42.0663 0.398438 44.2754C0.398438 46.4845 2.1893 48.2754 4.39844 48.2754Z" fill="#5C8FFF"/>
<path d="M24.3984 48.2754C26.6076 48.2754 28.3984 46.4845 28.3984 44.2754C28.3984 42.0663 26.6076 40.2754 24.3984 40.2754C22.1893 40.2754 20.3984 42.0663 20.3984 44.2754C20.3984 46.4845 22.1893 48.2754 24.3984 48.2754Z" fill="#5C8FFF"/>
<path d="M44.3984 48.2754C46.6076 48.2754 48.3984 46.4845 48.3984 44.2754C48.3984 42.0663 46.6076 40.2754 44.3984 40.2754C42.1893 40.2754 40.3984 42.0663 40.3984 44.2754C40.3984 46.4845 42.1893 48.2754 44.3984 48.2754Z" fill="#5C8FFF"/>
<path d="M4.39844 68.2754C6.60758 68.2754 8.39844 66.4845 8.39844 64.2754C8.39844 62.0663 6.60758 60.2754 4.39844 60.2754C2.1893 60.2754 0.398438 62.0663 0.398438 64.2754C0.398438 66.4845 2.1893 68.2754 4.39844 68.2754Z" fill="#5C8FFF"/>
<path d="M24.3984 68.2754C26.6076 68.2754 28.3984 66.4845 28.3984 64.2754C28.3984 62.0663 26.6076 60.2754 24.3984 60.2754C22.1893 60.2754 20.3984 62.0663 20.3984 64.2754C20.3984 66.4845 22.1893 68.2754 24.3984 68.2754Z" fill="#5C8FFF"/>
<path d="M44.3984 68.2754C46.6076 68.2754 48.3984 66.4845 48.3984 64.2754C48.3984 62.0663 46.6076 60.2754 44.3984 60.2754C42.1893 60.2754 40.3984 62.0663 40.3984 64.2754C40.3984 66.4845 42.1893 68.2754 44.3984 68.2754Z" fill="#5C8FFF"/>
<path d="M4.39844 88.2754C6.60758 88.2754 8.39844 86.4845 8.39844 84.2754C8.39844 82.0663 6.60758 80.2754 4.39844 80.2754C2.1893 80.2754 0.398438 82.0663 0.398438 84.2754C0.398438 86.4845 2.1893 88.2754 4.39844 88.2754Z" fill="#5C8FFF"/>
<path d="M24.3984 88.2754C26.6076 88.2754 28.3984 86.4845 28.3984 84.2754C28.3984 82.0663 26.6076 80.2754 24.3984 80.2754C22.1893 80.2754 20.3984 82.0663 20.3984 84.2754C20.3984 86.4845 22.1893 88.2754 24.3984 88.2754Z" fill="#5C8FFF"/>
<path d="M44.3984 88.2754C46.6076 88.2754 48.3984 86.4845 48.3984 84.2754C48.3984 82.0663 46.6076 80.2754 44.3984 80.2754C42.1893 80.2754 40.3984 82.0663 40.3984 84.2754C40.3984 86.4845 42.1893 88.2754 44.3984 88.2754Z" fill="#5C8FFF"/>
<path d="M4.39844 108.275C6.60758 108.275 8.39844 106.485 8.39844 104.275C8.39844 102.066 6.60758 100.275 4.39844 100.275C2.1893 100.275 0.398438 102.066 0.398438 104.275C0.398438 106.485 2.1893 108.275 4.39844 108.275Z" fill="#5C8FFF"/>
<path d="M24.3984 108.275C26.6076 108.275 28.3984 106.485 28.3984 104.275C28.3984 102.066 26.6076 100.275 24.3984 100.275C22.1893 100.275 20.3984 102.066 20.3984 104.275C20.3984 106.485 22.1893 108.275 24.3984 108.275Z" fill="#5C8FFF"/>
<path d="M44.3984 108.275C46.6076 108.275 48.3984 106.485 48.3984 104.275C48.3984 102.066 46.6076 100.275 44.3984 100.275C42.1893 100.275 40.3984 102.066 40.3984 104.275C40.3984 106.485 42.1893 108.275 44.3984 108.275Z" fill="#5C8FFF"/>
</svg>
