<svg width="69" height="109" viewBox="0 0 69 109" fill="none" xmlns="http://www.w3.org/2000/svg">
<path d="M4.39844 8.27588C6.60758 8.27588 8.39844 6.48502 8.39844 4.27588C8.39844 2.06674 6.60758 0.275879 4.39844 0.275879C2.1893 0.275879 0.398438 2.06674 0.398438 4.27588C0.398438 6.48502 2.1893 8.27588 4.39844 8.27588Z" fill="#0057FF"/>
<path d="M24.3984 8.27588C26.6076 8.27588 28.3984 6.48502 28.3984 4.27588C28.3984 2.06674 26.6076 0.275879 24.3984 0.275879C22.1893 0.275879 20.3984 2.06674 20.3984 4.27588C20.3984 6.48502 22.1893 8.27588 24.3984 8.27588Z" fill="#0057FF"/>
<path d="M44.3984 8.27588C46.6076 8.27588 48.3984 6.48502 48.3984 4.27588C48.3984 2.06674 46.6076 0.275879 44.3984 0.275879C42.1893 0.275879 40.3984 2.06674 40.3984 4.27588C40.3984 6.48502 42.1893 8.27588 44.3984 8.27588Z" fill="#0057FF"/>
<path d="M64.3984 8.27588C66.6076 8.27588 68.3984 6.48502 68.3984 4.27588C68.3984 2.06674 66.6076 0.275879 64.3984 0.275879C62.1893 0.275879 60.3984 2.06674 60.3984 4.27588C60.3984 6.48502 62.1893 8.27588 64.3984 8.27588Z" fill="#0057FF"/>
<path d="M4.39844 28.2759C6.60758 28.2759 8.39844 26.485 8.39844 24.2759C8.39844 22.0667 6.60758 20.2759 4.39844 20.2759C2.1893 20.2759 0.398438 22.0667 0.398438 24.2759C0.398438 26.485 2.1893 28.2759 4.39844 28.2759Z" fill="#0057FF"/>
<path d="M24.3984 28.2759C26.6076 28.2759 28.3984 26.485 28.3984 24.2759C28.3984 22.0667 26.6076 20.2759 24.3984 20.2759C22.1893 20.2759 20.3984 22.0667 20.3984 24.2759C20.3984 26.485 22.1893 28.2759 24.3984 28.2759Z" fill="#0057FF"/>
<path d="M44.3984 28.2759C46.6076 28.2759 48.3984 26.485 48.3984 24.2759C48.3984 22.0667 46.6076 20.2759 44.3984 20.2759C42.1893 20.2759 40.3984 22.0667 40.3984 24.2759C40.3984 26.485 42.1893 28.2759 44.3984 28.2759Z" fill="#0057FF"/>
<path d="M64.3984 28.2759C66.6076 28.2759 68.3984 26.485 68.3984 24.2759C68.3984 22.0667 66.6076 20.2759 64.3984 20.2759C62.1893 20.2759 60.3984 22.0667 60.3984 24.2759C60.3984 26.485 62.1893 28.2759 64.3984 28.2759Z" fill="#0057FF"/>
<path d="M4.39844 48.2759C6.60758 48.2759 8.39844 46.485 8.39844 44.2759C8.39844 42.0667 6.60758 40.2759 4.39844 40.2759C2.1893 40.2759 0.398438 42.0667 0.398438 44.2759C0.398438 46.485 2.1893 48.2759 4.39844 48.2759Z" fill="#0057FF"/>
<path d="M24.3984 48.2759C26.6076 48.2759 28.3984 46.485 28.3984 44.2759C28.3984 42.0667 26.6076 40.2759 24.3984 40.2759C22.1893 40.2759 20.3984 42.0667 20.3984 44.2759C20.3984 46.485 22.1893 48.2759 24.3984 48.2759Z" fill="#0057FF"/>
<path d="M44.3984 48.2759C46.6076 48.2759 48.3984 46.485 48.3984 44.2759C48.3984 42.0667 46.6076 40.2759 44.3984 40.2759C42.1893 40.2759 40.3984 42.0667 40.3984 44.2759C40.3984 46.485 42.1893 48.2759 44.3984 48.2759Z" fill="#0057FF"/>
<path d="M64.3984 48.2759C66.6076 48.2759 68.3984 46.485 68.3984 44.2759C68.3984 42.0667 66.6076 40.2759 64.3984 40.2759C62.1893 40.2759 60.3984 42.0667 60.3984 44.2759C60.3984 46.485 62.1893 48.2759 64.3984 48.2759Z" fill="#0057FF"/>
<path d="M4.39844 68.2759C6.60758 68.2759 8.39844 66.485 8.39844 64.2759C8.39844 62.0667 6.60758 60.2759 4.39844 60.2759C2.1893 60.2759 0.398438 62.0667 0.398438 64.2759C0.398438 66.485 2.1893 68.2759 4.39844 68.2759Z" fill="#0057FF"/>
<path d="M24.3984 68.2759C26.6076 68.2759 28.3984 66.485 28.3984 64.2759C28.3984 62.0667 26.6076 60.2759 24.3984 60.2759C22.1893 60.2759 20.3984 62.0667 20.3984 64.2759C20.3984 66.485 22.1893 68.2759 24.3984 68.2759Z" fill="#0057FF"/>
<path d="M44.3984 68.2759C46.6076 68.2759 48.3984 66.485 48.3984 64.2759C48.3984 62.0667 46.6076 60.2759 44.3984 60.2759C42.1893 60.2759 40.3984 62.0667 40.3984 64.2759C40.3984 66.485 42.1893 68.2759 44.3984 68.2759Z" fill="#0057FF"/>
<path d="M64.3984 68.2759C66.6076 68.2759 68.3984 66.485 68.3984 64.2759C68.3984 62.0667 66.6076 60.2759 64.3984 60.2759C62.1893 60.2759 60.3984 62.0667 60.3984 64.2759C60.3984 66.485 62.1893 68.2759 64.3984 68.2759Z" fill="#0057FF"/>
<path d="M4.39844 88.2759C6.60758 88.2759 8.39844 86.485 8.39844 84.2759C8.39844 82.0667 6.60758 80.2759 4.39844 80.2759C2.1893 80.2759 0.398438 82.0667 0.398438 84.2759C0.398438 86.485 2.1893 88.2759 4.39844 88.2759Z" fill="#0057FF"/>
<path d="M24.3984 88.2759C26.6076 88.2759 28.3984 86.485 28.3984 84.2759C28.3984 82.0667 26.6076 80.2759 24.3984 80.2759C22.1893 80.2759 20.3984 82.0667 20.3984 84.2759C20.3984 86.485 22.1893 88.2759 24.3984 88.2759Z" fill="#0057FF"/>
<path d="M44.3984 88.2759C46.6076 88.2759 48.3984 86.485 48.3984 84.2759C48.3984 82.0667 46.6076 80.2759 44.3984 80.2759C42.1893 80.2759 40.3984 82.0667 40.3984 84.2759C40.3984 86.485 42.1893 88.2759 44.3984 88.2759Z" fill="#0057FF"/>
<path d="M64.3984 88.2759C66.6076 88.2759 68.3984 86.485 68.3984 84.2759C68.3984 82.0667 66.6076 80.2759 64.3984 80.2759C62.1893 80.2759 60.3984 82.0667 60.3984 84.2759C60.3984 86.485 62.1893 88.2759 64.3984 88.2759Z" fill="#0057FF"/>
<path d="M4.39844 108.276C6.60758 108.276 8.39844 106.485 8.39844 104.276C8.39844 102.067 6.60758 100.276 4.39844 100.276C2.1893 100.276 0.398438 102.067 0.398438 104.276C0.398438 106.485 2.1893 108.276 4.39844 108.276Z" fill="#0057FF"/>
<path d="M24.3984 108.276C26.6076 108.276 28.3984 106.485 28.3984 104.276C28.3984 102.067 26.6076 100.276 24.3984 100.276C22.1893 100.276 20.3984 102.067 20.3984 104.276C20.3984 106.485 22.1893 108.276 24.3984 108.276Z" fill="#0057FF"/>
<path d="M44.3984 108.276C46.6076 108.276 48.3984 106.485 48.3984 104.276C48.3984 102.067 46.6076 100.276 44.3984 100.276C42.1893 100.276 40.3984 102.067 40.3984 104.276C40.3984 106.485 42.1893 108.276 44.3984 108.276Z" fill="#0057FF"/>
<path d="M64.3984 108.276C66.6076 108.276 68.3984 106.485 68.3984 104.276C68.3984 102.067 66.6076 100.276 64.3984 100.276C62.1893 100.276 60.3984 102.067 60.3984 104.276C60.3984 106.485 62.1893 108.276 64.3984 108.276Z" fill="#0057FF"/>
</svg>
