<svg width="129" height="109" viewBox="0 0 129 109" fill="none" xmlns="http://www.w3.org/2000/svg">
<path d="M4.39844 8.27539C6.60758 8.27539 8.39844 6.48453 8.39844 4.27539C8.39844 2.06625 6.60758 0.275391 4.39844 0.275391C2.1893 0.275391 0.398438 2.06625 0.398438 4.27539C0.398438 6.48453 2.1893 8.27539 4.39844 8.27539Z" fill="#6096FF"/>
<path d="M24.3984 8.27539C26.6076 8.27539 28.3984 6.48453 28.3984 4.27539C28.3984 2.06625 26.6076 0.275391 24.3984 0.275391C22.1893 0.275391 20.3984 2.06625 20.3984 4.27539C20.3984 6.48453 22.1893 8.27539 24.3984 8.27539Z" fill="#6096FF"/>
<path d="M44.3984 8.27539C46.6076 8.27539 48.3984 6.48453 48.3984 4.27539C48.3984 2.06625 46.6076 0.275391 44.3984 0.275391C42.1893 0.275391 40.3984 2.06625 40.3984 4.27539C40.3984 6.48453 42.1893 8.27539 44.3984 8.27539Z" fill="#6096FF"/>
<path d="M64.3984 8.27539C66.6076 8.27539 68.3984 6.48453 68.3984 4.27539C68.3984 2.06625 66.6076 0.275391 64.3984 0.275391C62.1893 0.275391 60.3984 2.06625 60.3984 4.27539C60.3984 6.48453 62.1893 8.27539 64.3984 8.27539Z" fill="#6096FF"/>
<path d="M84.3984 8.27539C86.6076 8.27539 88.3984 6.48453 88.3984 4.27539C88.3984 2.06625 86.6076 0.275391 84.3984 0.275391C82.1893 0.275391 80.3984 2.06625 80.3984 4.27539C80.3984 6.48453 82.1893 8.27539 84.3984 8.27539Z" fill="#6096FF"/>
<path d="M104.398 8.27539C106.608 8.27539 108.398 6.48453 108.398 4.27539C108.398 2.06625 106.608 0.275391 104.398 0.275391C102.189 0.275391 100.398 2.06625 100.398 4.27539C100.398 6.48453 102.189 8.27539 104.398 8.27539Z" fill="#6096FF"/>
<path d="M124.398 8.27539C126.608 8.27539 128.398 6.48453 128.398 4.27539C128.398 2.06625 126.608 0.275391 124.398 0.275391C122.189 0.275391 120.398 2.06625 120.398 4.27539C120.398 6.48453 122.189 8.27539 124.398 8.27539Z" fill="#6096FF"/>
<path d="M4.39844 28.2754C6.60758 28.2754 8.39844 26.4845 8.39844 24.2754C8.39844 22.0663 6.60758 20.2754 4.39844 20.2754C2.1893 20.2754 0.398438 22.0663 0.398438 24.2754C0.398438 26.4845 2.1893 28.2754 4.39844 28.2754Z" fill="#6096FF"/>
<path d="M24.3984 28.2754C26.6076 28.2754 28.3984 26.4845 28.3984 24.2754C28.3984 22.0663 26.6076 20.2754 24.3984 20.2754C22.1893 20.2754 20.3984 22.0663 20.3984 24.2754C20.3984 26.4845 22.1893 28.2754 24.3984 28.2754Z" fill="#6096FF"/>
<path d="M44.3984 28.2754C46.6076 28.2754 48.3984 26.4845 48.3984 24.2754C48.3984 22.0663 46.6076 20.2754 44.3984 20.2754C42.1893 20.2754 40.3984 22.0663 40.3984 24.2754C40.3984 26.4845 42.1893 28.2754 44.3984 28.2754Z" fill="#6096FF"/>
<path d="M64.3984 28.2754C66.6076 28.2754 68.3984 26.4845 68.3984 24.2754C68.3984 22.0663 66.6076 20.2754 64.3984 20.2754C62.1893 20.2754 60.3984 22.0663 60.3984 24.2754C60.3984 26.4845 62.1893 28.2754 64.3984 28.2754Z" fill="#6096FF"/>
<path d="M84.3984 28.2754C86.6076 28.2754 88.3984 26.4845 88.3984 24.2754C88.3984 22.0663 86.6076 20.2754 84.3984 20.2754C82.1893 20.2754 80.3984 22.0663 80.3984 24.2754C80.3984 26.4845 82.1893 28.2754 84.3984 28.2754Z" fill="#6096FF"/>
<path d="M104.398 28.2754C106.608 28.2754 108.398 26.4845 108.398 24.2754C108.398 22.0663 106.608 20.2754 104.398 20.2754C102.189 20.2754 100.398 22.0663 100.398 24.2754C100.398 26.4845 102.189 28.2754 104.398 28.2754Z" fill="#6096FF"/>
<path d="M124.398 28.2754C126.608 28.2754 128.398 26.4845 128.398 24.2754C128.398 22.0663 126.608 20.2754 124.398 20.2754C122.189 20.2754 120.398 22.0663 120.398 24.2754C120.398 26.4845 122.189 28.2754 124.398 28.2754Z" fill="#6096FF"/>
<path d="M4.39844 48.2754C6.60758 48.2754 8.39844 46.4845 8.39844 44.2754C8.39844 42.0663 6.60758 40.2754 4.39844 40.2754C2.1893 40.2754 0.398438 42.0663 0.398438 44.2754C0.398438 46.4845 2.1893 48.2754 4.39844 48.2754Z" fill="#6096FF"/>
<path d="M24.3984 48.2754C26.6076 48.2754 28.3984 46.4845 28.3984 44.2754C28.3984 42.0663 26.6076 40.2754 24.3984 40.2754C22.1893 40.2754 20.3984 42.0663 20.3984 44.2754C20.3984 46.4845 22.1893 48.2754 24.3984 48.2754Z" fill="#6096FF"/>
<path d="M44.3984 48.2754C46.6076 48.2754 48.3984 46.4845 48.3984 44.2754C48.3984 42.0663 46.6076 40.2754 44.3984 40.2754C42.1893 40.2754 40.3984 42.0663 40.3984 44.2754C40.3984 46.4845 42.1893 48.2754 44.3984 48.2754Z" fill="#6096FF"/>
<path d="M64.3984 48.2754C66.6076 48.2754 68.3984 46.4845 68.3984 44.2754C68.3984 42.0663 66.6076 40.2754 64.3984 40.2754C62.1893 40.2754 60.3984 42.0663 60.3984 44.2754C60.3984 46.4845 62.1893 48.2754 64.3984 48.2754Z" fill="#6096FF"/>
<path d="M84.3984 48.2754C86.6076 48.2754 88.3984 46.4845 88.3984 44.2754C88.3984 42.0663 86.6076 40.2754 84.3984 40.2754C82.1893 40.2754 80.3984 42.0663 80.3984 44.2754C80.3984 46.4845 82.1893 48.2754 84.3984 48.2754Z" fill="#6096FF"/>
<path d="M104.398 48.2754C106.608 48.2754 108.398 46.4845 108.398 44.2754C108.398 42.0663 106.608 40.2754 104.398 40.2754C102.189 40.2754 100.398 42.0663 100.398 44.2754C100.398 46.4845 102.189 48.2754 104.398 48.2754Z" fill="#6096FF"/>
<path d="M124.398 48.2754C126.608 48.2754 128.398 46.4845 128.398 44.2754C128.398 42.0663 126.608 40.2754 124.398 40.2754C122.189 40.2754 120.398 42.0663 120.398 44.2754C120.398 46.4845 122.189 48.2754 124.398 48.2754Z" fill="#6096FF"/>
<path d="M4.39844 68.2754C6.60758 68.2754 8.39844 66.4845 8.39844 64.2754C8.39844 62.0663 6.60758 60.2754 4.39844 60.2754C2.1893 60.2754 0.398438 62.0663 0.398438 64.2754C0.398438 66.4845 2.1893 68.2754 4.39844 68.2754Z" fill="#6096FF"/>
<path d="M24.3984 68.2754C26.6076 68.2754 28.3984 66.4845 28.3984 64.2754C28.3984 62.0663 26.6076 60.2754 24.3984 60.2754C22.1893 60.2754 20.3984 62.0663 20.3984 64.2754C20.3984 66.4845 22.1893 68.2754 24.3984 68.2754Z" fill="#6096FF"/>
<path d="M44.3984 68.2754C46.6076 68.2754 48.3984 66.4845 48.3984 64.2754C48.3984 62.0663 46.6076 60.2754 44.3984 60.2754C42.1893 60.2754 40.3984 62.0663 40.3984 64.2754C40.3984 66.4845 42.1893 68.2754 44.3984 68.2754Z" fill="#6096FF"/>
<path d="M64.3984 68.2754C66.6076 68.2754 68.3984 66.4845 68.3984 64.2754C68.3984 62.0663 66.6076 60.2754 64.3984 60.2754C62.1893 60.2754 60.3984 62.0663 60.3984 64.2754C60.3984 66.4845 62.1893 68.2754 64.3984 68.2754Z" fill="#6096FF"/>
<path d="M84.3984 68.2754C86.6076 68.2754 88.3984 66.4845 88.3984 64.2754C88.3984 62.0663 86.6076 60.2754 84.3984 60.2754C82.1893 60.2754 80.3984 62.0663 80.3984 64.2754C80.3984 66.4845 82.1893 68.2754 84.3984 68.2754Z" fill="#6096FF"/>
<path d="M104.398 68.2754C106.608 68.2754 108.398 66.4845 108.398 64.2754C108.398 62.0663 106.608 60.2754 104.398 60.2754C102.189 60.2754 100.398 62.0663 100.398 64.2754C100.398 66.4845 102.189 68.2754 104.398 68.2754Z" fill="#6096FF"/>
<path d="M124.398 68.2754C126.608 68.2754 128.398 66.4845 128.398 64.2754C128.398 62.0663 126.608 60.2754 124.398 60.2754C122.189 60.2754 120.398 62.0663 120.398 64.2754C120.398 66.4845 122.189 68.2754 124.398 68.2754Z" fill="#6096FF"/>
<path d="M4.39844 88.2754C6.60758 88.2754 8.39844 86.4845 8.39844 84.2754C8.39844 82.0663 6.60758 80.2754 4.39844 80.2754C2.1893 80.2754 0.398438 82.0663 0.398438 84.2754C0.398438 86.4845 2.1893 88.2754 4.39844 88.2754Z" fill="#6096FF"/>
<path d="M24.3984 88.2754C26.6076 88.2754 28.3984 86.4845 28.3984 84.2754C28.3984 82.0663 26.6076 80.2754 24.3984 80.2754C22.1893 80.2754 20.3984 82.0663 20.3984 84.2754C20.3984 86.4845 22.1893 88.2754 24.3984 88.2754Z" fill="#6096FF"/>
<path d="M44.3984 88.2754C46.6076 88.2754 48.3984 86.4845 48.3984 84.2754C48.3984 82.0663 46.6076 80.2754 44.3984 80.2754C42.1893 80.2754 40.3984 82.0663 40.3984 84.2754C40.3984 86.4845 42.1893 88.2754 44.3984 88.2754Z" fill="#6096FF"/>
<path d="M64.3984 88.2754C66.6076 88.2754 68.3984 86.4845 68.3984 84.2754C68.3984 82.0663 66.6076 80.2754 64.3984 80.2754C62.1893 80.2754 60.3984 82.0663 60.3984 84.2754C60.3984 86.4845 62.1893 88.2754 64.3984 88.2754Z" fill="#6096FF"/>
<path d="M84.3984 88.2754C86.6076 88.2754 88.3984 86.4845 88.3984 84.2754C88.3984 82.0663 86.6076 80.2754 84.3984 80.2754C82.1893 80.2754 80.3984 82.0663 80.3984 84.2754C80.3984 86.4845 82.1893 88.2754 84.3984 88.2754Z" fill="#6096FF"/>
<path d="M104.398 88.2754C106.608 88.2754 108.398 86.4845 108.398 84.2754C108.398 82.0663 106.608 80.2754 104.398 80.2754C102.189 80.2754 100.398 82.0663 100.398 84.2754C100.398 86.4845 102.189 88.2754 104.398 88.2754Z" fill="#6096FF"/>
<path d="M124.398 88.2754C126.608 88.2754 128.398 86.4845 128.398 84.2754C128.398 82.0663 126.608 80.2754 124.398 80.2754C122.189 80.2754 120.398 82.0663 120.398 84.2754C120.398 86.4845 122.189 88.2754 124.398 88.2754Z" fill="#6096FF"/>
<path d="M4.39844 108.275C6.60758 108.275 8.39844 106.485 8.39844 104.275C8.39844 102.066 6.60758 100.275 4.39844 100.275C2.1893 100.275 0.398438 102.066 0.398438 104.275C0.398438 106.485 2.1893 108.275 4.39844 108.275Z" fill="#6096FF"/>
<path d="M24.3984 108.275C26.6076 108.275 28.3984 106.485 28.3984 104.275C28.3984 102.066 26.6076 100.275 24.3984 100.275C22.1893 100.275 20.3984 102.066 20.3984 104.275C20.3984 106.485 22.1893 108.275 24.3984 108.275Z" fill="#6096FF"/>
<path d="M44.3984 108.275C46.6076 108.275 48.3984 106.485 48.3984 104.275C48.3984 102.066 46.6076 100.275 44.3984 100.275C42.1893 100.275 40.3984 102.066 40.3984 104.275C40.3984 106.485 42.1893 108.275 44.3984 108.275Z" fill="#6096FF"/>
<path d="M64.3984 108.275C66.6076 108.275 68.3984 106.485 68.3984 104.275C68.3984 102.066 66.6076 100.275 64.3984 100.275C62.1893 100.275 60.3984 102.066 60.3984 104.275C60.3984 106.485 62.1893 108.275 64.3984 108.275Z" fill="#6096FF"/>
<path d="M84.3984 108.275C86.6076 108.275 88.3984 106.485 88.3984 104.275C88.3984 102.066 86.6076 100.275 84.3984 100.275C82.1893 100.275 80.3984 102.066 80.3984 104.275C80.3984 106.485 82.1893 108.275 84.3984 108.275Z" fill="#6096FF"/>
<path d="M104.398 108.275C106.608 108.275 108.398 106.485 108.398 104.275C108.398 102.066 106.608 100.275 104.398 100.275C102.189 100.275 100.398 102.066 100.398 104.275C100.398 106.485 102.189 108.275 104.398 108.275Z" fill="#6096FF"/>
<path d="M124.398 108.275C126.608 108.275 128.398 106.485 128.398 104.275C128.398 102.066 126.608 100.275 124.398 100.275C122.189 100.275 120.398 102.066 120.398 104.275C120.398 106.485 122.189 108.275 124.398 108.275Z" fill="#6096FF"/>
</svg>
