<svg width="1211" height="581" viewBox="0 0 1211 581" fill="none" xmlns="http://www.w3.org/2000/svg">
<path d="M110.253 515.552C187.5 553.114 288.964 601.92 457 570.614C625.036 539.308 615.262 478.622 680 439.114C744.738 399.606 833.501 348.008 860.289 279.16C887.077 210.312 869.666 139.231 837.114 114.169C804.562 89.1065 814.9 1.94846 644.5 3.61446C474.1 5.28046 398.258 80.6984 269 83.1144C139.742 85.5304 47.2971 120.776 14.5111 228.286C-18.2749 335.796 0.755203 443.516 110.253 515.552Z" fill="url(#paint0_linear_4704_25803)"/>
<path d="M1199.75 260.589C1217.88 185.466 1240.43 203.217 1007.84 85.0287C775.244 -33.1592 605.331 -8.92558 467.191 42.7505C329.052 94.4265 275.954 80.9229 232.02 147.724C149.031 205.046 318.339 235.031 369.018 351.559C397.399 416.812 378.585 214.755 482.952 207.148C565.101 201.16 826.12 187.664 826.12 187.664C826.12 187.664 1181.63 335.712 1199.75 260.589Z" fill="url(#paint1_linear_4704_25803)"/>
<defs>
<linearGradient id="paint0_linear_4704_25803" x1="617.336" y1="56.3801" x2="728.529" y2="532.881" gradientUnits="userSpaceOnUse">
<stop stop-color="#F0F5FF"/>
<stop offset="0.506762" stop-color="#EFF4FF"/>
<stop offset="0.970838" stop-color="white"/>
</linearGradient>
<linearGradient id="paint1_linear_4704_25803" x1="767.493" y1="69.0981" x2="280.438" y2="388.443" gradientUnits="userSpaceOnUse">
<stop stop-color="#EDF3FF"/>
<stop offset="1" stop-color="#EDF3FF" stop-opacity="0"/>
</linearGradient>
</defs>
</svg>
