<svg width="1211" height="581" viewBox="0 0 1211 581" fill="none" xmlns="http://www.w3.org/2000/svg">
<path d="M1199.75 260.976C1217.88 185.852 1240.43 203.603 1007.83 85.4151C775.23 -32.7729 605.33 -8.53895 467.189 43.1371C329.048 94.813 275.952 81.3091 232.018 148.11C149.029 205.433 318.337 235.418 369.018 351.945C397.399 417.199 378.585 215.145 482.952 207.534C565.101 201.547 826.12 188.05 826.12 188.05C826.12 188.05 1181.62 336.101 1199.75 260.976Z" fill="#27334D"/>
<path d="M110.253 515.939C187.5 553.501 288.964 602.307 457 571.001C625.036 539.695 615.262 479.009 680 439.501C744.738 399.993 833.5 348.395 860.289 279.547C887.078 210.699 869.666 139.617 837.114 114.555C804.562 89.493 814.9 2.33504 644.5 4.00104C474.1 5.66704 398.258 81.085 269 83.501C139.742 85.917 47.3 121.163 14.511 228.673C-18.278 336.183 0.754997 443.901 110.253 515.939Z" fill="url(#paint0_linear_5_8)"/>
<defs>
<linearGradient id="paint0_linear_5_8" x1="436.713" y1="3.97748" x2="449.307" y2="426.27" gradientUnits="userSpaceOnUse">
<stop stop-color="#27334D"/>
<stop offset="1" stop-color="#252E40"/>
</linearGradient>
</defs>
</svg>
