<svg width="1348" height="832" viewBox="0 0 1348 832" fill="none" xmlns="http://www.w3.org/2000/svg">
<path d="M1145.46 301.787L730.31 396.421V607.737C730.31 607.737 248.14 606.937 0.140137 607.728C47.1301 658.175 190.99 834.028 416.19 831.036C641.39 828.044 794.27 772.198 958.92 797.261C1123.57 822.324 1233.06 617.729 1233.06 617.729L1145.46 301.787Z" fill="#27334D"/>
<path d="M1213.36 84.659C1072.69 -27.834 909.06 -11.802 748.25 38.507C587.44 88.816 570.38 175.591 488.96 232.789C407.54 289.987 295.74 327.427 262.05 427.101C228.36 526.775 250.26 629.683 291.2 665.966C332.14 702.249 382.84 764.317 597.14 761.906C811.44 759.495 808 767.501 968.5 781.001C1027 857.001 1312.24 653.101 1336.31 498.572C1360.38 344.043 1354.04 197.152 1213.36 84.659Z" fill="url(#paint0_linear_5_9)"/>
<defs>
<linearGradient id="paint0_linear_5_9" x1="796.32" y1="231.252" x2="796.32" y2="797.42" gradientUnits="userSpaceOnUse">
<stop stop-color="#262E41"/>
<stop offset="1" stop-color="#27334D"/>
</linearGradient>
</defs>
</svg>
