<svg xmlns="http://www.w3.org/2000/svg" xmlns:xlink="http://www.w3.org/1999/xlink" width="2785" height="905" viewBox="0 0 2785 905">
  <defs>
    <linearGradient id="linear-gradient" x1="0.5" y1="0.29" x2="0.5" y2="1" gradientUnits="objectBoundingBox">
      <stop offset="0" stop-color="#262e41"/>
      <stop offset="1" stop-color="#27334d"/>
    </linearGradient>
    <linearGradient id="linear-gradient-2" x1="0.5" x2="0.533" y2="0.731" gradientUnits="objectBoundingBox">
      <stop offset="0" stop-color="#27334d"/>
      <stop offset="1" stop-color="#252e40"/>
    </linearGradient>
  </defs>
  <g id="Hintergrund_cloud_blau" transform="translate(0 -72.999)">
    <path id="Pfad_7653" data-name="Pfad 7653" d="M1199.75,412.975c18.13-75.124,40.68-57.373-191.92-175.561s-402.5-93.954-540.641-42.278S275.952,233.308,232.018,300.109c-82.989,57.323,86.319,87.308,137,203.835,28.381,65.254,9.567-136.8,113.934-144.411,82.149-5.987,343.168-19.484,343.168-19.484S1181.62,488.1,1199.75,412.975Z" fill="#27334d"/>
    <path id="Pfad_7654" data-name="Pfad 7654" d="M2582.46,374.786,2167.31,469.42V680.736s-482.17-.8-730.17-.009c46.99,50.447,190.85,226.3,416.05,223.308s378.08-58.838,542.73-33.775,274.14-179.532,274.14-179.532Z" fill="#27334d"/>
    <path id="Pfad_7655" data-name="Pfad 7655" d="M2650.36,157.658c-140.67-112.493-304.3-96.461-465.11-46.152S2007.38,248.59,1925.96,305.788,1732.74,400.426,1699.05,500.1s-11.79,202.582,29.15,238.865,91.64,98.351,305.94,95.94S2245,840.5,2405.5,854c58.5,76,343.74-127.9,367.81-282.429S2791.04,270.151,2650.36,157.658Z" fill="url(#linear-gradient)"/>
    <path id="Pfad_7656" data-name="Pfad 7656" d="M110.253,667.938C187.5,705.5,288.964,754.306,457,723s158.262-91.992,223-131.5,153.5-91.106,180.289-159.954,9.377-139.93-23.175-164.992S814.9,154.334,644.5,156,398.258,233.084,269,235.5,47.3,273.162,14.511,380.672.755,595.9,110.253,667.938Z" fill="url(#linear-gradient-2)"/>
  </g>
</svg>
