<svg width="1348" height="832" viewBox="0 0 1348 832" fill="none" xmlns="http://www.w3.org/2000/svg">
<path d="M1145.46 302.4L730.31 397.034V608.35C730.31 608.35 248.138 607.55 0.136719 608.341C47.1307 658.788 190.985 834.641 416.19 831.649C641.395 828.657 794.27 772.811 958.916 797.874C1123.56 822.937 1233.06 618.342 1233.06 618.342L1145.46 302.4Z" fill="url(#paint0_linear_4704_25804)"/>
<path d="M1213.37 85.2726C1072.69 -27.2204 909.058 -11.1885 748.253 39.1205C587.448 89.4295 570.384 176.205 488.967 233.403C407.55 290.601 295.742 328.041 262.053 427.715C228.364 527.389 250.261 630.297 291.198 666.58C332.135 702.863 382.846 764.931 597.143 762.52C811.44 760.109 808 768.115 968.5 781.615C1027 857.615 1312.24 653.719 1336.31 499.186C1360.38 344.653 1354.04 197.766 1213.37 85.2726Z" fill="url(#paint1_linear_4704_25804)"/>
<defs>
<linearGradient id="paint0_linear_4704_25804" x1="1181.43" y1="325.563" x2="948.08" y2="936.515" gradientUnits="userSpaceOnUse">
<stop stop-color="#EDF3FF" stop-opacity="0.431"/>
<stop offset="1" stop-color="#EDF3FF"/>
</linearGradient>
<linearGradient id="paint1_linear_4704_25804" x1="897" y1="812.615" x2="962.246" y2="39.7684" gradientUnits="userSpaceOnUse">
<stop stop-color="#EDF3FF"/>
<stop offset="1" stop-color="white"/>
</linearGradient>
</defs>
</svg>
