<svg width="45" height="45" viewBox="0 0 45 45" fill="none" xmlns="http://www.w3.org/2000/svg">
<g clip-path="url(#clip0_2395_45125)">
<g clip-path="url(#clip1_2395_45125)">
<path d="M22.5 0C26.9501 0 31.3002 1.3196 35.0003 3.79193C38.7004 6.26427 41.5843 9.77829 43.2873 13.8896C44.9903 18.001 45.4358 22.525 44.5677 26.8895C43.6995 31.2541 41.5566 35.2632 38.4099 38.4099C35.2632 41.5566 31.2541 43.6995 26.8895 44.5677C22.525 45.4358 18.001 44.9903 13.8896 43.2873C9.77829 41.5843 6.26427 38.7004 3.79193 35.0003C1.3196 31.3002 0 26.9501 0 22.5C0 16.5326 2.37053 10.8097 6.5901 6.5901C10.8097 2.37053 16.5326 0 22.5 0Z" fill="url(#paint0_linear_2395_45125)"/>
<path d="M31.8475 19.5117V29.5827C31.8475 30.0058 31.7642 30.4248 31.6022 30.8157C31.4403 31.2066 31.203 31.5618 30.9038 31.861C30.6046 32.1602 30.2494 32.3975 29.8585 32.5595C29.4676 32.7214 29.0486 32.8047 28.6255 32.8047H16.8125" stroke="#6096FF" stroke-opacity="0.5" stroke-width="2" stroke-linecap="round" stroke-linejoin="round"/>
<path d="M13.6969 30.4279C13.6239 30.1519 13.5879 29.8674 13.5899 29.5819V21.0869M20.0419 14.5469H27.6839" stroke="#6096FF" stroke-opacity="0.5" stroke-width="2" stroke-linejoin="round"/>
<path d="M29.2058 17.4473L19.4888 27.1473M19.4888 27.1473C18.926 27.7133 18.6101 28.4791 18.6101 29.2773C18.6101 30.0755 18.926 30.8412 19.4888 31.4073M19.4888 27.1473C19.2105 27.4267 18.8798 27.6485 18.5157 27.8C18.1516 27.9516 17.7612 28.0298 17.3668 28.0303C17.0292 28.0272 16.6969 27.9459 16.396 27.7927C16.0951 27.6394 15.8339 27.4185 15.6328 27.1473" stroke="#6096FF" stroke-opacity="0.5" stroke-width="1.5" stroke-linecap="round" stroke-linejoin="round"/>
<path d="M31.7117 19.4728C30.5307 20.6278 27.9367 23.1848 25.5687 25.4938L18.9357 31.8938L13.0547 33.2338L14.4397 27.5268L16.1047 25.9158L27.0467 15.2988L28.2547 14.1268C29.4957 12.9268 31.1897 13.2368 32.4327 14.4398C32.9277 14.897 33.2851 15.4833 33.4647 16.1328" stroke="#5C8FFF" stroke-width="2" stroke-linecap="round" stroke-linejoin="round"/>
<path d="M12.8953 18.8751V15.7181H9.73828V13.6181H12.8953V10.4551H14.9952V13.6121H18.1522V15.7121H14.9952V18.8691L12.8953 18.8751Z" fill="#5C8FFF"/>
</g>
</g>
<defs>
<linearGradient id="paint0_linear_2395_45125" x1="-28.215" y1="-39.915" x2="40.77" y2="47.835" gradientUnits="userSpaceOnUse">
<stop stop-color="#4B5D89" stop-opacity="0.502"/>
<stop offset="1" stop-color="#1F273A"/>
</linearGradient>
<clipPath id="clip0_2395_45125">
<rect width="45" height="45" fill="white"/>
</clipPath>
<clipPath id="clip1_2395_45125">
<rect width="45" height="45" fill="white"/>
</clipPath>
</defs>
</svg>
