<svg width="45" height="45" viewBox="0 0 45 45" fill="none" xmlns="http://www.w3.org/2000/svg">
<path d="M22.5 45C34.9264 45 45 34.9264 45 22.5C45 10.0736 34.9264 0 22.5 0C10.0736 0 0 10.0736 0 22.5C0 34.9264 10.0736 45 22.5 45Z" fill="url(#paint0_linear_2419_44491)"/>
<path d="M22.5 44C34.3741 44 44 34.3741 44 22.5C44 10.6259 34.3741 1 22.5 1C10.6259 1 1 10.6259 1 22.5C1 34.3741 10.6259 44 22.5 44Z" stroke="white" stroke-width="2"/>
<path d="M31.8514 19.512V29.583C31.8514 30.0061 31.7681 30.4251 31.6061 30.816C31.4442 31.2069 31.2069 31.5621 30.9077 31.8613C30.6085 32.1605 30.2533 32.3978 29.8624 32.5597C29.4715 32.7216 29.0525 32.805 28.6294 32.805H16.8164" stroke="#0057FF" stroke-opacity="0.5" stroke-width="2" stroke-linecap="round" stroke-linejoin="round"/>
<path d="M13.6969 30.428C13.6239 30.152 13.5879 29.8675 13.5899 29.582V21.087M20.0419 14.547H27.6839" stroke="#0057FF" stroke-opacity="0.5" stroke-width="2" stroke-linejoin="round"/>
<path d="M29.2058 17.447L19.4888 27.147M19.4888 31.407C18.926 30.8409 18.6101 30.0752 18.6101 29.277C18.6101 28.4788 18.926 27.713 19.4888 27.147C19.2105 27.4264 18.8798 27.6482 18.5157 27.7997C18.1516 27.9512 17.7612 28.0295 17.3668 28.03C17.0292 28.0269 16.6969 27.9456 16.396 27.7924C16.0951 27.6391 15.8339 27.4182 15.6328 27.147" stroke="#0057FF" stroke-opacity="0.5" stroke-width="1.5" stroke-linecap="round" stroke-linejoin="round"/>
<path d="M31.7117 19.473C30.5307 20.628 27.9367 23.185 25.5687 25.494L18.9357 31.894L13.0547 33.234L14.4397 27.527L16.1047 25.916L27.0467 15.299L28.2547 14.127C29.4957 12.927 31.1897 13.237 32.4327 14.44C32.9277 14.8972 33.2851 15.4835 33.4647 16.133" stroke="#0057FF" stroke-width="2" stroke-linecap="round" stroke-linejoin="round"/>
<path d="M12.8953 18.875V15.718H9.73828V13.618H12.8953V10.455H14.9952V13.612H18.1522V15.712H14.9952V18.869L12.8953 18.875Z" fill="#0057FF"/>
<defs>
<linearGradient id="paint0_linear_2419_44491" x1="8.145" y1="6.39" x2="40.77" y2="38.385" gradientUnits="userSpaceOnUse">
<stop stop-color="#FFF2F7"/>
<stop offset="1" stop-color="#EFF3FB"/>
</linearGradient>
</defs>
</svg>
