<svg width="45" height="46" viewBox="0 0 45 46" fill="none" xmlns="http://www.w3.org/2000/svg">
<g clip-path="url(#clip0_2419_58360)">
<path d="M22.5039 45.4211C34.9303 45.4211 45.0039 35.3647 45.0039 22.9596C45.0039 10.5544 34.9303 0.498047 22.5039 0.498047C10.0775 0.498047 0.00390625 10.5544 0.00390625 22.9596C0.00390625 35.3647 10.0775 45.4211 22.5039 45.4211Z" fill="url(#paint0_linear_2419_58360)"/>
<path d="M19.108 14.875H26.918C27.7225 14.8761 28.4937 15.1958 29.0622 15.7641C29.6307 16.3324 29.95 17.1027 29.95 17.9058V18.6266M15.786 32.0456C14.9815 32.0456 14.2099 31.7268 13.6406 31.1593C13.0714 30.5918 12.7511 29.8219 12.75 29.0188V21.0325" stroke="#6096FF" stroke-opacity="0.5" stroke-width="2"/>
<path d="M15.7734 32.0488H21.3504" stroke="#4A68A7" stroke-width="2"/>
<path d="M11.9961 18.9785V15.9836H8.99609V13.9871H11.9961V10.9922H13.9961V13.9871H16.9961V15.9836H13.9961V18.9785H11.9961Z" fill="#5C8FFF"/>
<path d="M23.6211 31.8968V21.3718C23.6221 21.2785 23.6417 21.1863 23.6786 21.1005C23.7155 21.0148 23.7691 20.9372 23.8362 20.8722C23.9033 20.8072 23.9827 20.7562 24.0697 20.722C24.1567 20.6878 24.2496 20.6711 24.3431 20.673H28.6741C28.7676 20.6711 28.8605 20.6878 28.9475 20.722C29.0345 20.7562 29.1138 20.8072 29.181 20.8722C29.2481 20.9372 29.3017 21.0148 29.3386 21.1005C29.3755 21.1863 29.3951 21.2785 29.3961 21.3718V31.8968C29.3951 31.99 29.3755 32.0821 29.3387 32.1678C29.3018 32.2535 29.2483 32.331 29.1813 32.396C29.1143 32.461 29.0351 32.512 28.9482 32.5463C28.8613 32.5805 28.7685 32.5973 28.6751 32.5956H24.3431C24.2496 32.5974 24.1567 32.5808 24.0697 32.5466C23.9827 32.5124 23.9033 32.4613 23.8362 32.3964C23.7691 32.3314 23.7155 32.2538 23.6786 32.168C23.6417 32.0823 23.6221 31.9901 23.6211 31.8968Z" stroke="#5C8FFF" stroke-width="2"/>
<path d="M33.6852 20.67H32.7972C32.2382 20.67 31.7852 20.9785 31.7852 21.3508V31.5614C31.7852 31.9337 32.2382 32.2422 32.7972 32.2422H33.8972" stroke="#6096FF" stroke-opacity="0.5" stroke-width="2"/>
</g>
<defs>
<linearGradient id="paint0_linear_2419_58360" x1="-28.2111" y1="-39.3487" x2="40.6281" y2="48.3657" gradientUnits="userSpaceOnUse">
<stop stop-color="#4B5D89" stop-opacity="0.502"/>
<stop offset="1" stop-color="#1F273A"/>
</linearGradient>
<clipPath id="clip0_2419_58360">
<rect width="45" height="44.9231" fill="white" transform="translate(0.00390625 0.498047)"/>
</clipPath>
</defs>
</svg>
