<svg xmlns="http://www.w3.org/2000/svg" xmlns:xlink="http://www.w3.org/1999/xlink" width="45" height="45" viewBox="0 0 45 45">
  <defs>
    <linearGradient id="linear-gradient" x1="0.181" y1="0.142" x2="0.906" y2="0.853" gradientUnits="objectBoundingBox">
      <stop offset="0" stop-color="#fff2f7"/>
      <stop offset="1" stop-color="#eff3fb"/>
    </linearGradient>
  </defs>
  <g id="ic_addcards" transform="translate(-348.744 -898.658)">
    <g id="Ellipse_1990" data-name="Ellipse 1990" transform="translate(348.744 898.658)" stroke="#fff" strokeWidth="2" fill="url(#linear-gradient)">
      <circle cx="22.5" cy="22.5" r="22.5" stroke="none"/>
      <circle cx="22.5" cy="22.5" r="21.5" fill="none"/>
    </g>
    <g id="Gruppe_4601" data-name="Gruppe 4601" transform="translate(357.737 909.171)">
      <g id="ic_addimage" transform="translate(0 0)">
        <g id="Gruppe_32" data-name="Gruppe 32">
          <g id="Gruppe_32-2" data-name="Gruppe 32" transform="translate(3.752 3.889)">
            <path id="Pfad_26" data-name="Pfad 26" d="M6.358,0h7.81A3.036,3.036,0,0,1,17.2,3.036v.722M3.036,17.2A3.036,3.036,0,0,1,0,14.168v-8H0" fill="none" stroke="rgba(0,87,255,0.5)" strokeWidth="2"/>
            <path id="Pfad_7169" data-name="Pfad 7169" d="M3.1,17H8.677" transform="translate(-0.075 0.204)" fill="none" stroke="#7faaff" strokeWidth="2"/>
          </g>
          <path id="Vereinigungsmenge_3" data-name="Vereinigungsmenge 3" d="M-1619-266v-3h-3v-2h3v-3h2v3h3v2h-3v3Z" transform="translate(1622 274)" fill="#0057ff"/>
        </g>
      </g>
    </g>
    <g id="ic_column" transform="translate(359.698 908)">
      <path id="BG" d="M32.384,0V32.384H0Z" fill="rgba(255,255,255,0)" opacity="0.3"/>
      <g id="ic" transform="translate(12.665 10.865)">
        <path id="Pfad_47" data-name="Pfad 47" d="M.7,0H11.243a.708.708,0,0,1,.7.722V5.053a.708.708,0,0,1-.7.722H.7A.708.708,0,0,1,0,5.054V.722A.708.708,0,0,1,.7,0Z" transform="translate(0 11.946) rotate(-90)" fill="none" stroke="#0057ff" strokeWidth="2"/>
        <path id="Pfad_49" data-name="Pfad 49" d="M11.391,1.9h0V1.012c0-.559-.3-1.012-.67-1.012H.67C.3,0,0,.453,0,1.012v1.1H0" transform="translate(8.166 11.391) rotate(-90)" fill="none" stroke="#7faaff" strokeWidth="2"/>
      </g>
    </g>
  </g>
</svg>
