<svg width="1920" height="905" viewBox="0 0 1920 1005" fill="none" xmlns="http://www.w3.org/2000/svg">
<path d="M717.75 413.589C735.878 338.466 758.428 356.217 525.836 238.029C293.244 119.841 123.331 144.074 -14.8089 195.75C-152.948 247.427 -206.046 233.923 -249.98 300.724C-332.969 358.046 -163.661 388.031 -112.982 504.559C-84.6013 569.812 -103.415 367.755 0.951952 360.148C83.1009 354.16 344.12 340.664 344.12 340.664C344.12 340.664 699.625 488.712 717.75 413.589Z" fill="url(#paint0_linear_433_35322)"/>
<path d="M2100.46 375.4L1685.31 470.034V681.35C1685.31 681.35 1203.14 680.55 955.137 681.341C1002.13 731.788 1145.98 907.641 1371.19 904.649C1596.39 901.657 1749.27 845.811 1913.92 870.874C2078.56 895.937 2188.06 691.342 2188.06 691.342L2100.46 375.4Z" fill="url(#paint1_linear_433_35322)"/>
<path d="M2168.37 158.273C2027.69 45.7796 1864.06 61.8115 1703.25 112.12C1542.45 162.429 1525.38 249.205 1443.97 306.403C1362.55 363.601 1250.74 401.041 1217.05 500.715C1183.36 600.389 1205.26 703.297 1246.2 739.58C1287.14 775.863 1337.85 837.931 1552.14 835.52C1766.44 833.109 1763 841.115 1923.5 854.615C1982 930.615 2267.24 726.719 2291.31 572.186C2315.38 417.653 2309.04 270.766 2168.37 158.273Z" fill="url(#paint2_linear_433_35322)"/>
<path d="M-371.747 668.552C-294.5 706.114 -193.036 754.921 -25 723.615C143.036 692.308 133.262 631.622 198 592.114C262.738 552.606 351.501 501.008 378.289 432.16C405.077 363.312 387.666 292.231 355.114 267.169C322.562 242.107 332.9 154.949 162.5 156.615C-7.89999 158.281 -83.742 233.698 -213 236.114C-342.258 238.53 -434.703 273.776 -467.489 381.286C-500.275 488.796 -481.245 596.516 -371.747 668.552Z" fill="url(#paint3_linear_433_35322)"/>
<defs>
<linearGradient id="paint0_linear_433_35322" x1="285.493" y1="222.098" x2="-201.562" y2="541.443" gradientUnits="userSpaceOnUse">
<stop stop-color="#EDF3FF"/>
<stop offset="1" stop-color="#EDF3FF" stop-opacity="0"/>
</linearGradient>
<linearGradient id="paint1_linear_433_35322" x1="2036.41" y1="582.351" x2="1925.74" y2="998.801" gradientUnits="userSpaceOnUse">
<stop stop-color="#EDF3FF" stop-opacity="0.431"/>
<stop offset="1" stop-color="#EDF3FF"/>
</linearGradient>
<linearGradient id="paint2_linear_433_35322" x1="1852" y1="885.615" x2="1917.25" y2="112.768" gradientUnits="userSpaceOnUse">
<stop stop-color="#EDF3FF"/>
<stop offset="1" stop-color="white"/>
</linearGradient>
<linearGradient id="paint3_linear_433_35322" x1="-36.5" y1="212.615" x2="108.952" y2="665.219" gradientUnits="userSpaceOnUse">
<stop stop-color="#F0F5FF"/>
<stop offset="0.506762" stop-color="#EFF4FF"/>
<stop offset="0.970838" stop-color="white"/>
</linearGradient>
</defs>
</svg>
