<svg width="2785" height="905" viewBox="0 0 2785 905" fill="none" xmlns="http://www.w3.org/2000/svg">
<path d="M1199.75 412.975C1217.88 337.851 1240.43 355.602 1007.83 237.414C775.242 119.226 605.329 143.46 467.189 195.136C329.05 246.812 275.952 233.308 232.018 300.109C149.029 357.432 318.337 387.417 369.016 503.944C397.397 569.198 378.583 367.141 482.95 359.533C565.099 353.546 826.118 340.049 826.118 340.049C826.118 340.049 1181.62 488.098 1199.75 412.975Z" fill="url(#paint0_linear_69_12053)"/>
<path d="M2582.46 374.786L2167.31 469.42V680.736C2167.31 680.736 1685.14 679.936 1437.14 680.727C1484.13 731.174 1627.99 907.027 1853.19 904.035C2078.4 901.043 2231.27 845.197 2395.92 870.26C2560.56 895.323 2670.06 690.728 2670.06 690.728L2582.46 374.786Z" fill="url(#paint1_linear_69_12053)"/>
<path d="M2650.36 157.658C2509.69 45.1651 2346.06 61.197 2185.25 111.506C2024.45 161.815 2007.38 248.59 1925.96 305.788C1844.55 362.986 1732.74 400.426 1699.05 500.1C1665.36 599.774 1687.26 702.682 1728.2 738.965C1769.13 775.248 1819.84 837.316 2034.14 834.905C2248.44 832.494 2245 840.5 2405.5 854C2464 930 2749.24 726.104 2773.31 571.571C2797.38 417.038 2791.04 270.151 2650.36 157.658Z" fill="url(#paint2_linear_69_12053)"/>
<path d="M110.253 667.938C187.5 705.5 288.964 754.306 457 723C625.036 691.694 615.262 631.008 680 591.5C744.738 551.992 833.501 500.394 860.289 431.546C887.077 362.698 869.666 291.616 837.114 266.554C804.562 241.492 814.9 154.334 644.5 156C474.1 157.666 398.258 233.084 269 235.5C139.742 237.916 47.2971 273.162 14.5111 380.672C-18.2749 488.182 0.755203 595.902 110.253 667.938Z" fill="url(#paint3_linear_69_12053)"/>
<defs>
<linearGradient id="paint0_linear_69_12053" x1="767.491" y1="221.484" x2="280.436" y2="540.828" gradientUnits="userSpaceOnUse">
<stop stop-color="#EDF3FF"/>
<stop offset="1" stop-color="#EDF3FF" stop-opacity="0"/>
</linearGradient>
<linearGradient id="paint1_linear_69_12053" x1="2518.41" y1="581.737" x2="2407.74" y2="998.186" gradientUnits="userSpaceOnUse">
<stop stop-color="#EDF3FF" stop-opacity="0.431"/>
<stop offset="1" stop-color="#EDF3FF"/>
</linearGradient>
<linearGradient id="paint2_linear_69_12053" x1="2334" y1="885" x2="2399.24" y2="112.154" gradientUnits="userSpaceOnUse">
<stop stop-color="#EDF3FF"/>
<stop offset="1" stop-color="white"/>
</linearGradient>
<linearGradient id="paint3_linear_69_12053" x1="445.5" y1="212" x2="590.952" y2="664.605" gradientUnits="userSpaceOnUse">
<stop stop-color="#F0F5FF"/>
<stop offset="0.506762" stop-color="#EFF4FF"/>
<stop offset="0.970838" stop-color="white"/>
</linearGradient>
</defs>
</svg>
