<svg width="333" height="2226" viewBox="0 0 333 1726" fill="none" xmlns="http://www.w3.org/2000/svg">
<path style="transform: scale(1, 1.6)" d="M172.01 1226C168.375 1225.85 164.521 1225.52 160.553 1225.03L160.74 1221.62C164.667 1222.11 168.482 1222.43 172.074 1222.58L172.01 1226ZM149.152 1223.22C145.37 1222.49 141.556 1221.61 137.815 1220.63L138.211 1217.26C141.918 1218.24 145.698 1219.1 149.445 1219.83L149.152 1223.22ZM126.574 1217.25C122.825 1215.98 119.081 1214.58 115.45 1213.06L116.061 1209.77C119.657 1211.27 123.363 1212.66 127.073 1213.91L126.574 1217.25ZM104.482 1208.03C100.826 1206.19 97.2009 1204.19 93.7083 1202.1L94.5566 1198.92C98.0091 1200.99 101.593 1202.97 105.209 1204.79L104.482 1208.03ZM83.1843 1195.22C79.6937 1192.75 76.2572 1190.1 72.9728 1187.35L74.084 1184.36C77.3277 1187.07 80.7189 1189.69 84.1621 1192.13L83.1843 1195.22ZM63.1363 1178.44C59.9093 1175.27 56.7564 1171.91 53.767 1168.46L55.1612 1165.75C58.1052 1169.15 61.2094 1172.46 64.3877 1175.58L63.1363 1178.44ZM44.951 1157.39C42.1078 1153.5 39.358 1149.42 36.7791 1145.24L38.4543 1142.92C40.9905 1147.03 43.6929 1151.04 46.4881 1154.86L44.951 1157.39ZM29.338 1132.08C27.002 1127.56 24.7661 1122.82 22.7024 1118L24.624 1116.15C26.6516 1120.89 28.8447 1125.54 31.1427 1129.99L29.338 1132.08ZM16.9199 1103.08C15.1592 1098.04 13.5113 1092.79 12.0217 1087.48L14.1261 1086.16C15.5911 1091.38 17.2109 1096.54 18.9415 1101.49L16.9199 1103.08ZM8.00176 1071.33C6.82576 1065.96 5.76122 1060.39 4.83684 1054.77L7.05269 1053.96C7.96305 1059.49 9.01159 1064.98 10.1702 1070.27L8.00176 1071.33ZM2.48619 1037.92C2.4408 1037.53 2.39675 1037.14 2.3527 1036.75C1.75202 1031.38 1.25544 1026.04 0.884357 1020.86L3.15361 1020.49C3.51936 1025.61 4.00657 1030.88 4.60191 1036.18C4.6464 1036.56 4.69091 1036.95 4.7354 1037.33L2.48619 1037.92ZM0.0754561 1003.68C-0.0520218 997.833 -0.0179731 992.032 0.177582 986.44L2.45682 986.618C2.2646 992.118 2.23121 997.817 2.35669 1003.57L0.0754561 1003.68ZM3.58143 969.764L1.32419 969.255C1.89276 963.553 2.66568 957.902 3.63947 952.329L5.84734 953.2C4.89393 958.655 4.13727 964.185 3.58077 969.766L3.58143 969.764ZM9.34663 937.147L7.22288 935.893C8.63613 930.517 10.2692 925.282 12.1124 920.218L14.1147 921.857C12.317 926.796 10.7246 931.903 9.34663 937.147ZM20.1268 907.588L18.2774 905.584C20.5392 900.903 22.9867 896.438 25.6064 892.215L27.2789 894.543C24.7217 898.664 22.3323 903.021 20.1242 907.588H20.1268ZM35.4202 882.852L33.9365 880.251C36.8634 876.509 39.9154 873 43.0802 869.74L44.3743 872.556C41.2744 875.75 38.2848 879.187 35.4175 882.852H35.4202ZM226.385 877.019L226.29 873.601C230.04 873.369 233.775 872.757 237.471 871.768L237.872 875.136C234.074 876.151 230.236 876.78 226.383 877.02L226.385 877.019ZM214.839 876.646C211.006 876.164 207.193 875.365 203.417 874.253L203.855 870.892C207.549 871.979 211.278 872.761 215.027 873.235L214.839 876.646ZM249.083 870.87L248.365 867.625C251.922 865.853 255.393 863.706 258.754 861.198L259.772 864.259C256.315 866.84 252.744 869.049 249.085 870.871L249.083 870.87ZM192.235 870.102C188.645 868.493 184.988 866.59 181.364 864.444L182.203 861.263C185.766 863.373 189.361 865.244 192.889 866.824L192.235 870.102ZM53.9799 863.632L52.8673 860.645C56.141 857.908 59.5989 855.3 63.1456 852.893L64.0874 856.011C60.5981 858.377 57.2009 860.941 53.9799 863.632ZM170.846 857.488C167.435 854.997 164.024 852.27 160.706 849.383L161.852 846.429C165.122 849.274 168.485 851.962 171.846 854.418L170.846 857.488ZM269.745 855.505L268.463 852.675C271.568 849.508 274.546 846.06 277.38 842.349L278.88 844.928C275.976 848.73 272.924 852.262 269.742 855.506L269.745 855.505ZM74.5746 849.605L73.7917 846.392C77.3237 844.456 80.9999 842.661 84.7128 841.049L85.3475 844.335C81.68 845.927 78.0552 847.7 74.5719 849.606L74.5746 849.605ZM150.979 840.19C148.394 837.533 146.707 835.606 146.04 834.823H141.449V831.404H146.836L147.15 831.782C147.168 831.804 149.007 834.017 152.266 837.369L150.979 840.19ZM96.3373 840.134L95.8434 836.794C99.5903 835.55 103.385 834.475 107.123 833.598L107.475 836.977C103.782 837.846 100.034 838.907 96.3339 840.136L96.3373 840.134ZM118.719 834.966L118.548 831.554C119.544 831.442 120.083 831.406 120.104 831.404H130.038V834.824H120.178C120.065 834.834 119.558 834.872 118.716 834.967L118.719 834.966ZM287.146 832.88L285.472 830.556C287.958 826.536 290.411 822.178 292.761 817.603L294.57 819.691C292.174 824.349 289.676 828.788 287.142 832.883L287.146 832.88ZM301.211 805.637L299.299 803.768C301.302 799.167 303.279 794.274 305.173 789.225L307.163 790.9C305.241 796.015 303.24 800.974 301.211 805.639V805.637ZM312.49 775.659L310.441 774.155C312.114 769.033 313.702 763.829 315.159 758.684L317.26 760.021C315.781 765.223 314.176 770.483 312.484 775.661L312.49 775.659ZM321.446 744.003L319.297 742.849C320.578 737.5 321.759 732.062 322.807 726.691L324.999 727.65C323.931 733.089 322.736 738.591 321.44 744.005L321.446 744.003ZM327.876 710.992L325.649 710.24C326.482 704.711 327.2 699.097 327.785 693.553L330.04 694.087C329.443 699.706 328.713 705.394 327.87 710.994L327.876 710.992ZM331.459 677.009L329.186 676.703C329.526 671.081 329.743 665.377 329.831 659.748L332.113 659.827C332.018 665.529 331.798 671.313 331.453 677.01L331.459 677.009ZM329.711 642.762C329.544 637.14 329.247 631.442 328.828 625.828L331.097 625.447C331.523 631.135 331.824 636.911 331.992 642.61L329.711 642.762ZM327.194 609.017C326.533 603.493 325.738 597.904 324.832 592.402L327.048 591.586C327.966 597.157 328.771 602.819 329.441 608.417L327.194 609.017ZM321.77 576.043C320.648 570.691 319.393 565.29 318.041 559.988L320.172 558.766C321.541 564.131 322.811 569.598 323.947 575.014L321.77 576.043ZM313.68 544.295C312.14 539.177 310.473 534.033 308.725 529.003L310.75 527.423C312.517 532.508 314.204 537.711 315.761 542.888L313.68 544.295ZM303.206 514.145C301.282 509.288 299.243 504.448 297.146 499.758L299.042 497.853C301.163 502.596 303.224 507.49 305.168 512.401L303.206 514.145ZM290.574 485.904C288.257 481.299 285.869 476.838 283.475 472.635L285.211 470.413C287.634 474.666 290.052 479.184 292.396 483.844L290.574 485.904ZM275.824 460.142C273.883 457.152 271.819 454.354 269.644 451.766C268.921 450.977 268.149 450.298 267.34 449.736L268.328 446.651C269.274 447.312 270.175 448.111 271.019 449.038C273.28 451.721 275.424 454.623 277.441 457.726L275.824 460.142ZM256.72 444.685C253.538 443.581 249.896 442.523 245.585 441.451L245.958 438.077C250.317 439.161 254.005 440.231 257.238 441.352L256.72 444.685ZM234.328 438.939C230.936 438.25 227.239 437.547 223.025 436.793L223.296 433.397C227.521 434.156 231.23 434.86 234.634 435.55L234.328 438.939ZM211.695 434.835C208.691 434.33 205.611 433.822 202.632 433.33L200.353 432.954L200.603 429.554L202.882 429.93C205.863 430.422 208.944 430.932 211.95 431.438L211.695 434.835ZM189.002 431.051C184.731 430.32 181.019 429.66 177.656 429.032L177.938 425.638C181.292 426.265 184.996 426.923 189.261 427.652L189.002 431.051ZM166.325 426.773C162.092 425.856 158.392 424.972 155.015 424.059L155.42 420.691C158.771 421.599 162.444 422.48 166.65 423.386L166.325 426.773ZM143.772 420.435C141.797 419.657 140.014 418.849 138.474 418.031C136.656 417.066 134.764 415.97 132.849 414.771L133.73 411.614C135.605 412.788 137.458 413.862 139.236 414.806C140.717 415.59 142.44 416.37 144.352 417.125L143.772 420.435ZM122.434 407.457C119.199 404.96 115.821 402.153 112.396 399.117L113.558 396.173C116.945 399.176 120.283 401.949 123.479 404.417L122.434 407.457ZM102.671 390.016C99.5449 386.943 96.3653 383.677 93.2204 380.31L94.5472 377.526C97.6674 380.868 100.821 384.108 103.923 387.157L102.671 390.016ZM84.0306 370.052C81.8695 367.538 80.5166 365.876 80.2363 365.53C79.8713 365.173 77.9491 363.276 74.9377 359.724L76.3486 357.035C79.5362 360.793 81.5044 362.685 81.5245 362.703L81.5845 362.761L81.6399 362.828C81.654 362.846 83.0368 364.56 85.4316 367.351L84.0306 370.052ZM66.2231 348.468C63.4713 344.605 60.7502 340.49 58.1326 336.229L59.8118 333.911C62.3901 338.11 65.0725 342.162 67.7836 345.971L66.2231 348.468ZM50.6541 323.15C48.2781 318.684 45.9755 314.032 43.8104 309.323L45.6898 307.382C47.8256 312.027 50.0948 316.614 52.4382 321.017L50.6541 323.15ZM37.626 294.807C35.6865 289.884 33.8391 284.795 32.1351 279.682L34.1774 278.154C35.8573 283.196 37.6794 288.214 39.5916 293.07L37.626 294.807ZM27.3637 264.013C25.9047 258.742 24.5492 253.319 23.3345 247.889L25.4989 246.801C26.697 252.153 28.0351 257.504 29.4721 262.704L27.3637 264.013ZM20.0601 231.39C19.103 225.885 18.2581 220.236 17.5406 214.598L19.7831 213.96C20.4886 219.523 21.3249 225.097 22.2686 230.528L20.0601 231.39ZM15.7672 197.587C15.3047 191.96 14.9537 186.196 14.7234 180.456L17.002 180.252C17.2289 185.921 17.5759 191.614 18.0325 197.17L15.7672 197.587ZM14.3817 163.262C14.3817 160.361 14.4104 157.407 14.4671 154.479C14.5218 151.649 14.6073 148.813 14.7207 146.053L16.9993 146.262C16.8878 148.988 16.8031 151.785 16.749 154.579C16.693 157.472 16.6643 160.393 16.6643 163.262H14.3817ZM18.0952 129.362L15.8333 128.903C16.3559 123.097 17.03 117.393 17.8356 111.929L20.0641 112.668C19.2665 118.043 18.6031 123.661 18.0899 129.369L18.0952 129.362ZM23.0228 96.3263L20.8517 95.271C22.0374 89.7846 23.4188 84.4018 24.9897 79.1455L27.0721 80.5461C25.5329 85.6922 24.1794 90.963 23.0174 96.3348L23.0228 96.3263ZM32.2833 65.575L30.3277 63.8109C32.317 58.856 34.5138 54.1021 36.9045 49.5793L38.6926 51.704C36.3605 56.1158 34.2178 60.7535 32.2779 65.5874L32.2833 65.575ZM46.2551 39.2206L44.6713 36.7568C47.4533 32.7441 50.4065 29.017 53.5114 25.6003L54.8622 28.3566C51.8371 31.6861 48.9599 35.3179 46.2498 39.2286L46.2551 39.2206ZM64.349 19.2801L63.2464 16.2845C66.625 13.4967 70.1124 11.0278 73.6889 8.891L74.5346 12.069C71.0433 14.1543 67.6395 16.5653 64.3423 19.2885L64.349 19.2801ZM85.234 6.79171L84.6567 3.48138C88.3982 1.94177 92.218 0.885424 96.0756 0.32373L96.2312 3.73701C92.5149 4.2956 88.8349 5.3195 85.2286 6.79867L85.234 6.79171Z" fill="url(#paint0_linear_446_17473)"/>
<defs>
<linearGradient id="paint0_linear_446_17473" x1="166.056" y1="1226" x2="-217.052" y2="334.718" gradientUnits="userSpaceOnUse">
<stop stop-color="#FF0069"/>
<stop offset="1" stop-color="#FFE6F0"/>
</linearGradient>
</defs>
</svg>
