<svg xmlns="http://www.w3.org/2000/svg" xmlns:xlink="http://www.w3.org/1999/xlink" width="395.522" height="347.461" viewBox="0 0 395.522 347.461">
  <defs>
    <filter id="Rechteck_12531" x="71.326" y="23.264" width="324.196" height="324.196" filterUnits="userSpaceOnUse">
      <feOffset dy="3" input="SourceAlpha"/>
      <feGaussianBlur stdDeviation="3" result="blur"/>
      <feFlood flood-opacity="0.161"/>
      <feComposite operator="in" in2="blur"/>
      <feComposite in="SourceGraphic"/>
    </filter>
    <filter id="BG" x="71.295" y="21.97" width="199.628" height="96.147" filterUnits="userSpaceOnUse">
      <feOffset dy="3" input="SourceAlpha"/>
      <feGaussianBlur stdDeviation="3" result="blur-2"/>
      <feFlood flood-color="#111" flood-opacity="0.09"/>
      <feComposite operator="in" in2="blur-2"/>
      <feComposite in="SourceGraphic"/>
    </filter>
    <filter id="BG-card-staple" x="11.138" y="263.283" width="233.038" height="33.875" filterUnits="userSpaceOnUse">
      <feOffset dy="2" input="SourceAlpha"/>
      <feGaussianBlur stdDeviation="1.5" result="blur-3"/>
      <feFlood flood-color="#111" flood-opacity="0.161"/>
      <feComposite operator="in" in2="blur-3"/>
      <feComposite in="SourceGraphic"/>
    </filter>
    <filter id="BG-2" x="0" y="122.875" width="257.266" height="172.13" filterUnits="userSpaceOnUse">
      <feOffset dy="3" input="SourceAlpha"/>
      <feGaussianBlur stdDeviation="3" result="blur-4"/>
      <feFlood flood-color="#111" flood-opacity="0.161"/>
      <feComposite operator="in" in2="blur-4"/>
      <feComposite in="SourceGraphic"/>
    </filter>
    <filter id="BG-3" x="285.363" y="0" width="98.927" height="260.641" filterUnits="userSpaceOnUse">
      <feOffset dy="3" input="SourceAlpha"/>
      <feGaussianBlur stdDeviation="5" result="blur-5"/>
      <feFlood flood-opacity="0.149"/>
      <feComposite operator="in" in2="blur-5"/>
      <feComposite in="SourceGraphic"/>
    </filter>
    <clipPath id="clip-path">
      <path id="Pfad_37" data-name="Pfad 37" d="M136.654-9.882v-12.55A1.568,1.568,0,0,1,138.222-24a1.568,1.568,0,0,1,1.568,1.568v5.722M136.732-3.688l-7.276-7.6a1.568,1.568,0,0,1-.089-1.206,1.568,1.568,0,0,1,.8-.911,1.568,1.568,0,0,1,1.206-.089c.4.133.51.06.7.437l4.591,3.181m3.136-6.279a1.568,1.568,0,0,1,1.568-1.568,1.568,1.568,0,0,1,1.568,1.568m.039,0c0-.866.663-.784,1.529-.784a1.568,1.568,0,0,1,1.568,1.568" transform="translate(-129.286 24)" fill="none" clip-rule="evenodd"/>
    </clipPath>
  </defs>
  <g id="Grafik_gr" transform="translate(-502.022 -4810.081)">
    <g id="Gruppe_7998" data-name="Gruppe 7998" transform="translate(511.022 4822.081)">
      <g transform="matrix(1, 0, 0, 1, -9, -12)" filter="url(#Rechteck_12531)">
        <rect id="Rechteck_12531-2" data-name="Rechteck 12531" width="306.196" height="306.196" rx="30" transform="translate(80.33 29.26)" fill="#f8f9fa"/>
      </g>
      <g id="Gruppe_7995" data-name="Gruppe 7995" transform="translate(0 0)">
        <g id="Gruppe_7990" data-name="Gruppe 7990" transform="translate(71.295 15.97)">
          <g id="Gruppe_7987" data-name="Gruppe 7987" transform="translate(0 0)">
            <g id="Gruppe_7988" data-name="Gruppe 7988" transform="translate(0)">
              <g id="ca_card-staple">
                <g id="card">
                  <g transform="matrix(1, 0, 0, 1, -80.29, -27.97)" filter="url(#BG)">
                    <path id="BG-4" data-name="BG" d="M30,0H173.628a8,8,0,0,1,8,8V70.147a8,8,0,0,1-8,8H0a0,0,0,0,1,0,0V30A30,30,0,0,1,30,0Z" transform="translate(80.29 27.97)" fill="#fff"/>
                  </g>
                </g>
              </g>
            </g>
          </g>
        </g>
        <g id="Gruppe_7986" data-name="Gruppe 7986" transform="translate(0 116.875)">
          <g id="ca_card-staple-2" data-name="ca_card-staple" transform="translate(0 0)">
            <g transform="matrix(1, 0, 0, 1, -9, -128.87)" filter="url(#BG-card-staple)">
              <path id="BG-card-staple-2" data-name="BG-card-staple" d="M0,0H224.038a0,0,0,0,1,0,0V16.875a8,8,0,0,1-8,8H8a8,8,0,0,1-8-8V0A0,0,0,0,1,0,0Z" transform="translate(15.64 265.78)" fill="#fff"/>
            </g>
            <g id="card-2" data-name="card">
              <g transform="matrix(1, 0, 0, 1, -9, -128.87)" filter="url(#BG-2)">
                <g id="BG-5" data-name="BG" transform="translate(9 128.87)" fill="#fff" stroke="#45ffa9" stroke-width="2">
                  <rect width="239.266" height="154.13" rx="8" stroke="none"/>
                  <rect x="1" y="1" width="237.266" height="152.13" rx="7" fill="none"/>
                </g>
              </g>
            </g>
          </g>
        </g>
        <g transform="matrix(1, 0, 0, 1, -9, -12)" filter="url(#BG-3)">
          <rect id="BG-6" data-name="BG" width="68.927" height="230.641" rx="32" transform="translate(300.36 12)" fill="#fff"/>
        </g>
        <g id="Gruppe_7986-2" data-name="Gruppe 7986" transform="translate(296.665 94.112)">
          <g id="ic_vote" transform="translate(0 0)" opacity="0.2">
            <rect id="BG-7" data-name="BG" width="42.417" height="42.417" transform="translate(0 1.326)" fill="rgba(255,255,255,0)"/>
            <g id="ic" transform="translate(18.93)">
              <g id="Gruppe_42" data-name="Gruppe 42" transform="translate(0 5.302)" clip-path="url(#clip-path)">
                <path id="Pfad_36" data-name="Pfad 36" d="M128.247-25h19.478V-2.037H128.247Z" transform="translate(-129.624 23.674)" fill="#fff"/>
              </g>
              <path id="Pfad_38" data-name="Pfad 38" d="M7.368,14.118V1.568a1.568,1.568,0,0,1,3.136,0V7.29M7.446,20.312.17,12.707a1.568,1.568,0,0,1,.706-2.117A1.568,1.568,0,0,1,2.081,10.5c.4.133.51.06.7.437l4.591,3.181M10.5,7.84a1.568,1.568,0,0,1,3.136,0m.039,0c0-.866.663-.784,1.529-.784a1.568,1.568,0,0,1,1.568,1.568" transform="translate(0 5.302)" fill="none" stroke="#333948" stroke-linecap="round" stroke-linejoin="round" stroke-width="1.5"/>
              <path id="Pfad_39" data-name="Pfad 39" d="M0,12a3.959,3.959,0,0,0,3.371,1.881H8.545a3.92,3.92,0,0,0,3.92-3.92V1.882C12.465,1.016,11.193,0,10.327,0" transform="translate(7.446 13.612)" fill="none" stroke="#333948" stroke-linecap="round" stroke-linejoin="round" stroke-width="1.5"/>
              <path id="Pfad_40" data-name="Pfad 40" d="M10.6,5.3A5.3,5.3,0,0,0,0,5.3" transform="translate(3.598)" fill="none" stroke="#333948" stroke-linecap="round" stroke-linejoin="round" stroke-width="2"/>
              <path id="Pfad_41" data-name="Pfad 41" d="M7.507,10.125a5.3,5.3,0,1,0-4.369.019" transform="translate(3.598)" fill="none" stroke="rgba(51,57,72,0.5)" stroke-linecap="round" stroke-linejoin="round" stroke-width="2"/>
            </g>
          </g>
        </g>
        <g id="Gruppe_7997" data-name="Gruppe 7997" transform="translate(155.144 149.229)">
          <g id="Gruppe_4200" data-name="Gruppe 4200" transform="translate(-4.057 0)">
            <rect id="Rechteck_1148" data-name="Rechteck 1148" width="204.95" height="55.672" rx="27.836" fill="#d3daf0"/>
            <text id="Presenter_mode" data-name="Presenter mode" transform="translate(25.101 33.49)" fill="#333948" font-size="14.5" font-family="Raleway-Bold, Raleway" font-weight="700" letter-spacing="0.035em"><tspan x="0" y="0">Presenter mode</tspan></text>
          </g>
          <g id="Ellipse_1628" data-name="Ellipse 1628" transform="translate(145.221 0)" fill="#fff" stroke="#d3daf0" stroke-width="2">
            <circle cx="27.836" cy="27.836" r="27.836" stroke="none"/>
            <circle cx="27.836" cy="27.836" r="26.836" fill="none"/>
          </g>
          <g id="ic_focus" transform="translate(151.849 6.628)">
            <rect id="BG-8" data-name="BG" width="42.417" height="42.417" fill="rgba(255,255,255,0)" opacity="0.3"/>
            <g id="ic-2" data-name="ic" transform="translate(6.926 7.953)">
              <path id="Pfad_42" data-name="Pfad 42" d="M6.628,0,0,6.613" transform="translate(13.404 9.911)" fill="none" stroke="#333948" stroke-linejoin="round" stroke-width="1.5"/>
              <path id="Pfad_43" data-name="Pfad 43" d="M0,0H3.962l.015.014V3.977" transform="translate(16.055 9.897)" fill="none" stroke="#333948" stroke-linecap="square" stroke-width="1.5"/>
              <path id="Pfad_44" data-name="Pfad 44" d="M0,2.616A2.414,2.414,0,0,1,2.118,0H23.067a2.414,2.414,0,0,1,2.118,2.616V18.592a2.414,2.414,0,0,1-2.118,2.616H2.118A2.414,2.414,0,0,1,0,18.592Z" transform="translate(0 4.711)" fill="none" stroke="#333948" stroke-linejoin="round" stroke-width="2"/>
              <path id="Pfad_45" data-name="Pfad 45" d="M0,.688l18.356-.3" transform="translate(3.463 21.139)" fill="none" stroke="#989ba3" stroke-linecap="round" stroke-linejoin="round" stroke-width="1.5"/>
              <path id="Pfad_46" data-name="Pfad 46" d="M.638,0H1.873C4.851,0,8.592,3.647,8.592,6.511V8.519" transform="translate(21.415)" fill="none" stroke="#989ba3" stroke-width="1.5"/>
            </g>
          </g>
        </g>
      </g>
      <g id="ic_timer" transform="translate(304.618 24.629)" opacity="0.2">
        <rect id="BG-9" data-name="BG" width="42.417" height="42.417" fill="rgba(255,255,255,0)" opacity="0.3"/>
        <g id="ic-3" data-name="ic" transform="translate(10.604 7.953)">
          <path id="Pfad_32" data-name="Pfad 32" d="M14.133.6A10.614,10.614,0,1,0,18.35,3.362l2.276-2.036" transform="translate(0 4.639)" fill="none" stroke="#333948" stroke-linejoin="round" stroke-width="2"/>
          <path id="Pfad_33" data-name="Pfad 33" d="M14.133.6A10.614,10.614,0,1,0,18.35,3.362" transform="translate(0 4.639)" fill="none" stroke="#333948" stroke-linecap="round" stroke-linejoin="round" stroke-width="2"/>
          <path id="Pfad_34" data-name="Pfad 34" d="M0,1.377V1.326A1.326,1.326,0,0,1,1.326,0H5.3A1.326,1.326,0,0,1,6.628,1.326v.108" transform="translate(7.29 0)" fill="none" stroke="rgba(51,57,72,0.5)" stroke-linecap="square" stroke-width="1.5"/>
          <path id="Pfad_35" data-name="Pfad 35" d="M.5,5.3V0" transform="translate(10.104 10.604)" fill="none" stroke="rgba(51,57,72,0.5)" stroke-linecap="round" stroke-width="1.5"/>
        </g>
      </g>
    </g>
    <rect id="Rechteck_12543" data-name="Rechteck 12543" width="93.72" height="17.264" rx="2" transform="translate(528.259 4988.458)" fill="#edeff2"/>
    <rect id="Rechteck_12544" data-name="Rechteck 12544" width="128.249" height="17.264" rx="2" transform="translate(528.259 4966.261)" fill="#edeff2"/>
  </g>
</svg>
