<svg width="333" height="2226" viewBox="0 0 333 1726" fill="none" xmlns="http://www.w3.org/2000/svg">
<path style="transform: scale(1, 1.6)" d="M172.01 1225.68C168.375 1225.52 164.521 1225.2 160.553 1224.71L160.74 1221.3C164.667 1221.78 168.482 1222.1 172.074 1222.26L172.01 1225.68ZM149.152 1222.9C145.37 1222.16 141.556 1221.29 137.815 1220.3L138.211 1216.93C141.918 1217.91 145.698 1218.78 149.445 1219.5L149.152 1222.9ZM126.574 1216.92C122.825 1215.66 119.081 1214.25 115.45 1212.74L116.061 1209.44C119.657 1210.94 123.363 1212.34 127.073 1213.59L126.574 1216.92ZM104.482 1207.71C100.826 1205.86 97.2009 1203.87 93.7083 1201.77L94.5566 1198.6C98.0091 1200.67 101.593 1202.64 105.209 1204.46L104.482 1207.71ZM83.1843 1194.9C79.6937 1192.42 76.2572 1189.78 72.9728 1187.03L74.084 1184.04C77.3277 1186.75 80.7189 1189.36 84.1621 1191.81L83.1843 1194.9ZM63.1363 1178.12C59.9093 1174.95 56.7564 1171.59 53.767 1168.13L55.1612 1165.43C58.1052 1168.83 61.2094 1172.14 64.3877 1175.26L63.1363 1178.12ZM44.951 1157.06C42.1078 1153.18 39.358 1149.1 36.7791 1144.92L38.4543 1142.6C40.9905 1146.7 43.6929 1150.72 46.4881 1154.53L44.951 1157.06ZM29.338 1131.76C27.002 1127.23 24.7661 1122.49 22.7024 1117.67L24.624 1115.83C26.6516 1120.56 28.8447 1125.22 31.1427 1129.67L29.338 1131.76ZM16.9199 1102.76C15.1592 1097.72 13.5113 1092.47 12.0217 1087.16L14.1261 1085.84C15.5911 1091.06 17.2109 1096.22 18.9415 1101.17L16.9199 1102.76ZM8.00176 1071.01C6.82576 1065.64 5.76122 1060.07 4.83684 1054.45L7.05269 1053.63C7.96305 1059.17 9.01159 1064.66 10.1702 1069.95L8.00176 1071.01ZM2.48619 1037.59C2.4408 1037.2 2.39675 1036.81 2.3527 1036.42C1.75202 1031.06 1.25544 1025.71 0.884357 1020.53L3.15361 1020.17C3.51936 1025.28 4.00657 1030.56 4.60191 1035.85C4.6464 1036.24 4.69091 1036.63 4.7354 1037.01L2.48619 1037.59ZM0.0754561 1003.36C-0.0520218 997.509 -0.0179731 991.708 0.177582 986.116L2.45682 986.294C2.2646 991.795 2.23121 997.494 2.35669 1003.25L0.0754561 1003.36ZM3.58143 969.44L1.32419 968.931C1.89276 963.229 2.66568 957.578 3.63947 952.005L5.84734 952.877C4.89393 958.331 4.13727 963.861 3.58077 969.442L3.58143 969.44ZM9.34663 936.823L7.22288 935.569C8.63613 930.193 10.2692 924.958 12.1124 919.894L14.1147 921.533C12.317 926.472 10.7246 931.579 9.34663 936.823ZM20.1268 907.264L18.2774 905.26C20.5392 900.579 22.9867 896.115 25.6064 891.891L27.2789 894.219C24.7217 898.34 22.3323 902.697 20.1242 907.264H20.1268ZM35.4202 882.528L33.9365 879.927C36.8634 876.185 39.9154 872.676 43.0802 869.416L44.3743 872.233C41.2744 875.426 38.2848 878.863 35.4175 882.528H35.4202ZM226.385 876.695L226.29 873.278C230.04 873.045 233.775 872.433 237.471 871.444L237.872 874.812C234.074 875.827 230.236 876.457 226.383 876.696L226.385 876.695ZM214.839 876.322C211.006 875.84 207.193 875.041 203.417 873.93L203.855 870.569C207.549 871.655 211.278 872.437 215.027 872.911L214.839 876.322ZM249.083 870.546L248.365 867.301C251.922 865.53 255.393 863.382 258.754 860.874L259.772 863.935C256.315 866.516 252.744 868.726 249.085 870.547L249.083 870.546ZM192.235 869.778C188.645 868.169 184.988 866.266 181.364 864.12L182.203 860.939C185.766 863.049 189.361 864.92 192.889 866.5L192.235 869.778ZM53.9799 863.308L52.8673 860.322C56.141 857.584 59.5989 854.976 63.1456 852.57L64.0874 855.687C60.5981 858.053 57.2009 860.617 53.9799 863.308ZM170.846 857.164C167.435 854.674 164.024 851.946 160.706 849.059L161.852 846.106C165.122 848.95 168.485 851.638 171.846 854.094L170.846 857.164ZM269.745 855.181L268.463 852.351C271.568 849.185 274.546 845.737 277.38 842.025L278.88 844.604C275.976 848.406 272.924 851.938 269.742 855.182L269.745 855.181ZM74.5746 849.282L73.7917 846.068C77.3237 844.133 80.9999 842.338 84.7128 840.725L85.3475 844.011C81.68 845.603 78.0552 847.376 74.5719 849.283L74.5746 849.282ZM150.979 839.866C148.394 837.209 146.707 835.282 146.04 834.499H141.449V831.08H146.836L147.15 831.459C147.168 831.48 149.007 833.693 152.266 837.045L150.979 839.866ZM96.3373 839.811L95.8434 836.47C99.5903 835.226 103.385 834.152 107.123 833.275L107.475 836.653C103.782 837.522 100.034 838.583 96.3339 839.813L96.3373 839.811ZM118.719 834.642L118.548 831.23C119.544 831.118 120.083 831.082 120.104 831.081H130.038V834.5H120.178C120.065 834.51 119.558 834.548 118.716 834.644L118.719 834.642ZM287.146 832.556L285.472 830.232C287.958 826.212 290.411 821.854 292.761 817.279L294.57 819.367C292.174 824.025 289.676 828.464 287.142 832.559L287.146 832.556ZM301.211 805.313L299.299 803.444C301.302 798.843 303.279 793.95 305.173 788.901L307.163 790.576C305.241 795.692 303.24 800.65 301.211 805.315V805.313ZM312.49 775.335L310.441 773.831C312.114 768.709 313.702 763.505 315.159 758.36L317.26 759.697C315.781 764.9 314.176 770.159 312.484 775.337L312.49 775.335ZM321.446 743.68L319.297 742.525C320.578 737.176 321.759 731.738 322.807 726.367L324.999 727.327C323.931 732.766 322.736 738.267 321.44 743.681L321.446 743.68ZM327.876 710.668L325.649 709.916C326.482 704.388 327.2 698.774 327.785 693.23L330.04 693.763C329.443 699.383 328.713 705.07 327.87 710.67L327.876 710.668ZM331.459 676.685L329.186 676.379C329.526 670.757 329.743 665.053 329.831 659.424L332.113 659.504C332.018 665.205 331.798 670.989 331.453 676.686L331.459 676.685ZM329.711 642.439C329.544 636.816 329.247 631.118 328.828 625.504L331.097 625.123C331.523 630.812 331.824 636.587 331.992 642.286L329.711 642.439ZM327.194 608.694C326.533 603.169 325.738 597.58 324.832 592.078L327.048 591.263C327.966 596.833 328.771 602.495 329.441 608.093L327.194 608.694ZM321.77 575.72C320.648 570.367 319.393 564.967 318.041 559.664L320.172 558.442C321.541 563.808 322.811 569.274 323.947 574.691L321.77 575.72ZM313.68 543.971C312.14 538.853 310.473 533.709 308.725 528.679L310.75 527.1C312.517 532.184 314.204 537.387 315.761 542.564L313.68 543.971ZM303.206 513.822C301.282 508.964 299.243 504.124 297.146 499.434L299.042 497.53C301.163 502.272 303.224 507.166 305.168 512.077L303.206 513.822ZM290.574 485.58C288.257 480.975 285.869 476.515 283.475 472.311L285.211 470.09C287.634 474.342 290.052 478.86 292.396 483.52L290.574 485.58ZM275.824 459.818C273.883 456.828 271.819 454.03 269.644 451.443C268.921 450.654 268.149 449.974 267.34 449.412L268.328 446.327C269.274 446.988 270.175 447.787 271.019 448.714C273.28 451.397 275.424 454.299 277.441 457.402L275.824 459.818ZM256.72 444.361C253.538 443.258 249.896 442.199 245.585 441.128L245.958 437.753C250.317 438.837 254.005 439.908 257.238 441.028L256.72 444.361ZM234.328 438.615C230.936 437.926 227.239 437.224 223.025 436.469L223.296 433.073C227.521 433.832 231.23 434.536 234.634 435.226L234.328 438.615ZM211.695 434.511C208.691 434.007 205.611 433.498 202.632 433.006L200.353 432.63L200.603 429.23L202.882 429.607C205.863 430.099 208.944 430.608 211.95 431.114L211.695 434.511ZM189.002 430.727C184.731 429.997 181.019 429.336 177.656 428.708L177.938 425.314C181.292 425.941 184.996 426.599 189.261 427.328L189.002 430.727ZM166.325 426.449C162.092 425.533 158.392 424.649 155.015 423.735L155.42 420.367C158.771 421.275 162.444 422.156 166.65 423.062L166.325 426.449ZM143.772 420.112C141.797 419.334 140.014 418.525 138.474 417.707C136.656 416.742 134.764 415.646 132.849 414.447L133.73 411.29C135.605 412.464 137.458 413.538 139.236 414.482C140.717 415.267 142.44 416.047 144.352 416.801L143.772 420.112ZM122.434 407.133C119.199 404.637 115.821 401.829 112.396 398.793L113.558 395.85C116.945 398.852 120.283 401.626 123.479 404.094L122.434 407.133ZM102.671 389.692C99.5449 386.619 96.3653 383.354 93.2204 379.986L94.5472 377.203C97.6674 380.545 100.821 383.784 103.923 386.833L102.671 389.692ZM84.0306 369.729C81.8695 367.214 80.5166 365.552 80.2363 365.206C79.8713 364.849 77.9491 362.952 74.9377 359.4L76.3486 356.711C79.5362 360.47 81.5044 362.361 81.5245 362.379L81.5845 362.438L81.6399 362.505C81.654 362.522 83.0368 364.236 85.4316 367.027L84.0306 369.729ZM66.2231 348.144C63.4713 344.281 60.7502 340.166 58.1326 335.905L59.8118 333.588C62.3901 337.786 65.0725 341.838 67.7836 345.648L66.2231 348.144ZM50.6541 322.826C48.2781 318.36 45.9755 313.709 43.8104 308.999L45.6898 307.058C47.8256 311.703 50.0948 316.291 52.4382 320.693L50.6541 322.826ZM37.626 294.483C35.6865 289.561 33.8391 284.472 32.1351 279.358L34.1774 277.831C35.8573 282.873 37.6794 287.89 39.5916 292.747L37.626 294.483ZM27.3637 263.69C25.9047 258.419 24.5492 252.995 23.3345 247.565L25.4989 246.477C26.697 251.83 28.0351 257.18 29.4721 262.38L27.3637 263.69ZM20.0601 231.066C19.103 225.561 18.2581 219.912 17.5406 214.274L19.7831 213.637C20.4886 219.199 21.3249 224.773 22.2686 230.204L20.0601 231.066ZM15.7672 197.263C15.3047 191.637 14.9537 185.873 14.7234 180.132L17.002 179.928C17.2289 185.597 17.5759 191.29 18.0325 196.846L15.7672 197.263ZM14.3817 162.938C14.3817 160.037 14.4104 157.083 14.4671 154.156C14.5218 151.325 14.6073 148.49 14.7207 145.729L16.9993 145.939C16.8878 148.664 16.8031 151.461 16.749 154.255C16.693 157.148 16.6643 160.07 16.6643 162.938H14.3817ZM18.0952 129.038L15.8333 128.579C16.3559 122.773 17.03 117.069 17.8356 111.605L20.0641 112.344C19.2665 117.719 18.6031 123.338 18.0899 129.046L18.0952 129.038ZM23.0228 96.0026L20.8517 94.9472C22.0374 89.4609 23.4188 84.078 24.9897 78.8218L27.0721 80.2223C25.5329 85.3685 24.1794 90.6393 23.0174 96.0111L23.0228 96.0026ZM32.2833 65.2512L30.3277 63.4872C32.317 58.5322 34.5138 53.7784 36.9045 49.2556L38.6926 51.3803C36.3605 55.792 34.2178 60.4298 32.2779 65.2637L32.2833 65.2512ZM46.2551 38.8969L44.6713 36.433C47.4533 32.4204 50.4065 28.6933 53.5114 25.2766L54.8622 28.0329C51.8371 31.3623 48.9599 34.9942 46.2498 38.9049L46.2551 38.8969ZM64.349 18.9563L63.2464 15.9608C66.625 13.173 70.1124 10.704 73.6889 8.56727L74.5346 11.7453C71.0433 13.8306 67.6395 16.2415 64.3423 18.9648L64.349 18.9563ZM85.234 6.46798L84.6567 3.15765C88.3982 1.61804 92.218 0.561693 96.0756 0L96.2312 3.41328C92.5149 3.97186 88.8349 4.99577 85.2286 6.47494L85.234 6.46798Z" fill="url(#paint0_linear_2395_60965)"/>
<defs>
<linearGradient id="paint0_linear_2395_60965" x1="202" y1="1529.68" x2="-178.134" y2="435.049" gradientUnits="userSpaceOnUse">
<stop stop-color="#FF6BA9"/>
<stop offset="1" stop-color="#FF6BA9" stop-opacity="0.15"/>
</linearGradient>
</defs>
</svg>
