<svg xmlns="http://www.w3.org/2000/svg" xmlns:xlink="http://www.w3.org/1999/xlink" width="353.503" height="295.158" viewBox="0 0 353.503 295.158">
  <defs>
    <filter id="Rechteck_12531" x="0" y="0" width="289.25" height="295.158" filterUnits="userSpaceOnUse">
      <feOffset dy="3" input="SourceAlpha"/>
      <feGaussianBlur stdDeviation="3" result="blur"/>
      <feFlood flood-opacity="0.161"/>
      <feComposite operator="in" in2="blur"/>
      <feComposite in="SourceGraphic"/>
    </filter>
    <filter id="Rechteck_12529" x="18.441" y="48.854" width="335.062" height="234.56" filterUnits="userSpaceOnUse">
      <feOffset dy="6" input="SourceAlpha"/>
      <feGaussianBlur stdDeviation="4.5" result="blur-2"/>
      <feFlood flood-color="#0057ff" flood-opacity="0.161"/>
      <feComposite operator="in" in2="blur-2"/>
      <feComposite in="SourceGraphic"/>
    </filter>
    <clipPath id="clip-path">
      <path id="Pfad_3558" data-name="Pfad 3558" d="M0-18.035V-2.316A1.965,1.965,0,0,0,1.965-.351H13.754a1.965,1.965,0,0,0,1.965-1.965v-10.7a1.965,1.965,0,0,0-.518-1.329l-4.625-5.035A1.927,1.927,0,0,0,9.156-20H1.965A1.965,1.965,0,0,0,0-18.035Z" transform="translate(0 20)" fill="none" clip-rule="evenodd"/>
    </clipPath>
    <clipPath id="clip-path-2">
      <path id="Pfad_3560" data-name="Pfad 3560" d="M9.292-18.5l.135.007.043.013a.538.538,0,0,1,.181.127h0l.93,1.012v3.507H13.8l.473.515.055.073a.491.491,0,0,1,.074.259h0v.626H9.844A.737.737,0,0,1,9.114-13l-.007-.1v-5.4Z" transform="translate(-9.107 18.5)" fill="none"/>
    </clipPath>
    <clipPath id="clip-path-3">
      <path id="Pfad_3562" data-name="Pfad 3562" d="M2.695-4.408a2.215,2.215,0,0,0,.261.117,1.365,1.365,0,0,0,.516.089.709.709,0,0,0,.344-.072.449.449,0,0,0,.2-.224,1.347,1.347,0,0,0,.089-.4q.024-.244.024-.595V-7.97H5.466v2.483A7.134,7.134,0,0,1,5.4-4.476a2.071,2.071,0,0,1-.265.784,1.272,1.272,0,0,1-.6.505,2.69,2.69,0,0,1-1.066.175,2.073,2.073,0,0,1-.578-.076,1.657,1.657,0,0,1-.481-.227Z" transform="translate(-2.413 7.97)" fill="none"/>
    </clipPath>
    <clipPath id="clip-path-4">
      <path id="Pfad_3564" data-name="Pfad 3564" d="M8.833-6.375l-.117-.069A3.208,3.208,0,0,0,8.406-6.6a3.567,3.567,0,0,0-.419-.155,1.536,1.536,0,0,0-.447-.069.63.63,0,0,0-.282.055.191.191,0,0,0-.11.186.232.232,0,0,0,.11.2,1.16,1.16,0,0,0,.313.138l.485.151a4.221,4.221,0,0,1,.784.316,1.356,1.356,0,0,1,.509.457,1.352,1.352,0,0,1,.179.739,1.568,1.568,0,0,1-.158.739,1.284,1.284,0,0,1-.426.478,1.843,1.843,0,0,1-.6.258,2.882,2.882,0,0,1-.674.079A3.941,3.941,0,0,1,6.938-3.1,4.944,4.944,0,0,1,6.2-3.3a3.893,3.893,0,0,1-.653-.3l.578-1.176.138.083a3.727,3.727,0,0,0,.364.186,3.9,3.9,0,0,0,.505.186,1.964,1.964,0,0,0,.56.083A.577.577,0,0,0,8-4.295a.179.179,0,0,0,.086-.155.245.245,0,0,0-.151-.224,2.246,2.246,0,0,0-.4-.151Q7.292-4.9,7-4.993a3.044,3.044,0,0,1-.7-.327,1.173,1.173,0,0,1-.406-.433,1.3,1.3,0,0,1-.131-.609,1.548,1.548,0,0,1,.254-.908,1.617,1.617,0,0,1,.671-.554,2.143,2.143,0,0,1,.9-.189,2.758,2.758,0,0,1,.691.086,4.452,4.452,0,0,1,.626.21q.292.124.512.234Z" transform="translate(-5.546 8.012)" fill="none"/>
    </clipPath>
    <clipPath id="clip-path-5">
      <path id="Pfad_3566" data-name="Pfad 3566" d="M11.959-3.047a2.381,2.381,0,0,1-1.011-.21,2.444,2.444,0,0,1-.781-.564,2.551,2.551,0,0,1-.5-.8,2.476,2.476,0,0,1-.175-.918,2.364,2.364,0,0,1,.186-.928,2.57,2.57,0,0,1,.519-.787,2.431,2.431,0,0,1,.791-.547,2.476,2.476,0,0,1,1-.2A2.381,2.381,0,0,1,13-7.788a2.38,2.38,0,0,1,.777.567,2.626,2.626,0,0,1,.5.8,2.458,2.458,0,0,1,.175.911,2.385,2.385,0,0,1-.182.922,2.519,2.519,0,0,1-.516.787,2.486,2.486,0,0,1-.787.55A2.433,2.433,0,0,1,11.959-3.047ZM10.852-5.522a1.662,1.662,0,0,0,.069.478,1.292,1.292,0,0,0,.206.413.991.991,0,0,0,.347.289,1.088,1.088,0,0,0,.5.107,1.081,1.081,0,0,0,.5-.11.956.956,0,0,0,.347-.3,1.361,1.361,0,0,0,.2-.419,1.719,1.719,0,0,0,.065-.471,1.627,1.627,0,0,0-.069-.475,1.3,1.3,0,0,0-.206-.409.951.951,0,0,0-.351-.285,1.124,1.124,0,0,0-.5-.1,1.06,1.06,0,0,0-.5.11,1.025,1.025,0,0,0-.347.292,1.239,1.239,0,0,0-.2.413A1.718,1.718,0,0,0,10.852-5.522Z" transform="translate(-9.49 7.998)" fill="none"/>
    </clipPath>
    <clipPath id="clip-path-6">
      <path id="Pfad_3568" data-name="Pfad 3568" d="M16.022-5.487v2.4H14.681V-7.97h1.045l1.96,2.483V-7.97h1.341v4.883H17.961Z" transform="translate(-14.681 7.97)" fill="none"/>
    </clipPath>
    <clipPath id="clip-path-9">
      <path id="Pfad_3574" data-name="Pfad 3574" d="M4.686-5.57a2.384,2.384,0,0,1,.168-.877,2.48,2.48,0,0,1,.492-.781,2.4,2.4,0,0,1,.787-.56A2.52,2.52,0,0,1,7.183-8a2.467,2.467,0,0,1,1.224.292,1.9,1.9,0,0,1,.777.774L8.159-6.2A.814.814,0,0,0,7.9-6.574a1.01,1.01,0,0,0-.364-.182,1.5,1.5,0,0,0-.382-.052,1.033,1.033,0,0,0-.5.113,1.01,1.01,0,0,0-.344.3,1.325,1.325,0,0,0-.2.413,1.634,1.634,0,0,0-.065.454,1.576,1.576,0,0,0,.076.488,1.315,1.315,0,0,0,.22.416,1.021,1.021,0,0,0,.354.285,1.053,1.053,0,0,0,.471.1,1.3,1.3,0,0,0,.378-.058A1,1,0,0,0,7.9-4.484a.814.814,0,0,0,.241-.351l1.093.653a1.435,1.435,0,0,1-.481.612,2.5,2.5,0,0,1-.763.389,2.807,2.807,0,0,1-.846.134,2.263,2.263,0,0,1-.994-.217,2.494,2.494,0,0,1-.777-.578,2.667,2.667,0,0,1-.505-.811A2.469,2.469,0,0,1,4.686-5.57Z" transform="translate(-4.686 7.998)" fill="none"/>
    </clipPath>
    <clipPath id="clip-path-10">
      <path id="Pfad_3576" data-name="Pfad 3576" d="M12.31-6.375l-.117-.069a3.207,3.207,0,0,0-.309-.155,3.567,3.567,0,0,0-.419-.155,1.536,1.536,0,0,0-.447-.069.63.63,0,0,0-.282.055.191.191,0,0,0-.11.186.232.232,0,0,0,.11.2,1.16,1.16,0,0,0,.313.138l.485.151a4.221,4.221,0,0,1,.784.316,1.356,1.356,0,0,1,.509.457A1.352,1.352,0,0,1,13-4.58a1.568,1.568,0,0,1-.158.739,1.284,1.284,0,0,1-.426.478,1.843,1.843,0,0,1-.6.258,2.882,2.882,0,0,1-.674.079,3.941,3.941,0,0,1-.732-.072,4.944,4.944,0,0,1-.739-.2,3.893,3.893,0,0,1-.653-.3L9.6-4.773l.138.083A3.727,3.727,0,0,0,10.1-4.5a3.9,3.9,0,0,0,.505.186,1.964,1.964,0,0,0,.56.083.577.577,0,0,0,.306-.058.179.179,0,0,0,.086-.155.245.245,0,0,0-.151-.224,2.246,2.246,0,0,0-.4-.151q-.244-.072-.54-.168a3.044,3.044,0,0,1-.7-.327,1.173,1.173,0,0,1-.406-.433,1.3,1.3,0,0,1-.131-.609,1.548,1.548,0,0,1,.254-.908,1.617,1.617,0,0,1,.671-.554,2.143,2.143,0,0,1,.9-.189,2.758,2.758,0,0,1,.691.086,4.452,4.452,0,0,1,.626.21q.292.124.512.234Z" transform="translate(-9.023 8.012)" fill="none"/>
    </clipPath>
    <clipPath id="clip-path-11">
      <path id="Pfad_3578" data-name="Pfad 3578" d="M14.062-7.97l.956,3.335L15.96-7.97h1.41L15.685-3.087H14.351L12.645-7.97Z" transform="translate(-12.645 7.97)" fill="none"/>
    </clipPath>
  </defs>
  <g id="Grafik_groß" transform="translate(-756 -16.592)">
    <g id="Gruppe_8000" data-name="Gruppe 8000" transform="translate(765 22.592)">
      <g id="Gruppe_7999" data-name="Gruppe 7999" transform="translate(0)">
        <g transform="matrix(1, 0, 0, 1, -9, -6)" filter="url(#Rechteck_12531)">
          <rect id="Rechteck_12531-2" data-name="Rechteck 12531" width="271.25" height="277.158" rx="30" transform="translate(9 6)" fill="#f8f9fa"/>
        </g>
      </g>
    </g>
    <g id="Gruppe_8012" data-name="Gruppe 8012" transform="translate(787.941 72.945)">
      <g id="Gruppe_7995" data-name="Gruppe 7995" transform="translate(0)">
        <g transform="matrix(1, 0, 0, 1, -31.94, -56.35)" filter="url(#Rechteck_12529)">
          <rect id="Rechteck_12529-2" data-name="Rechteck 12529" width="308.062" height="207.56" rx="8" transform="translate(31.94 56.35)" fill="#fff"/>
        </g>
        <path id="Pfad_6697" data-name="Pfad 6697" d="M0,0H308.062V46.974H0Z" transform="translate(0 99.41)" fill="#e9eefe"/>
        <g id="Gruppe_7994" data-name="Gruppe 7994" transform="translate(18.571 13.109)">
          <g id="Gruppe_7979" data-name="Gruppe 7979" transform="translate(0 0)">
            <rect id="BG" width="269.828" height="42.604" transform="translate(1.092)" fill="#fff"/>
            <g id="divider" transform="translate(0 41.512)" fill="#fff" stroke="#edeff2" stroke-width="1">
              <rect width="270.92" height="1.092" stroke="none"/>
              <rect x="0.5" y="0.5" width="269.92" height="0.092" fill="none"/>
            </g>
          </g>
          <g id="Gruppe_7980" data-name="Gruppe 7980" transform="translate(1.092 45.882)">
            <rect id="BG-2" data-name="BG" width="270.92" height="41.512" transform="translate(0 0)" fill="#fff"/>
            <g id="divider-2" data-name="divider" transform="translate(0 40.42)" fill="#fff" stroke="#edeff2" stroke-width="1">
              <rect width="270.92" height="1.092" stroke="none"/>
              <rect x="0.5" y="0.5" width="269.92" height="0.092" fill="none"/>
            </g>
          </g>
          <g id="Gruppe_7982" data-name="Gruppe 7982" transform="translate(1.092 90.671)">
            <rect id="BG-3" data-name="BG" width="270.92" height="41.512" transform="translate(0 0)" fill="none"/>
            <g id="divider-3" data-name="divider" transform="translate(0 40.42)" fill="#fff" stroke="#edeff2" stroke-width="1">
              <rect width="270.92" height="1.092" stroke="none"/>
              <rect x="0.5" y="0.5" width="269.92" height="0.092" fill="none"/>
            </g>
            <text id="Open_print_view" data-name="Open print view" transform="translate(49.159 24.109)" fill="#111" font-size="12" font-family="Raleway-Medium, Raleway" font-weight="500" letter-spacing="0.035em"><tspan x="0" y="0">Open print view</tspan></text>
          </g>
          <g id="Gruppe_7983" data-name="Gruppe 7983" transform="translate(1.092 136.552)">
            <rect id="BG-4" data-name="BG" width="269.828" height="40.42" transform="translate(0 0)" fill="#fff"/>
          </g>
          <g id="ic_file_json" transform="translate(1.093 0)">
            <rect id="BG-5" data-name="BG" width="31.68" height="31.68" fill="rgba(255,255,255,0)"/>
            <g id="Gruppe_3205" data-name="Gruppe 3205" transform="translate(7.859 5.895)" clip-path="url(#clip-path)">
              <g id="Gruppe_3204" data-name="Gruppe 3204">
                <path id="Pfad_3557" data-name="Pfad 3557" d="M0,1.965V17.684a1.965,1.965,0,0,0,1.965,1.965H13.754a1.965,1.965,0,0,0,1.965-1.965V6.988A1.965,1.965,0,0,0,15.2,5.658L10.576.623A1.927,1.927,0,0,0,9.156,0H1.965A1.965,1.965,0,0,0,0,1.965Z" fill="none" stroke="rgba(0,87,255,0.5)" stroke-linecap="round" stroke-linejoin="round" stroke-width="3"/>
              </g>
            </g>
            <g id="Gruppe_3206" data-name="Gruppe 3206" transform="translate(16.806 7.368)" clip-path="url(#clip-path-2)">
              <path id="Pfad_3559" data-name="Pfad 3559" d="M8.107-19.5H15.37v8.105H8.107Z" transform="translate(-9.089 18.518)" fill="rgba(0,87,255,0.5)"/>
            </g>
            <g id="Gruppe_3207" data-name="Gruppe 3207" transform="translate(10.23 17.713)" clip-path="url(#clip-path-3)">
              <path id="Pfad_3561" data-name="Pfad 3561" d="M1.413-8.97H6.431v6.923H1.413Z" transform="translate(-2.395 7.988)" fill="#0057ff"/>
            </g>
            <g id="Gruppe_3208" data-name="Gruppe 3208" transform="translate(13.307 17.672)" clip-path="url(#clip-path-4)">
              <path id="Pfad_3563" data-name="Pfad 3563" d="M4.545-9.012h5.947v6.951H4.545Z" transform="translate(-5.528 8.03)" fill="#0057ff"/>
            </g>
            <g id="Gruppe_3209" data-name="Gruppe 3209" transform="translate(17.183 17.686)" clip-path="url(#clip-path-5)">
              <path id="Pfad_3565" data-name="Pfad 3565" d="M8.49-9h6.923v6.916H8.49Z" transform="translate(-9.472 8.016)" fill="#0057ff"/>
            </g>
            <g id="Gruppe_3210" data-name="Gruppe 3210" transform="translate(22.282 17.713)" clip-path="url(#clip-path-6)">
              <path id="Pfad_3567" data-name="Pfad 3567" d="M13.681-8.97h6.311v6.848H13.681Z" transform="translate(-14.663 7.988)" fill="#0057ff"/>
            </g>
          </g>
          <g id="ic_file_csv" transform="translate(1.093 49.159)">
            <rect id="BG-6" data-name="BG" width="31.68" height="31.68" fill="rgba(255,255,255,0)"/>
            <g id="Gruppe_3212" data-name="Gruppe 3212" transform="translate(7.859 5.895)" clip-path="url(#clip-path)">
              <g id="Gruppe_3211" data-name="Gruppe 3211">
                <path id="Pfad_3569" data-name="Pfad 3569" d="M0,1.965V17.684a1.965,1.965,0,0,0,1.965,1.965H13.754a1.965,1.965,0,0,0,1.965-1.965V6.988A1.965,1.965,0,0,0,15.2,5.658L10.576.623A1.927,1.927,0,0,0,9.156,0H1.965A1.965,1.965,0,0,0,0,1.965Z" fill="none" stroke="rgba(0,87,255,0.5)" stroke-linecap="round" stroke-linejoin="round" stroke-width="3"/>
              </g>
            </g>
            <g id="Gruppe_3213" data-name="Gruppe 3213" transform="translate(16.806 7.368)" clip-path="url(#clip-path-2)">
              <path id="Pfad_3571" data-name="Pfad 3571" d="M8.107-19.5H15.37v8.105H8.107Z" transform="translate(-9.089 18.518)" fill="rgba(0,87,255,0.5)"/>
            </g>
            <g id="Gruppe_3214" data-name="Gruppe 3214" transform="translate(12.463 17.686)" clip-path="url(#clip-path-9)">
              <path id="Pfad_3573" data-name="Pfad 3573" d="M3.686-9H10.2v6.916H3.686Z" transform="translate(-4.669 8.016)" fill="#0057ff"/>
            </g>
            <g id="Gruppe_3215" data-name="Gruppe 3215" transform="translate(16.724 17.672)" clip-path="url(#clip-path-10)">
              <path id="Pfad_3575" data-name="Pfad 3575" d="M8.023-9.012h5.947v6.951H8.023Z" transform="translate(-9.005 8.03)" fill="#0057ff"/>
            </g>
            <g id="Gruppe_3216" data-name="Gruppe 3216" transform="translate(20.282 17.713)" clip-path="url(#clip-path-11)">
              <path id="Pfad_3577" data-name="Pfad 3577" d="M11.645-8.97h6.689v6.848H11.645Z" transform="translate(-12.628 7.988)" fill="#0057ff"/>
            </g>
          </g>
          <g id="Gruppe_7991" data-name="Gruppe 7991" transform="translate(8.179 103.125)">
            <g id="Gruppe_7989" data-name="Gruppe 7989">
              <path id="Pfad_6685" data-name="Pfad 6685" d="M3579.368-6504.36v-4.673h11.365v4.673Z" transform="translate(-3576.457 6509.033)" fill="none" stroke="#7faaff" stroke-width="1.7"/>
              <path id="Pfad_6686" data-name="Pfad 6686" d="M3588.793-6506.625a4.836,4.836,0,0,1,1.658.319,1.417,1.417,0,0,1,.723.881v8.356h-3.817" transform="translate(-3573.938 6511.297)" fill="none" stroke="#7faaff" stroke-width="1.7"/>
              <path id="Pfad_6689" data-name="Pfad 6689" d="M3589.737-6506.625a4.834,4.834,0,0,0-1.657.319,1.417,1.417,0,0,0-.723.881v8.356h3.365" transform="translate(-3587.356 6511.297)" fill="none" stroke="#7faaff" stroke-width="1.7"/>
            </g>
            <g id="Gruppe_7988" data-name="Gruppe 7988" transform="translate(2.232 9.187)">
              <path id="Pfad_6687" data-name="Pfad 6687" d="M3578.366-6504.537h12.443" transform="translate(-3578.366 6504.537)" fill="none" stroke="#0057ff" stroke-width="1.7"/>
              <path id="Pfad_6688" data-name="Pfad 6688" d="M3580-6505.492v7.257h6.246v-7.257" transform="translate(-3576.972 6505.559)" fill="none" stroke="#0057ff" stroke-width="1.7"/>
            </g>
            <path id="Pfad_6690" data-name="Pfad 6690" d="M3587.336-6507.005h1.238" transform="translate(-3573.948 6514.002)" fill="none" stroke="#0057ff" stroke-width="1"/>
          </g>
          <g id="Gruppe_7992" data-name="Gruppe 7992" transform="translate(9.161 150.893)">
            <g id="Rechteck_12530" data-name="Rechteck 12530" transform="translate(0 2.134)" fill="none" stroke="#7faaff" stroke-width="1.7">
              <rect width="18.263" height="19.133" rx="1.5" stroke="none"/>
              <rect x="0.85" y="0.85" width="16.563" height="17.433" rx="0.65" fill="none"/>
            </g>
            <g id="Gruppe_7991-2" data-name="Gruppe 7991" transform="translate(4.05 9.849)">
              <path id="Pfad_6691" data-name="Pfad 6691" d="M3579.759-6473.621h4.2" transform="translate(-3579.758 6473.621)" fill="none" stroke="#0057ff" stroke-linecap="round" stroke-width="1.7"/>
              <path id="Pfad_6692" data-name="Pfad 6692" d="M3579.759-6473.621h6.573" transform="translate(-3579.759 6477.05)" fill="none" stroke="#0057ff" stroke-linecap="round" stroke-width="1.7"/>
              <path id="Pfad_6693" data-name="Pfad 6693" d="M3579.759-6473.621h4.2" transform="translate(-3579.759 6480.479)" fill="none" stroke="#0057ff" stroke-linecap="round" stroke-width="1.7"/>
            </g>
            <g id="Pfad_6694" data-name="Pfad 6694" transform="translate(3.551 -0.333)" fill="#fff" stroke-linecap="round">
              <path d="M 9.645248413085938 6.203325748443604 L 1.516968131065369 6.203325748443604 C 0.73101806640625 6.203325748443604 0.07068809121847153 5.811155796051025 -0.1653219014406204 5.204216003417969 C -0.35782191157341 4.709145545959473 -0.2188019007444382 4.164655685424805 0.1974880993366241 3.783245801925659 L 0.2462181001901627 3.738605737686157 L 0.3019880950450897 3.703175783157349 C 0.313488095998764 3.695855855941772 1.481418132781982 2.949835777282715 2.434148073196411 2.076935768127441 C 3.382888078689575 1.207685828208923 4.159838199615479 0.173885777592659 4.167578220367432 0.1635457873344421 L 4.209648132324219 0.1073157861828804 L 4.261628150939941 0.05960578471422195 C 4.591988086700439 -0.24306420981884 5.072927951812744 -0.4166642129421234 5.581108093261719 -0.4166642129421234 C 6.089298248291016 -0.4166642129421234 6.57023811340332 -0.24306420981884 6.900598049163818 0.05961578339338303 L 6.955578327178955 0.1099957823753357 L 6.999567985534668 0.1702157855033875 C 7.006897926330566 0.1802357882261276 7.764708042144775 1.210645794868469 8.710207939147949 2.076935768127441 C 9.664658546447754 2.951405763626099 10.84426784515381 3.693155765533447 10.85607814788818 3.700545787811279 L 10.91418838500977 3.73693585395813 L 10.96473789215088 3.783255815505981 C 11.381028175354 4.164665699005127 11.52004814147949 4.709155559539795 11.32753849029541 5.204226016998291 C 11.09152793884277 5.811155796051025 10.43119812011719 6.203325748443604 9.645248413085938 6.203325748443604 Z" stroke="none"/>
              <path d="M 5.581111907958984 0.3333358764648438 C 5.276300430297852 0.3333358764648438 4.971487998962402 0.4264259338378906 4.768278121948242 0.6126055717468262 C 4.768278121948242 0.6126055717468262 3.956838130950928 1.699015855789185 2.940808296203613 2.629925727844238 C 1.924777984619141 3.560825824737549 0.7041482925415039 4.336236000061035 0.7041482925415039 4.336236000061035 C 0.2017879486083984 4.796505928039551 0.6797084808349609 5.453325748443604 1.5169677734375 5.453325748443604 L 9.645248413085938 5.453325748443604 C 10.48250770568848 5.453325748443604 10.96042823791504 4.796505928039551 10.45807838439941 4.336236000061035 C 10.45807838439941 4.336236000061035 9.219588279724121 3.560825824737549 8.203548431396484 2.629925727844238 C 7.187518119812012 1.699015855789185 6.393938064575195 0.6126055717468262 6.393938064575195 0.6126055717468262 C 6.190732955932617 0.4264259338378906 5.885922908782959 0.3333358764648438 5.581111907958984 0.3333358764648438 M 5.581108093261719 -1.166664123535156 C 6.284828186035156 -1.166664123535156 6.933358192443848 -0.9275541305541992 7.407238006591797 -0.4933843612670898 L 7.517218112945557 -0.3926243782043457 L 7.605197906494141 -0.2721743583679199 C 7.61149787902832 -0.2635941505432129 8.329957962036133 0.7113456726074219 9.21686840057373 1.523945808410645 C 10.121337890625 2.352625846862793 11.24284839630127 3.057835817337036 11.25407791137695 3.064865827560425 L 11.37029838562012 3.137635707855225 L 11.47140789031982 3.230265855789185 C 12.12102794647217 3.825475692749023 12.33374786376953 4.686005592346191 12.02654838562012 5.476035594940186 C 11.67758846282959 6.373456001281738 10.74286842346191 6.953325748443604 9.645248413085938 6.953325748443604 L 1.5169677734375 6.953325748443604 C 0.4193382263183594 6.953325748443604 -0.5153818130493164 6.373456001281738 -0.8643321990966797 5.476025581359863 C -1.171531677246094 4.685996055603027 -0.9588022232055664 3.825465679168701 -0.3091716766357422 3.230255842208862 L -0.2117223739624023 3.140975713729858 L -0.1001615524291992 3.070105791091919 C -0.08977222442626953 3.063485860824585 1.026247978210449 2.349675893783569 1.927497863769531 1.523945808410645 C 2.820828437805176 0.7054557800292969 3.559887886047363 -0.2762041091918945 3.567257881164551 -0.2860240936279297 L 3.651108264923096 -0.3978943824768066 L 3.754978179931641 -0.4933843612670898 C 4.22885799407959 -0.9275541305541992 4.877388000488281 -1.166664123535156 5.581108093261719 -1.166664123535156 Z" stroke="none" fill="#0057ff"/>
            </g>
            <g id="Ellipse_1875" data-name="Ellipse 1875" transform="translate(7.658 1.152)" fill="#fff" stroke="#0057ff" stroke-width="1">
              <circle cx="1.474" cy="1.474" r="1.474" stroke="none"/>
              <circle cx="1.474" cy="1.474" r="0.974" fill="none"/>
            </g>
          </g>
        </g>
      </g>
      <rect id="Rechteck_12537" data-name="Rechteck 12537" width="102.687" height="15.294" rx="2" transform="translate(67.73 24.033)" fill="#edeff2"/>
      <rect id="Rechteck_12538" data-name="Rechteck 12538" width="77.562" height="15.294" rx="2" transform="translate(67.73 73.192)" fill="#edeff2"/>
      <rect id="Rechteck_12539" data-name="Rechteck 12539" width="83.024" height="15.294" rx="2" transform="translate(68.822 178.064)" fill="#edeff2"/>
      <rect id="Rechteck_12542" data-name="Rechteck 12542" width="113.612" height="15.294" rx="2" transform="translate(68.822 158.401)" fill="#edeff2"/>
    </g>
    <g id="Gruppe_8011" data-name="Gruppe 8011" transform="translate(848.024 33.137)">
      <text id="Export_board" data-name="Export board" transform="translate(6.976 13)" fill="#111" font-size="14" font-family="Raleway-Bold, Raleway" font-weight="700" letter-spacing="0.025em"><tspan x="0" y="0">Export board</tspan></text>
      <path id="Pfad_6697-2" data-name="Pfad 6697" d="M0,.5H104.387" transform="translate(0.476 22.922)" fill="none" stroke="#0057ff" stroke-linecap="round" stroke-width="3"/>
    </g>
  </g>
</svg>
