<svg xmlns="http://www.w3.org/2000/svg" xmlns:xlink="http://www.w3.org/1999/xlink" width="373.959" height="336.302" viewBox="0 0 373.959 336.302">
  <defs>
    <filter id="Hintergrund_1" x="107.656" y="70" width="266.302" height="266.302" filterUnits="userSpaceOnUse">
      <feOffset dy="3" input="SourceAlpha"/>
      <feGaussianBlur stdDeviation="3" result="blur"/>
      <feFlood flood-opacity="0.161"/>
      <feComposite operator="in" in2="blur"/>
      <feComposite in="SourceGraphic"/>
    </filter>
    <filter id="Hintergrund_2" x="0" y="82.5" width="297" height="232" filterUnits="userSpaceOnUse">
      <feOffset dy="6" input="SourceAlpha"/>
      <feGaussianBlur stdDeviation="4.5" result="blur-2"/>
      <feFlood flood-color="#ff0069" flood-opacity="0.161"/>
      <feComposite operator="in" in2="blur-2"/>
      <feComposite in="SourceGraphic"/>
    </filter>
    <filter id="BG" x="280.926" y="0" width="85.895" height="208.535" filterUnits="userSpaceOnUse">
      <feOffset dy="3" input="SourceAlpha"/>
      <feGaussianBlur stdDeviation="5" result="blur-3"/>
      <feFlood flood-opacity="0.149"/>
      <feComposite operator="in" in2="blur-3"/>
      <feComposite in="SourceGraphic"/>
    </filter>
    <clipPath id="clip-path">
      <path id="Pfad_37" data-name="Pfad 37" d="M135.261-12.551V-22.729A1.271,1.271,0,0,1,136.532-24a1.271,1.271,0,0,1,1.272,1.271v4.64m-2.479,10.56-5.9-6.167a1.272,1.272,0,0,1-.073-.978,1.271,1.271,0,0,1,.645-.739,1.271,1.271,0,0,1,.978-.073c.323.108.414.049.564.354l3.723,2.579m2.543-5.092a1.271,1.271,0,0,1,1.271-1.271,1.271,1.271,0,0,1,1.271,1.271m.032,0c0-.7.537-.636,1.24-.636a1.271,1.271,0,0,1,1.271,1.271" transform="translate(-129.286 24)" fill="none" clip-rule="evenodd"/>
    </clipPath>
    <filter id="Ellipse_10" x="229.086" y="176" width="34.437" height="34.437" filterUnits="userSpaceOnUse">
      <feOffset dy="4" input="SourceAlpha"/>
      <feGaussianBlur stdDeviation="4" result="blur-4"/>
      <feFlood flood-color="#ff0069" flood-opacity="0.161"/>
      <feComposite operator="in" in2="blur-4"/>
      <feComposite in="SourceGraphic"/>
    </filter>
    <filter id="Ellipse_10-2" x="229.086" y="139" width="34.437" height="34.437" filterUnits="userSpaceOnUse">
      <feOffset dy="4" input="SourceAlpha"/>
      <feGaussianBlur stdDeviation="4" result="blur-5"/>
      <feFlood flood-color="#ff0069" flood-opacity="0.161"/>
      <feComposite operator="in" in2="blur-5"/>
      <feComposite in="SourceGraphic"/>
    </filter>
    <clipPath id="clip">
      <use xlink:href="#fill"/>
    </clipPath>
    <clipPath id="clip-2">
      <use xlink:href="#fill-2"/>
    </clipPath>
    <clipPath id="clip-3">
      <use xlink:href="#fill-3"/>
    </clipPath>
  </defs>
  <g id="Grafik" transform="translate(13.5 12)">
    <g transform="matrix(1, 0, 0, 1, -13.5, -12)" filter="url(#Hintergrund_1)">
      <rect id="Hintergrund_1-2" data-name="Hintergrund_1" width="248.302" height="248.302" rx="30" transform="translate(116.66 76)" fill="#f8f9fa"/>
    </g>
    <g transform="matrix(1, 0, 0, 1, -13.5, -12)" filter="url(#Hintergrund_2)">
      <path id="Hintergrund_2-2" data-name="Hintergrund_2" d="M5.543,0h251.5c3.061,0,5.543,2.166,5.543,4.838V9.1L270,15.489,262.588,21.7V200.162c0,2.672-2.482,4.838-5.543,4.838H5.543C2.482,205,0,202.834,0,200.162V4.838C0,2.166,2.482,0,5.543,0Z" transform="translate(13.5 90)" fill="#f9fafb"/>
    </g>
    <g id="Menü" transform="translate(-3266.869 6274.535)">
      <g transform="matrix(1, 0, 0, 1, 3253.37, -6286.54)" filter="url(#BG)">
        <rect id="BG-2" data-name="BG" width="55.895" height="178.535" rx="27.947" transform="translate(295.93 12)" fill="#fff"/>
      </g>
      <g id="ic_timer" transform="translate(3560.044 -6254.563)" opacity="0.2">
        <rect id="BG-3" data-name="BG" width="34.397" height="34.397" fill="rgba(255,255,255,0)" opacity="0.3"/>
        <g id="ic" transform="translate(8.599 6.449)">
          <path id="Pfad_32" data-name="Pfad 32" d="M11.461.488a8.607,8.607,0,1,0,3.42,2.239l1.846-1.651" transform="translate(0 3.762)" fill="none" stroke="#333948" stroke-linejoin="round" stroke-width="2"/>
          <path id="Pfad_33" data-name="Pfad 33" d="M11.461.488a8.607,8.607,0,1,0,3.42,2.239" transform="translate(0 3.762)" fill="none" stroke="#333948" stroke-linecap="round" stroke-linejoin="round" stroke-width="2"/>
          <path id="Pfad_34" data-name="Pfad 34" d="M0,1.117V1.075A1.075,1.075,0,0,1,1.075,0H4.3A1.075,1.075,0,0,1,5.375,1.075v.087" transform="translate(5.912 0)" fill="none" stroke="rgba(51,57,72,0.5)" stroke-linecap="square" stroke-width="1.5"/>
          <path id="Pfad_35" data-name="Pfad 35" d="M.5,4.3V0" transform="translate(8.099 8.599)" fill="none" stroke="rgba(51,57,72,0.5)" stroke-linecap="round" stroke-width="1.5"/>
        </g>
      </g>
      <g id="ic_vote" transform="translate(3553.595 -6196.217)">
        <rect id="BG-4" data-name="BG" width="34.397" height="34.397" transform="translate(0 1.075)" fill="rgba(255,255,255,0)"/>
        <g id="ic-2" data-name="ic" transform="translate(15.351)">
          <g id="Gruppe_42" data-name="Gruppe 42" transform="translate(0 4.3)" clip-path="url(#clip-path)">
            <path id="Pfad_36" data-name="Pfad 36" d="M128.247-25h15.8V-6.379h-15.8Z" transform="translate(-129.364 23.925)" fill="#fff"/>
          </g>
          <path id="Pfad_38" data-name="Pfad 38" d="M5.975,11.449V1.271a1.271,1.271,0,0,1,2.543,0v4.64M6.038,16.471.138,10.3A1.271,1.271,0,0,1,.71,8.588a1.271,1.271,0,0,1,.978-.073c.323.108.414.049.564.354l3.723,2.579M8.518,6.357a1.271,1.271,0,1,1,2.543,0m.032,0c0-.7.537-.636,1.24-.636A1.271,1.271,0,0,1,13.6,6.993" transform="translate(0 4.3)" fill="none" stroke="#333948" stroke-linecap="round" stroke-linejoin="round" stroke-width="1.5"/>
          <path id="Pfad_39" data-name="Pfad 39" d="M0,9.733a3.21,3.21,0,0,0,2.734,1.526h4.2A3.179,3.179,0,0,0,10.108,8.08V1.526C10.108.824,9.077,0,8.374,0" transform="translate(6.038 11.038)" fill="none" stroke="#333948" stroke-linecap="round" stroke-linejoin="round" stroke-width="1.5"/>
          <path id="Pfad_40" data-name="Pfad 40" d="M8.6,4.3A4.3,4.3,0,0,0,0,4.3" transform="translate(2.918)" fill="none" stroke="#333948" stroke-linecap="round" stroke-linejoin="round" stroke-width="2"/>
          <path id="Pfad_41" data-name="Pfad 41" d="M6.088,8.211a4.3,4.3,0,1,0-3.543.015" transform="translate(2.918)" fill="none" stroke="rgba(51,57,72,0.5)" stroke-linecap="round" stroke-linejoin="round" stroke-width="2"/>
        </g>
      </g>
      <g id="ic_focus" transform="translate(3561.969 -6150.147)">
        <rect id="BG-5" data-name="BG" width="34.397" height="34.397" fill="rgba(255,255,255,0)" opacity="0.3"/>
        <g id="ic-3" data-name="ic" transform="translate(5.616 6.449)" opacity="0.2">
          <path id="Pfad_42" data-name="Pfad 42" d="M5.375,0,0,5.363" transform="translate(10.87 8.037)" fill="none" stroke="#333948" stroke-linejoin="round" stroke-width="1.5"/>
          <path id="Pfad_43" data-name="Pfad 43" d="M0,0H3.213l.012.012V3.225" transform="translate(13.019 8.025)" fill="none" stroke="#333948" stroke-linecap="square" stroke-width="1.5"/>
          <path id="Pfad_44" data-name="Pfad 44" d="M0,2.122A1.958,1.958,0,0,1,1.718,0H18.705a1.958,1.958,0,0,1,1.718,2.122V15.077A1.958,1.958,0,0,1,18.705,17.2H1.718A1.958,1.958,0,0,1,0,15.077Z" transform="translate(0 3.82)" fill="none" stroke="#333948" stroke-linejoin="round" stroke-width="2"/>
          <path id="Pfad_45" data-name="Pfad 45" d="M0,.631,14.885.386" transform="translate(2.808 17.069)" fill="none" stroke="#989ba3" stroke-linecap="round" stroke-linejoin="round" stroke-width="1.5"/>
          <path id="Pfad_46" data-name="Pfad 46" d="M.518,0h1C3.934,0,6.967,2.957,6.967,5.28V6.908" transform="translate(17.366)" fill="none" stroke="#989ba3" stroke-width="1.5"/>
        </g>
      </g>
    </g>
    <g id="Button">
      <rect id="Button-2" data-name="Button" width="236.309" height="24.354" rx="12.177" transform="translate(17.37 241.475)" fill="#ff0069"/>
      <text id="Start_voting_phase" data-name="Start voting phase" transform="translate(94.5 246.563)" fill="#fff" font-size="12" font-family="Raleway-SemiBold, Raleway" font-weight="600" letter-spacing="0.023em"><tspan x="6.649" y="11">Start voting </tspan></text>
    </g>
    <g id="Number_of_votes" data-name="Number of votes" transform="translate(16.5 198.117)">
      <rect id="BG-6" data-name="BG" width="235.439" height="29.572" rx="5" transform="translate(0 0)" fill="#fff"/>
      <text id="Number_of_votes-2" data-name="Number of votes" transform="translate(14.786 18.567)" fill="#111" font-size="12" font-family="Raleway-Medium, Raleway" font-weight="500" letter-spacing="0.035em"><tspan x="0" y="0">Number of votes</tspan></text>
      <text id="_5" data-name="5" transform="translate(192.08 17.958)" fill="#111" font-size="12" font-family="Raleway-Medium, Raleway" font-weight="500" letter-spacing="0.035em"><tspan x="0" y="0">5</tspan></text>
      <g id="ic_minus" transform="translate(167.557 4.349)">
        <rect id="BG-7" data-name="BG" width="20.005" height="20.005" fill="rgba(255,255,255,0)"/>
        <g id="Ellipse_32" data-name="Ellipse 32" transform="translate(2.609 2.609)" fill="none" stroke="#ff0069" stroke-width="1">
          <circle cx="7.393" cy="7.393" r="7.393" stroke="none"/>
          <circle cx="7.393" cy="7.393" r="6.893" fill="none"/>
        </g>
        <g id="Rechteck_573" data-name="Rechteck 573" transform="translate(7.828 9.567)" fill="#fff" stroke="#ff0069" stroke-width="1">
          <rect id="fill" width="4.349" height="0.87" rx="0.435" stroke="none"/>
          <path d="M0,0.36977070569992065h4.348853588104248M3.848853588104248,0v0.8697707056999207M4.348853588104248,0.5h-4.348853588104248M0.5,0.8697707056999207v-0.8697707056999207" fill="none" clip-path="url(#clip)"/>
        </g>
      </g>
      <g id="ic_plus" transform="translate(203.258 4.349)">
        <rect id="BG-8" data-name="BG" width="20.005" height="20.005" fill="rgba(255,255,255,0)"/>
        <g id="Pfad_6696" data-name="Pfad 6696" transform="translate(2.609 2.609)" fill="none">
          <path d="M7.393,0A7.393,7.393,0,1,1,0,7.393,7.393,7.393,0,0,1,7.393,0Z" stroke="none"/>
          <path d="M 7.393051147460938 1.000000953674316 C 3.867911338806152 1.000000953674316 1.000000953674316 3.867911338806152 1.000000953674316 7.393051147460938 C 1.000000953674316 10.91819095611572 3.867911338806152 13.78610134124756 7.393051147460938 13.78610134124756 C 10.91819095611572 13.78610134124756 13.78610134124756 10.91819095611572 13.78610134124756 7.393051147460938 C 13.78610134124756 3.867911338806152 10.91819095611572 1.000000953674316 7.393051147460938 1.000000953674316 M 7.393051147460938 9.5367431640625e-07 C 11.4761209487915 9.5367431640625e-07 14.78610134124756 3.309981346130371 14.78610134124756 7.393051147460938 C 14.78610134124756 11.4761209487915 11.4761209487915 14.78610134124756 7.393051147460938 14.78610134124756 C 3.309981346130371 14.78610134124756 9.5367431640625e-07 11.4761209487915 9.5367431640625e-07 7.393051147460938 C 9.5367431640625e-07 3.309981346130371 3.309981346130371 9.5367431640625e-07 7.393051147460938 9.5367431640625e-07 Z" stroke="none" fill="#ff0069"/>
        </g>
        <g id="Rechteck_573-2" data-name="Rechteck 573" transform="translate(7.828 9.567)" fill="#fff" stroke="#ff0069" stroke-width="1">
          <rect id="fill-2" width="4.349" height="0.87" rx="0.435" stroke="none"/>
          <path d="M0,0.36977070569992065h4.348853588104248M3.848853588104248,0v0.8697707056999207M4.348853588104248,0.5h-4.348853588104248M0.5,0.8697707056999207v-0.8697707056999207" fill="none" clip-path="url(#clip-2)"/>
        </g>
        <g id="Rechteck_574" data-name="Rechteck 574" transform="translate(10.437 7.828) rotate(90)" fill="#ff0069" stroke="#ff0069" stroke-width="1">
          <rect id="fill-3" width="4.349" height="0.87" rx="0.435" stroke="none"/>
          <path d="M0,0.36977070569992065h4.348853588104248M3.848853588104248,0v0.8697707056999207M4.348853588104248,0.5h-4.348853588104248M0.5,0.8697707056999207v-0.8697707056999207" fill="none" clip-path="url(#clip-3)"/>
        </g>
      </g>
    </g>
    <g id="Zeile_2" data-name="Zeile 2" transform="translate(16.5 161.107)">
      <rect id="BG-9" data-name="BG" width="235.439" height="29.572" rx="5" transform="translate(0 -0.107)" fill="#fff"/>
      <g id="to_toggle" transform="translate(198.039 10.893)">
        <rect id="Rechteck_56" data-name="Rechteck 56" width="20.005" height="5.219" rx="2.609" transform="translate(0 2.479)" fill="#edeff2"/>
        <g transform="matrix(1, 0, 0, 1, -228.04, -184)" filter="url(#Ellipse_10)">
          <circle id="Ellipse_10-3" data-name="Ellipse 10" cx="5.219" cy="5.219" r="5.219" transform="translate(241.09 184)" fill="#ff0069"/>
        </g>
      </g>
      <rect id="Rechteck_12535" data-name="Rechteck 12535" width="108" height="14" rx="2" transform="translate(12 6.893)" fill="#edeff2"/>
    </g>
    <g id="Zeile_1" data-name="Zeile 1" transform="translate(16.5 124.098)">
      <rect id="BG-10" data-name="BG" width="235.439" height="30.442" rx="5" transform="translate(0 -0.098)" fill="#fff"/>
      <g id="to_toggle-2" data-name="to_toggle" transform="translate(198.039 10.902)">
        <rect id="Rechteck_56-2" data-name="Rechteck 56" width="20.005" height="5.219" rx="2.609" transform="translate(0 2.479)" fill="#edeff2"/>
        <g transform="matrix(1, 0, 0, 1, -228.04, -147)" filter="url(#Ellipse_10-2)">
          <circle id="Ellipse_10-4" data-name="Ellipse 10" cx="5.219" cy="5.219" r="5.219" transform="translate(241.09 147)" fill="#ff0069"/>
        </g>
      </g>
      <rect id="Rechteck_12540" data-name="Rechteck 12540" width="88" height="14" rx="2" transform="translate(12 7.902)" fill="#edeff2"/>
    </g>
    <g id="Überschrift" transform="translate(-3371.316 7151)">
      <text id="Voting" transform="translate(3483.816 -7049.85)" fill="#111" font-size="14" font-family="Raleway-Bold, Raleway" font-weight="700" letter-spacing="0.025em"><tspan x="0" y="0">Voting</tspan></text>
      <path id="Pfad_6679" data-name="Pfad 6679" d="M0,.5H48.374" transform="translate(3482.316 -7041.909)" fill="none" stroke="#ff0069" stroke-linecap="round" stroke-width="3"/>
    </g>
  </g>
</svg>
