<svg width="498" height="1005" viewBox="0 0 498 1205" fill="none" xmlns="http://www.w3.org/2000/svg">
<path d="M257.886 1204C252.44 1203.85 246.665 1203.53 240.72 1203.05L241 1199.7C246.884 1200.18 252.6 1200.5 257.983 1200.65L257.886 1204ZM223.638 1201.27C217.972 1200.55 212.257 1199.7 206.652 1198.73L207.246 1195.42C212.8 1196.38 218.463 1197.23 224.077 1197.94L223.638 1201.27ZM189.81 1195.41C184.192 1194.17 178.583 1192.79 173.142 1191.3L174.058 1188.07C179.446 1189.54 184.999 1190.9 190.558 1192.14L189.81 1195.41ZM156.71 1186.36C151.231 1184.55 145.8 1182.59 140.567 1180.54L141.838 1177.42C147.011 1179.45 152.381 1181.39 157.799 1183.17L156.71 1186.36ZM124.799 1173.79C119.569 1171.36 114.42 1168.76 109.499 1166.06L111.164 1163.12C116.024 1165.79 121.105 1168.35 126.264 1170.75L124.799 1173.79ZM94.7611 1157.31C89.9261 1154.2 85.2021 1150.9 80.7231 1147.51L82.8121 1144.85C87.2231 1148.19 91.8741 1151.44 96.6361 1154.5L94.7611 1157.31ZM67.5141 1136.64C63.2541 1132.83 59.1341 1128.82 55.2701 1124.72L57.7801 1122.44C61.5801 1126.47 65.6291 1130.41 69.8171 1134.15L67.5141 1136.64ZM44.1211 1111.8C40.6211 1107.35 37.2711 1102.7 34.1791 1097.97L37.0581 1096.15C40.0961 1100.8 43.3821 1105.38 46.8251 1109.74L44.1211 1111.8ZM25.5151 1083.32C22.8771 1078.38 20.4081 1073.22 18.1761 1068.01L21.3291 1066.71C23.5241 1071.84 25.9511 1076.9 28.5441 1081.76L25.5151 1083.32ZM12.1531 1052.15C10.3911 1046.88 8.79609 1041.41 7.41109 1035.89L10.7311 1035.09C12.0951 1040.53 13.6661 1045.92 15.4021 1051.11L12.1531 1052.15ZM3.88912 1019.35C3.82112 1018.96 3.75511 1018.58 3.68911 1018.2C2.78911 1012.93 2.04509 1007.68 1.48909 1002.6L4.88912 1002.24C5.43712 1007.26 6.1671 1012.44 7.0591 1017.64C7.12577 1018.02 7.19245 1018.4 7.25911 1018.77L3.88912 1019.35ZM0.277118 985.736C0.0861182 979.993 0.137133 974.298 0.430133 968.808L3.84511 968.983C3.55711 974.383 3.50709 979.978 3.69509 985.627L0.277118 985.736ZM5.53011 952.436L2.14809 951.936C2.99998 946.338 4.15805 940.79 5.61708 935.319L8.92513 936.174C7.49664 941.529 6.36294 946.959 5.52913 952.438L5.53011 952.436ZM14.1681 920.413L10.9861 919.182C13.1036 913.904 15.5504 908.764 18.3121 903.793L21.3121 905.402C18.6187 910.251 16.2326 915.265 14.1681 920.413ZM30.3201 891.393L27.5491 889.425C30.9379 884.83 34.6051 880.447 38.5301 876.3L41.0361 878.586C37.2045 882.632 33.6245 886.909 30.3161 891.393H30.3201ZM53.2341 867.108L51.0111 864.554C55.3964 860.88 59.9693 857.436 64.7111 854.235L66.6501 857C62.0054 860.136 57.5261 863.509 53.2301 867.108H53.2341ZM339.357 861.381L339.214 858.026C344.832 857.798 350.429 857.197 355.967 856.226L356.567 859.532C350.876 860.529 345.126 861.147 339.353 861.382L339.357 861.381ZM322.057 861.015C316.315 860.542 310.602 859.758 304.944 858.666L305.6 855.366C311.134 856.433 316.722 857.201 322.339 857.666L322.057 861.015ZM373.365 855.344L372.289 852.158C377.618 850.419 382.819 848.311 387.855 845.848L389.38 848.854C384.2 851.388 378.85 853.557 373.368 855.345L373.365 855.344ZM288.19 854.59C282.811 853.011 277.331 851.142 271.901 849.035L273.158 845.912C278.497 847.984 283.884 849.821 289.169 851.372L288.19 854.59ZM81.0421 848.238L79.3751 845.306C84.2801 842.618 89.4611 840.058 94.7751 837.695L96.1861 840.756C90.9581 843.079 85.8681 845.596 81.0421 848.238ZM256.142 842.206C251.032 839.761 245.921 837.083 240.949 834.249L242.666 831.349C247.566 834.142 252.605 836.781 257.641 839.192L256.142 842.206ZM404.322 840.259L402.402 837.481C407.054 834.372 411.516 830.987 415.762 827.343L418.01 829.875C413.658 833.607 409.086 837.076 404.318 840.26L404.322 840.259ZM111.899 834.467L110.726 831.312C116.018 829.412 121.526 827.65 127.089 826.067L128.04 829.293C122.545 830.856 117.114 832.596 111.895 834.468L111.899 834.467ZM226.375 825.223C222.503 822.615 219.975 820.723 218.975 819.954H212.097V816.597H220.168L220.638 816.969C220.665 816.99 223.421 819.163 228.304 822.454L226.375 825.223ZM144.506 825.169L143.766 821.889C149.38 820.668 155.066 819.613 160.666 818.752L161.194 822.069C155.661 822.922 150.045 823.964 144.501 825.171L144.506 825.169ZM178.041 820.094L177.784 816.745C179.277 816.635 180.084 816.599 180.116 816.598H195V819.955H180.226C180.057 819.965 179.298 820.002 178.036 820.096L178.041 820.094ZM430.394 818.047L427.886 815.765C431.611 811.818 435.286 807.54 438.808 803.048L441.518 805.098C437.928 809.671 434.185 814.029 430.389 818.049L430.394 818.047ZM451.468 791.3L448.604 789.465C451.604 784.948 454.566 780.144 457.404 775.187L460.386 776.832C457.507 781.854 454.508 786.722 451.468 791.302V791.3ZM468.368 761.868L465.297 760.392C467.804 755.363 470.183 750.254 472.367 745.203L475.515 746.515C473.298 751.623 470.894 756.787 468.359 761.87L468.368 761.868ZM481.786 730.79L478.567 729.656C480.486 724.405 482.255 719.066 483.826 713.793L487.109 714.735C485.51 720.075 483.719 725.476 481.777 730.791L481.786 730.79ZM491.42 698.38L488.084 697.642C489.331 692.214 490.408 686.702 491.284 681.259L494.662 681.783C493.768 687.3 492.674 692.884 491.411 698.382L491.42 698.38ZM496.789 665.016L493.383 664.716C493.893 659.196 494.218 653.596 494.349 648.07L497.768 648.148C497.626 653.746 497.297 659.424 496.78 665.017L496.789 665.016ZM494.17 631.394C493.92 625.874 493.475 620.28 492.847 614.768L496.247 614.394C496.884 619.979 497.335 625.649 497.588 631.244L494.17 631.394ZM490.399 598.264C489.408 592.84 488.217 587.353 486.86 581.951L490.18 581.151C491.555 586.62 492.761 592.178 493.765 597.674L490.399 598.264ZM482.272 565.891C480.59 560.636 478.71 555.334 476.684 550.128L479.878 548.928C481.929 554.196 483.831 559.563 485.534 564.881L482.272 565.891ZM470.151 534.721C467.843 529.696 465.345 524.646 462.727 519.708L465.76 518.157C468.408 523.149 470.935 528.257 473.269 533.34L470.151 534.721ZM454.457 505.121C451.575 500.352 448.52 495.6 445.378 490.996L448.219 489.126C451.396 493.782 454.484 498.587 457.397 503.408L454.457 505.121ZM435.531 477.394C432.059 472.873 428.481 468.494 424.895 464.367L427.495 462.186C431.126 466.361 434.748 470.797 438.261 475.372L435.531 477.394ZM413.431 452.102C410.523 449.166 407.43 446.419 404.171 443.879C403.088 443.104 401.932 442.437 400.72 441.885L402.2 438.857C403.617 439.505 404.967 440.29 406.232 441.2C409.619 443.834 412.832 446.683 415.853 449.73L413.431 452.102ZM384.807 436.926C380.04 435.843 374.583 434.804 368.124 433.752L368.683 430.439C375.214 431.503 380.74 432.554 385.583 433.654L384.807 436.926ZM351.257 431.285C346.175 430.609 340.636 429.919 334.322 429.178L334.728 425.844C341.059 426.589 346.616 427.281 351.716 427.958L351.257 431.285ZM317.346 427.256C312.846 426.761 308.231 426.261 303.767 425.778L300.352 425.409L300.727 422.071L304.142 422.441C308.608 422.924 313.225 423.424 317.728 423.921L317.346 427.256ZM283.346 423.541C276.946 422.824 271.385 422.175 266.346 421.559L266.768 418.227C271.794 418.842 277.343 419.488 283.733 420.204L283.346 423.541ZM249.368 419.341C243.026 418.441 237.483 417.573 232.423 416.676L233.03 413.37C238.05 414.261 243.553 415.126 249.855 416.016L249.368 419.341ZM215.577 413.119C212.618 412.355 209.947 411.561 207.639 410.758C204.915 409.811 202.08 408.735 199.212 407.558L200.531 404.458C203.341 405.611 206.117 406.665 208.781 407.592C211 408.362 213.581 409.128 216.447 409.869L215.577 413.119ZM183.607 400.377C178.759 397.926 173.698 395.17 168.567 392.189L170.308 389.299C175.382 392.247 180.384 394.97 185.173 397.393L183.607 400.377ZM153.996 383.254C149.312 380.237 144.548 377.031 139.836 373.725L141.824 370.992C146.499 374.273 151.224 377.453 155.871 380.447L153.996 383.254ZM126.067 363.654C122.829 361.185 120.802 359.554 120.382 359.214C119.835 358.864 116.955 357.001 112.443 353.514L114.557 350.874C119.333 354.564 122.282 356.421 122.312 356.439L122.402 356.496L122.485 356.562C122.506 356.579 124.578 358.262 128.166 361.002L126.067 363.654ZM99.3861 342.463C95.2631 338.671 91.1861 334.63 87.2641 330.447L89.7801 328.172C93.6431 332.294 97.6621 336.272 101.724 340.012L99.3861 342.463ZM76.0591 317.607C72.4991 313.222 69.0491 308.655 65.8051 304.031L68.6211 302.126C71.8211 306.686 75.2211 311.19 78.7321 315.512L76.0591 317.607ZM56.5391 289.78C53.6331 284.947 50.8651 279.951 48.3121 274.931L51.3721 273.431C53.8891 278.381 56.6191 283.307 59.4841 288.075L56.5391 289.78ZM41.1631 259.548C38.9771 254.373 36.9461 249.048 35.1261 243.717L38.3691 242.649C40.1641 247.904 42.1691 253.157 44.3221 258.262L41.1631 259.548ZM30.2201 227.519C28.7861 222.114 27.5201 216.568 26.4451 211.033L29.8051 210.407C30.8621 215.868 32.1151 221.341 33.5291 226.673L30.2201 227.519ZM23.7881 194.332C23.0951 188.808 22.5691 183.149 22.2241 177.513L25.6381 177.313C25.9781 182.879 26.4981 188.468 27.1821 193.923L23.7881 194.332ZM21.7121 160.632C21.7121 157.784 21.7551 154.884 21.8401 152.01C21.9221 149.231 22.0501 146.447 22.2201 143.737L25.6341 143.943C25.4671 146.619 25.3401 149.365 25.2591 152.108C25.1751 154.948 25.1321 157.816 25.1321 160.632H21.7121ZM27.2761 127.35L23.8871 126.9C24.6701 121.2 25.6801 115.6 26.8871 110.235L30.2261 110.961C29.0311 116.238 28.0371 121.754 27.2681 127.358L27.2761 127.35ZM34.6591 94.917L31.4061 93.8809C33.1827 88.4945 35.2525 83.2097 37.6061 78.0493L40.7261 79.4243C38.42 84.4767 36.392 89.6514 34.6511 94.9253L34.6591 94.917ZM48.5341 64.7261L45.6041 62.9941C48.5845 58.1295 51.876 53.4623 55.4581 49.022L58.1371 51.1079C54.6429 55.4393 51.4325 59.9925 48.5261 64.7383L48.5341 64.7261ZM69.4681 38.8521L67.0951 36.4331C71.2633 32.4936 75.688 28.8344 80.3401 25.48L82.3641 28.186C77.8315 31.4548 73.5207 35.0205 69.4601 38.8599L69.4681 38.8521ZM96.5781 19.2749L94.9261 16.334C99.9883 13.597 105.213 11.173 110.572 9.0752L111.839 12.1953C106.608 14.2426 101.508 16.6096 96.5681 19.2832L96.5781 19.2749ZM127.87 7.01416L127.005 3.76416C132.611 2.25261 138.334 1.21552 144.114 0.664062L144.347 4.01514C138.779 4.56354 133.265 5.56879 127.862 7.021L127.87 7.01416Z" fill="url(#paint0_linear_2419_41071)"/>
<defs>
<linearGradient id="paint0_linear_2419_41071" x1="248.966" y1="1204" x2="-21.5692" y2="243.488" gradientUnits="userSpaceOnUse">
<stop stop-color="#FF0069"/>
<stop offset="1" stop-color="#FFE6F0"/>
</linearGradient>
</defs>
</svg>
