<svg width="188" height="109" viewBox="0 0 188 109" fill="none" xmlns="http://www.w3.org/2000/svg">
<path d="M4 8.66016C6.20914 8.66016 8 6.8693 8 4.66016C8 2.45102 6.20914 0.660156 4 0.660156C1.79086 0.660156 0 2.45102 0 4.66016C0 6.8693 1.79086 8.66016 4 8.66016Z" fill="#FF80B4"/>
<path d="M24 8.66016C26.2091 8.66016 28 6.8693 28 4.66016C28 2.45102 26.2091 0.660156 24 0.660156C21.7909 0.660156 20 2.45102 20 4.66016C20 6.8693 21.7909 8.66016 24 8.66016Z" fill="#FF80B4"/>
<path d="M44 8.66016C46.2091 8.66016 48 6.8693 48 4.66016C48 2.45102 46.2091 0.660156 44 0.660156C41.7909 0.660156 40 2.45102 40 4.66016C40 6.8693 41.7909 8.66016 44 8.66016Z" fill="#FF80B4"/>
<path d="M64 8.66016C66.2091 8.66016 68 6.8693 68 4.66016C68 2.45102 66.2091 0.660156 64 0.660156C61.7909 0.660156 60 2.45102 60 4.66016C60 6.8693 61.7909 8.66016 64 8.66016Z" fill="#FF80B4"/>
<path d="M84 8.66016C86.2091 8.66016 88 6.8693 88 4.66016C88 2.45102 86.2091 0.660156 84 0.660156C81.7909 0.660156 80 2.45102 80 4.66016C80 6.8693 81.7909 8.66016 84 8.66016Z" fill="#FF80B4"/>
<path d="M104 8.66016C106.209 8.66016 108 6.8693 108 4.66016C108 2.45102 106.209 0.660156 104 0.660156C101.791 0.660156 100 2.45102 100 4.66016C100 6.8693 101.791 8.66016 104 8.66016Z" fill="#FF80B4"/>
<path d="M124 8.66016C126.209 8.66016 128 6.8693 128 4.66016C128 2.45102 126.209 0.660156 124 0.660156C121.791 0.660156 120 2.45102 120 4.66016C120 6.8693 121.791 8.66016 124 8.66016Z" fill="#FF80B4"/>
<path d="M144 8.66016C146.209 8.66016 148 6.8693 148 4.66016C148 2.45102 146.209 0.660156 144 0.660156C141.791 0.660156 140 2.45102 140 4.66016C140 6.8693 141.791 8.66016 144 8.66016Z" fill="#FF80B4"/>
<path d="M164 8.66016C166.209 8.66016 168 6.8693 168 4.66016C168 2.45102 166.209 0.660156 164 0.660156C161.791 0.660156 160 2.45102 160 4.66016C160 6.8693 161.791 8.66016 164 8.66016Z" fill="#FF80B4"/>
<path d="M184 8.66016C186.209 8.66016 188 6.8693 188 4.66016C188 2.45102 186.209 0.660156 184 0.660156C181.791 0.660156 180 2.45102 180 4.66016C180 6.8693 181.791 8.66016 184 8.66016Z" fill="#FF80B4"/>
<path d="M4 28.6602C6.20914 28.6602 8 26.8693 8 24.6602C8 22.451 6.20914 20.6602 4 20.6602C1.79086 20.6602 0 22.451 0 24.6602C0 26.8693 1.79086 28.6602 4 28.6602Z" fill="#FF80B4"/>
<path d="M24 28.6602C26.2091 28.6602 28 26.8693 28 24.6602C28 22.451 26.2091 20.6602 24 20.6602C21.7909 20.6602 20 22.451 20 24.6602C20 26.8693 21.7909 28.6602 24 28.6602Z" fill="#FF80B4"/>
<path d="M44 28.6602C46.2091 28.6602 48 26.8693 48 24.6602C48 22.451 46.2091 20.6602 44 20.6602C41.7909 20.6602 40 22.451 40 24.6602C40 26.8693 41.7909 28.6602 44 28.6602Z" fill="#FF80B4"/>
<path d="M64 28.6602C66.2091 28.6602 68 26.8693 68 24.6602C68 22.451 66.2091 20.6602 64 20.6602C61.7909 20.6602 60 22.451 60 24.6602C60 26.8693 61.7909 28.6602 64 28.6602Z" fill="#FF80B4"/>
<path d="M84 28.6602C86.2091 28.6602 88 26.8693 88 24.6602C88 22.451 86.2091 20.6602 84 20.6602C81.7909 20.6602 80 22.451 80 24.6602C80 26.8693 81.7909 28.6602 84 28.6602Z" fill="#FF80B4"/>
<path d="M104 28.6602C106.209 28.6602 108 26.8693 108 24.6602C108 22.451 106.209 20.6602 104 20.6602C101.791 20.6602 100 22.451 100 24.6602C100 26.8693 101.791 28.6602 104 28.6602Z" fill="#FF80B4"/>
<path d="M124 28.6602C126.209 28.6602 128 26.8693 128 24.6602C128 22.451 126.209 20.6602 124 20.6602C121.791 20.6602 120 22.451 120 24.6602C120 26.8693 121.791 28.6602 124 28.6602Z" fill="#FF80B4"/>
<path d="M144 28.6602C146.209 28.6602 148 26.8693 148 24.6602C148 22.451 146.209 20.6602 144 20.6602C141.791 20.6602 140 22.451 140 24.6602C140 26.8693 141.791 28.6602 144 28.6602Z" fill="#FF80B4"/>
<path d="M164 28.6602C166.209 28.6602 168 26.8693 168 24.6602C168 22.451 166.209 20.6602 164 20.6602C161.791 20.6602 160 22.451 160 24.6602C160 26.8693 161.791 28.6602 164 28.6602Z" fill="#FF80B4"/>
<path d="M184 28.6602C186.209 28.6602 188 26.8693 188 24.6602C188 22.451 186.209 20.6602 184 20.6602C181.791 20.6602 180 22.451 180 24.6602C180 26.8693 181.791 28.6602 184 28.6602Z" fill="#FF80B4"/>
<path d="M4 48.6602C6.20914 48.6602 8 46.8693 8 44.6602C8 42.451 6.20914 40.6602 4 40.6602C1.79086 40.6602 0 42.451 0 44.6602C0 46.8693 1.79086 48.6602 4 48.6602Z" fill="#FF80B4"/>
<path d="M24 48.6602C26.2091 48.6602 28 46.8693 28 44.6602C28 42.451 26.2091 40.6602 24 40.6602C21.7909 40.6602 20 42.451 20 44.6602C20 46.8693 21.7909 48.6602 24 48.6602Z" fill="#FF80B4"/>
<path d="M44 48.6602C46.2091 48.6602 48 46.8693 48 44.6602C48 42.451 46.2091 40.6602 44 40.6602C41.7909 40.6602 40 42.451 40 44.6602C40 46.8693 41.7909 48.6602 44 48.6602Z" fill="#FF80B4"/>
<path d="M64 48.6602C66.2091 48.6602 68 46.8693 68 44.6602C68 42.451 66.2091 40.6602 64 40.6602C61.7909 40.6602 60 42.451 60 44.6602C60 46.8693 61.7909 48.6602 64 48.6602Z" fill="#FF80B4"/>
<path d="M84 48.6602C86.2091 48.6602 88 46.8693 88 44.6602C88 42.451 86.2091 40.6602 84 40.6602C81.7909 40.6602 80 42.451 80 44.6602C80 46.8693 81.7909 48.6602 84 48.6602Z" fill="#FF80B4"/>
<path d="M104 48.6602C106.209 48.6602 108 46.8693 108 44.6602C108 42.451 106.209 40.6602 104 40.6602C101.791 40.6602 100 42.451 100 44.6602C100 46.8693 101.791 48.6602 104 48.6602Z" fill="#FF80B4"/>
<path d="M124 48.6602C126.209 48.6602 128 46.8693 128 44.6602C128 42.451 126.209 40.6602 124 40.6602C121.791 40.6602 120 42.451 120 44.6602C120 46.8693 121.791 48.6602 124 48.6602Z" fill="#FF80B4"/>
<path d="M144 48.6602C146.209 48.6602 148 46.8693 148 44.6602C148 42.451 146.209 40.6602 144 40.6602C141.791 40.6602 140 42.451 140 44.6602C140 46.8693 141.791 48.6602 144 48.6602Z" fill="#FF80B4"/>
<path d="M164 48.6602C166.209 48.6602 168 46.8693 168 44.6602C168 42.451 166.209 40.6602 164 40.6602C161.791 40.6602 160 42.451 160 44.6602C160 46.8693 161.791 48.6602 164 48.6602Z" fill="#FF80B4"/>
<path d="M184 48.6602C186.209 48.6602 188 46.8693 188 44.6602C188 42.451 186.209 40.6602 184 40.6602C181.791 40.6602 180 42.451 180 44.6602C180 46.8693 181.791 48.6602 184 48.6602Z" fill="#FF80B4"/>
<path d="M4 68.6602C6.20914 68.6602 8 66.8693 8 64.6602C8 62.451 6.20914 60.6602 4 60.6602C1.79086 60.6602 0 62.451 0 64.6602C0 66.8693 1.79086 68.6602 4 68.6602Z" fill="#FF80B4"/>
<path d="M24 68.6602C26.2091 68.6602 28 66.8693 28 64.6602C28 62.451 26.2091 60.6602 24 60.6602C21.7909 60.6602 20 62.451 20 64.6602C20 66.8693 21.7909 68.6602 24 68.6602Z" fill="#FF80B4"/>
<path d="M44 68.6602C46.2091 68.6602 48 66.8693 48 64.6602C48 62.451 46.2091 60.6602 44 60.6602C41.7909 60.6602 40 62.451 40 64.6602C40 66.8693 41.7909 68.6602 44 68.6602Z" fill="#FF80B4"/>
<path d="M64 68.6602C66.2091 68.6602 68 66.8693 68 64.6602C68 62.451 66.2091 60.6602 64 60.6602C61.7909 60.6602 60 62.451 60 64.6602C60 66.8693 61.7909 68.6602 64 68.6602Z" fill="#FF80B4"/>
<path d="M84 68.6602C86.2091 68.6602 88 66.8693 88 64.6602C88 62.451 86.2091 60.6602 84 60.6602C81.7909 60.6602 80 62.451 80 64.6602C80 66.8693 81.7909 68.6602 84 68.6602Z" fill="#FF80B4"/>
<path d="M104 68.6602C106.209 68.6602 108 66.8693 108 64.6602C108 62.451 106.209 60.6602 104 60.6602C101.791 60.6602 100 62.451 100 64.6602C100 66.8693 101.791 68.6602 104 68.6602Z" fill="#FF80B4"/>
<path d="M124 68.6602C126.209 68.6602 128 66.8693 128 64.6602C128 62.451 126.209 60.6602 124 60.6602C121.791 60.6602 120 62.451 120 64.6602C120 66.8693 121.791 68.6602 124 68.6602Z" fill="#FF80B4"/>
<path d="M144 68.6602C146.209 68.6602 148 66.8693 148 64.6602C148 62.451 146.209 60.6602 144 60.6602C141.791 60.6602 140 62.451 140 64.6602C140 66.8693 141.791 68.6602 144 68.6602Z" fill="#FF80B4"/>
<path d="M164 68.6602C166.209 68.6602 168 66.8693 168 64.6602C168 62.451 166.209 60.6602 164 60.6602C161.791 60.6602 160 62.451 160 64.6602C160 66.8693 161.791 68.6602 164 68.6602Z" fill="#FF80B4"/>
<path d="M184 68.6602C186.209 68.6602 188 66.8693 188 64.6602C188 62.451 186.209 60.6602 184 60.6602C181.791 60.6602 180 62.451 180 64.6602C180 66.8693 181.791 68.6602 184 68.6602Z" fill="#FF80B4"/>
<path d="M4 88.6602C6.20914 88.6602 8 86.8693 8 84.6602C8 82.451 6.20914 80.6602 4 80.6602C1.79086 80.6602 0 82.451 0 84.6602C0 86.8693 1.79086 88.6602 4 88.6602Z" fill="#FF80B4"/>
<path d="M24 88.6602C26.2091 88.6602 28 86.8693 28 84.6602C28 82.451 26.2091 80.6602 24 80.6602C21.7909 80.6602 20 82.451 20 84.6602C20 86.8693 21.7909 88.6602 24 88.6602Z" fill="#FF80B4"/>
<path d="M44 88.6602C46.2091 88.6602 48 86.8693 48 84.6602C48 82.451 46.2091 80.6602 44 80.6602C41.7909 80.6602 40 82.451 40 84.6602C40 86.8693 41.7909 88.6602 44 88.6602Z" fill="#FF80B4"/>
<path d="M64 88.6602C66.2091 88.6602 68 86.8693 68 84.6602C68 82.451 66.2091 80.6602 64 80.6602C61.7909 80.6602 60 82.451 60 84.6602C60 86.8693 61.7909 88.6602 64 88.6602Z" fill="#FF80B4"/>
<path d="M84 88.6602C86.2091 88.6602 88 86.8693 88 84.6602C88 82.451 86.2091 80.6602 84 80.6602C81.7909 80.6602 80 82.451 80 84.6602C80 86.8693 81.7909 88.6602 84 88.6602Z" fill="#FF80B4"/>
<path d="M104 88.6602C106.209 88.6602 108 86.8693 108 84.6602C108 82.451 106.209 80.6602 104 80.6602C101.791 80.6602 100 82.451 100 84.6602C100 86.8693 101.791 88.6602 104 88.6602Z" fill="#FF80B4"/>
<path d="M124 88.6602C126.209 88.6602 128 86.8693 128 84.6602C128 82.451 126.209 80.6602 124 80.6602C121.791 80.6602 120 82.451 120 84.6602C120 86.8693 121.791 88.6602 124 88.6602Z" fill="#FF80B4"/>
<path d="M144 88.6602C146.209 88.6602 148 86.8693 148 84.6602C148 82.451 146.209 80.6602 144 80.6602C141.791 80.6602 140 82.451 140 84.6602C140 86.8693 141.791 88.6602 144 88.6602Z" fill="#FF80B4"/>
<path d="M164 88.6602C166.209 88.6602 168 86.8693 168 84.6602C168 82.451 166.209 80.6602 164 80.6602C161.791 80.6602 160 82.451 160 84.6602C160 86.8693 161.791 88.6602 164 88.6602Z" fill="#FF80B4"/>
<path d="M184 88.6602C186.209 88.6602 188 86.8693 188 84.6602C188 82.451 186.209 80.6602 184 80.6602C181.791 80.6602 180 82.451 180 84.6602C180 86.8693 181.791 88.6602 184 88.6602Z" fill="#FF80B4"/>
<path d="M4 108.66C6.20914 108.66 8 106.869 8 104.66C8 102.451 6.20914 100.66 4 100.66C1.79086 100.66 0 102.451 0 104.66C0 106.869 1.79086 108.66 4 108.66Z" fill="#FF80B4"/>
<path d="M24 108.66C26.2091 108.66 28 106.869 28 104.66C28 102.451 26.2091 100.66 24 100.66C21.7909 100.66 20 102.451 20 104.66C20 106.869 21.7909 108.66 24 108.66Z" fill="#FF80B4"/>
<path d="M44 108.66C46.2091 108.66 48 106.869 48 104.66C48 102.451 46.2091 100.66 44 100.66C41.7909 100.66 40 102.451 40 104.66C40 106.869 41.7909 108.66 44 108.66Z" fill="#FF80B4"/>
<path d="M64 108.66C66.2091 108.66 68 106.869 68 104.66C68 102.451 66.2091 100.66 64 100.66C61.7909 100.66 60 102.451 60 104.66C60 106.869 61.7909 108.66 64 108.66Z" fill="#FF80B4"/>
<path d="M84 108.66C86.2091 108.66 88 106.869 88 104.66C88 102.451 86.2091 100.66 84 100.66C81.7909 100.66 80 102.451 80 104.66C80 106.869 81.7909 108.66 84 108.66Z" fill="#FF80B4"/>
<path d="M104 108.66C106.209 108.66 108 106.869 108 104.66C108 102.451 106.209 100.66 104 100.66C101.791 100.66 100 102.451 100 104.66C100 106.869 101.791 108.66 104 108.66Z" fill="#FF80B4"/>
<path d="M124 108.66C126.209 108.66 128 106.869 128 104.66C128 102.451 126.209 100.66 124 100.66C121.791 100.66 120 102.451 120 104.66C120 106.869 121.791 108.66 124 108.66Z" fill="#FF80B4"/>
<path d="M144 108.66C146.209 108.66 148 106.869 148 104.66C148 102.451 146.209 100.66 144 100.66C141.791 100.66 140 102.451 140 104.66C140 106.869 141.791 108.66 144 108.66Z" fill="#FF80B4"/>
<path d="M164 108.66C166.209 108.66 168 106.869 168 104.66C168 102.451 166.209 100.66 164 100.66C161.791 100.66 160 102.451 160 104.66C160 106.869 161.791 108.66 164 108.66Z" fill="#FF80B4"/>
<path d="M184 108.66C186.209 108.66 188 106.869 188 104.66C188 102.451 186.209 100.66 184 100.66C181.791 100.66 180 102.451 180 104.66C180 106.869 181.791 108.66 184 108.66Z" fill="#FF80B4"/>
</svg>
