<svg width="109" height="109" viewBox="0 0 109 109" fill="none" xmlns="http://www.w3.org/2000/svg">
<path d="M4.09766 8.20215C6.3068 8.20215 8.09766 6.41129 8.09766 4.20215C8.09766 1.99301 6.3068 0.202148 4.09766 0.202148C1.88852 0.202148 0.0976562 1.99301 0.0976562 4.20215C0.0976562 6.41129 1.88852 8.20215 4.09766 8.20215Z" fill="#5D00F6"/>
<path d="M24.0977 8.20215C26.3068 8.20215 28.0977 6.41129 28.0977 4.20215C28.0977 1.99301 26.3068 0.202148 24.0977 0.202148C21.8885 0.202148 20.0977 1.99301 20.0977 4.20215C20.0977 6.41129 21.8885 8.20215 24.0977 8.20215Z" fill="#5D00F6"/>
<path d="M44.0977 8.20215C46.3068 8.20215 48.0977 6.41129 48.0977 4.20215C48.0977 1.99301 46.3068 0.202148 44.0977 0.202148C41.8885 0.202148 40.0977 1.99301 40.0977 4.20215C40.0977 6.41129 41.8885 8.20215 44.0977 8.20215Z" fill="#5D00F6"/>
<path d="M64.0977 8.20215C66.3068 8.20215 68.0977 6.41129 68.0977 4.20215C68.0977 1.99301 66.3068 0.202148 64.0977 0.202148C61.8885 0.202148 60.0977 1.99301 60.0977 4.20215C60.0977 6.41129 61.8885 8.20215 64.0977 8.20215Z" fill="#5D00F6"/>
<path d="M84.0977 8.20215C86.3068 8.20215 88.0977 6.41129 88.0977 4.20215C88.0977 1.99301 86.3068 0.202148 84.0977 0.202148C81.8885 0.202148 80.0977 1.99301 80.0977 4.20215C80.0977 6.41129 81.8885 8.20215 84.0977 8.20215Z" fill="#5D00F6"/>
<path d="M104.098 8.20215C106.307 8.20215 108.098 6.41129 108.098 4.20215C108.098 1.99301 106.307 0.202148 104.098 0.202148C101.889 0.202148 100.098 1.99301 100.098 4.20215C100.098 6.41129 101.889 8.20215 104.098 8.20215Z" fill="#5D00F6"/>
<path d="M4.09766 28.2021C6.3068 28.2021 8.09766 26.4113 8.09766 24.2021C8.09766 21.993 6.3068 20.2021 4.09766 20.2021C1.88852 20.2021 0.0976562 21.993 0.0976562 24.2021C0.0976562 26.4113 1.88852 28.2021 4.09766 28.2021Z" fill="#5D00F6"/>
<path d="M24.0977 28.2021C26.3068 28.2021 28.0977 26.4113 28.0977 24.2021C28.0977 21.993 26.3068 20.2021 24.0977 20.2021C21.8885 20.2021 20.0977 21.993 20.0977 24.2021C20.0977 26.4113 21.8885 28.2021 24.0977 28.2021Z" fill="#5D00F6"/>
<path d="M44.0977 28.2021C46.3068 28.2021 48.0977 26.4113 48.0977 24.2021C48.0977 21.993 46.3068 20.2021 44.0977 20.2021C41.8885 20.2021 40.0977 21.993 40.0977 24.2021C40.0977 26.4113 41.8885 28.2021 44.0977 28.2021Z" fill="#5D00F6"/>
<path d="M64.0977 28.2021C66.3068 28.2021 68.0977 26.4113 68.0977 24.2021C68.0977 21.993 66.3068 20.2021 64.0977 20.2021C61.8885 20.2021 60.0977 21.993 60.0977 24.2021C60.0977 26.4113 61.8885 28.2021 64.0977 28.2021Z" fill="#5D00F6"/>
<path d="M84.0977 28.2021C86.3068 28.2021 88.0977 26.4113 88.0977 24.2021C88.0977 21.993 86.3068 20.2021 84.0977 20.2021C81.8885 20.2021 80.0977 21.993 80.0977 24.2021C80.0977 26.4113 81.8885 28.2021 84.0977 28.2021Z" fill="#5D00F6"/>
<path d="M104.098 28.2021C106.307 28.2021 108.098 26.4113 108.098 24.2021C108.098 21.993 106.307 20.2021 104.098 20.2021C101.889 20.2021 100.098 21.993 100.098 24.2021C100.098 26.4113 101.889 28.2021 104.098 28.2021Z" fill="#5D00F6"/>
<path d="M4.09766 48.2021C6.3068 48.2021 8.09766 46.4113 8.09766 44.2021C8.09766 41.993 6.3068 40.2021 4.09766 40.2021C1.88852 40.2021 0.0976562 41.993 0.0976562 44.2021C0.0976562 46.4113 1.88852 48.2021 4.09766 48.2021Z" fill="#5D00F6"/>
<path d="M24.0977 48.2021C26.3068 48.2021 28.0977 46.4113 28.0977 44.2021C28.0977 41.993 26.3068 40.2021 24.0977 40.2021C21.8885 40.2021 20.0977 41.993 20.0977 44.2021C20.0977 46.4113 21.8885 48.2021 24.0977 48.2021Z" fill="#5D00F6"/>
<path d="M44.0977 48.2021C46.3068 48.2021 48.0977 46.4113 48.0977 44.2021C48.0977 41.993 46.3068 40.2021 44.0977 40.2021C41.8885 40.2021 40.0977 41.993 40.0977 44.2021C40.0977 46.4113 41.8885 48.2021 44.0977 48.2021Z" fill="#5D00F6"/>
<path d="M64.0977 48.2021C66.3068 48.2021 68.0977 46.4113 68.0977 44.2021C68.0977 41.993 66.3068 40.2021 64.0977 40.2021C61.8885 40.2021 60.0977 41.993 60.0977 44.2021C60.0977 46.4113 61.8885 48.2021 64.0977 48.2021Z" fill="#5D00F6"/>
<path d="M84.0977 48.2021C86.3068 48.2021 88.0977 46.4113 88.0977 44.2021C88.0977 41.993 86.3068 40.2021 84.0977 40.2021C81.8885 40.2021 80.0977 41.993 80.0977 44.2021C80.0977 46.4113 81.8885 48.2021 84.0977 48.2021Z" fill="#5D00F6"/>
<path d="M104.098 48.2021C106.307 48.2021 108.098 46.4113 108.098 44.2021C108.098 41.993 106.307 40.2021 104.098 40.2021C101.889 40.2021 100.098 41.993 100.098 44.2021C100.098 46.4113 101.889 48.2021 104.098 48.2021Z" fill="#5D00F6"/>
<path d="M4.09766 68.2021C6.3068 68.2021 8.09766 66.4113 8.09766 64.2021C8.09766 61.993 6.3068 60.2021 4.09766 60.2021C1.88852 60.2021 0.0976562 61.993 0.0976562 64.2021C0.0976562 66.4113 1.88852 68.2021 4.09766 68.2021Z" fill="#5D00F6"/>
<path d="M24.0977 68.2021C26.3068 68.2021 28.0977 66.4113 28.0977 64.2021C28.0977 61.993 26.3068 60.2021 24.0977 60.2021C21.8885 60.2021 20.0977 61.993 20.0977 64.2021C20.0977 66.4113 21.8885 68.2021 24.0977 68.2021Z" fill="#5D00F6"/>
<path d="M44.0977 68.2021C46.3068 68.2021 48.0977 66.4113 48.0977 64.2021C48.0977 61.993 46.3068 60.2021 44.0977 60.2021C41.8885 60.2021 40.0977 61.993 40.0977 64.2021C40.0977 66.4113 41.8885 68.2021 44.0977 68.2021Z" fill="#5D00F6"/>
<path d="M64.0977 68.2021C66.3068 68.2021 68.0977 66.4113 68.0977 64.2021C68.0977 61.993 66.3068 60.2021 64.0977 60.2021C61.8885 60.2021 60.0977 61.993 60.0977 64.2021C60.0977 66.4113 61.8885 68.2021 64.0977 68.2021Z" fill="#5D00F6"/>
<path d="M84.0977 68.2021C86.3068 68.2021 88.0977 66.4113 88.0977 64.2021C88.0977 61.993 86.3068 60.2021 84.0977 60.2021C81.8885 60.2021 80.0977 61.993 80.0977 64.2021C80.0977 66.4113 81.8885 68.2021 84.0977 68.2021Z" fill="#5D00F6"/>
<path d="M104.098 68.2021C106.307 68.2021 108.098 66.4113 108.098 64.2021C108.098 61.993 106.307 60.2021 104.098 60.2021C101.889 60.2021 100.098 61.993 100.098 64.2021C100.098 66.4113 101.889 68.2021 104.098 68.2021Z" fill="#5D00F6"/>
<path d="M4.09766 88.2021C6.3068 88.2021 8.09766 86.4113 8.09766 84.2021C8.09766 81.993 6.3068 80.2021 4.09766 80.2021C1.88852 80.2021 0.0976562 81.993 0.0976562 84.2021C0.0976562 86.4113 1.88852 88.2021 4.09766 88.2021Z" fill="#5D00F6"/>
<path d="M24.0977 88.2021C26.3068 88.2021 28.0977 86.4113 28.0977 84.2021C28.0977 81.993 26.3068 80.2021 24.0977 80.2021C21.8885 80.2021 20.0977 81.993 20.0977 84.2021C20.0977 86.4113 21.8885 88.2021 24.0977 88.2021Z" fill="#5D00F6"/>
<path d="M44.0977 88.2021C46.3068 88.2021 48.0977 86.4113 48.0977 84.2021C48.0977 81.993 46.3068 80.2021 44.0977 80.2021C41.8885 80.2021 40.0977 81.993 40.0977 84.2021C40.0977 86.4113 41.8885 88.2021 44.0977 88.2021Z" fill="#5D00F6"/>
<path d="M64.0977 88.2021C66.3068 88.2021 68.0977 86.4113 68.0977 84.2021C68.0977 81.993 66.3068 80.2021 64.0977 80.2021C61.8885 80.2021 60.0977 81.993 60.0977 84.2021C60.0977 86.4113 61.8885 88.2021 64.0977 88.2021Z" fill="#5D00F6"/>
<path d="M84.0977 88.2021C86.3068 88.2021 88.0977 86.4113 88.0977 84.2021C88.0977 81.993 86.3068 80.2021 84.0977 80.2021C81.8885 80.2021 80.0977 81.993 80.0977 84.2021C80.0977 86.4113 81.8885 88.2021 84.0977 88.2021Z" fill="#5D00F6"/>
<path d="M104.098 88.2021C106.307 88.2021 108.098 86.4113 108.098 84.2021C108.098 81.993 106.307 80.2021 104.098 80.2021C101.889 80.2021 100.098 81.993 100.098 84.2021C100.098 86.4113 101.889 88.2021 104.098 88.2021Z" fill="#5D00F6"/>
<path d="M4.09766 108.202C6.3068 108.202 8.09766 106.411 8.09766 104.202C8.09766 101.993 6.3068 100.202 4.09766 100.202C1.88852 100.202 0.0976562 101.993 0.0976562 104.202C0.0976562 106.411 1.88852 108.202 4.09766 108.202Z" fill="#5D00F6"/>
<path d="M24.0977 108.202C26.3068 108.202 28.0977 106.411 28.0977 104.202C28.0977 101.993 26.3068 100.202 24.0977 100.202C21.8885 100.202 20.0977 101.993 20.0977 104.202C20.0977 106.411 21.8885 108.202 24.0977 108.202Z" fill="#5D00F6"/>
<path d="M44.0977 108.202C46.3068 108.202 48.0977 106.411 48.0977 104.202C48.0977 101.993 46.3068 100.202 44.0977 100.202C41.8885 100.202 40.0977 101.993 40.0977 104.202C40.0977 106.411 41.8885 108.202 44.0977 108.202Z" fill="#5D00F6"/>
<path d="M64.0977 108.202C66.3068 108.202 68.0977 106.411 68.0977 104.202C68.0977 101.993 66.3068 100.202 64.0977 100.202C61.8885 100.202 60.0977 101.993 60.0977 104.202C60.0977 106.411 61.8885 108.202 64.0977 108.202Z" fill="#5D00F6"/>
<path d="M84.0977 108.202C86.3068 108.202 88.0977 106.411 88.0977 104.202C88.0977 101.993 86.3068 100.202 84.0977 100.202C81.8885 100.202 80.0977 101.993 80.0977 104.202C80.0977 106.411 81.8885 108.202 84.0977 108.202Z" fill="#5D00F6"/>
<path d="M104.098 108.202C106.307 108.202 108.098 106.411 108.098 104.202C108.098 101.993 106.307 100.202 104.098 100.202C101.889 100.202 100.098 101.993 100.098 104.202C100.098 106.411 101.889 108.202 104.098 108.202Z" fill="#5D00F6"/>
</svg>
