<svg width="109" height="109" viewBox="0 0 109 109" fill="none" xmlns="http://www.w3.org/2000/svg">
<path d="M4.44531 8.5C6.65445 8.5 8.44531 6.70914 8.44531 4.5C8.44531 2.29086 6.65445 0.5 4.44531 0.5C2.23617 0.5 0.445312 2.29086 0.445312 4.5C0.445312 6.70914 2.23617 8.5 4.44531 8.5Z" fill="#FF80B4"/>
<path d="M24.4453 8.5C26.6545 8.5 28.4453 6.70914 28.4453 4.5C28.4453 2.29086 26.6545 0.5 24.4453 0.5C22.2362 0.5 20.4453 2.29086 20.4453 4.5C20.4453 6.70914 22.2362 8.5 24.4453 8.5Z" fill="#FF80B4"/>
<path d="M44.4453 8.5C46.6545 8.5 48.4453 6.70914 48.4453 4.5C48.4453 2.29086 46.6545 0.5 44.4453 0.5C42.2362 0.5 40.4453 2.29086 40.4453 4.5C40.4453 6.70914 42.2362 8.5 44.4453 8.5Z" fill="#FF80B4"/>
<path d="M64.4453 8.5C66.6545 8.5 68.4453 6.70914 68.4453 4.5C68.4453 2.29086 66.6545 0.5 64.4453 0.5C62.2362 0.5 60.4453 2.29086 60.4453 4.5C60.4453 6.70914 62.2362 8.5 64.4453 8.5Z" fill="#FF80B4"/>
<path d="M84.4453 8.5C86.6545 8.5 88.4453 6.70914 88.4453 4.5C88.4453 2.29086 86.6545 0.5 84.4453 0.5C82.2362 0.5 80.4453 2.29086 80.4453 4.5C80.4453 6.70914 82.2362 8.5 84.4453 8.5Z" fill="#FF80B4"/>
<path d="M104.445 8.5C106.654 8.5 108.445 6.70914 108.445 4.5C108.445 2.29086 106.654 0.5 104.445 0.5C102.236 0.5 100.445 2.29086 100.445 4.5C100.445 6.70914 102.236 8.5 104.445 8.5Z" fill="#FF80B4"/>
<path d="M4.44531 28.5C6.65445 28.5 8.44531 26.7091 8.44531 24.5C8.44531 22.2909 6.65445 20.5 4.44531 20.5C2.23617 20.5 0.445312 22.2909 0.445312 24.5C0.445312 26.7091 2.23617 28.5 4.44531 28.5Z" fill="#FF80B4"/>
<path d="M24.4453 28.5C26.6545 28.5 28.4453 26.7091 28.4453 24.5C28.4453 22.2909 26.6545 20.5 24.4453 20.5C22.2362 20.5 20.4453 22.2909 20.4453 24.5C20.4453 26.7091 22.2362 28.5 24.4453 28.5Z" fill="#FF80B4"/>
<path d="M44.4453 28.5C46.6545 28.5 48.4453 26.7091 48.4453 24.5C48.4453 22.2909 46.6545 20.5 44.4453 20.5C42.2362 20.5 40.4453 22.2909 40.4453 24.5C40.4453 26.7091 42.2362 28.5 44.4453 28.5Z" fill="#FF80B4"/>
<path d="M64.4453 28.5C66.6545 28.5 68.4453 26.7091 68.4453 24.5C68.4453 22.2909 66.6545 20.5 64.4453 20.5C62.2362 20.5 60.4453 22.2909 60.4453 24.5C60.4453 26.7091 62.2362 28.5 64.4453 28.5Z" fill="#FF80B4"/>
<path d="M84.4453 28.5C86.6545 28.5 88.4453 26.7091 88.4453 24.5C88.4453 22.2909 86.6545 20.5 84.4453 20.5C82.2362 20.5 80.4453 22.2909 80.4453 24.5C80.4453 26.7091 82.2362 28.5 84.4453 28.5Z" fill="#FF80B4"/>
<path d="M104.445 28.5C106.654 28.5 108.445 26.7091 108.445 24.5C108.445 22.2909 106.654 20.5 104.445 20.5C102.236 20.5 100.445 22.2909 100.445 24.5C100.445 26.7091 102.236 28.5 104.445 28.5Z" fill="#FF80B4"/>
<path d="M4.44531 48.5C6.65445 48.5 8.44531 46.7091 8.44531 44.5C8.44531 42.2909 6.65445 40.5 4.44531 40.5C2.23617 40.5 0.445312 42.2909 0.445312 44.5C0.445312 46.7091 2.23617 48.5 4.44531 48.5Z" fill="#FF80B4"/>
<path d="M24.4453 48.5C26.6545 48.5 28.4453 46.7091 28.4453 44.5C28.4453 42.2909 26.6545 40.5 24.4453 40.5C22.2362 40.5 20.4453 42.2909 20.4453 44.5C20.4453 46.7091 22.2362 48.5 24.4453 48.5Z" fill="#FF80B4"/>
<path d="M44.4453 48.5C46.6545 48.5 48.4453 46.7091 48.4453 44.5C48.4453 42.2909 46.6545 40.5 44.4453 40.5C42.2362 40.5 40.4453 42.2909 40.4453 44.5C40.4453 46.7091 42.2362 48.5 44.4453 48.5Z" fill="#FF80B4"/>
<path d="M64.4453 48.5C66.6545 48.5 68.4453 46.7091 68.4453 44.5C68.4453 42.2909 66.6545 40.5 64.4453 40.5C62.2362 40.5 60.4453 42.2909 60.4453 44.5C60.4453 46.7091 62.2362 48.5 64.4453 48.5Z" fill="#FF80B4"/>
<path d="M84.4453 48.5C86.6545 48.5 88.4453 46.7091 88.4453 44.5C88.4453 42.2909 86.6545 40.5 84.4453 40.5C82.2362 40.5 80.4453 42.2909 80.4453 44.5C80.4453 46.7091 82.2362 48.5 84.4453 48.5Z" fill="#FF80B4"/>
<path d="M104.445 48.5C106.654 48.5 108.445 46.7091 108.445 44.5C108.445 42.2909 106.654 40.5 104.445 40.5C102.236 40.5 100.445 42.2909 100.445 44.5C100.445 46.7091 102.236 48.5 104.445 48.5Z" fill="#FF80B4"/>
<path d="M4.44531 68.5C6.65445 68.5 8.44531 66.7091 8.44531 64.5C8.44531 62.2909 6.65445 60.5 4.44531 60.5C2.23617 60.5 0.445312 62.2909 0.445312 64.5C0.445312 66.7091 2.23617 68.5 4.44531 68.5Z" fill="#FF80B4"/>
<path d="M24.4453 68.5C26.6545 68.5 28.4453 66.7091 28.4453 64.5C28.4453 62.2909 26.6545 60.5 24.4453 60.5C22.2362 60.5 20.4453 62.2909 20.4453 64.5C20.4453 66.7091 22.2362 68.5 24.4453 68.5Z" fill="#FF80B4"/>
<path d="M44.4453 68.5C46.6545 68.5 48.4453 66.7091 48.4453 64.5C48.4453 62.2909 46.6545 60.5 44.4453 60.5C42.2362 60.5 40.4453 62.2909 40.4453 64.5C40.4453 66.7091 42.2362 68.5 44.4453 68.5Z" fill="#FF80B4"/>
<path d="M64.4453 68.5C66.6545 68.5 68.4453 66.7091 68.4453 64.5C68.4453 62.2909 66.6545 60.5 64.4453 60.5C62.2362 60.5 60.4453 62.2909 60.4453 64.5C60.4453 66.7091 62.2362 68.5 64.4453 68.5Z" fill="#FF80B4"/>
<path d="M84.4453 68.5C86.6545 68.5 88.4453 66.7091 88.4453 64.5C88.4453 62.2909 86.6545 60.5 84.4453 60.5C82.2362 60.5 80.4453 62.2909 80.4453 64.5C80.4453 66.7091 82.2362 68.5 84.4453 68.5Z" fill="#FF80B4"/>
<path d="M104.445 68.5C106.654 68.5 108.445 66.7091 108.445 64.5C108.445 62.2909 106.654 60.5 104.445 60.5C102.236 60.5 100.445 62.2909 100.445 64.5C100.445 66.7091 102.236 68.5 104.445 68.5Z" fill="#FF80B4"/>
<path d="M4.44531 88.5C6.65445 88.5 8.44531 86.7091 8.44531 84.5C8.44531 82.2909 6.65445 80.5 4.44531 80.5C2.23617 80.5 0.445312 82.2909 0.445312 84.5C0.445312 86.7091 2.23617 88.5 4.44531 88.5Z" fill="#FF80B4"/>
<path d="M24.4453 88.5C26.6545 88.5 28.4453 86.7091 28.4453 84.5C28.4453 82.2909 26.6545 80.5 24.4453 80.5C22.2362 80.5 20.4453 82.2909 20.4453 84.5C20.4453 86.7091 22.2362 88.5 24.4453 88.5Z" fill="#FF80B4"/>
<path d="M44.4453 88.5C46.6545 88.5 48.4453 86.7091 48.4453 84.5C48.4453 82.2909 46.6545 80.5 44.4453 80.5C42.2362 80.5 40.4453 82.2909 40.4453 84.5C40.4453 86.7091 42.2362 88.5 44.4453 88.5Z" fill="#FF80B4"/>
<path d="M64.4453 88.5C66.6545 88.5 68.4453 86.7091 68.4453 84.5C68.4453 82.2909 66.6545 80.5 64.4453 80.5C62.2362 80.5 60.4453 82.2909 60.4453 84.5C60.4453 86.7091 62.2362 88.5 64.4453 88.5Z" fill="#FF80B4"/>
<path d="M84.4453 88.5C86.6545 88.5 88.4453 86.7091 88.4453 84.5C88.4453 82.2909 86.6545 80.5 84.4453 80.5C82.2362 80.5 80.4453 82.2909 80.4453 84.5C80.4453 86.7091 82.2362 88.5 84.4453 88.5Z" fill="#FF80B4"/>
<path d="M104.445 88.5C106.654 88.5 108.445 86.7091 108.445 84.5C108.445 82.2909 106.654 80.5 104.445 80.5C102.236 80.5 100.445 82.2909 100.445 84.5C100.445 86.7091 102.236 88.5 104.445 88.5Z" fill="#FF80B4"/>
<path d="M4.44531 108.5C6.65445 108.5 8.44531 106.709 8.44531 104.5C8.44531 102.291 6.65445 100.5 4.44531 100.5C2.23617 100.5 0.445312 102.291 0.445312 104.5C0.445312 106.709 2.23617 108.5 4.44531 108.5Z" fill="#FF80B4"/>
<path d="M24.4453 108.5C26.6545 108.5 28.4453 106.709 28.4453 104.5C28.4453 102.291 26.6545 100.5 24.4453 100.5C22.2362 100.5 20.4453 102.291 20.4453 104.5C20.4453 106.709 22.2362 108.5 24.4453 108.5Z" fill="#FF80B4"/>
<path d="M44.4453 108.5C46.6545 108.5 48.4453 106.709 48.4453 104.5C48.4453 102.291 46.6545 100.5 44.4453 100.5C42.2362 100.5 40.4453 102.291 40.4453 104.5C40.4453 106.709 42.2362 108.5 44.4453 108.5Z" fill="#FF80B4"/>
<path d="M64.4453 108.5C66.6545 108.5 68.4453 106.709 68.4453 104.5C68.4453 102.291 66.6545 100.5 64.4453 100.5C62.2362 100.5 60.4453 102.291 60.4453 104.5C60.4453 106.709 62.2362 108.5 64.4453 108.5Z" fill="#FF80B4"/>
<path d="M84.4453 108.5C86.6545 108.5 88.4453 106.709 88.4453 104.5C88.4453 102.291 86.6545 100.5 84.4453 100.5C82.2362 100.5 80.4453 102.291 80.4453 104.5C80.4453 106.709 82.2362 108.5 84.4453 108.5Z" fill="#FF80B4"/>
<path d="M104.445 108.5C106.654 108.5 108.445 106.709 108.445 104.5C108.445 102.291 106.654 100.5 104.445 100.5C102.236 100.5 100.445 102.291 100.445 104.5C100.445 106.709 102.236 108.5 104.445 108.5Z" fill="#FF80B4"/>
</svg>
