<svg width="129" height="49" viewBox="0 0 129 49" fill="none" xmlns="http://www.w3.org/2000/svg">
<path d="M4.6875 8.26758C6.89664 8.26758 8.6875 6.47672 8.6875 4.26758C8.6875 2.05844 6.89664 0.267578 4.6875 0.267578C2.47836 0.267578 0.6875 2.05844 0.6875 4.26758C0.6875 6.47672 2.47836 8.26758 4.6875 8.26758Z" fill="#6096FF"/>
<path d="M24.6875 8.26758C26.8966 8.26758 28.6875 6.47672 28.6875 4.26758C28.6875 2.05844 26.8966 0.267578 24.6875 0.267578C22.4784 0.267578 20.6875 2.05844 20.6875 4.26758C20.6875 6.47672 22.4784 8.26758 24.6875 8.26758Z" fill="#6096FF"/>
<path d="M44.6875 8.26758C46.8966 8.26758 48.6875 6.47672 48.6875 4.26758C48.6875 2.05844 46.8966 0.267578 44.6875 0.267578C42.4784 0.267578 40.6875 2.05844 40.6875 4.26758C40.6875 6.47672 42.4784 8.26758 44.6875 8.26758Z" fill="#6096FF"/>
<path d="M64.6875 8.26758C66.8966 8.26758 68.6875 6.47672 68.6875 4.26758C68.6875 2.05844 66.8966 0.267578 64.6875 0.267578C62.4784 0.267578 60.6875 2.05844 60.6875 4.26758C60.6875 6.47672 62.4784 8.26758 64.6875 8.26758Z" fill="#6096FF"/>
<path d="M84.6875 8.26758C86.8966 8.26758 88.6875 6.47672 88.6875 4.26758C88.6875 2.05844 86.8966 0.267578 84.6875 0.267578C82.4784 0.267578 80.6875 2.05844 80.6875 4.26758C80.6875 6.47672 82.4784 8.26758 84.6875 8.26758Z" fill="#6096FF"/>
<path d="M104.688 8.26758C106.897 8.26758 108.688 6.47672 108.688 4.26758C108.688 2.05844 106.897 0.267578 104.688 0.267578C102.478 0.267578 100.688 2.05844 100.688 4.26758C100.688 6.47672 102.478 8.26758 104.688 8.26758Z" fill="#6096FF"/>
<path d="M124.688 8.26758C126.897 8.26758 128.688 6.47672 128.688 4.26758C128.688 2.05844 126.897 0.267578 124.688 0.267578C122.478 0.267578 120.688 2.05844 120.688 4.26758C120.688 6.47672 122.478 8.26758 124.688 8.26758Z" fill="#6096FF"/>
<path d="M4.6875 28.2676C6.89664 28.2676 8.6875 26.4767 8.6875 24.2676C8.6875 22.0584 6.89664 20.2676 4.6875 20.2676C2.47836 20.2676 0.6875 22.0584 0.6875 24.2676C0.6875 26.4767 2.47836 28.2676 4.6875 28.2676Z" fill="#6096FF"/>
<path d="M24.6875 28.2676C26.8966 28.2676 28.6875 26.4767 28.6875 24.2676C28.6875 22.0584 26.8966 20.2676 24.6875 20.2676C22.4784 20.2676 20.6875 22.0584 20.6875 24.2676C20.6875 26.4767 22.4784 28.2676 24.6875 28.2676Z" fill="#6096FF"/>
<path d="M44.6875 28.2676C46.8966 28.2676 48.6875 26.4767 48.6875 24.2676C48.6875 22.0584 46.8966 20.2676 44.6875 20.2676C42.4784 20.2676 40.6875 22.0584 40.6875 24.2676C40.6875 26.4767 42.4784 28.2676 44.6875 28.2676Z" fill="#6096FF"/>
<path d="M64.6875 28.2676C66.8966 28.2676 68.6875 26.4767 68.6875 24.2676C68.6875 22.0584 66.8966 20.2676 64.6875 20.2676C62.4784 20.2676 60.6875 22.0584 60.6875 24.2676C60.6875 26.4767 62.4784 28.2676 64.6875 28.2676Z" fill="#6096FF"/>
<path d="M84.6875 28.2676C86.8966 28.2676 88.6875 26.4767 88.6875 24.2676C88.6875 22.0584 86.8966 20.2676 84.6875 20.2676C82.4784 20.2676 80.6875 22.0584 80.6875 24.2676C80.6875 26.4767 82.4784 28.2676 84.6875 28.2676Z" fill="#6096FF"/>
<path d="M104.688 28.2676C106.897 28.2676 108.688 26.4767 108.688 24.2676C108.688 22.0584 106.897 20.2676 104.688 20.2676C102.478 20.2676 100.688 22.0584 100.688 24.2676C100.688 26.4767 102.478 28.2676 104.688 28.2676Z" fill="#6096FF"/>
<path d="M124.688 28.2676C126.897 28.2676 128.688 26.4767 128.688 24.2676C128.688 22.0584 126.897 20.2676 124.688 20.2676C122.478 20.2676 120.688 22.0584 120.688 24.2676C120.688 26.4767 122.478 28.2676 124.688 28.2676Z" fill="#6096FF"/>
<path d="M4.6875 48.2676C6.89664 48.2676 8.6875 46.4767 8.6875 44.2676C8.6875 42.0584 6.89664 40.2676 4.6875 40.2676C2.47836 40.2676 0.6875 42.0584 0.6875 44.2676C0.6875 46.4767 2.47836 48.2676 4.6875 48.2676Z" fill="#6096FF"/>
<path d="M24.6875 48.2676C26.8966 48.2676 28.6875 46.4767 28.6875 44.2676C28.6875 42.0584 26.8966 40.2676 24.6875 40.2676C22.4784 40.2676 20.6875 42.0584 20.6875 44.2676C20.6875 46.4767 22.4784 48.2676 24.6875 48.2676Z" fill="#6096FF"/>
<path d="M44.6875 48.2676C46.8966 48.2676 48.6875 46.4767 48.6875 44.2676C48.6875 42.0584 46.8966 40.2676 44.6875 40.2676C42.4784 40.2676 40.6875 42.0584 40.6875 44.2676C40.6875 46.4767 42.4784 48.2676 44.6875 48.2676Z" fill="#6096FF"/>
<path d="M64.6875 48.2676C66.8966 48.2676 68.6875 46.4767 68.6875 44.2676C68.6875 42.0584 66.8966 40.2676 64.6875 40.2676C62.4784 40.2676 60.6875 42.0584 60.6875 44.2676C60.6875 46.4767 62.4784 48.2676 64.6875 48.2676Z" fill="#6096FF"/>
<path d="M84.6875 48.2676C86.8966 48.2676 88.6875 46.4767 88.6875 44.2676C88.6875 42.0584 86.8966 40.2676 84.6875 40.2676C82.4784 40.2676 80.6875 42.0584 80.6875 44.2676C80.6875 46.4767 82.4784 48.2676 84.6875 48.2676Z" fill="#6096FF"/>
<path d="M104.688 48.2676C106.897 48.2676 108.688 46.4767 108.688 44.2676C108.688 42.0584 106.897 40.2676 104.688 40.2676C102.478 40.2676 100.688 42.0584 100.688 44.2676C100.688 46.4767 102.478 48.2676 104.688 48.2676Z" fill="#6096FF"/>
<path d="M124.688 48.2676C126.897 48.2676 128.688 46.4767 128.688 44.2676C128.688 42.0584 126.897 40.2676 124.688 40.2676C122.478 40.2676 120.688 42.0584 120.688 44.2676C120.688 46.4767 122.478 48.2676 124.688 48.2676Z" fill="#6096FF"/>
</svg>
