<svg width="109" height="109" viewBox="0 0 109 109" fill="none" xmlns="http://www.w3.org/2000/svg">
<path d="M4.09766 8.20117C6.3068 8.20117 8.09766 6.41031 8.09766 4.20117C8.09766 1.99203 6.3068 0.201172 4.09766 0.201172C1.88852 0.201172 0.0976562 1.99203 0.0976562 4.20117C0.0976562 6.41031 1.88852 8.20117 4.09766 8.20117Z" fill="#AD7BFF"/>
<path d="M24.0977 8.20117C26.3068 8.20117 28.0977 6.41031 28.0977 4.20117C28.0977 1.99203 26.3068 0.201172 24.0977 0.201172C21.8885 0.201172 20.0977 1.99203 20.0977 4.20117C20.0977 6.41031 21.8885 8.20117 24.0977 8.20117Z" fill="#AD7BFF"/>
<path d="M44.0977 8.20117C46.3068 8.20117 48.0977 6.41031 48.0977 4.20117C48.0977 1.99203 46.3068 0.201172 44.0977 0.201172C41.8885 0.201172 40.0977 1.99203 40.0977 4.20117C40.0977 6.41031 41.8885 8.20117 44.0977 8.20117Z" fill="#AD7BFF"/>
<path d="M64.0977 8.20117C66.3068 8.20117 68.0977 6.41031 68.0977 4.20117C68.0977 1.99203 66.3068 0.201172 64.0977 0.201172C61.8885 0.201172 60.0977 1.99203 60.0977 4.20117C60.0977 6.41031 61.8885 8.20117 64.0977 8.20117Z" fill="#AD7BFF"/>
<path d="M84.0977 8.20117C86.3068 8.20117 88.0977 6.41031 88.0977 4.20117C88.0977 1.99203 86.3068 0.201172 84.0977 0.201172C81.8885 0.201172 80.0977 1.99203 80.0977 4.20117C80.0977 6.41031 81.8885 8.20117 84.0977 8.20117Z" fill="#AD7BFF"/>
<path d="M104.098 8.20117C106.307 8.20117 108.098 6.41031 108.098 4.20117C108.098 1.99203 106.307 0.201172 104.098 0.201172C101.889 0.201172 100.098 1.99203 100.098 4.20117C100.098 6.41031 101.889 8.20117 104.098 8.20117Z" fill="#AD7BFF"/>
<path d="M4.09766 28.2012C6.3068 28.2012 8.09766 26.4103 8.09766 24.2012C8.09766 21.992 6.3068 20.2012 4.09766 20.2012C1.88852 20.2012 0.0976562 21.992 0.0976562 24.2012C0.0976562 26.4103 1.88852 28.2012 4.09766 28.2012Z" fill="#AD7BFF"/>
<path d="M24.0977 28.2012C26.3068 28.2012 28.0977 26.4103 28.0977 24.2012C28.0977 21.992 26.3068 20.2012 24.0977 20.2012C21.8885 20.2012 20.0977 21.992 20.0977 24.2012C20.0977 26.4103 21.8885 28.2012 24.0977 28.2012Z" fill="#AD7BFF"/>
<path d="M44.0977 28.2012C46.3068 28.2012 48.0977 26.4103 48.0977 24.2012C48.0977 21.992 46.3068 20.2012 44.0977 20.2012C41.8885 20.2012 40.0977 21.992 40.0977 24.2012C40.0977 26.4103 41.8885 28.2012 44.0977 28.2012Z" fill="#AD7BFF"/>
<path d="M64.0977 28.2012C66.3068 28.2012 68.0977 26.4103 68.0977 24.2012C68.0977 21.992 66.3068 20.2012 64.0977 20.2012C61.8885 20.2012 60.0977 21.992 60.0977 24.2012C60.0977 26.4103 61.8885 28.2012 64.0977 28.2012Z" fill="#AD7BFF"/>
<path d="M84.0977 28.2012C86.3068 28.2012 88.0977 26.4103 88.0977 24.2012C88.0977 21.992 86.3068 20.2012 84.0977 20.2012C81.8885 20.2012 80.0977 21.992 80.0977 24.2012C80.0977 26.4103 81.8885 28.2012 84.0977 28.2012Z" fill="#AD7BFF"/>
<path d="M104.098 28.2012C106.307 28.2012 108.098 26.4103 108.098 24.2012C108.098 21.992 106.307 20.2012 104.098 20.2012C101.889 20.2012 100.098 21.992 100.098 24.2012C100.098 26.4103 101.889 28.2012 104.098 28.2012Z" fill="#AD7BFF"/>
<path d="M4.09766 48.2012C6.3068 48.2012 8.09766 46.4103 8.09766 44.2012C8.09766 41.992 6.3068 40.2012 4.09766 40.2012C1.88852 40.2012 0.0976562 41.992 0.0976562 44.2012C0.0976562 46.4103 1.88852 48.2012 4.09766 48.2012Z" fill="#AD7BFF"/>
<path d="M24.0977 48.2012C26.3068 48.2012 28.0977 46.4103 28.0977 44.2012C28.0977 41.992 26.3068 40.2012 24.0977 40.2012C21.8885 40.2012 20.0977 41.992 20.0977 44.2012C20.0977 46.4103 21.8885 48.2012 24.0977 48.2012Z" fill="#AD7BFF"/>
<path d="M44.0977 48.2012C46.3068 48.2012 48.0977 46.4103 48.0977 44.2012C48.0977 41.992 46.3068 40.2012 44.0977 40.2012C41.8885 40.2012 40.0977 41.992 40.0977 44.2012C40.0977 46.4103 41.8885 48.2012 44.0977 48.2012Z" fill="#AD7BFF"/>
<path d="M64.0977 48.2012C66.3068 48.2012 68.0977 46.4103 68.0977 44.2012C68.0977 41.992 66.3068 40.2012 64.0977 40.2012C61.8885 40.2012 60.0977 41.992 60.0977 44.2012C60.0977 46.4103 61.8885 48.2012 64.0977 48.2012Z" fill="#AD7BFF"/>
<path d="M84.0977 48.2012C86.3068 48.2012 88.0977 46.4103 88.0977 44.2012C88.0977 41.992 86.3068 40.2012 84.0977 40.2012C81.8885 40.2012 80.0977 41.992 80.0977 44.2012C80.0977 46.4103 81.8885 48.2012 84.0977 48.2012Z" fill="#AD7BFF"/>
<path d="M104.098 48.2012C106.307 48.2012 108.098 46.4103 108.098 44.2012C108.098 41.992 106.307 40.2012 104.098 40.2012C101.889 40.2012 100.098 41.992 100.098 44.2012C100.098 46.4103 101.889 48.2012 104.098 48.2012Z" fill="#AD7BFF"/>
<path d="M4.09766 68.2012C6.3068 68.2012 8.09766 66.4103 8.09766 64.2012C8.09766 61.992 6.3068 60.2012 4.09766 60.2012C1.88852 60.2012 0.0976562 61.992 0.0976562 64.2012C0.0976562 66.4103 1.88852 68.2012 4.09766 68.2012Z" fill="#AD7BFF"/>
<path d="M24.0977 68.2012C26.3068 68.2012 28.0977 66.4103 28.0977 64.2012C28.0977 61.992 26.3068 60.2012 24.0977 60.2012C21.8885 60.2012 20.0977 61.992 20.0977 64.2012C20.0977 66.4103 21.8885 68.2012 24.0977 68.2012Z" fill="#AD7BFF"/>
<path d="M44.0977 68.2012C46.3068 68.2012 48.0977 66.4103 48.0977 64.2012C48.0977 61.992 46.3068 60.2012 44.0977 60.2012C41.8885 60.2012 40.0977 61.992 40.0977 64.2012C40.0977 66.4103 41.8885 68.2012 44.0977 68.2012Z" fill="#AD7BFF"/>
<path d="M64.0977 68.2012C66.3068 68.2012 68.0977 66.4103 68.0977 64.2012C68.0977 61.992 66.3068 60.2012 64.0977 60.2012C61.8885 60.2012 60.0977 61.992 60.0977 64.2012C60.0977 66.4103 61.8885 68.2012 64.0977 68.2012Z" fill="#AD7BFF"/>
<path d="M84.0977 68.2012C86.3068 68.2012 88.0977 66.4103 88.0977 64.2012C88.0977 61.992 86.3068 60.2012 84.0977 60.2012C81.8885 60.2012 80.0977 61.992 80.0977 64.2012C80.0977 66.4103 81.8885 68.2012 84.0977 68.2012Z" fill="#AD7BFF"/>
<path d="M104.098 68.2012C106.307 68.2012 108.098 66.4103 108.098 64.2012C108.098 61.992 106.307 60.2012 104.098 60.2012C101.889 60.2012 100.098 61.992 100.098 64.2012C100.098 66.4103 101.889 68.2012 104.098 68.2012Z" fill="#AD7BFF"/>
<path d="M4.09766 88.2012C6.3068 88.2012 8.09766 86.4103 8.09766 84.2012C8.09766 81.992 6.3068 80.2012 4.09766 80.2012C1.88852 80.2012 0.0976562 81.992 0.0976562 84.2012C0.0976562 86.4103 1.88852 88.2012 4.09766 88.2012Z" fill="#AD7BFF"/>
<path d="M24.0977 88.2012C26.3068 88.2012 28.0977 86.4103 28.0977 84.2012C28.0977 81.992 26.3068 80.2012 24.0977 80.2012C21.8885 80.2012 20.0977 81.992 20.0977 84.2012C20.0977 86.4103 21.8885 88.2012 24.0977 88.2012Z" fill="#AD7BFF"/>
<path d="M44.0977 88.2012C46.3068 88.2012 48.0977 86.4103 48.0977 84.2012C48.0977 81.992 46.3068 80.2012 44.0977 80.2012C41.8885 80.2012 40.0977 81.992 40.0977 84.2012C40.0977 86.4103 41.8885 88.2012 44.0977 88.2012Z" fill="#AD7BFF"/>
<path d="M64.0977 88.2012C66.3068 88.2012 68.0977 86.4103 68.0977 84.2012C68.0977 81.992 66.3068 80.2012 64.0977 80.2012C61.8885 80.2012 60.0977 81.992 60.0977 84.2012C60.0977 86.4103 61.8885 88.2012 64.0977 88.2012Z" fill="#AD7BFF"/>
<path d="M84.0977 88.2012C86.3068 88.2012 88.0977 86.4103 88.0977 84.2012C88.0977 81.992 86.3068 80.2012 84.0977 80.2012C81.8885 80.2012 80.0977 81.992 80.0977 84.2012C80.0977 86.4103 81.8885 88.2012 84.0977 88.2012Z" fill="#AD7BFF"/>
<path d="M104.098 88.2012C106.307 88.2012 108.098 86.4103 108.098 84.2012C108.098 81.992 106.307 80.2012 104.098 80.2012C101.889 80.2012 100.098 81.992 100.098 84.2012C100.098 86.4103 101.889 88.2012 104.098 88.2012Z" fill="#AD7BFF"/>
<path d="M4.09766 108.201C6.3068 108.201 8.09766 106.41 8.09766 104.201C8.09766 101.992 6.3068 100.201 4.09766 100.201C1.88852 100.201 0.0976562 101.992 0.0976562 104.201C0.0976562 106.41 1.88852 108.201 4.09766 108.201Z" fill="#AD7BFF"/>
<path d="M24.0977 108.201C26.3068 108.201 28.0977 106.41 28.0977 104.201C28.0977 101.992 26.3068 100.201 24.0977 100.201C21.8885 100.201 20.0977 101.992 20.0977 104.201C20.0977 106.41 21.8885 108.201 24.0977 108.201Z" fill="#AD7BFF"/>
<path d="M44.0977 108.201C46.3068 108.201 48.0977 106.41 48.0977 104.201C48.0977 101.992 46.3068 100.201 44.0977 100.201C41.8885 100.201 40.0977 101.992 40.0977 104.201C40.0977 106.41 41.8885 108.201 44.0977 108.201Z" fill="#AD7BFF"/>
<path d="M64.0977 108.201C66.3068 108.201 68.0977 106.41 68.0977 104.201C68.0977 101.992 66.3068 100.201 64.0977 100.201C61.8885 100.201 60.0977 101.992 60.0977 104.201C60.0977 106.41 61.8885 108.201 64.0977 108.201Z" fill="#AD7BFF"/>
<path d="M84.0977 108.201C86.3068 108.201 88.0977 106.41 88.0977 104.201C88.0977 101.992 86.3068 100.201 84.0977 100.201C81.8885 100.201 80.0977 101.992 80.0977 104.201C80.0977 106.41 81.8885 108.201 84.0977 108.201Z" fill="#AD7BFF"/>
<path d="M104.098 108.201C106.307 108.201 108.098 106.41 108.098 104.201C108.098 101.992 106.307 100.201 104.098 100.201C101.889 100.201 100.098 101.992 100.098 104.201C100.098 106.41 101.889 108.201 104.098 108.201Z" fill="#AD7BFF"/>
</svg>
