<svg width="188" height="109" viewBox="0 0 188 109" fill="none" xmlns="http://www.w3.org/2000/svg">
<path d="M4 8.66064C6.20914 8.66064 8 6.86978 8 4.66064C8 2.45151 6.20914 0.660645 4 0.660645C1.79086 0.660645 0 2.45151 0 4.66064C0 6.86978 1.79086 8.66064 4 8.66064Z" fill="#FF0069"/>
<path d="M24 8.66064C26.2091 8.66064 28 6.86978 28 4.66064C28 2.45151 26.2091 0.660645 24 0.660645C21.7909 0.660645 20 2.45151 20 4.66064C20 6.86978 21.7909 8.66064 24 8.66064Z" fill="#FF0069"/>
<path d="M44 8.66064C46.2091 8.66064 48 6.86978 48 4.66064C48 2.45151 46.2091 0.660645 44 0.660645C41.7909 0.660645 40 2.45151 40 4.66064C40 6.86978 41.7909 8.66064 44 8.66064Z" fill="#FF0069"/>
<path d="M64 8.66064C66.2091 8.66064 68 6.86978 68 4.66064C68 2.45151 66.2091 0.660645 64 0.660645C61.7909 0.660645 60 2.45151 60 4.66064C60 6.86978 61.7909 8.66064 64 8.66064Z" fill="#FF0069"/>
<path d="M84 8.66064C86.2091 8.66064 88 6.86978 88 4.66064C88 2.45151 86.2091 0.660645 84 0.660645C81.7909 0.660645 80 2.45151 80 4.66064C80 6.86978 81.7909 8.66064 84 8.66064Z" fill="#FF0069"/>
<path d="M104 8.66064C106.209 8.66064 108 6.86978 108 4.66064C108 2.45151 106.209 0.660645 104 0.660645C101.791 0.660645 100 2.45151 100 4.66064C100 6.86978 101.791 8.66064 104 8.66064Z" fill="#FF0069"/>
<path d="M124 8.66064C126.209 8.66064 128 6.86978 128 4.66064C128 2.45151 126.209 0.660645 124 0.660645C121.791 0.660645 120 2.45151 120 4.66064C120 6.86978 121.791 8.66064 124 8.66064Z" fill="#FF0069"/>
<path d="M144 8.66064C146.209 8.66064 148 6.86978 148 4.66064C148 2.45151 146.209 0.660645 144 0.660645C141.791 0.660645 140 2.45151 140 4.66064C140 6.86978 141.791 8.66064 144 8.66064Z" fill="#FF0069"/>
<path d="M164 8.66064C166.209 8.66064 168 6.86978 168 4.66064C168 2.45151 166.209 0.660645 164 0.660645C161.791 0.660645 160 2.45151 160 4.66064C160 6.86978 161.791 8.66064 164 8.66064Z" fill="#FF0069"/>
<path d="M184 8.66064C186.209 8.66064 188 6.86978 188 4.66064C188 2.45151 186.209 0.660645 184 0.660645C181.791 0.660645 180 2.45151 180 4.66064C180 6.86978 181.791 8.66064 184 8.66064Z" fill="#FF0069"/>
<path d="M4 28.6606C6.20914 28.6606 8 26.8698 8 24.6606C8 22.4515 6.20914 20.6606 4 20.6606C1.79086 20.6606 0 22.4515 0 24.6606C0 26.8698 1.79086 28.6606 4 28.6606Z" fill="#FF0069"/>
<path d="M24 28.6606C26.2091 28.6606 28 26.8698 28 24.6606C28 22.4515 26.2091 20.6606 24 20.6606C21.7909 20.6606 20 22.4515 20 24.6606C20 26.8698 21.7909 28.6606 24 28.6606Z" fill="#FF0069"/>
<path d="M44 28.6606C46.2091 28.6606 48 26.8698 48 24.6606C48 22.4515 46.2091 20.6606 44 20.6606C41.7909 20.6606 40 22.4515 40 24.6606C40 26.8698 41.7909 28.6606 44 28.6606Z" fill="#FF0069"/>
<path d="M64 28.6606C66.2091 28.6606 68 26.8698 68 24.6606C68 22.4515 66.2091 20.6606 64 20.6606C61.7909 20.6606 60 22.4515 60 24.6606C60 26.8698 61.7909 28.6606 64 28.6606Z" fill="#FF0069"/>
<path d="M84 28.6606C86.2091 28.6606 88 26.8698 88 24.6606C88 22.4515 86.2091 20.6606 84 20.6606C81.7909 20.6606 80 22.4515 80 24.6606C80 26.8698 81.7909 28.6606 84 28.6606Z" fill="#FF0069"/>
<path d="M104 28.6606C106.209 28.6606 108 26.8698 108 24.6606C108 22.4515 106.209 20.6606 104 20.6606C101.791 20.6606 100 22.4515 100 24.6606C100 26.8698 101.791 28.6606 104 28.6606Z" fill="#FF0069"/>
<path d="M124 28.6606C126.209 28.6606 128 26.8698 128 24.6606C128 22.4515 126.209 20.6606 124 20.6606C121.791 20.6606 120 22.4515 120 24.6606C120 26.8698 121.791 28.6606 124 28.6606Z" fill="#FF0069"/>
<path d="M144 28.6606C146.209 28.6606 148 26.8698 148 24.6606C148 22.4515 146.209 20.6606 144 20.6606C141.791 20.6606 140 22.4515 140 24.6606C140 26.8698 141.791 28.6606 144 28.6606Z" fill="#FF0069"/>
<path d="M164 28.6606C166.209 28.6606 168 26.8698 168 24.6606C168 22.4515 166.209 20.6606 164 20.6606C161.791 20.6606 160 22.4515 160 24.6606C160 26.8698 161.791 28.6606 164 28.6606Z" fill="#FF0069"/>
<path d="M184 28.6606C186.209 28.6606 188 26.8698 188 24.6606C188 22.4515 186.209 20.6606 184 20.6606C181.791 20.6606 180 22.4515 180 24.6606C180 26.8698 181.791 28.6606 184 28.6606Z" fill="#FF0069"/>
<path d="M4 48.6606C6.20914 48.6606 8 46.8698 8 44.6606C8 42.4515 6.20914 40.6606 4 40.6606C1.79086 40.6606 0 42.4515 0 44.6606C0 46.8698 1.79086 48.6606 4 48.6606Z" fill="#FF0069"/>
<path d="M24 48.6606C26.2091 48.6606 28 46.8698 28 44.6606C28 42.4515 26.2091 40.6606 24 40.6606C21.7909 40.6606 20 42.4515 20 44.6606C20 46.8698 21.7909 48.6606 24 48.6606Z" fill="#FF0069"/>
<path d="M44 48.6606C46.2091 48.6606 48 46.8698 48 44.6606C48 42.4515 46.2091 40.6606 44 40.6606C41.7909 40.6606 40 42.4515 40 44.6606C40 46.8698 41.7909 48.6606 44 48.6606Z" fill="#FF0069"/>
<path d="M64 48.6606C66.2091 48.6606 68 46.8698 68 44.6606C68 42.4515 66.2091 40.6606 64 40.6606C61.7909 40.6606 60 42.4515 60 44.6606C60 46.8698 61.7909 48.6606 64 48.6606Z" fill="#FF0069"/>
<path d="M84 48.6606C86.2091 48.6606 88 46.8698 88 44.6606C88 42.4515 86.2091 40.6606 84 40.6606C81.7909 40.6606 80 42.4515 80 44.6606C80 46.8698 81.7909 48.6606 84 48.6606Z" fill="#FF0069"/>
<path d="M104 48.6606C106.209 48.6606 108 46.8698 108 44.6606C108 42.4515 106.209 40.6606 104 40.6606C101.791 40.6606 100 42.4515 100 44.6606C100 46.8698 101.791 48.6606 104 48.6606Z" fill="#FF0069"/>
<path d="M124 48.6606C126.209 48.6606 128 46.8698 128 44.6606C128 42.4515 126.209 40.6606 124 40.6606C121.791 40.6606 120 42.4515 120 44.6606C120 46.8698 121.791 48.6606 124 48.6606Z" fill="#FF0069"/>
<path d="M144 48.6606C146.209 48.6606 148 46.8698 148 44.6606C148 42.4515 146.209 40.6606 144 40.6606C141.791 40.6606 140 42.4515 140 44.6606C140 46.8698 141.791 48.6606 144 48.6606Z" fill="#FF0069"/>
<path d="M164 48.6606C166.209 48.6606 168 46.8698 168 44.6606C168 42.4515 166.209 40.6606 164 40.6606C161.791 40.6606 160 42.4515 160 44.6606C160 46.8698 161.791 48.6606 164 48.6606Z" fill="#FF0069"/>
<path d="M184 48.6606C186.209 48.6606 188 46.8698 188 44.6606C188 42.4515 186.209 40.6606 184 40.6606C181.791 40.6606 180 42.4515 180 44.6606C180 46.8698 181.791 48.6606 184 48.6606Z" fill="#FF0069"/>
<path d="M4 68.6606C6.20914 68.6606 8 66.8698 8 64.6606C8 62.4515 6.20914 60.6606 4 60.6606C1.79086 60.6606 0 62.4515 0 64.6606C0 66.8698 1.79086 68.6606 4 68.6606Z" fill="#FF0069"/>
<path d="M24 68.6606C26.2091 68.6606 28 66.8698 28 64.6606C28 62.4515 26.2091 60.6606 24 60.6606C21.7909 60.6606 20 62.4515 20 64.6606C20 66.8698 21.7909 68.6606 24 68.6606Z" fill="#FF0069"/>
<path d="M44 68.6606C46.2091 68.6606 48 66.8698 48 64.6606C48 62.4515 46.2091 60.6606 44 60.6606C41.7909 60.6606 40 62.4515 40 64.6606C40 66.8698 41.7909 68.6606 44 68.6606Z" fill="#FF0069"/>
<path d="M64 68.6606C66.2091 68.6606 68 66.8698 68 64.6606C68 62.4515 66.2091 60.6606 64 60.6606C61.7909 60.6606 60 62.4515 60 64.6606C60 66.8698 61.7909 68.6606 64 68.6606Z" fill="#FF0069"/>
<path d="M84 68.6606C86.2091 68.6606 88 66.8698 88 64.6606C88 62.4515 86.2091 60.6606 84 60.6606C81.7909 60.6606 80 62.4515 80 64.6606C80 66.8698 81.7909 68.6606 84 68.6606Z" fill="#FF0069"/>
<path d="M104 68.6606C106.209 68.6606 108 66.8698 108 64.6606C108 62.4515 106.209 60.6606 104 60.6606C101.791 60.6606 100 62.4515 100 64.6606C100 66.8698 101.791 68.6606 104 68.6606Z" fill="#FF0069"/>
<path d="M124 68.6606C126.209 68.6606 128 66.8698 128 64.6606C128 62.4515 126.209 60.6606 124 60.6606C121.791 60.6606 120 62.4515 120 64.6606C120 66.8698 121.791 68.6606 124 68.6606Z" fill="#FF0069"/>
<path d="M144 68.6606C146.209 68.6606 148 66.8698 148 64.6606C148 62.4515 146.209 60.6606 144 60.6606C141.791 60.6606 140 62.4515 140 64.6606C140 66.8698 141.791 68.6606 144 68.6606Z" fill="#FF0069"/>
<path d="M164 68.6606C166.209 68.6606 168 66.8698 168 64.6606C168 62.4515 166.209 60.6606 164 60.6606C161.791 60.6606 160 62.4515 160 64.6606C160 66.8698 161.791 68.6606 164 68.6606Z" fill="#FF0069"/>
<path d="M184 68.6606C186.209 68.6606 188 66.8698 188 64.6606C188 62.4515 186.209 60.6606 184 60.6606C181.791 60.6606 180 62.4515 180 64.6606C180 66.8698 181.791 68.6606 184 68.6606Z" fill="#FF0069"/>
<path d="M4 88.6606C6.20914 88.6606 8 86.8698 8 84.6606C8 82.4515 6.20914 80.6606 4 80.6606C1.79086 80.6606 0 82.4515 0 84.6606C0 86.8698 1.79086 88.6606 4 88.6606Z" fill="#FF0069"/>
<path d="M24 88.6606C26.2091 88.6606 28 86.8698 28 84.6606C28 82.4515 26.2091 80.6606 24 80.6606C21.7909 80.6606 20 82.4515 20 84.6606C20 86.8698 21.7909 88.6606 24 88.6606Z" fill="#FF0069"/>
<path d="M44 88.6606C46.2091 88.6606 48 86.8698 48 84.6606C48 82.4515 46.2091 80.6606 44 80.6606C41.7909 80.6606 40 82.4515 40 84.6606C40 86.8698 41.7909 88.6606 44 88.6606Z" fill="#FF0069"/>
<path d="M64 88.6606C66.2091 88.6606 68 86.8698 68 84.6606C68 82.4515 66.2091 80.6606 64 80.6606C61.7909 80.6606 60 82.4515 60 84.6606C60 86.8698 61.7909 88.6606 64 88.6606Z" fill="#FF0069"/>
<path d="M84 88.6606C86.2091 88.6606 88 86.8698 88 84.6606C88 82.4515 86.2091 80.6606 84 80.6606C81.7909 80.6606 80 82.4515 80 84.6606C80 86.8698 81.7909 88.6606 84 88.6606Z" fill="#FF0069"/>
<path d="M104 88.6606C106.209 88.6606 108 86.8698 108 84.6606C108 82.4515 106.209 80.6606 104 80.6606C101.791 80.6606 100 82.4515 100 84.6606C100 86.8698 101.791 88.6606 104 88.6606Z" fill="#FF0069"/>
<path d="M124 88.6606C126.209 88.6606 128 86.8698 128 84.6606C128 82.4515 126.209 80.6606 124 80.6606C121.791 80.6606 120 82.4515 120 84.6606C120 86.8698 121.791 88.6606 124 88.6606Z" fill="#FF0069"/>
<path d="M144 88.6606C146.209 88.6606 148 86.8698 148 84.6606C148 82.4515 146.209 80.6606 144 80.6606C141.791 80.6606 140 82.4515 140 84.6606C140 86.8698 141.791 88.6606 144 88.6606Z" fill="#FF0069"/>
<path d="M164 88.6606C166.209 88.6606 168 86.8698 168 84.6606C168 82.4515 166.209 80.6606 164 80.6606C161.791 80.6606 160 82.4515 160 84.6606C160 86.8698 161.791 88.6606 164 88.6606Z" fill="#FF0069"/>
<path d="M184 88.6606C186.209 88.6606 188 86.8698 188 84.6606C188 82.4515 186.209 80.6606 184 80.6606C181.791 80.6606 180 82.4515 180 84.6606C180 86.8698 181.791 88.6606 184 88.6606Z" fill="#FF0069"/>
<path d="M4 108.661C6.20914 108.661 8 106.87 8 104.661C8 102.452 6.20914 100.661 4 100.661C1.79086 100.661 0 102.452 0 104.661C0 106.87 1.79086 108.661 4 108.661Z" fill="#FF0069"/>
<path d="M24 108.661C26.2091 108.661 28 106.87 28 104.661C28 102.452 26.2091 100.661 24 100.661C21.7909 100.661 20 102.452 20 104.661C20 106.87 21.7909 108.661 24 108.661Z" fill="#FF0069"/>
<path d="M44 108.661C46.2091 108.661 48 106.87 48 104.661C48 102.452 46.2091 100.661 44 100.661C41.7909 100.661 40 102.452 40 104.661C40 106.87 41.7909 108.661 44 108.661Z" fill="#FF0069"/>
<path d="M64 108.661C66.2091 108.661 68 106.87 68 104.661C68 102.452 66.2091 100.661 64 100.661C61.7909 100.661 60 102.452 60 104.661C60 106.87 61.7909 108.661 64 108.661Z" fill="#FF0069"/>
<path d="M84 108.661C86.2091 108.661 88 106.87 88 104.661C88 102.452 86.2091 100.661 84 100.661C81.7909 100.661 80 102.452 80 104.661C80 106.87 81.7909 108.661 84 108.661Z" fill="#FF0069"/>
<path d="M104 108.661C106.209 108.661 108 106.87 108 104.661C108 102.452 106.209 100.661 104 100.661C101.791 100.661 100 102.452 100 104.661C100 106.87 101.791 108.661 104 108.661Z" fill="#FF0069"/>
<path d="M124 108.661C126.209 108.661 128 106.87 128 104.661C128 102.452 126.209 100.661 124 100.661C121.791 100.661 120 102.452 120 104.661C120 106.87 121.791 108.661 124 108.661Z" fill="#FF0069"/>
<path d="M144 108.661C146.209 108.661 148 106.87 148 104.661C148 102.452 146.209 100.661 144 100.661C141.791 100.661 140 102.452 140 104.661C140 106.87 141.791 108.661 144 108.661Z" fill="#FF0069"/>
<path d="M164 108.661C166.209 108.661 168 106.87 168 104.661C168 102.452 166.209 100.661 164 100.661C161.791 100.661 160 102.452 160 104.661C160 106.87 161.791 108.661 164 108.661Z" fill="#FF0069"/>
<path d="M184 108.661C186.209 108.661 188 106.87 188 104.661C188 102.452 186.209 100.661 184 100.661C181.791 100.661 180 102.452 180 104.661C180 106.87 181.791 108.661 184 108.661Z" fill="#FF0069"/>
</svg>
