<svg width="109" height="109" viewBox="0 0 109 109" fill="none" xmlns="http://www.w3.org/2000/svg">
<path d="M4.44531 8.50049C6.65445 8.50049 8.44531 6.70963 8.44531 4.50049C8.44531 2.29135 6.65445 0.500488 4.44531 0.500488C2.23617 0.500488 0.445312 2.29135 0.445312 4.50049C0.445312 6.70963 2.23617 8.50049 4.44531 8.50049Z" fill="#FF0069"/>
<path d="M24.4453 8.50049C26.6545 8.50049 28.4453 6.70963 28.4453 4.50049C28.4453 2.29135 26.6545 0.500488 24.4453 0.500488C22.2362 0.500488 20.4453 2.29135 20.4453 4.50049C20.4453 6.70963 22.2362 8.50049 24.4453 8.50049Z" fill="#FF0069"/>
<path d="M44.4453 8.50049C46.6545 8.50049 48.4453 6.70963 48.4453 4.50049C48.4453 2.29135 46.6545 0.500488 44.4453 0.500488C42.2362 0.500488 40.4453 2.29135 40.4453 4.50049C40.4453 6.70963 42.2362 8.50049 44.4453 8.50049Z" fill="#FF0069"/>
<path d="M64.4453 8.50049C66.6545 8.50049 68.4453 6.70963 68.4453 4.50049C68.4453 2.29135 66.6545 0.500488 64.4453 0.500488C62.2362 0.500488 60.4453 2.29135 60.4453 4.50049C60.4453 6.70963 62.2362 8.50049 64.4453 8.50049Z" fill="#FF0069"/>
<path d="M84.4453 8.50049C86.6545 8.50049 88.4453 6.70963 88.4453 4.50049C88.4453 2.29135 86.6545 0.500488 84.4453 0.500488C82.2362 0.500488 80.4453 2.29135 80.4453 4.50049C80.4453 6.70963 82.2362 8.50049 84.4453 8.50049Z" fill="#FF0069"/>
<path d="M104.445 8.50049C106.654 8.50049 108.445 6.70963 108.445 4.50049C108.445 2.29135 106.654 0.500488 104.445 0.500488C102.236 0.500488 100.445 2.29135 100.445 4.50049C100.445 6.70963 102.236 8.50049 104.445 8.50049Z" fill="#FF0069"/>
<path d="M4.44531 28.5005C6.65445 28.5005 8.44531 26.7096 8.44531 24.5005C8.44531 22.2913 6.65445 20.5005 4.44531 20.5005C2.23617 20.5005 0.445312 22.2913 0.445312 24.5005C0.445312 26.7096 2.23617 28.5005 4.44531 28.5005Z" fill="#FF0069"/>
<path d="M24.4453 28.5005C26.6545 28.5005 28.4453 26.7096 28.4453 24.5005C28.4453 22.2913 26.6545 20.5005 24.4453 20.5005C22.2362 20.5005 20.4453 22.2913 20.4453 24.5005C20.4453 26.7096 22.2362 28.5005 24.4453 28.5005Z" fill="#FF0069"/>
<path d="M44.4453 28.5005C46.6545 28.5005 48.4453 26.7096 48.4453 24.5005C48.4453 22.2913 46.6545 20.5005 44.4453 20.5005C42.2362 20.5005 40.4453 22.2913 40.4453 24.5005C40.4453 26.7096 42.2362 28.5005 44.4453 28.5005Z" fill="#FF0069"/>
<path d="M64.4453 28.5005C66.6545 28.5005 68.4453 26.7096 68.4453 24.5005C68.4453 22.2913 66.6545 20.5005 64.4453 20.5005C62.2362 20.5005 60.4453 22.2913 60.4453 24.5005C60.4453 26.7096 62.2362 28.5005 64.4453 28.5005Z" fill="#FF0069"/>
<path d="M84.4453 28.5005C86.6545 28.5005 88.4453 26.7096 88.4453 24.5005C88.4453 22.2913 86.6545 20.5005 84.4453 20.5005C82.2362 20.5005 80.4453 22.2913 80.4453 24.5005C80.4453 26.7096 82.2362 28.5005 84.4453 28.5005Z" fill="#FF0069"/>
<path d="M104.445 28.5005C106.654 28.5005 108.445 26.7096 108.445 24.5005C108.445 22.2913 106.654 20.5005 104.445 20.5005C102.236 20.5005 100.445 22.2913 100.445 24.5005C100.445 26.7096 102.236 28.5005 104.445 28.5005Z" fill="#FF0069"/>
<path d="M4.44531 48.5005C6.65445 48.5005 8.44531 46.7096 8.44531 44.5005C8.44531 42.2913 6.65445 40.5005 4.44531 40.5005C2.23617 40.5005 0.445312 42.2913 0.445312 44.5005C0.445312 46.7096 2.23617 48.5005 4.44531 48.5005Z" fill="#FF0069"/>
<path d="M24.4453 48.5005C26.6545 48.5005 28.4453 46.7096 28.4453 44.5005C28.4453 42.2913 26.6545 40.5005 24.4453 40.5005C22.2362 40.5005 20.4453 42.2913 20.4453 44.5005C20.4453 46.7096 22.2362 48.5005 24.4453 48.5005Z" fill="#FF0069"/>
<path d="M44.4453 48.5005C46.6545 48.5005 48.4453 46.7096 48.4453 44.5005C48.4453 42.2913 46.6545 40.5005 44.4453 40.5005C42.2362 40.5005 40.4453 42.2913 40.4453 44.5005C40.4453 46.7096 42.2362 48.5005 44.4453 48.5005Z" fill="#FF0069"/>
<path d="M64.4453 48.5005C66.6545 48.5005 68.4453 46.7096 68.4453 44.5005C68.4453 42.2913 66.6545 40.5005 64.4453 40.5005C62.2362 40.5005 60.4453 42.2913 60.4453 44.5005C60.4453 46.7096 62.2362 48.5005 64.4453 48.5005Z" fill="#FF0069"/>
<path d="M84.4453 48.5005C86.6545 48.5005 88.4453 46.7096 88.4453 44.5005C88.4453 42.2913 86.6545 40.5005 84.4453 40.5005C82.2362 40.5005 80.4453 42.2913 80.4453 44.5005C80.4453 46.7096 82.2362 48.5005 84.4453 48.5005Z" fill="#FF0069"/>
<path d="M104.445 48.5005C106.654 48.5005 108.445 46.7096 108.445 44.5005C108.445 42.2913 106.654 40.5005 104.445 40.5005C102.236 40.5005 100.445 42.2913 100.445 44.5005C100.445 46.7096 102.236 48.5005 104.445 48.5005Z" fill="#FF0069"/>
<path d="M4.44531 68.5005C6.65445 68.5005 8.44531 66.7096 8.44531 64.5005C8.44531 62.2913 6.65445 60.5005 4.44531 60.5005C2.23617 60.5005 0.445312 62.2913 0.445312 64.5005C0.445312 66.7096 2.23617 68.5005 4.44531 68.5005Z" fill="#FF0069"/>
<path d="M24.4453 68.5005C26.6545 68.5005 28.4453 66.7096 28.4453 64.5005C28.4453 62.2913 26.6545 60.5005 24.4453 60.5005C22.2362 60.5005 20.4453 62.2913 20.4453 64.5005C20.4453 66.7096 22.2362 68.5005 24.4453 68.5005Z" fill="#FF0069"/>
<path d="M44.4453 68.5005C46.6545 68.5005 48.4453 66.7096 48.4453 64.5005C48.4453 62.2913 46.6545 60.5005 44.4453 60.5005C42.2362 60.5005 40.4453 62.2913 40.4453 64.5005C40.4453 66.7096 42.2362 68.5005 44.4453 68.5005Z" fill="#FF0069"/>
<path d="M64.4453 68.5005C66.6545 68.5005 68.4453 66.7096 68.4453 64.5005C68.4453 62.2913 66.6545 60.5005 64.4453 60.5005C62.2362 60.5005 60.4453 62.2913 60.4453 64.5005C60.4453 66.7096 62.2362 68.5005 64.4453 68.5005Z" fill="#FF0069"/>
<path d="M84.4453 68.5005C86.6545 68.5005 88.4453 66.7096 88.4453 64.5005C88.4453 62.2913 86.6545 60.5005 84.4453 60.5005C82.2362 60.5005 80.4453 62.2913 80.4453 64.5005C80.4453 66.7096 82.2362 68.5005 84.4453 68.5005Z" fill="#FF0069"/>
<path d="M104.445 68.5005C106.654 68.5005 108.445 66.7096 108.445 64.5005C108.445 62.2913 106.654 60.5005 104.445 60.5005C102.236 60.5005 100.445 62.2913 100.445 64.5005C100.445 66.7096 102.236 68.5005 104.445 68.5005Z" fill="#FF0069"/>
<path d="M4.44531 88.5005C6.65445 88.5005 8.44531 86.7096 8.44531 84.5005C8.44531 82.2913 6.65445 80.5005 4.44531 80.5005C2.23617 80.5005 0.445312 82.2913 0.445312 84.5005C0.445312 86.7096 2.23617 88.5005 4.44531 88.5005Z" fill="#FF0069"/>
<path d="M24.4453 88.5005C26.6545 88.5005 28.4453 86.7096 28.4453 84.5005C28.4453 82.2913 26.6545 80.5005 24.4453 80.5005C22.2362 80.5005 20.4453 82.2913 20.4453 84.5005C20.4453 86.7096 22.2362 88.5005 24.4453 88.5005Z" fill="#FF0069"/>
<path d="M44.4453 88.5005C46.6545 88.5005 48.4453 86.7096 48.4453 84.5005C48.4453 82.2913 46.6545 80.5005 44.4453 80.5005C42.2362 80.5005 40.4453 82.2913 40.4453 84.5005C40.4453 86.7096 42.2362 88.5005 44.4453 88.5005Z" fill="#FF0069"/>
<path d="M64.4453 88.5005C66.6545 88.5005 68.4453 86.7096 68.4453 84.5005C68.4453 82.2913 66.6545 80.5005 64.4453 80.5005C62.2362 80.5005 60.4453 82.2913 60.4453 84.5005C60.4453 86.7096 62.2362 88.5005 64.4453 88.5005Z" fill="#FF0069"/>
<path d="M84.4453 88.5005C86.6545 88.5005 88.4453 86.7096 88.4453 84.5005C88.4453 82.2913 86.6545 80.5005 84.4453 80.5005C82.2362 80.5005 80.4453 82.2913 80.4453 84.5005C80.4453 86.7096 82.2362 88.5005 84.4453 88.5005Z" fill="#FF0069"/>
<path d="M104.445 88.5005C106.654 88.5005 108.445 86.7096 108.445 84.5005C108.445 82.2913 106.654 80.5005 104.445 80.5005C102.236 80.5005 100.445 82.2913 100.445 84.5005C100.445 86.7096 102.236 88.5005 104.445 88.5005Z" fill="#FF0069"/>
<path d="M4.44531 108.5C6.65445 108.5 8.44531 106.71 8.44531 104.5C8.44531 102.291 6.65445 100.5 4.44531 100.5C2.23617 100.5 0.445312 102.291 0.445312 104.5C0.445312 106.71 2.23617 108.5 4.44531 108.5Z" fill="#FF0069"/>
<path d="M24.4453 108.5C26.6545 108.5 28.4453 106.71 28.4453 104.5C28.4453 102.291 26.6545 100.5 24.4453 100.5C22.2362 100.5 20.4453 102.291 20.4453 104.5C20.4453 106.71 22.2362 108.5 24.4453 108.5Z" fill="#FF0069"/>
<path d="M44.4453 108.5C46.6545 108.5 48.4453 106.71 48.4453 104.5C48.4453 102.291 46.6545 100.5 44.4453 100.5C42.2362 100.5 40.4453 102.291 40.4453 104.5C40.4453 106.71 42.2362 108.5 44.4453 108.5Z" fill="#FF0069"/>
<path d="M64.4453 108.5C66.6545 108.5 68.4453 106.71 68.4453 104.5C68.4453 102.291 66.6545 100.5 64.4453 100.5C62.2362 100.5 60.4453 102.291 60.4453 104.5C60.4453 106.71 62.2362 108.5 64.4453 108.5Z" fill="#FF0069"/>
<path d="M84.4453 108.5C86.6545 108.5 88.4453 106.71 88.4453 104.5C88.4453 102.291 86.6545 100.5 84.4453 100.5C82.2362 100.5 80.4453 102.291 80.4453 104.5C80.4453 106.71 82.2362 108.5 84.4453 108.5Z" fill="#FF0069"/>
<path d="M104.445 108.5C106.654 108.5 108.445 106.71 108.445 104.5C108.445 102.291 106.654 100.5 104.445 100.5C102.236 100.5 100.445 102.291 100.445 104.5C100.445 106.71 102.236 108.5 104.445 108.5Z" fill="#FF0069"/>
</svg>
