<svg width="1263" height="689" viewBox="0 0 1263 689" fill="none" xmlns="http://www.w3.org/2000/svg">
<path d="M650.754 567.14C404.4 552.398 382.269 613.94 257.514 599.514C-27.9663 566.508 -20.5602 196.34 108.959 103.579C238.478 10.8184 391.59 -13.4208 608.859 6.46615C826.128 26.3532 978.021 183.151 978.021 183.151C978.021 183.151 1352.1 480.842 1242.93 658.489C1182.39 757.007 897.108 581.884 650.754 567.14Z" fill="url(#paint0_linear_5349_58711)"/>
<path d="M210.848 59.6062C240.151 56.5324 269.772 59.7574 297.726 69.0652C325.953 78.534 351.885 93.8084 373.852 113.905C396.985 135.048 415.486 160.755 428.189 189.405C441.874 220.276 448.869 253.694 448.713 287.461C448.713 321.521 441.542 355.2 427.667 386.306C414.628 415.567 395.727 441.844 372.133 463.513C349.65 484.21 323.094 499.985 294.165 509.83C266.211 519.268 236.574 522.673 207.208 519.821C177.842 516.97 149.413 507.927 123.797 493.287C100.123 479.686 79.2066 461.769 62.1302 440.465C45.1892 419.361 32.0794 395.449 23.3962 369.817C5.45477 316.372 6.56886 258.363 26.5492 205.646C36.1492 180.386 49.9895 156.95 67.4742 136.346C85.0294 115.62 106.19 98.2396 129.932 85.0462C154.914 71.1997 182.437 62.5464 210.848 59.6062Z" fill="url(#paint1_linear_5349_58711)"/>
<path d="M196.348 90.4201C221.054 88.159 245.956 91.2464 269.362 99.4721C292.894 107.807 314.424 120.969 332.57 138.114C351.64 156.114 366.826 177.826 377.192 201.914C388.351 227.849 394.012 255.815 393.816 284.048C393.749 312.531 387.822 340.695 376.404 366.789C365.669 391.355 350.099 413.509 330.621 431.931C312.035 449.553 290.003 463.138 265.912 471.831C242.516 480.219 217.598 483.513 192.826 481.493C168.053 479.473 143.998 472.186 122.27 460.119C102.005 448.793 84.0746 433.723 69.4299 415.71C54.8007 397.743 43.4722 377.325 35.9699 355.404C28.1804 332.621 24.4551 308.647 24.9639 284.574C25.398 260.475 30.0164 236.635 38.6129 214.118C46.8941 192.432 58.8456 172.333 73.9439 154.701C89.0117 137.068 107.177 122.338 127.544 111.24C148.819 99.6807 172.233 92.5954 196.348 90.4201Z" fill="url(#paint2_linear_5349_58711)"/>
<path d="M202.393 484.043C202.143 484.021 201.905 483.947 201.686 483.833C201.468 483.718 201.27 483.562 201.102 483.375C200.933 483.188 200.795 482.97 200.696 482.731C200.596 482.491 200.536 482.231 200.525 481.96C200.513 481.678 200.555 481.412 200.641 481.171C200.726 480.929 200.855 480.713 201.019 480.533C201.183 480.353 201.38 480.209 201.602 480.112C201.825 480.015 202.072 479.964 202.333 479.971C204.68 480.031 207.033 480.043 209.388 480.006C211.748 479.97 214.11 479.885 216.47 479.752C218.835 479.618 221.198 479.436 223.555 479.206C225.916 478.975 228.272 478.696 230.616 478.368C230.65 478.363 230.685 478.359 230.719 478.356C230.753 478.353 230.787 478.352 230.821 478.351C230.856 478.35 230.89 478.35 230.923 478.351C230.957 478.352 230.991 478.354 231.025 478.357C231.25 478.376 231.468 478.436 231.672 478.531C231.877 478.626 232.067 478.755 232.235 478.913C232.403 479.071 232.549 479.257 232.664 479.466C232.779 479.674 232.864 479.904 232.91 480.151C232.964 480.434 232.961 480.711 232.91 480.97C232.86 481.228 232.762 481.469 232.624 481.678C232.486 481.888 232.308 482.066 232.099 482.202C231.89 482.337 231.65 482.429 231.386 482.466C228.991 482.796 226.586 483.077 224.174 483.309C221.767 483.539 219.354 483.721 216.939 483.853C214.529 483.984 212.117 484.066 209.707 484.099C207.302 484.132 204.9 484.116 202.504 484.05C202.495 484.05 202.485 484.049 202.476 484.049C202.467 484.048 202.458 484.048 202.448 484.048C202.439 484.047 202.43 484.046 202.42 484.046C202.411 484.045 202.402 484.044 202.393 484.043ZM156.238 476.538C156.209 476.536 156.179 476.533 156.15 476.528C156.121 476.524 156.091 476.519 156.062 476.514C156.032 476.508 156.003 476.501 155.973 476.494C155.944 476.486 155.914 476.478 155.884 476.469C153.647 475.787 151.419 475.058 149.205 474.284C146.995 473.512 144.799 472.695 142.62 471.834C140.446 470.975 138.288 470.074 136.152 469.13C134.019 468.189 131.908 467.206 129.82 466.184C129.592 466.072 129.392 465.915 129.226 465.727C129.06 465.539 128.928 465.321 128.835 465.085C128.743 464.849 128.69 464.597 128.682 464.341C128.674 464.086 128.711 463.827 128.798 463.579C128.866 463.385 128.96 463.213 129.075 463.063C129.189 462.914 129.323 462.788 129.471 462.688C129.619 462.589 129.782 462.515 129.952 462.47C130.123 462.425 130.302 462.409 130.483 462.424C130.533 462.428 130.584 462.435 130.634 462.444C130.685 462.453 130.735 462.464 130.786 462.478C130.836 462.492 130.887 462.509 130.937 462.528C130.987 462.547 131.038 462.568 131.087 462.593C133.134 463.591 135.205 464.551 137.296 465.47C139.391 466.39 141.507 467.27 143.639 468.108C145.775 468.948 147.928 469.744 150.094 470.497C152.265 471.252 154.449 471.962 156.642 472.627C156.888 472.701 157.111 472.826 157.305 472.987C157.499 473.149 157.663 473.348 157.789 473.571C157.916 473.794 158.006 474.04 158.051 474.298C158.095 474.555 158.095 474.823 158.043 475.089C157.997 475.322 157.914 475.534 157.803 475.72C157.691 475.905 157.551 476.064 157.39 476.192C157.229 476.319 157.048 476.415 156.853 476.475C156.658 476.534 156.451 476.557 156.238 476.538ZM277.864 469.161C277.679 469.146 277.496 469.105 277.319 469.04C277.143 468.975 276.974 468.886 276.817 468.774C276.66 468.663 276.515 468.53 276.388 468.377C276.261 468.225 276.151 468.052 276.064 467.862C275.94 467.593 275.873 467.315 275.858 467.042C275.843 466.768 275.88 466.5 275.963 466.251C276.047 466.003 276.177 465.774 276.349 465.58C276.521 465.385 276.735 465.225 276.986 465.114C279.228 464.124 281.458 463.082 283.672 461.993C285.89 460.901 288.092 459.76 290.274 458.573C292.46 457.383 294.626 456.147 296.768 454.866C298.913 453.582 301.035 452.254 303.127 450.882C303.219 450.822 303.314 450.771 303.412 450.728C303.509 450.686 303.609 450.652 303.711 450.626C303.813 450.601 303.916 450.584 304.02 450.575C304.123 450.566 304.228 450.565 304.332 450.573C304.494 450.584 304.655 450.615 304.812 450.664C304.969 450.714 305.121 450.781 305.266 450.867C305.411 450.952 305.549 451.055 305.675 451.174C305.801 451.294 305.916 451.431 306.016 451.583C306.181 451.834 306.29 452.103 306.347 452.377C306.403 452.65 306.407 452.927 306.362 453.192C306.316 453.457 306.22 453.709 306.077 453.934C305.934 454.159 305.743 454.356 305.509 454.509C303.368 455.907 301.199 457.261 299.005 458.57C296.815 459.876 294.6 461.135 292.364 462.347C290.133 463.557 287.881 464.719 285.613 465.831C283.35 466.94 281.07 468 278.778 469.009C278.704 469.041 278.629 469.068 278.554 469.091C278.479 469.113 278.402 469.13 278.326 469.143C278.249 469.155 278.172 469.163 278.095 469.166C278.018 469.169 277.941 469.167 277.864 469.161ZM92.1985 441.062C92.1148 441.056 92.031 441.043 91.9479 441.023C91.8647 441.002 91.7822 440.975 91.7009 440.941C91.6197 440.907 91.5398 440.866 91.462 440.817C91.3841 440.769 91.3083 440.713 91.2352 440.65C89.4912 439.146 87.7704 437.604 86.0757 436.029C84.384 434.456 82.7183 432.849 81.0812 431.211C79.4469 429.576 77.8411 427.91 76.2665 426.215C74.6946 424.523 73.1537 422.802 71.6465 421.056C71.4815 420.865 71.3572 420.647 71.2735 420.415C71.1899 420.183 71.147 419.938 71.145 419.694C71.1429 419.45 71.1817 419.208 71.2615 418.981C71.3412 418.754 71.462 418.543 71.6238 418.362C71.7079 418.268 71.7988 418.187 71.895 418.118C71.9912 418.05 72.0925 417.994 72.1973 417.951C72.302 417.907 72.4102 417.877 72.52 417.859C72.6298 417.841 72.7413 417.835 72.8526 417.842C72.9557 417.849 73.0587 417.866 73.1602 417.894C73.2617 417.922 73.3616 417.96 73.4586 418.01C73.5556 418.059 73.6496 418.119 73.7393 418.19C73.829 418.26 73.9143 418.342 73.9938 418.434C75.4741 420.144 76.9874 421.83 78.5312 423.487C80.0774 425.147 81.6543 426.78 83.2591 428.381C84.8666 429.985 86.5022 431.559 88.1631 433.099C89.827 434.641 91.5164 436.15 93.2286 437.623C93.4205 437.788 93.5754 437.987 93.6913 438.207C93.8071 438.427 93.8839 438.666 93.9194 438.912C93.9549 439.157 93.9492 439.408 93.9001 439.65C93.8511 439.892 93.7587 440.124 93.6209 440.333C93.5357 440.463 93.4381 440.575 93.3312 440.671C93.2243 440.767 93.108 440.845 92.9854 440.907C92.8628 440.968 92.7339 441.012 92.6018 441.038C92.4696 441.064 92.3342 441.072 92.1985 441.062ZM343.121 421.156C343 421.149 342.878 421.131 342.758 421.104C342.638 421.076 342.519 421.038 342.403 420.99C342.287 420.941 342.174 420.883 342.065 420.813C341.955 420.744 341.85 420.664 341.751 420.574C341.526 420.371 341.35 420.133 341.225 419.877C341.1 419.621 341.026 419.348 341.004 419.072C340.982 418.797 341.012 418.52 341.095 418.258C341.178 417.996 341.314 417.748 341.505 417.531C343.215 415.591 344.892 413.61 346.533 411.591C348.175 409.57 349.781 407.512 351.348 405.42C352.916 403.326 354.445 401.198 355.932 399.041C357.419 396.881 358.865 394.692 360.264 392.477C360.367 392.314 360.489 392.171 360.626 392.048C360.763 391.925 360.914 391.823 361.075 391.741C361.236 391.66 361.408 391.601 361.585 391.563C361.762 391.526 361.944 391.511 362.128 391.519C362.224 391.523 362.32 391.534 362.416 391.551C362.512 391.568 362.608 391.591 362.702 391.622C362.797 391.652 362.89 391.689 362.982 391.732C363.074 391.776 363.164 391.826 363.252 391.883C363.508 392.05 363.72 392.259 363.884 392.494C364.049 392.729 364.165 392.991 364.23 393.263C364.294 393.536 364.307 393.818 364.265 394.094C364.223 394.371 364.125 394.641 363.967 394.89C362.535 397.153 361.055 399.389 359.532 401.596C358.011 403.799 356.446 405.973 354.841 408.112C353.238 410.248 351.594 412.35 349.913 414.414C348.234 416.476 346.518 418.499 344.768 420.48C344.662 420.601 344.543 420.706 344.417 420.795C344.29 420.883 344.155 420.956 344.014 421.012C343.873 421.069 343.726 421.109 343.576 421.133C343.427 421.157 343.274 421.164 343.121 421.156ZM47.2531 383.793C47.1174 383.786 46.9829 383.761 46.8528 383.716C46.7226 383.672 46.5969 383.61 46.4787 383.53C46.3605 383.45 46.25 383.353 46.1503 383.239C46.0506 383.126 45.9617 382.996 45.8869 382.851C44.831 380.802 43.8085 378.729 42.8208 376.636C41.8343 374.545 40.8826 372.435 39.9671 370.307C39.0527 368.183 38.1743 366.041 37.3335 363.886C36.4936 361.734 35.6912 359.569 34.9277 357.394C34.844 357.155 34.8059 356.909 34.8088 356.667C34.8118 356.426 34.8556 356.189 34.9357 355.971C35.0158 355.752 35.1321 355.552 35.2799 355.382C35.4278 355.212 35.6071 355.073 35.8132 354.979C35.8657 354.954 35.9188 354.933 35.9721 354.916C36.0254 354.899 36.079 354.884 36.1327 354.874C36.1864 354.863 36.2402 354.855 36.2939 354.851C36.3476 354.846 36.4012 354.845 36.4546 354.847C36.6106 354.852 36.7642 354.883 36.9108 354.938C37.0574 354.994 37.1971 355.073 37.325 355.174C37.453 355.274 37.5694 355.397 37.6693 355.538C37.7693 355.68 37.8529 355.841 37.9155 356.019C38.666 358.152 39.4548 360.276 40.2803 362.387C41.1067 364.5 41.97 366.601 42.8688 368.685C43.7685 370.771 44.7039 372.84 45.6733 374.89C46.6439 376.943 47.6487 378.975 48.6863 380.984C48.8023 381.209 48.8737 381.449 48.9033 381.691C48.933 381.933 48.9209 382.177 48.8701 382.409C48.8194 382.641 48.7299 382.861 48.6048 383.055C48.4796 383.249 48.3188 383.417 48.1254 383.546C48.057 383.591 47.9869 383.63 47.9154 383.663C47.844 383.696 47.7713 383.723 47.6979 383.743C47.6245 383.763 47.5504 383.777 47.4761 383.786C47.4018 383.794 47.3273 383.796 47.2531 383.793ZM384.518 347.191C384.465 347.189 384.413 347.186 384.36 347.181C384.308 347.176 384.255 347.169 384.202 347.16C384.149 347.152 384.097 347.141 384.044 347.128C383.991 347.115 383.938 347.1 383.886 347.084C383.594 346.991 383.334 346.844 383.114 346.659C382.893 346.474 382.713 346.25 382.579 346.002C382.446 345.754 382.361 345.482 382.33 345.2C382.3 344.919 382.325 344.628 382.413 344.343C383.201 341.795 383.941 339.223 384.632 336.633C385.322 334.043 385.963 331.434 386.553 328.812C387.143 326.189 387.683 323.553 388.171 320.909C388.658 318.264 389.094 315.611 389.477 312.954C389.516 312.682 389.605 312.429 389.733 312.203C389.862 311.978 390.03 311.778 390.227 311.614C390.424 311.449 390.651 311.318 390.896 311.229C391.142 311.141 391.406 311.094 391.679 311.097C391.704 311.097 391.729 311.098 391.755 311.099C391.78 311.1 391.805 311.101 391.83 311.103C391.856 311.105 391.881 311.108 391.907 311.11C391.932 311.113 391.958 311.116 391.983 311.12C392.287 311.164 392.567 311.266 392.815 311.413C393.062 311.56 393.277 311.752 393.448 311.975C393.619 312.199 393.747 312.454 393.821 312.728C393.895 313.002 393.916 313.295 393.873 313.592C393.482 316.308 393.036 319.021 392.537 321.726C392.038 324.43 391.486 327.126 390.881 329.808C390.277 332.489 389.621 335.156 388.914 337.805C388.208 340.453 387.45 343.082 386.643 345.688C386.571 345.922 386.461 346.135 386.322 346.322C386.184 346.508 386.016 346.669 385.828 346.8C385.64 346.931 385.432 347.031 385.21 347.098C384.989 347.164 384.756 347.197 384.518 347.191ZM26.1956 313.929C26.0023 313.926 25.8157 313.883 25.6429 313.805C25.4702 313.727 25.3113 313.615 25.1734 313.475C25.0355 313.335 24.9186 313.166 24.8297 312.975C24.7408 312.785 24.68 312.572 24.6543 312.344C24.3971 310.057 24.1774 307.758 23.9952 305.451C23.8132 303.145 23.6687 300.83 23.562 298.511C23.4553 296.193 23.3863 293.87 23.3551 291.547C23.324 289.224 23.3307 286.9 23.3755 284.579C23.3803 284.325 23.4294 284.084 23.5139 283.864C23.5984 283.644 23.7183 283.446 23.8651 283.28C24.0119 283.113 24.1854 282.978 24.3771 282.885C24.5689 282.792 24.7787 282.74 24.998 282.739C25.2173 282.739 25.4253 282.79 25.6137 282.882C25.8021 282.975 25.9708 283.109 26.1115 283.275C26.2522 283.441 26.3648 283.639 26.4411 283.859C26.5174 284.079 26.5573 284.32 26.5524 284.574C26.5088 286.852 26.5026 289.134 26.5336 291.414C26.5645 293.694 26.6327 295.975 26.738 298.25C26.8433 300.526 26.9856 302.798 27.165 305.061C27.3443 307.326 27.5607 309.582 27.8139 311.826C27.8424 312.078 27.8252 312.326 27.7698 312.557C27.7144 312.789 27.6207 313.005 27.4962 313.193C27.3717 313.382 27.2164 313.543 27.0376 313.667C26.8589 313.79 26.6567 313.875 26.4385 313.911C26.4181 313.914 26.3977 313.917 26.3773 313.919C26.357 313.922 26.3366 313.924 26.3164 313.925C26.2961 313.927 26.2759 313.928 26.2558 313.928C26.2357 313.929 26.2156 313.929 26.1956 313.929ZM392.435 261.296C392.158 261.299 391.89 261.251 391.643 261.16C391.395 261.07 391.168 260.936 390.972 260.768C390.776 260.6 390.61 260.397 390.486 260.167C390.361 259.937 390.278 259.681 390.246 259.405C389.941 256.753 389.583 254.103 389.173 251.462C388.763 248.823 388.302 246.192 387.79 243.575C387.278 240.959 386.716 238.357 386.104 235.774C385.492 233.192 384.831 230.628 384.122 228.088C384.042 227.803 384.026 227.515 384.064 227.237C384.103 226.958 384.196 226.69 384.336 226.447C384.476 226.204 384.662 225.985 384.887 225.806C385.111 225.626 385.375 225.486 385.668 225.399C385.717 225.385 385.766 225.372 385.815 225.361C385.864 225.35 385.913 225.34 385.962 225.332C386.011 225.325 386.06 225.319 386.109 225.314C386.158 225.31 386.207 225.307 386.255 225.306C386.497 225.299 386.733 225.332 386.956 225.4C387.179 225.468 387.388 225.571 387.576 225.704C387.763 225.837 387.929 226.001 388.064 226.191C388.2 226.38 388.305 226.596 388.371 226.834C389.099 229.43 389.777 232.051 390.403 234.69C391.031 237.332 391.607 239.992 392.132 242.666C392.657 245.342 393.13 248.032 393.55 250.73C393.971 253.43 394.338 256.139 394.651 258.851C394.685 259.148 394.656 259.439 394.574 259.711C394.493 259.982 394.358 260.234 394.181 260.454C394.004 260.673 393.784 260.86 393.533 261.002C393.282 261.144 392.999 261.24 392.695 261.278C392.673 261.281 392.651 261.283 392.629 261.285C392.607 261.288 392.586 261.289 392.564 261.291C392.543 261.292 392.521 261.293 392.499 261.294C392.478 261.295 392.456 261.296 392.435 261.296ZM365.422 181.112C365.236 181.121 365.051 181.105 364.872 181.067C364.694 181.029 364.521 180.968 364.36 180.885C364.198 180.802 364.048 180.698 363.913 180.573C363.778 180.448 363.658 180.302 363.559 180.136C362.239 177.931 360.873 175.751 359.465 173.6C358.058 171.452 356.609 169.333 355.119 167.247C353.632 165.164 352.105 163.113 350.542 161.099C348.98 159.089 347.382 157.114 345.75 155.18C345.568 154.964 345.441 154.718 345.367 154.46C345.293 154.201 345.272 153.929 345.303 153.66C345.334 153.39 345.416 153.123 345.548 152.875C345.679 152.626 345.861 152.396 346.09 152.201C346.188 152.117 346.292 152.043 346.399 151.978C346.505 151.914 346.616 151.859 346.729 151.814C346.842 151.769 346.957 151.733 347.073 151.707C347.189 151.681 347.306 151.665 347.423 151.658C347.578 151.649 347.733 151.657 347.884 151.681C348.035 151.706 348.183 151.747 348.325 151.805C348.466 151.862 348.602 151.937 348.728 152.027C348.854 152.118 348.97 152.225 349.074 152.348C350.745 154.322 352.38 156.338 353.979 158.391C355.579 160.447 357.142 162.54 358.664 164.667C360.189 166.797 361.673 168.961 363.113 171.154C364.556 173.351 365.954 175.577 367.306 177.83C367.454 178.077 367.543 178.345 367.577 178.618C367.611 178.891 367.589 179.169 367.517 179.435C367.444 179.702 367.321 179.957 367.151 180.186C366.981 180.415 366.764 180.617 366.505 180.776C366.42 180.828 366.332 180.875 366.243 180.915C366.154 180.955 366.064 180.989 365.973 181.017C365.882 181.044 365.79 181.066 365.698 181.082C365.606 181.098 365.514 181.108 365.422 181.112ZM310.122 122.181C310.016 122.188 309.909 122.188 309.803 122.178C309.697 122.169 309.592 122.152 309.489 122.125C309.386 122.099 309.285 122.063 309.187 122.019C309.088 121.975 308.993 121.922 308.902 121.86C306.882 120.484 304.833 119.149 302.76 117.858C300.69 116.57 298.595 115.325 296.479 114.126C294.367 112.929 292.234 111.777 290.084 110.673C287.939 109.571 285.776 108.516 283.599 107.51C283.356 107.398 283.151 107.238 282.988 107.046C282.825 106.853 282.705 106.628 282.632 106.385C282.559 106.141 282.533 105.879 282.557 105.613C282.582 105.348 282.658 105.078 282.79 104.819C282.881 104.639 282.993 104.475 283.121 104.331C283.25 104.187 283.393 104.061 283.549 103.956C283.704 103.851 283.87 103.767 284.042 103.705C284.215 103.643 284.393 103.604 284.573 103.59C284.652 103.583 284.731 103.582 284.811 103.585C284.89 103.588 284.969 103.597 285.048 103.61C285.126 103.623 285.204 103.642 285.281 103.665C285.358 103.689 285.434 103.718 285.508 103.752C287.733 104.775 289.944 105.849 292.137 106.97C294.335 108.094 296.516 109.267 298.675 110.486C300.839 111.707 302.98 112.975 305.097 114.287C307.218 115.603 309.313 116.962 311.378 118.365C311.604 118.518 311.785 118.714 311.919 118.936C312.053 119.157 312.139 119.406 312.175 119.665C312.211 119.924 312.198 120.194 312.132 120.46C312.067 120.725 311.95 120.987 311.779 121.228C311.677 121.372 311.561 121.5 311.436 121.613C311.311 121.726 311.175 121.823 311.033 121.903C310.89 121.983 310.741 122.047 310.588 122.094C310.435 122.14 310.279 122.169 310.122 122.181Z" fill="#FF529A"/>
<path d="M328.976 322.553C328.919 337.832 326.145 352.98 320.783 367.288C315.89 380.419 308.586 392.52 299.247 402.967C290.616 412.656 280.025 420.402 268.176 425.692C256.616 430.795 243.996 433.035 231.386 432.221C223.264 431.742 215.353 429.453 208.23 425.521C202.073 421.977 196.357 417.719 191.199 412.834C186.115 408.239 181.383 403.561 176.394 399.714C171.429 395.885 166.211 392.88 160.146 391.603C157.456 391.095 154.913 389.99 152.706 388.37C150.499 386.749 148.683 384.655 147.392 382.24C144.722 377.507 143.407 371.37 142.849 364.496C142.389 357.117 142.389 349.717 142.849 342.338C143.212 334.658 143.74 326.903 143.842 319.753C144.009 305.68 146.475 291.73 151.142 278.453C155.468 266.096 161.879 254.573 170.099 244.383C177.881 234.698 187.493 226.64 198.387 220.668C209.264 214.742 221.37 211.424 233.748 210.976C246.283 210.556 258.736 213.13 270.078 218.483C281.742 224.044 292.112 231.984 300.523 241.793C309.643 252.387 316.725 264.576 321.414 277.745C326.562 292.117 329.122 307.287 328.976 322.553Z" fill="#FF529A"/>
<g filter="url(#filter0_d_5349_58711)">
<path d="M195.431 126.056C189.617 126.474 183.833 127.249 178.114 128.377C172.435 129.497 166.828 130.959 161.324 132.755C155.832 134.546 150.45 136.661 145.207 139.088C139.95 141.522 134.838 144.26 129.899 147.288C124.958 150.319 120.193 153.63 115.629 157.204C111.075 160.773 106.723 164.592 102.594 168.645C98.4577 172.702 94.5459 176.981 90.8762 181.465C87.1865 185.972 83.7422 190.675 80.5582 195.553C77.3688 200.439 74.4406 205.491 71.7862 210.688C69.1361 215.876 66.7585 221.198 64.6632 226.634C54.1065 254.044 50.822 283.72 55.1292 312.775C57.0705 325.915 60.5896 338.773 65.6102 351.07C68.3912 357.894 71.6319 364.521 75.3102 370.906C78.982 377.277 83.0919 383.385 87.6102 389.187C92.1448 395.011 97.0908 400.502 102.41 405.619C105.113 408.219 107.904 410.704 110.782 413.075C113.661 415.446 116.628 417.707 119.682 419.859C122.74 422.008 125.875 424.035 129.087 425.938C132.299 427.841 135.592 429.62 138.964 431.275C139.246 431.411 139.535 431.533 139.83 431.639C140.122 431.744 140.419 431.833 140.72 431.906C141.019 431.978 141.321 432.034 141.626 432.074C141.93 432.113 142.236 432.136 142.542 432.141C143.765 432.162 144.977 431.906 146.087 431.392C146.366 431.263 146.637 431.118 146.9 430.959C147.164 430.799 147.419 430.625 147.663 430.437C147.91 430.247 148.147 430.045 148.372 429.83C148.6 429.612 148.817 429.383 149.02 429.142C149.226 428.899 149.419 428.646 149.598 428.383C149.779 428.118 149.946 427.844 150.098 427.562C150.252 427.279 150.393 426.986 150.519 426.685C150.646 426.384 150.758 426.075 150.856 425.759L179.609 331.648C179.776 331.104 179.898 330.548 179.975 329.985C180.129 328.86 180.104 327.718 179.899 326.602C179.797 326.043 179.649 325.493 179.458 324.958C179.269 324.427 179.037 323.913 178.763 323.42C178.495 322.936 178.187 322.476 177.842 322.043C177.502 321.616 177.127 321.218 176.719 320.855C176.315 320.494 175.88 320.169 175.419 319.884C173.971 319.004 172.584 318.025 171.27 316.955C169.954 315.883 168.711 314.724 167.55 313.485C166.382 312.237 165.297 310.914 164.302 309.524C163.296 308.118 162.383 306.648 161.568 305.124C160.748 303.589 160.026 302.002 159.408 300.375C158.789 298.745 158.273 297.078 157.862 295.383C157.45 293.681 157.143 291.954 156.944 290.214C156.227 283.943 156.913 277.592 158.951 271.619C159.437 270.194 159.999 268.797 160.635 267.433C161.268 266.074 161.975 264.75 162.751 263.468C163.521 262.196 164.36 260.967 165.264 259.787C166.163 258.613 167.127 257.49 168.15 256.423C169.171 255.359 170.251 254.353 171.385 253.411C172.513 252.474 173.693 251.603 174.92 250.802C176.136 250.008 177.397 249.285 178.697 248.638C179.991 247.993 181.321 247.425 182.681 246.938C184.04 246.452 185.428 246.048 186.835 245.728C189.639 245.09 192.51 244.797 195.385 244.856C199.721 244.947 204.002 245.841 208.012 247.49C209.356 248.043 210.665 248.678 211.931 249.39C213.207 250.107 214.439 250.9 215.619 251.765C216.813 252.64 217.954 253.586 219.035 254.598C220.126 255.619 221.156 256.703 222.119 257.845C223.088 258.994 223.99 260.198 224.819 261.451C225.656 262.715 226.42 264.027 227.107 265.379C227.802 266.746 228.419 268.152 228.954 269.589C229.494 271.037 229.953 272.514 230.327 274.013C230.703 275.516 230.995 277.038 231.202 278.573C232.252 286.342 231.138 294.249 227.981 301.425C227.357 302.842 226.654 304.224 225.876 305.563C225.426 306.338 224.953 307.096 224.456 307.837C223.96 308.578 223.441 309.3 222.901 310.004C222.361 310.707 221.8 311.392 221.216 312.057C220.633 312.722 220.03 313.366 219.408 313.989C218.772 314.624 218.118 315.236 217.445 315.825C216.773 316.414 216.083 316.977 215.377 317.515C214.671 318.054 213.949 318.567 213.211 319.054C212.473 319.541 211.721 320.002 210.955 320.437C210.471 320.71 210.012 321.025 209.584 321.379C209.155 321.733 208.758 322.123 208.396 322.546C208.031 322.972 207.703 323.429 207.414 323.911C207.121 324.4 206.87 324.914 206.662 325.445C206.453 325.98 206.289 326.532 206.17 327.094C205.813 328.789 205.875 330.546 206.349 332.213L234.155 431.147C234.253 431.488 234.366 431.824 234.494 432.154C234.623 432.484 234.767 432.807 234.925 433.122C235.084 433.437 235.257 433.745 235.445 434.044C235.633 434.343 235.833 434.633 236.045 434.914C236.261 435.194 236.488 435.462 236.728 435.719C236.968 435.976 237.219 436.219 237.48 436.45C237.742 436.681 238.013 436.898 238.294 437.101C238.576 437.304 238.866 437.493 239.165 437.667C239.463 437.84 239.769 437.998 240.083 438.14C240.394 438.281 240.712 438.406 241.035 438.515C241.357 438.623 241.683 438.715 242.014 438.789C242.344 438.863 242.678 438.92 243.014 438.959C243.348 438.998 243.683 439.019 244.019 439.023C244.686 439.03 245.351 438.965 246.003 438.829C246.329 438.761 246.65 438.676 246.966 438.573C250.728 437.327 254.439 435.925 258.1 434.366C261.762 432.807 265.372 431.092 268.93 429.219C272.488 427.345 275.977 425.321 279.397 423.147C282.817 420.973 286.165 418.647 289.441 416.168C295.939 411.242 302.045 405.819 307.703 399.948C313.424 394.013 318.684 387.65 323.437 380.916C328.258 374.088 332.557 366.907 336.299 359.434C349.161 333.733 355.279 305.185 354.076 276.471C353.663 266.509 352.364 256.603 350.195 246.871C348.035 237.175 345.001 227.696 341.13 218.548C337.965 211.042 334.234 203.788 329.969 196.848C325.794 190.053 321.106 183.587 315.944 177.508C310.871 171.532 305.343 165.959 299.409 160.837C293.547 155.778 287.296 151.188 280.714 147.109C274.242 143.099 267.463 139.608 260.44 136.667C239.91 128.055 217.635 124.419 195.432 126.056H195.431Z" fill="#222839"/>
</g>
<path d="M32.3696 244.307L33.9396 244.274C37.0384 244.207 40.1261 244.666 43.0706 245.634C44.0631 245.96 45.0366 246.341 45.9866 246.775C46.9462 247.214 47.881 247.706 48.7866 248.247C49.7019 248.794 50.5872 249.39 51.4386 250.032C52.3021 250.683 53.1309 251.379 53.9216 252.117C54.7262 252.868 55.4919 253.659 56.2156 254.488C56.949 255.325 57.6406 256.201 58.2906 257.118C58.9406 258.035 59.5506 258.987 60.1206 259.975C60.6886 260.963 61.2126 261.984 61.6926 263.037C62.1726 264.09 62.606 265.172 62.9926 266.282C63.3793 267.392 63.716 268.521 64.0026 269.67C64.2893 270.819 64.5256 271.982 64.7116 273.159C64.897 274.336 65.0303 275.524 65.1116 276.722C65.193 277.92 65.2233 279.123 65.2026 280.332L65.1706 282.172C65.15 283.381 65.0773 284.585 64.9526 285.785C64.828 286.985 64.652 288.175 64.4246 289.355C64.198 290.535 63.9206 291.702 63.5926 292.855C63.2646 294.008 62.8876 295.142 62.4616 296.255C62.0356 297.37 61.5633 298.457 61.0446 299.517C60.526 300.577 59.9646 301.604 59.3606 302.599C58.7566 303.594 58.1113 304.553 57.4246 305.478C56.738 306.403 56.0133 307.287 55.2506 308.132C54.488 308.977 53.693 309.777 52.8656 310.532C52.0466 311.278 51.1905 311.982 50.3006 312.642C49.4244 313.292 48.5152 313.896 47.5766 314.452C46.6495 315.002 45.6938 315.503 44.7136 315.952C43.7465 316.394 42.756 316.783 41.7466 317.117C40.7512 317.447 39.7383 317.721 38.7126 317.939C37.6963 318.155 36.6687 318.313 35.6346 318.414C34.6045 318.514 33.5695 318.556 32.5346 318.539L30.9616 318.515C28.9052 318.485 26.8588 318.222 24.8616 317.731C23.8616 317.486 22.8761 317.186 21.9096 316.831C20.9353 316.472 19.9815 316.059 19.0526 315.595C18.1164 315.127 17.206 314.609 16.3256 314.043C15.4378 313.473 14.5806 312.856 13.7576 312.195C12.9255 311.527 12.1281 310.817 11.3686 310.067C10.604 309.313 9.87063 308.515 9.16863 307.674C8.46663 306.833 7.81096 305.955 7.20163 305.041C6.58296 304.129 6.00496 303.184 5.46763 302.205C4.93029 301.226 4.43529 300.22 3.98263 299.185C3.53196 298.15 3.12529 297.089 2.76263 296.002C2.39996 294.915 2.08596 293.812 1.82063 292.695C1.55396 291.576 1.33529 290.443 1.16463 289.295C0.99396 288.147 0.87296 286.995 0.801627 285.838C0.728293 284.677 0.703627 283.51 0.727627 282.338L0.763627 280.555C0.786293 279.385 0.85796 278.218 0.978627 277.055C1.09929 275.892 1.26663 274.738 1.48063 273.595C1.69729 272.451 1.96163 271.318 2.27363 270.195C2.58563 269.072 2.94396 267.972 3.34863 266.895C3.75329 265.81 4.20196 264.749 4.69463 263.713C5.18729 262.677 5.72063 261.671 6.29463 260.694C6.86929 259.717 7.48396 258.771 8.13863 257.858C8.79329 256.945 9.48529 256.067 10.2146 255.226C10.944 254.385 11.7056 253.585 12.4996 252.826C13.2936 252.067 14.116 251.357 14.9666 250.695C15.8133 250.034 16.6928 249.416 17.6016 248.844C18.5007 248.276 19.4286 247.756 20.3816 247.284C21.3255 246.818 22.2935 246.402 23.2816 246.039C24.2569 245.68 25.2511 245.374 26.2596 245.123C27.2588 244.874 28.2711 244.681 29.2916 244.544C30.3124 244.407 31.34 244.328 32.3696 244.307Z" fill="#FF529A"/>
<path d="M74.9898 323.356L48.4648 311.593L60.9038 295.174L74.9898 323.356Z" fill="#FF529A"/>
<path d="M41.4553 295.414C41.5704 295.415 41.6852 295.401 41.7973 295.375C41.8525 295.362 41.9069 295.346 41.9603 295.327C42.0138 295.308 42.0662 295.286 42.1173 295.261C42.1684 295.236 42.2181 295.208 42.2663 295.178C42.3149 295.147 42.362 295.114 42.4073 295.078C42.4533 295.043 42.4973 295.005 42.5393 294.965C42.5813 294.925 42.6223 294.883 42.6623 294.838C42.7016 294.794 42.7389 294.747 42.7743 294.698C42.8096 294.65 42.8429 294.599 42.8743 294.546C42.9056 294.494 42.9349 294.439 42.9623 294.383C42.9896 294.327 43.0146 294.27 43.0373 294.21C43.0599 294.151 43.0799 294.09 43.0973 294.028C43.1146 293.966 43.1296 293.903 43.1423 293.838C43.1549 293.772 43.1646 293.705 43.1713 293.638C43.1779 293.572 43.1819 293.505 43.1833 293.438L43.4943 276.596C43.4943 276.53 43.4926 276.463 43.4893 276.396C43.4859 276.33 43.4786 276.263 43.4673 276.196C43.4573 276.13 43.4446 276.066 43.4293 276.006C43.4139 275.946 43.3963 275.888 43.3763 275.832C43.3556 275.774 43.3329 275.716 43.3083 275.66C43.2836 275.604 43.2563 275.55 43.2263 275.498C43.1969 275.446 43.1653 275.395 43.1313 275.346C43.0973 275.298 43.0616 275.251 43.0243 275.206C42.9869 275.162 42.9476 275.119 42.9063 275.079C42.8656 275.039 42.8228 275.002 42.7783 274.966C42.7341 274.93 42.688 274.897 42.6403 274.866C42.5931 274.836 42.5444 274.809 42.4943 274.784C42.4442 274.76 42.3928 274.738 42.3403 274.719C42.2343 274.681 42.1242 274.656 42.0123 274.643C41.9552 274.636 41.8978 274.633 41.8403 274.632L23.4613 274.769C23.3487 274.77 23.2365 274.784 23.1273 274.811C23.0734 274.825 23.0203 274.841 22.9683 274.86C22.9161 274.88 22.865 274.902 22.8153 274.927C22.7652 274.952 22.7165 274.98 22.6693 275.01C22.6216 275.041 22.5756 275.075 22.5313 275.11C22.4866 275.146 22.4436 275.183 22.4023 275.223C22.3609 275.263 22.3209 275.306 22.2823 275.35C22.2443 275.395 22.2079 275.442 22.1733 275.49C22.1386 275.539 22.1053 275.589 22.0733 275.641C22.0426 275.693 22.0139 275.747 21.9873 275.803C21.9606 275.859 21.9363 275.916 21.9143 275.974C21.8923 276.033 21.8726 276.093 21.8553 276.154C21.8379 276.216 21.8233 276.278 21.8113 276.342C21.8013 276.402 21.7929 276.466 21.7863 276.532C21.7796 276.599 21.7756 276.666 21.7743 276.732L21.4523 293.35C21.4523 293.417 21.4523 293.484 21.4523 293.55C21.4523 293.617 21.4593 293.682 21.4733 293.744C21.4833 293.811 21.4956 293.874 21.5103 293.932C21.5249 293.991 21.5423 294.051 21.5623 294.112C21.5823 294.171 21.6043 294.228 21.6283 294.283C21.6523 294.339 21.6789 294.393 21.7083 294.445C21.7369 294.497 21.7676 294.548 21.8003 294.596C21.8329 294.645 21.8663 294.691 21.9003 294.735C21.9369 294.78 21.9753 294.822 22.0153 294.862C22.055 294.902 22.0967 294.94 22.1403 294.975C22.1832 295.011 22.2279 295.044 22.2743 295.075C22.3204 295.105 22.3681 295.133 22.4173 295.158C22.466 295.183 22.516 295.206 22.5673 295.225C22.7238 295.285 22.8898 295.316 23.0573 295.316L41.4553 295.414ZM41.4003 298.386L23.0083 298.253C22.7287 298.251 22.4504 298.216 22.1793 298.147C22.046 298.114 21.9148 298.072 21.7863 298.023C21.6579 297.975 21.5324 297.919 21.4103 297.856C21.2879 297.793 21.1691 297.723 21.0543 297.647C20.9384 297.571 20.8266 297.488 20.7193 297.4C20.6106 297.311 20.5064 297.216 20.4073 297.116C20.3073 297.016 20.2119 296.91 20.1213 296.798C20.0306 296.687 19.9443 296.571 19.8623 296.449C19.7809 296.328 19.7043 296.202 19.6323 296.071C19.5603 295.941 19.4936 295.807 19.4323 295.671C19.3716 295.533 19.3166 295.39 19.2673 295.243C19.2179 295.097 19.1746 294.947 19.1373 294.794C19.1033 294.639 19.0729 294.482 19.0463 294.322C19.0196 294.163 19.0019 294.001 18.9933 293.837C18.9826 293.673 18.9786 293.507 18.9813 293.337L19.3043 276.75C19.3043 276.582 19.3146 276.416 19.3353 276.25C19.3559 276.085 19.3799 275.924 19.4073 275.766C19.4379 275.608 19.4746 275.452 19.5173 275.298C19.5599 275.145 19.6089 274.995 19.6643 274.849C19.7196 274.705 19.7803 274.563 19.8463 274.423C19.9123 274.284 19.9836 274.151 20.0603 274.023C20.1369 273.89 20.2183 273.764 20.3043 273.646C20.3903 273.528 20.4809 273.412 20.5763 273.297C20.6716 273.186 20.7716 273.08 20.8763 272.979C20.9809 272.879 21.0883 272.784 21.1983 272.695C21.3087 272.606 21.4235 272.522 21.5423 272.444C21.6598 272.367 21.7813 272.296 21.9063 272.232C22.0298 272.17 22.1567 272.115 22.2863 272.067C22.4171 272.018 22.5507 271.977 22.6863 271.943C22.9579 271.874 23.2369 271.836 23.5173 271.832L41.8953 271.665C42.3215 271.661 42.745 271.733 43.1463 271.876C43.2779 271.923 43.4068 271.978 43.5323 272.039C43.6579 272.101 43.7801 272.169 43.8983 272.244C44.0175 272.32 44.1327 272.402 44.2433 272.489C44.355 272.578 44.4621 272.672 44.5643 272.772C44.6669 272.872 44.7669 272.978 44.8643 273.09C44.9616 273.202 45.0506 273.319 45.1313 273.44C45.2153 273.562 45.2943 273.689 45.3683 273.82C45.4423 273.952 45.5106 274.087 45.5733 274.227C45.6359 274.367 45.6929 274.511 45.7443 274.659C45.7956 274.807 45.8406 274.959 45.8793 275.113C45.9179 275.268 45.9513 275.426 45.9793 275.587C46.0073 275.749 46.0256 275.912 46.0343 276.078C46.0456 276.245 46.0499 276.414 46.0473 276.584L45.7373 293.453C45.7373 293.625 45.7269 293.794 45.7063 293.96C45.6856 294.127 45.6609 294.291 45.6323 294.452C45.6009 294.614 45.5629 294.772 45.5183 294.927C45.4736 295.083 45.4233 295.234 45.3673 295.382C45.3106 295.53 45.2483 295.675 45.1803 295.815C45.1123 295.956 45.0389 296.092 44.9603 296.223C44.8816 296.357 44.7976 296.484 44.7083 296.604C44.6189 296.725 44.5253 296.842 44.4273 296.955C44.3293 297.067 44.2269 297.173 44.1203 297.273C44.0136 297.374 43.9029 297.469 43.7883 297.557C43.6745 297.645 43.5564 297.727 43.4343 297.803C43.3133 297.878 43.1885 297.947 43.0603 298.009C42.9327 298.071 42.8018 298.126 42.6683 298.173C42.5347 298.221 42.3984 298.261 42.2603 298.293C41.9809 298.36 41.6945 298.394 41.4073 298.393L41.4003 298.386Z" fill="white"/>
<path d="M38.5989 274.414C38.5574 274.414 38.516 274.411 38.4749 274.406C38.3913 274.397 38.309 274.378 38.2299 274.349C38.1906 274.335 38.1522 274.319 38.1149 274.3C38.0774 274.281 38.0411 274.261 38.0059 274.238C37.9713 274.215 37.9379 274.191 37.9059 274.165C37.8711 274.139 37.8377 274.111 37.8059 274.081C37.7752 274.051 37.7459 274.019 37.7179 273.986C37.6899 273.953 37.6635 273.919 37.6389 273.886C37.6135 273.85 37.5902 273.812 37.5689 273.773C37.5475 273.734 37.5272 273.693 37.5079 273.652C37.4892 273.61 37.4722 273.567 37.4569 273.523C37.4415 273.479 37.4282 273.434 37.4169 273.388C37.4055 273.342 37.3962 273.295 37.3889 273.247C37.3815 273.199 37.3762 273.15 37.3729 273.1C37.3695 273.05 37.3695 273 37.3729 272.949L37.4369 269.537C37.4409 269.337 37.4362 269.141 37.4229 268.949C37.4095 268.757 37.3882 268.567 37.3589 268.379C37.3295 268.192 37.2925 268.009 37.2479 267.829C37.2032 267.649 37.1515 267.474 37.0929 267.303C37.0342 267.132 36.9675 266.966 36.8929 266.803C36.8182 266.64 36.7392 266.483 36.6559 266.332C36.5705 266.18 36.4792 266.034 36.3819 265.893C36.2845 265.752 36.1815 265.619 36.0729 265.493C35.9642 265.364 35.8505 265.242 35.7319 265.126C35.6142 265.011 35.4907 264.902 35.3619 264.8C35.2337 264.699 35.1001 264.604 34.9619 264.517C34.8253 264.431 34.6841 264.352 34.5389 264.281C34.3942 264.21 34.2456 264.148 34.0939 264.094C33.6306 263.929 33.1415 263.849 32.6499 263.856H32.6209C32.5402 263.856 32.4595 263.859 32.3789 263.866C32.2982 263.873 32.2182 263.881 32.1389 263.89C32.0595 263.9 31.9805 263.912 31.9019 263.927C31.8232 263.942 31.7449 263.959 31.6669 263.978C31.5889 263.997 31.5115 264.019 31.4349 264.042C31.3582 264.065 31.2819 264.091 31.2059 264.119C31.1299 264.147 31.0549 264.177 30.9809 264.209C30.9069 264.241 30.8332 264.274 30.7599 264.309C30.6865 264.345 30.6142 264.383 30.5429 264.423C30.4715 264.463 30.4005 264.505 30.3299 264.55C30.2599 264.595 30.1905 264.641 30.1219 264.689C30.0532 264.737 29.9865 264.787 29.9219 264.84C29.8552 264.892 29.7885 264.946 29.7219 265.003C29.6552 265.06 29.5915 265.118 29.5309 265.177C29.4682 265.237 29.4065 265.299 29.3459 265.363C29.2852 265.427 29.2255 265.494 29.1669 265.563C29.1082 265.63 29.0509 265.699 28.9949 265.771C28.9389 265.843 28.8849 265.915 28.8329 265.987C28.7802 266.06 28.7295 266.135 28.6809 266.21C28.6322 266.285 28.5849 266.362 28.5389 266.44C28.4929 266.518 28.4489 266.597 28.4069 266.677C28.3649 266.757 28.3242 266.838 28.2849 266.92C28.2462 267.002 28.2089 267.085 28.1729 267.169C28.1369 267.253 28.1042 267.336 28.0749 267.418C28.0429 267.504 28.0125 267.591 27.9839 267.678C27.9552 267.765 27.9285 267.854 27.9039 267.943C27.8792 268.032 27.8562 268.121 27.8349 268.212C27.8135 268.303 27.7935 268.393 27.7749 268.484C27.7575 268.576 27.7419 268.668 27.7279 268.761C27.7139 268.854 27.7019 268.947 27.6919 269.041C27.6819 269.135 27.6739 269.229 27.6679 269.324C27.6619 269.419 27.6575 269.513 27.6549 269.606V269.636L27.5899 273.028C27.5899 273.079 27.5869 273.129 27.5809 273.178C27.5749 273.227 27.5675 273.276 27.5589 273.324C27.5495 273.372 27.5385 273.419 27.5259 273.465C27.5132 273.511 27.4985 273.556 27.4819 273.601C27.4652 273.645 27.4469 273.688 27.4269 273.73C27.4069 273.772 27.3852 273.813 27.3619 273.852C27.3385 273.891 27.3139 273.929 27.2879 273.966C27.2619 274.003 27.2345 274.038 27.2059 274.071C27.1772 274.104 27.1472 274.138 27.1159 274.171C27.0845 274.204 27.0512 274.233 27.0159 274.256C26.9838 274.282 26.9504 274.307 26.9159 274.33C26.8803 274.353 26.8436 274.374 26.8059 274.393C26.7685 274.412 26.7301 274.428 26.6909 274.443C26.6516 274.458 26.6115 274.47 26.5709 274.48C26.4474 274.511 26.3194 274.519 26.1929 274.505C26.1106 274.496 26.0297 274.477 25.9519 274.449C25.9133 274.435 25.8756 274.419 25.8389 274.4C25.8021 274.382 25.7664 274.361 25.7319 274.339C25.6973 274.316 25.6639 274.292 25.6319 274.266C25.5991 274.24 25.5677 274.212 25.5379 274.182C25.5077 274.152 25.479 274.121 25.4519 274.088C25.4245 274.055 25.3985 274.021 25.3739 273.988C25.3492 273.955 25.3262 273.917 25.3049 273.876C25.2835 273.837 25.2635 273.797 25.2449 273.756C25.2262 273.715 25.2095 273.672 25.1949 273.628C25.1802 273.584 25.1672 273.539 25.1559 273.494C25.1445 273.449 25.1352 273.402 25.1279 273.354C25.1205 273.306 25.1152 273.257 25.1119 273.208C25.1085 273.159 25.1085 273.109 25.1119 273.058L25.1679 269.663V269.628C25.1679 269.484 25.1742 269.34 25.1869 269.197C25.1995 269.054 25.2119 268.91 25.2239 268.766C25.2392 268.624 25.2562 268.483 25.2749 268.343C25.2935 268.203 25.3172 268.064 25.3459 267.925C25.3725 267.786 25.4019 267.649 25.4339 267.512C25.4659 267.375 25.4992 267.24 25.5339 267.105C25.5712 266.972 25.6115 266.838 25.6549 266.705C25.6982 266.572 25.7439 266.441 25.7919 266.312C25.8472 266.181 25.9002 266.053 25.9509 265.926C26.0015 265.799 26.0579 265.674 26.1199 265.549C26.1785 265.425 26.2399 265.302 26.3039 265.181C26.3679 265.06 26.4345 264.94 26.5039 264.823C26.5705 264.705 26.6422 264.589 26.7189 264.474C26.7955 264.359 26.8722 264.247 26.9489 264.136C27.0282 264.025 27.1099 263.916 27.1939 263.809C27.2779 263.702 27.3642 263.597 27.4529 263.494C27.5409 263.392 27.6309 263.292 27.7229 263.194C27.8149 263.096 27.9082 263.002 28.0029 262.913C28.0975 262.822 28.1939 262.734 28.2919 262.649C28.3899 262.564 28.4899 262.481 28.5919 262.402C28.6925 262.323 28.7945 262.246 28.8979 262.173C29.0012 262.1 29.1059 262.029 29.2119 261.962C29.3179 261.895 29.4252 261.831 29.5339 261.769C29.6425 261.707 29.7512 261.649 29.8599 261.596C29.9705 261.541 30.0822 261.49 30.1949 261.441C30.3075 261.392 30.4212 261.347 30.5359 261.306C30.6505 261.264 30.7659 261.225 30.8819 261.189C30.9979 261.153 31.1149 261.12 31.2329 261.089C31.3509 261.06 31.4692 261.034 31.5879 261.012C31.7065 260.99 31.8265 260.972 31.9479 260.957C32.0685 260.941 32.1895 260.929 32.3109 260.92C32.4322 260.911 32.5535 260.907 32.6749 260.906H32.7069C32.9582 260.901 33.2097 260.911 33.4599 260.936C33.949 260.987 34.4303 261.096 34.8939 261.26C35.1237 261.341 35.3488 261.435 35.5679 261.542C35.7876 261.649 36.0012 261.768 36.2079 261.899C36.4152 262.031 36.6155 262.173 36.8079 262.326C37.0035 262.481 37.1911 262.645 37.3699 262.819C37.5499 262.994 37.7222 263.178 37.8869 263.373C38.0515 263.568 38.2075 263.772 38.3549 263.985C38.5022 264.198 38.6409 264.42 38.7709 264.65C38.9009 264.88 39.0205 265.118 39.1299 265.363C39.2399 265.608 39.3399 265.861 39.4299 266.121C39.5199 266.381 39.5985 266.648 39.6659 266.921C39.7325 267.193 39.7885 267.471 39.8339 267.754C39.8792 268.037 39.9125 268.325 39.9339 268.618C39.9539 268.911 39.9612 269.207 39.9559 269.508L39.8919 272.925C39.8919 272.976 39.8889 273.027 39.8829 273.076C39.8769 273.125 39.8695 273.174 39.8609 273.223C39.8515 273.271 39.8402 273.318 39.8269 273.365C39.8135 273.412 39.7985 273.457 39.7819 273.502C39.7652 273.547 39.7465 273.59 39.7259 273.632C39.7052 273.674 39.6832 273.715 39.6599 273.755C39.6365 273.794 39.6115 273.833 39.5849 273.87C39.5582 273.907 39.5302 273.943 39.5009 273.976C39.4715 274.01 39.4409 274.043 39.4089 274.076C39.3769 274.109 39.3435 274.137 39.3089 274.162C39.2749 274.189 39.2395 274.214 39.2029 274.237C39.1667 274.26 39.1293 274.282 39.0909 274.301C39.0528 274.32 39.0138 274.337 38.9739 274.352C38.9339 274.367 38.8932 274.379 38.8519 274.389C38.7684 274.41 38.6828 274.42 38.5969 274.421L38.5989 274.414Z" fill="white"/>
<path d="M32.1415 289.764C32.0565 289.764 31.9719 289.754 31.8895 289.733C31.8491 289.723 31.8094 289.711 31.7705 289.696C31.7315 289.681 31.6935 289.664 31.6565 289.645C31.6194 289.627 31.5833 289.606 31.5485 289.583C31.5139 289.56 31.4805 289.536 31.4485 289.509C31.4147 289.483 31.3824 289.455 31.3515 289.425C31.3208 289.395 31.2918 289.362 31.2645 289.325C31.2371 289.289 31.2121 289.255 31.1895 289.224C31.1648 289.188 31.1415 289.15 31.1195 289.11C31.0975 289.071 31.0775 289.03 31.0595 288.988C31.0408 288.946 31.0241 288.903 31.0095 288.859C30.9948 288.815 30.9815 288.77 30.9695 288.724C30.9555 288.678 30.9448 288.631 30.9375 288.583C30.9301 288.535 30.9245 288.486 30.9205 288.436C30.9171 288.387 30.9171 288.337 30.9205 288.285L31.0285 282.429C31.0285 282.379 31.0315 282.328 31.0375 282.278C31.0435 282.228 31.0508 282.18 31.0595 282.132C31.0688 282.084 31.0788 282.037 31.0895 281.99C31.1001 281.944 31.1161 281.899 31.1375 281.855C31.1541 281.811 31.1715 281.768 31.1895 281.726C31.2075 281.685 31.2301 281.644 31.2575 281.604C31.2788 281.565 31.3035 281.527 31.3315 281.49C31.3595 281.454 31.3871 281.419 31.4145 281.385C31.4438 281.352 31.4741 281.32 31.5055 281.29C31.5368 281.26 31.5701 281.232 31.6055 281.205C31.6376 281.179 31.6709 281.154 31.7055 281.131C31.742 281.108 31.7797 281.087 31.8185 281.068C31.8562 281.049 31.8949 281.033 31.9345 281.018C31.9741 281.004 32.0145 280.991 32.0555 280.981C32.18 280.951 32.309 280.943 32.4365 280.957C32.5195 280.967 32.601 280.986 32.6795 281.015C32.717 281.03 32.7537 281.046 32.7895 281.064C32.8266 281.083 32.8626 281.104 32.8975 281.126C32.9321 281.149 32.9654 281.174 32.9975 281.2C33.0329 281.226 33.067 281.254 33.0995 281.284C33.1301 281.314 33.1591 281.348 33.1865 281.384C33.2138 281.421 33.2401 281.454 33.2655 281.484C33.2901 281.521 33.3135 281.559 33.3355 281.597C33.3575 281.636 33.3778 281.677 33.3965 281.719C33.4151 281.761 33.4318 281.804 33.4465 281.848C33.4611 281.892 33.4745 281.938 33.4865 281.984C33.4978 282.03 33.5071 282.077 33.5145 282.125C33.5218 282.173 33.5271 282.222 33.5305 282.271C33.5338 282.321 33.5338 282.371 33.5305 282.422L33.4235 288.288C33.4235 288.339 33.4205 288.389 33.4145 288.439C33.4085 288.489 33.4001 288.538 33.3895 288.586C33.3801 288.634 33.3688 288.682 33.3555 288.728C33.3421 288.775 33.3271 288.82 33.3105 288.863C33.2938 288.907 33.2755 288.95 33.2555 288.992C33.2355 289.034 33.2135 289.075 33.1895 289.114C33.1661 289.154 33.1415 289.192 33.1155 289.228C33.0895 289.265 33.0618 289.298 33.0325 289.328C33.0031 289.362 32.9728 289.395 32.9415 289.428C32.9101 289.462 32.8768 289.49 32.8415 289.513C32.8094 289.54 32.776 289.564 32.7415 289.587C32.7056 289.61 32.6685 289.631 32.6305 289.649C32.5927 289.668 32.554 289.684 32.5145 289.698C32.4748 289.712 32.4344 289.725 32.3935 289.734C32.3523 289.744 32.3105 289.751 32.2685 289.756C32.2263 289.761 32.1839 289.764 32.1415 289.764Z" fill="white"/>
<path d="M200.714 90.0288L277.051 83.1678C278.108 83.0727 279.169 83.0306 280.231 83.0418C281.283 83.0527 282.333 83.1171 283.379 83.2348C284.418 83.352 285.45 83.5229 286.472 83.7468C287.491 83.97 288.497 84.2468 289.487 84.5758C290.473 84.9034 291.441 85.2833 292.387 85.7138C296.174 87.4376 299.543 89.9599 302.264 93.1078C302.946 93.8964 303.585 94.7209 304.179 95.5778C304.776 96.4397 305.327 97.3326 305.83 98.2528C306.338 99.1824 306.796 100.138 307.204 101.116C307.615 102.101 307.975 103.107 308.282 104.129C308.591 105.157 308.847 106.201 309.051 107.256C309.255 108.314 309.407 109.387 309.506 110.473C309.604 111.559 309.65 112.653 309.642 113.756C309.633 114.858 309.571 115.961 309.456 117.064C309.34 118.166 309.172 119.264 308.951 120.356C308.73 121.448 308.457 122.531 308.132 123.607C307.806 124.682 307.431 125.744 307.005 126.792C306.579 127.84 306.105 128.866 305.584 129.871C305.062 130.875 304.496 131.854 303.884 132.807C303.274 133.759 302.621 134.682 301.925 135.577C301.229 136.471 300.493 137.333 299.719 138.161C298.944 138.989 298.135 139.777 297.293 140.527C296.45 141.276 295.578 141.982 294.678 142.646C293.777 143.312 292.849 143.932 291.895 144.505C290.94 145.077 289.963 145.606 288.965 146.09C287.965 146.57 286.951 147.001 285.924 147.381C284.896 147.761 283.858 148.088 282.81 148.364C281.762 148.64 280.708 148.863 279.646 149.035C278.584 149.206 277.52 149.324 276.455 149.389L199.944 154.038C198.955 154.098 197.964 154.107 196.975 154.064C195.997 154.021 195.022 153.927 194.054 153.782C193.093 153.637 192.141 153.442 191.201 153.196C186.507 151.965 182.233 149.487 178.835 146.023C178.154 145.33 177.511 144.601 176.907 143.841C176.299 143.077 175.732 142.282 175.207 141.46C174.678 140.631 174.192 139.776 173.751 138.898C173.307 138.016 172.907 137.107 172.551 136.173C172.195 135.238 171.881 134.286 171.61 133.316C171.343 132.346 171.122 131.361 170.948 130.361C170.773 129.36 170.645 128.349 170.565 127.329C170.484 126.308 170.45 125.279 170.464 124.241C170.477 123.203 170.537 122.166 170.644 121.132C170.752 120.097 170.907 119.066 171.109 118.039C171.311 117.011 171.558 115.992 171.851 114.982C172.143 113.971 172.482 112.971 172.866 111.982C173.25 110.992 173.676 110.024 174.144 109.078C174.61 108.129 175.118 107.203 175.668 106.299C176.217 105.395 176.804 104.517 177.428 103.665C178.053 102.813 178.715 101.99 179.413 101.196C180.111 100.402 180.84 99.6435 181.602 98.9208C182.362 98.1981 183.151 97.5138 183.969 96.8678C184.786 96.2218 185.628 95.6158 186.496 95.0498C187.362 94.4845 188.253 93.9618 189.168 93.4818C190.082 93.0018 191.011 92.5685 191.953 92.1818C192.896 91.7958 193.851 91.4581 194.819 91.1688C195.786 90.8795 196.761 90.6395 197.745 90.4488C198.727 90.2585 199.718 90.1183 200.714 90.0288Z" fill="#FF529A"/>
<path d="M224.132 132.441H224.086H223.995H223.95H223.904H223.859L223.814 132.435L223.769 132.428L223.724 132.419L223.679 132.409L223.634 132.398L223.589 132.385L223.545 132.37L223.501 132.354L223.458 132.337L223.415 132.318L208.115 125.318C208.082 125.302 208.049 125.286 208.015 125.269C207.982 125.251 207.951 125.233 207.922 125.213C207.892 125.193 207.863 125.172 207.835 125.15C207.807 125.128 207.781 125.103 207.757 125.075C207.731 125.051 207.705 125.026 207.681 125C207.657 124.974 207.634 124.947 207.61 124.92C207.588 124.892 207.567 124.864 207.547 124.835C207.528 124.805 207.508 124.775 207.488 124.745C207.47 124.714 207.452 124.682 207.436 124.65C207.42 124.617 207.405 124.584 207.39 124.55C207.376 124.516 207.363 124.482 207.351 124.45C207.339 124.417 207.328 124.381 207.317 124.341C207.307 124.307 207.299 124.271 207.291 124.231C207.284 124.191 207.278 124.153 207.273 124.118C207.269 124.08 207.265 124.041 207.263 124.003C207.261 123.964 207.261 123.925 207.263 123.886C207.263 123.846 207.265 123.807 207.268 123.768C207.272 123.728 207.276 123.689 207.281 123.651C207.287 123.612 207.293 123.574 207.301 123.536C207.309 123.498 207.319 123.46 207.329 123.422C207.34 123.384 207.352 123.347 207.364 123.311C207.377 123.274 207.391 123.238 207.405 123.202C207.42 123.166 207.436 123.13 207.453 123.096C207.471 123.061 207.489 123.028 207.508 122.996C207.528 122.962 207.548 122.928 207.569 122.896C207.591 122.863 207.613 122.83 207.636 122.796C207.66 122.764 207.684 122.734 207.709 122.705C207.735 122.675 207.761 122.647 207.787 122.619C207.815 122.591 207.843 122.564 207.871 122.538C207.9 122.512 207.93 122.486 207.96 122.462C207.991 122.438 208.022 122.414 208.054 122.392C208.086 122.369 208.117 122.349 208.147 122.332L223.63 113.053L223.673 113.028L223.717 113.004L223.761 112.981L223.805 112.96L223.847 112.941L223.892 112.923L223.937 112.906L223.986 112.891L224.031 112.877L224.077 112.864L224.123 112.853L224.169 112.843L224.214 112.835L224.259 112.828L224.305 112.822H224.351C224.388 112.822 224.425 112.822 224.461 112.822C224.498 112.822 224.534 112.822 224.57 112.822C224.606 112.822 224.642 112.825 224.678 112.833C224.714 112.84 224.75 112.846 224.784 112.852C224.819 112.859 224.852 112.868 224.884 112.878C224.916 112.888 224.95 112.899 224.984 112.912C225.018 112.924 225.051 112.938 225.084 112.953C225.118 112.967 225.15 112.98 225.18 112.991C225.212 113.008 225.242 113.027 225.272 113.047C225.302 113.067 225.331 113.088 225.359 113.11C225.388 113.132 225.416 113.155 225.442 113.18C225.469 113.204 225.495 113.23 225.52 113.256C225.546 113.282 225.57 113.31 225.593 113.339C225.617 113.367 225.639 113.397 225.66 113.429C225.682 113.46 225.702 113.493 225.721 113.529C225.741 113.564 225.759 113.597 225.776 113.629C225.801 113.678 225.822 113.729 225.841 113.781C225.86 113.832 225.876 113.885 225.889 113.938C225.903 113.99 225.913 114.044 225.921 114.098C225.929 114.152 225.935 114.206 225.937 114.26C225.937 114.314 225.937 114.368 225.937 114.423C225.937 114.477 225.933 114.531 225.923 114.585C225.916 114.639 225.906 114.692 225.894 114.746C225.882 114.799 225.868 114.852 225.851 114.904C225.835 114.956 225.816 115.007 225.794 115.059C225.773 115.11 225.749 115.16 225.723 115.209C225.697 115.257 225.669 115.305 225.639 115.353C225.609 115.4 225.576 115.445 225.539 115.489C225.505 115.533 225.469 115.575 225.43 115.617C225.392 115.658 225.351 115.697 225.309 115.735C225.267 115.773 225.222 115.809 225.176 115.843C225.13 115.877 225.082 115.91 225.032 115.943L212.381 123.506L224.888 129.206C224.937 129.228 224.985 129.253 225.031 129.281C225.121 129.334 225.204 129.398 225.28 129.47C225.318 129.505 225.353 129.543 225.386 129.582C225.42 129.621 225.451 129.662 225.48 129.704C225.509 129.746 225.536 129.79 225.561 129.836C225.586 129.881 225.608 129.928 225.628 129.976C225.648 130.024 225.666 130.073 225.682 130.123C225.698 130.173 225.711 130.223 225.722 130.275C225.734 130.326 225.742 130.378 225.748 130.432C225.754 130.485 225.758 130.539 225.759 130.593C225.761 130.647 225.761 130.701 225.759 130.756C225.755 130.81 225.749 130.865 225.739 130.921C225.73 130.976 225.718 131.031 225.704 131.086C225.69 131.14 225.672 131.195 225.652 131.25C225.632 131.304 225.61 131.358 225.584 131.412C225.566 131.45 225.547 131.487 225.527 131.523C225.507 131.559 225.486 131.594 225.464 131.629C225.442 131.663 225.419 131.696 225.395 131.729C225.371 131.761 225.346 131.793 225.32 131.823C225.294 131.853 225.268 131.883 225.24 131.911C225.213 131.939 225.182 131.965 225.147 131.991C225.119 132.017 225.089 132.042 225.058 132.067C225.028 132.091 224.997 132.114 224.965 132.136C224.934 132.158 224.901 132.179 224.865 132.199C224.83 132.219 224.797 132.237 224.765 132.255C224.732 132.272 224.699 132.288 224.665 132.304C224.632 132.319 224.599 132.333 224.565 132.346C224.53 132.358 224.494 132.37 224.458 132.38C224.422 132.39 224.386 132.399 224.35 132.407C224.314 132.415 224.278 132.421 224.241 132.426C224.205 132.43 224.168 132.435 224.132 132.441Z" fill="white"/>
<path d="M251.536 130.528C251.499 130.528 251.461 130.528 251.424 130.528C251.387 130.528 251.349 130.528 251.312 130.528C251.275 130.528 251.238 130.524 251.202 130.516C251.166 130.508 251.13 130.501 251.094 130.496C251.058 130.488 251.023 130.479 250.988 130.469C250.953 130.459 250.92 130.447 250.888 130.434C250.854 130.421 250.821 130.407 250.788 130.392C250.755 130.377 250.722 130.36 250.688 130.342C250.654 130.324 250.622 130.305 250.591 130.285C250.56 130.265 250.53 130.244 250.501 130.221C250.472 130.198 250.443 130.175 250.416 130.15C250.389 130.125 250.362 130.1 250.336 130.074C250.31 130.047 250.285 130.018 250.261 129.989C250.237 129.96 250.214 129.928 250.191 129.895C250.169 129.864 250.148 129.83 250.128 129.795C250.108 129.76 250.089 129.726 250.072 129.695C250.047 129.645 250.025 129.593 250.006 129.54C249.987 129.488 249.971 129.435 249.957 129.381C249.944 129.328 249.933 129.274 249.924 129.219C249.915 129.164 249.911 129.109 249.91 129.054C249.91 128.999 249.91 128.944 249.91 128.889C249.91 128.834 249.915 128.779 249.924 128.725C249.931 128.67 249.941 128.616 249.953 128.562C249.965 128.508 249.98 128.455 249.997 128.402C250.014 128.349 250.034 128.297 250.055 128.246C250.076 128.195 250.1 128.144 250.127 128.095C250.154 128.046 250.182 127.997 250.213 127.95C250.244 127.903 250.277 127.857 250.313 127.813C250.348 127.768 250.385 127.725 250.424 127.684C250.463 127.643 250.505 127.603 250.548 127.565C250.591 127.527 250.637 127.491 250.684 127.457C250.731 127.423 250.78 127.39 250.831 127.357L263.924 119.677L250.963 113.938C250.913 113.916 250.865 113.891 250.818 113.864C250.681 113.785 250.558 113.683 250.454 113.564C250.386 113.485 250.326 113.4 250.275 113.309C250.25 113.264 250.227 113.217 250.206 113.169C250.185 113.121 250.167 113.071 250.151 113.021C250.134 112.97 250.121 112.918 250.11 112.866C250.099 112.814 250.09 112.761 250.083 112.707C250.077 112.654 250.073 112.6 250.072 112.545C250.071 112.49 250.071 112.435 250.072 112.38C250.076 112.325 250.083 112.269 250.092 112.214C250.101 112.159 250.113 112.103 250.128 112.047C250.143 111.992 250.16 111.936 250.18 111.881C250.2 111.826 250.223 111.771 250.249 111.717C250.27 111.678 250.291 111.641 250.312 111.604C250.333 111.567 250.354 111.532 250.377 111.497C250.4 111.462 250.423 111.429 250.448 111.397C250.473 111.365 250.498 111.332 250.524 111.297C250.551 111.266 250.578 111.236 250.606 111.207C250.634 111.178 250.662 111.15 250.691 111.125C250.72 111.098 250.751 111.073 250.782 111.048C250.813 111.023 250.845 110.999 250.878 110.974C250.911 110.951 250.944 110.93 250.978 110.91C251.012 110.89 251.045 110.871 251.078 110.853C251.113 110.835 251.146 110.818 251.178 110.803C251.21 110.788 251.248 110.774 251.291 110.762C251.327 110.749 251.363 110.737 251.4 110.726C251.437 110.715 251.474 110.706 251.511 110.698C251.548 110.69 251.586 110.683 251.623 110.677C251.66 110.671 251.698 110.667 251.735 110.664H251.782H251.828H251.921H251.968H252.015L252.061 110.669L252.107 110.676L252.153 110.684L252.199 110.694L252.245 110.705L252.291 110.718L252.336 110.732L252.381 110.748L252.426 110.765L252.47 110.784L268.401 117.818C268.436 117.833 268.47 117.85 268.501 117.868C268.532 117.886 268.566 117.905 268.601 117.925C268.633 117.945 268.664 117.966 268.693 117.989C268.722 118.012 268.751 118.035 268.78 118.059C268.808 118.084 268.835 118.109 268.861 118.136C268.887 118.163 268.912 118.19 268.936 118.218C268.96 118.246 268.983 118.275 269.005 118.306C269.027 118.337 269.048 118.368 269.068 118.399C269.087 118.431 269.106 118.464 269.123 118.499C269.14 118.534 269.157 118.567 269.172 118.599C269.187 118.634 269.201 118.669 269.214 118.705C269.227 118.741 269.238 118.777 269.249 118.814C269.259 118.851 269.268 118.889 269.276 118.927C269.284 118.965 269.29 119.004 269.295 119.043C269.3 119.082 269.304 119.121 269.306 119.161C269.308 119.201 269.308 119.241 269.306 119.281C269.306 119.322 269.304 119.362 269.301 119.402C269.298 119.442 269.293 119.482 269.288 119.522C269.282 119.562 269.275 119.602 269.267 119.641C269.259 119.68 269.249 119.719 269.238 119.758C269.227 119.797 269.214 119.835 269.201 119.873C269.188 119.911 269.173 119.948 269.157 119.985C269.141 120.022 269.124 120.058 269.106 120.094C269.088 120.13 269.069 120.165 269.049 120.2C269.028 120.235 269.007 120.268 268.985 120.3C268.963 120.332 268.939 120.365 268.914 120.4C268.889 120.432 268.864 120.463 268.837 120.494C268.81 120.525 268.783 120.554 268.754 120.583C268.725 120.612 268.696 120.639 268.666 120.666C268.636 120.693 268.605 120.719 268.572 120.744C268.54 120.769 268.507 120.793 268.472 120.816C268.437 120.839 268.404 120.861 268.372 120.882L252.272 130.299L252.228 130.324L252.183 130.348L252.138 130.37L252.092 130.391L252.046 130.411L252 130.429L251.954 130.446L251.908 130.461L251.862 130.475L251.815 130.487L251.768 130.498L251.721 130.507L251.674 130.515L251.628 130.522L251.581 130.527L251.536 130.528Z" fill="white"/>
<path d="M231.579 138.741H231.544H231.407H231.373H231.339H231.305H231.27L231.235 138.736L231.2 138.73L231.163 138.712L231.129 138.704L231.095 138.695L231.063 138.686L231.029 138.676C230.977 138.66 230.927 138.641 230.877 138.619C230.828 138.597 230.781 138.573 230.735 138.547C230.645 138.495 230.561 138.433 230.484 138.363C230.446 138.328 230.41 138.291 230.376 138.253C230.341 138.215 230.307 138.175 230.276 138.133C230.246 138.091 230.218 138.048 230.192 138.003C230.169 137.959 230.146 137.914 230.125 137.869C230.104 137.824 230.083 137.774 230.063 137.72C230.05 137.67 230.037 137.62 230.025 137.569C230.013 137.518 230.003 137.466 229.996 137.412C229.989 137.359 229.984 137.305 229.982 137.25C229.98 137.195 229.98 137.14 229.982 137.085C229.982 137.03 229.988 136.974 229.999 136.918C230.01 136.862 230.022 136.806 230.033 136.75C230.047 136.694 230.064 136.638 230.084 136.582L242.663 100.748C242.678 100.704 242.695 100.661 242.714 100.618C242.733 100.575 242.752 100.534 242.773 100.494C242.794 100.453 242.817 100.414 242.84 100.376C242.863 100.338 242.888 100.301 242.915 100.264C242.941 100.228 242.968 100.193 242.996 100.158C243.024 100.123 243.053 100.09 243.084 100.058C243.115 100.026 243.146 99.9952 243.178 99.9658C243.21 99.9365 243.243 99.9085 243.278 99.8818C243.312 99.8552 243.345 99.8295 243.378 99.8048C243.411 99.7802 243.447 99.7572 243.487 99.7358C243.524 99.7145 243.561 99.6942 243.6 99.6748C243.639 99.6555 243.677 99.6382 243.716 99.6228C243.755 99.6068 243.795 99.5925 243.835 99.5798C243.875 99.5672 243.918 99.5562 243.963 99.5468C244.004 99.5368 244.045 99.5285 244.086 99.5218C244.127 99.5152 244.169 99.5102 244.21 99.5068H244.245H244.28H244.42H244.455H244.49H244.525H244.56L244.595 99.5118L244.63 99.5178L244.663 99.5358L244.698 99.5438L244.733 99.5528L244.768 99.5628C244.82 99.578 244.871 99.596 244.921 99.6168C245.017 99.6575 245.108 99.7084 245.193 99.7688C245.277 99.8269 245.354 99.8939 245.424 99.9688C245.493 100.045 245.554 100.128 245.606 100.217C245.632 100.262 245.656 100.308 245.677 100.355C245.699 100.402 245.718 100.451 245.735 100.5C245.752 100.549 245.766 100.6 245.779 100.652C245.791 100.703 245.801 100.756 245.808 100.81C245.815 100.864 245.82 100.918 245.822 100.972C245.822 101.027 245.822 101.082 245.822 101.138C245.822 101.194 245.816 101.25 245.805 101.306C245.796 101.362 245.785 101.418 245.771 101.475C245.757 101.532 245.74 101.588 245.72 101.645L233.112 137.528C233.097 137.572 233.08 137.615 233.062 137.657C233.044 137.699 233.024 137.74 233.003 137.78C232.982 137.82 232.96 137.859 232.936 137.897C232.912 137.935 232.887 137.972 232.862 138.008C232.836 138.044 232.809 138.077 232.781 138.108C232.753 138.139 232.724 138.172 232.694 138.208C232.664 138.239 232.633 138.269 232.601 138.298C232.569 138.327 232.536 138.354 232.501 138.381C232.468 138.407 232.434 138.432 232.401 138.456C232.368 138.48 232.332 138.502 232.293 138.523C232.256 138.544 232.219 138.563 232.181 138.582C232.143 138.601 232.105 138.617 232.066 138.632C232.027 138.647 231.988 138.661 231.948 138.673C231.908 138.685 231.868 138.696 231.828 138.705C231.787 138.714 231.747 138.722 231.706 138.728C231.665 138.734 231.623 138.738 231.579 138.741Z" fill="white"/>
<path d="M163.105 167.924L181.828 133.514L197.262 152.35L163.105 167.924Z" fill="#FF529A"/>
<path d="M389.049 404.337L389.549 405.118C390.508 406.617 391.391 408.156 392.198 409.735C393.005 411.314 393.731 412.924 394.378 414.567C395.025 416.21 395.589 417.879 396.071 419.575C396.553 421.271 396.949 422.986 397.26 424.72C397.555 426.377 397.768 428.039 397.898 429.705C398.028 431.371 398.074 433.033 398.037 434.692C398.001 436.347 397.881 437.998 397.679 439.641C397.477 441.278 397.192 442.905 396.824 444.513C396.464 446.094 396.021 447.655 395.497 449.189C394.976 450.712 394.376 452.206 393.697 453.665C392.348 456.57 390.692 459.323 388.757 461.875C384.78 467.096 379.677 471.354 373.827 474.331L373.268 474.616C371.814 475.36 370.321 476.024 368.795 476.605C367.27 477.186 365.714 477.685 364.135 478.099C362.552 478.514 360.947 478.844 359.329 479.089C357.701 479.335 356.061 479.495 354.416 479.568C352.816 479.635 351.218 479.627 349.621 479.544C348.024 479.461 346.433 479.3 344.846 479.059C343.263 478.822 341.689 478.509 340.124 478.121C338.559 477.733 337.014 477.272 335.488 476.737C332.362 475.644 329.343 474.268 326.467 472.627C317.85 467.701 310.704 460.565 305.767 451.954L305.336 451.204C304.509 449.773 303.751 448.312 303.061 446.821C302.371 445.33 301.751 443.816 301.201 442.281C300.652 440.744 300.175 439.187 299.77 437.61C299.365 436.033 299.033 434.443 298.776 432.84C298.532 431.313 298.358 429.782 298.255 428.245C298.152 426.708 298.118 425.179 298.155 423.656C298.192 422.131 298.3 420.612 298.478 419.101C298.656 417.59 298.904 416.092 299.222 414.607C299.537 413.135 299.92 411.687 300.372 410.262C300.824 408.837 301.343 407.442 301.929 406.076C302.514 404.71 303.165 403.377 303.881 402.076C304.597 400.775 305.376 399.512 306.218 398.286C309.718 393.212 314.255 388.939 319.53 385.75L320.04 385.44C322.72 383.813 325.564 382.472 328.524 381.44C330.013 380.92 331.528 380.478 333.063 380.115C334.612 379.746 336.179 379.457 337.758 379.25C339.318 379.05 340.887 378.926 342.464 378.879C344.041 378.832 345.622 378.861 347.206 378.966C348.791 379.071 350.373 379.253 351.952 379.511C353.531 379.769 355.104 380.102 356.67 380.511C359.959 381.376 363.158 382.552 366.224 384.022C369.298 385.495 372.227 387.251 374.975 389.268C380.564 393.371 385.337 398.482 389.049 404.337Z" fill="#FF529A"/>
<path d="M295.762 363.14L332.314 383.484L312.214 402.184L295.762 363.14Z" fill="#FF529A"/>
<path d="M347.75 456.274C346.607 456.191 345.467 456.037 344.339 455.813C343.211 455.589 342.095 455.296 340.997 454.936C339.901 454.576 338.823 454.15 337.772 453.659C336.721 453.169 335.697 452.615 334.706 452C334.596 451.931 334.485 451.861 334.374 451.79C334.262 451.718 334.151 451.646 334.038 451.571C333.926 451.497 333.813 451.421 333.699 451.344C333.585 451.267 333.469 451.188 333.353 451.107L333.336 451.111L333.229 451.104L333.101 451.128C333.056 451.136 333.01 451.144 332.964 451.15C332.918 451.157 332.871 451.162 332.825 451.167C332.778 451.171 332.731 451.175 332.683 451.178C332.636 451.18 332.588 451.182 332.54 451.183L332.533 451.183L332.526 451.183C332.5 451.183 332.473 451.183 332.447 451.182C332.421 451.182 332.394 451.181 332.368 451.18C332.342 451.179 332.315 451.178 332.289 451.177C332.262 451.175 332.236 451.174 332.21 451.172C332.188 451.17 332.166 451.169 332.144 451.167C332.122 451.165 332.1 451.163 332.078 451.161C332.056 451.159 332.034 451.156 332.012 451.154C331.99 451.151 331.969 451.148 331.947 451.145L331.57 451.119L331.536 451.117L331.502 451.112C331.461 451.107 331.419 451.101 331.377 451.094C331.335 451.087 331.293 451.079 331.251 451.071C331.209 451.062 331.167 451.052 331.125 451.041C331.083 451.031 331.041 451.019 330.999 451.006C330.959 450.996 330.92 450.986 330.88 450.974C330.84 450.963 330.8 450.951 330.761 450.938C330.721 450.925 330.681 450.911 330.642 450.897C330.602 450.882 330.563 450.867 330.523 450.852C330.463 450.829 330.403 450.805 330.344 450.779C330.284 450.754 330.224 450.728 330.165 450.701C330.106 450.674 330.046 450.646 329.988 450.617C329.929 450.588 329.87 450.558 329.812 450.527L329.769 450.504L329.727 450.478L329.621 450.412C329.547 450.368 329.474 450.322 329.403 450.274C329.331 450.226 329.26 450.177 329.191 450.125C329.121 450.073 329.053 450.019 328.986 449.963C328.919 449.907 328.853 449.85 328.788 449.79L328.761 449.765L328.734 449.738L328.466 449.464L328.451 449.449L328.436 449.433C328.376 449.368 328.318 449.301 328.261 449.233C328.204 449.164 328.149 449.095 328.095 449.023C328.042 448.952 327.99 448.879 327.94 448.805C327.89 448.731 327.842 448.655 327.796 448.579L327.781 448.553L327.766 448.528C327.634 448.287 327.519 448.041 327.419 447.789C327.32 447.538 327.238 447.282 327.172 447.022C327.107 446.763 327.058 446.5 327.027 446.235C326.996 445.971 326.982 445.705 326.986 445.438C326.978 445.427 326.971 445.416 326.964 445.405C326.958 445.394 326.951 445.384 326.945 445.374C326.939 445.364 326.933 445.355 326.928 445.346C326.923 445.337 326.918 445.328 326.913 445.321C326.9 445.299 326.887 445.277 326.874 445.255C326.862 445.233 326.849 445.21 326.836 445.187C326.823 445.164 326.81 445.141 326.797 445.117C326.784 445.093 326.771 445.069 326.758 445.045L326.087 444.1C325.636 443.465 325.211 442.815 324.812 442.151C324.413 441.487 324.04 440.81 323.693 440.121C323.347 439.432 323.028 438.73 322.736 438.017C322.444 437.305 322.179 436.581 321.942 435.848C321.705 435.114 321.497 434.375 321.319 433.632C321.14 432.888 320.991 432.141 320.872 431.39C320.752 430.639 320.663 429.885 320.603 429.129C320.542 428.374 320.512 427.616 320.512 426.858L320.512 426.853L320.512 426.847C320.512 426.763 320.514 426.68 320.517 426.597C320.519 426.515 320.522 426.433 320.526 426.352C320.53 426.271 320.534 426.191 320.539 426.112C320.544 426.032 320.548 425.954 320.553 425.876C320.558 425.803 320.562 425.732 320.566 425.662C320.57 425.591 320.574 425.522 320.577 425.453C320.581 425.385 320.583 425.317 320.586 425.25C320.588 425.182 320.589 425.116 320.59 425.05L320.59 425.025L320.591 425C320.593 424.949 320.596 424.897 320.6 424.845C320.603 424.793 320.608 424.741 320.612 424.689C320.617 424.637 320.622 424.586 320.626 424.536C320.631 424.485 320.636 424.436 320.641 424.388C320.643 424.367 320.646 424.345 320.648 424.324C320.65 424.303 320.652 424.282 320.654 424.261C320.656 424.241 320.658 424.22 320.66 424.2C320.662 424.181 320.664 424.161 320.665 424.142C320.668 424.103 320.673 424.064 320.677 424.027C320.682 423.989 320.687 423.952 320.692 423.916C320.698 423.88 320.704 423.845 320.709 423.811C320.715 423.777 320.721 423.743 320.727 423.711C320.731 423.685 320.736 423.658 320.741 423.631C320.746 423.603 320.75 423.575 320.754 423.549C320.758 423.523 320.762 423.498 320.764 423.475C320.766 423.453 320.768 423.433 320.768 423.418L320.769 423.32L320.783 423.225C320.946 422.167 321.201 421.139 321.544 420.149C321.887 419.159 322.317 418.208 322.828 417.307C323.34 416.405 323.932 415.554 324.6 414.762C325.268 413.97 326.012 413.239 326.825 412.578C327.635 411.92 328.501 411.344 329.411 410.852C330.322 410.361 331.277 409.954 332.265 409.637C333.253 409.319 334.274 409.091 335.315 408.956C336.357 408.821 337.42 408.779 338.492 408.835L338.545 408.838C339.374 408.884 340.197 408.984 341.011 409.139C341.825 409.293 342.629 409.501 343.419 409.761C344.209 410.021 344.985 410.334 345.741 410.696C346.498 411.059 347.236 411.473 347.949 411.935C348.668 411.553 349.411 411.221 350.174 410.941C350.937 410.659 351.719 410.429 352.516 410.251C353.314 410.073 354.126 409.948 354.949 409.875C355.773 409.803 356.606 409.785 357.446 409.821L357.549 409.826C358.134 409.856 358.715 409.914 359.293 410C359.87 410.085 360.444 410.198 361.012 410.338C361.58 410.478 362.144 410.646 362.701 410.84C363.258 411.035 363.809 411.256 364.353 411.505C364.897 411.753 365.428 412.026 365.944 412.322C366.46 412.618 366.963 412.937 367.449 413.28C367.936 413.622 368.408 413.988 368.864 414.375C369.319 414.763 369.759 415.173 370.181 415.605C370.911 416.346 371.579 417.144 372.18 417.987C372.781 418.83 373.314 419.719 373.774 420.641C374.234 421.564 374.62 422.521 374.927 423.501C375.235 424.48 375.463 425.483 375.606 426.496L375.614 426.553L375.617 426.61C375.62 426.669 375.625 426.728 375.629 426.787C375.634 426.846 375.64 426.905 375.646 426.963C375.653 427.021 375.66 427.078 375.668 427.135C375.675 427.193 375.684 427.249 375.693 427.305C375.708 427.389 375.721 427.472 375.731 427.556C375.742 427.64 375.751 427.724 375.757 427.807C375.763 427.891 375.767 427.974 375.769 428.058C375.771 428.141 375.771 428.224 375.769 428.307C375.782 428.462 375.793 428.617 375.802 428.773C375.81 428.929 375.817 429.085 375.822 429.242C375.827 429.399 375.83 429.556 375.83 429.714C375.831 429.871 375.829 430.028 375.826 430.185C375.825 430.765 375.793 431.362 375.729 431.974C375.666 432.586 375.571 433.214 375.445 433.857C375.319 434.499 375.162 435.157 374.974 435.827C374.786 436.498 374.568 437.182 374.319 437.878C374.126 438.416 373.916 438.957 373.691 439.499C373.465 440.041 373.224 440.584 372.969 441.124C372.714 441.664 372.444 442.201 372.162 442.733C371.88 443.264 371.586 443.789 371.28 444.305L371.985 445.037L371.992 445.044L371.999 445.051C372.024 445.077 372.048 445.104 372.072 445.131C372.097 445.159 372.121 445.186 372.145 445.214C372.168 445.242 372.192 445.27 372.215 445.299C372.238 445.328 372.261 445.357 372.284 445.386C372.313 445.419 372.342 445.453 372.369 445.488C372.397 445.522 372.424 445.557 372.45 445.593C372.476 445.628 372.501 445.664 372.525 445.701C372.549 445.738 372.573 445.775 372.595 445.812C372.672 445.926 372.744 446.043 372.812 446.161C372.88 446.28 372.943 446.401 373.001 446.523C373.06 446.646 373.113 446.771 373.163 446.898C373.212 447.024 373.256 447.153 373.296 447.283C373.33 447.363 373.36 447.446 373.384 447.529C373.408 447.612 373.427 447.697 373.44 447.782C373.453 447.867 373.461 447.953 373.463 448.038C373.465 448.124 373.461 448.209 373.451 448.293L373.449 448.311L373.447 448.328C373.432 448.43 373.422 448.511 373.414 448.576C373.406 448.641 373.401 448.691 373.398 448.729C373.395 448.768 373.394 448.795 373.393 448.816C373.393 448.837 373.393 448.853 373.394 448.866L373.395 448.893L373.395 448.919L373.394 448.959C373.395 448.977 373.396 448.996 373.396 449.015C373.397 449.033 373.397 449.052 373.397 449.07C373.397 449.089 373.397 449.107 373.397 449.126C373.396 449.144 373.396 449.163 373.395 449.181C373.397 449.222 373.399 449.262 373.399 449.302C373.4 449.342 373.4 449.383 373.399 449.423C373.398 449.463 373.397 449.503 373.395 449.543C373.393 449.583 373.39 449.623 373.386 449.662L373.374 449.791L373.338 449.914C373.336 449.922 373.333 449.93 373.331 449.939C373.329 449.947 373.327 449.955 373.325 449.963C373.323 449.971 373.321 449.979 373.319 449.986C373.317 449.994 373.315 450.002 373.313 450.01C373.312 450.035 373.31 450.06 373.307 450.085C373.305 450.109 373.301 450.134 373.297 450.159C373.293 450.183 373.289 450.208 373.284 450.232C373.278 450.257 373.272 450.281 373.266 450.305C373.254 450.349 373.241 450.393 373.227 450.437C373.214 450.482 373.199 450.526 373.183 450.57C373.167 450.614 373.15 450.658 373.132 450.701C373.114 450.745 373.095 450.789 373.075 450.832C373.072 450.839 373.069 450.847 373.066 450.854C373.062 450.861 373.059 450.868 373.056 450.875C373.053 450.882 373.049 450.889 373.046 450.896C373.043 450.903 373.04 450.91 373.036 450.916L373.035 451.08L372.815 451.402C372.752 451.494 372.686 451.584 372.616 451.672C372.547 451.759 372.475 451.843 372.399 451.925C372.324 452.007 372.246 452.085 372.165 452.161C372.084 452.237 372 452.31 371.913 452.379C371.666 452.602 371.4 452.796 371.117 452.961C370.835 453.125 370.537 453.261 370.227 453.365C369.917 453.469 369.594 453.542 369.264 453.584C368.933 453.625 368.594 453.635 368.25 453.611L367.968 453.591C367.95 453.591 367.932 453.591 367.913 453.591C367.895 453.591 367.876 453.59 367.858 453.59C367.839 453.589 367.82 453.588 367.802 453.587C367.783 453.586 367.765 453.585 367.747 453.584C367.722 453.582 367.697 453.58 367.671 453.578C367.646 453.575 367.621 453.573 367.596 453.57C367.571 453.566 367.546 453.563 367.521 453.56C367.496 453.556 367.471 453.552 367.446 453.548L367.369 453.535L367.294 453.513L366.939 453.412L366.887 453.397L366.837 453.379C366.749 453.347 366.663 453.312 366.577 453.276C366.491 453.239 366.406 453.201 366.322 453.16C366.238 453.119 366.156 453.076 366.074 453.031C365.992 452.987 365.912 452.94 365.833 452.891L365.82 452.883L365.808 452.876L365.54 452.703L365.486 452.669L365.436 452.629L365.176 452.429L365.117 452.384L365.063 452.332L364.986 452.259L364.98 452.254L364.974 452.248L364.707 451.99L364.679 451.963L364.652 451.935L364.549 451.825C364.495 451.861 364.44 451.898 364.386 451.934C364.332 451.97 364.277 452.005 364.223 452.04C364.169 452.075 364.115 452.109 364.062 452.143C364.008 452.177 363.954 452.211 363.901 452.244C362.832 452.929 361.717 453.531 360.565 454.048C359.414 454.565 358.226 454.996 357.01 455.341C355.795 455.685 354.552 455.942 353.288 456.11C352.027 456.278 350.745 456.356 349.452 456.344C349.311 456.342 349.169 456.34 349.027 456.336C348.886 456.332 348.743 456.328 348.601 456.322C348.459 456.316 348.317 456.309 348.175 456.301C348.033 456.293 347.891 456.284 347.75 456.274ZM333.636 448.114L334.254 448.559C334.408 448.669 334.558 448.776 334.707 448.879C334.855 448.983 335.001 449.083 335.145 449.18C335.29 449.277 335.432 449.371 335.573 449.462C335.714 449.554 335.854 449.642 335.993 449.729C336.888 450.283 337.812 450.782 338.761 451.223C339.71 451.665 340.683 452.048 341.673 452.372C342.663 452.695 343.671 452.959 344.688 453.16C345.706 453.36 346.735 453.499 347.766 453.572C347.894 453.581 348.021 453.589 348.149 453.596C348.277 453.603 348.406 453.609 348.534 453.614C348.662 453.619 348.79 453.624 348.918 453.627C349.046 453.63 349.174 453.632 349.302 453.633C350.469 453.643 351.625 453.571 352.764 453.418C353.904 453.265 355.026 453.032 356.122 452.72C357.219 452.407 358.291 452.016 359.328 451.549C360.367 451.081 361.372 450.536 362.336 449.917L362.346 449.911L362.355 449.905C362.47 449.834 362.587 449.76 362.704 449.683C362.821 449.607 362.939 449.527 363.059 449.444C363.179 449.362 363.3 449.276 363.423 449.187C363.547 449.097 363.672 449.005 363.8 448.908L364.76 448.183L365.634 449.119L366.566 450.114L366.799 450.34L366.816 450.356L366.965 450.471L367.166 450.599C367.199 450.62 367.233 450.639 367.267 450.658C367.301 450.676 367.336 450.694 367.371 450.712C367.406 450.729 367.442 450.745 367.477 450.761C367.513 450.777 367.549 450.792 367.586 450.806L367.777 450.86L367.78 450.86L367.782 450.86L367.785 450.86L367.787 450.86L367.856 450.858L367.924 450.863L368.263 450.886C368.428 450.897 368.591 450.892 368.749 450.872C368.908 450.851 369.063 450.815 369.212 450.764C369.36 450.713 369.503 450.647 369.638 450.567C369.774 450.487 369.901 450.392 370.019 450.284L370.054 450.252L370.09 450.223C370.116 450.202 370.141 450.182 370.166 450.16C370.19 450.139 370.215 450.117 370.238 450.094C370.262 450.071 370.285 450.048 370.307 450.024C370.33 450 370.352 449.976 370.373 449.951C370.389 449.905 370.406 449.863 370.423 449.824C370.44 449.785 370.458 449.749 370.475 449.716C370.493 449.683 370.51 449.653 370.526 449.627C370.542 449.6 370.557 449.577 370.569 449.557C370.57 449.555 370.571 449.553 370.572 449.551C370.573 449.549 370.574 449.547 370.575 449.545C370.576 449.543 370.577 449.54 370.577 449.538C370.578 449.536 370.579 449.534 370.58 449.532L370.581 449.528C370.585 449.498 370.59 449.467 370.595 449.437C370.601 449.406 370.607 449.375 370.613 449.344C370.619 449.314 370.625 449.283 370.632 449.252C370.639 449.222 370.646 449.191 370.654 449.16C370.654 449.157 370.654 449.154 370.654 449.152C370.653 449.149 370.653 449.146 370.653 449.143C370.653 449.14 370.653 449.137 370.653 449.135C370.652 449.132 370.652 449.129 370.652 449.126L370.644 449.023L370.651 448.922L370.651 448.917C370.651 448.917 370.651 448.913 370.651 448.911C370.651 448.909 370.651 448.907 370.651 448.904C370.651 448.902 370.651 448.899 370.651 448.896L370.648 448.852L370.649 448.809L370.649 448.757C370.648 448.708 370.647 448.659 370.648 448.608C370.648 448.558 370.65 448.504 370.654 448.445C370.657 448.387 370.662 448.323 370.669 448.251C370.676 448.179 370.685 448.099 370.697 448.009L370.69 447.984C370.671 447.915 370.649 447.847 370.624 447.78C370.6 447.713 370.572 447.647 370.542 447.583C370.512 447.518 370.479 447.455 370.444 447.393C370.408 447.331 370.37 447.27 370.33 447.21L370.294 447.159L370.263 447.104L370.21 447.047L370.164 446.986C370.156 446.975 370.147 446.963 370.138 446.952C370.129 446.94 370.12 446.929 370.111 446.918C370.102 446.908 370.093 446.897 370.083 446.886C370.074 446.876 370.065 446.865 370.056 446.855L368.854 445.607L368.847 445.6L368.84 445.592L367.459 444.118L364.709 441.187L363.253 439.689L363.241 439.678L363.231 439.666L354.131 429.899L352.485 428.132L354.762 427.675C354.882 427.651 354.998 427.618 355.111 427.577C355.223 427.535 355.332 427.485 355.435 427.427C355.539 427.369 355.637 427.303 355.731 427.229C355.824 427.155 355.911 427.073 355.993 426.984C356.07 426.899 356.141 426.808 356.204 426.713C356.267 426.618 356.323 426.519 356.371 426.415C356.419 426.312 356.459 426.205 356.491 426.094C356.523 425.984 356.547 425.87 356.563 425.754L356.565 425.442L356.565 425.405L356.567 425.368C356.568 425.356 356.569 425.343 356.569 425.331C356.569 425.319 356.57 425.307 356.57 425.294C356.57 425.282 356.57 425.27 356.569 425.258C356.569 425.245 356.569 425.233 356.568 425.221L356.562 425.096L356.578 424.976C356.556 424.854 356.525 424.733 356.485 424.616C356.446 424.499 356.398 424.385 356.342 424.274C356.286 424.164 356.222 424.057 356.15 423.955C356.078 423.852 355.998 423.754 355.911 423.662L352.736 420.295L351.321 418.795L353.178 418.119C353.514 417.996 353.854 417.892 354.199 417.805C354.543 417.718 354.892 417.649 355.244 417.597C355.597 417.546 355.953 417.512 356.311 417.496C356.67 417.48 357.032 417.483 357.396 417.503C357.556 417.511 357.717 417.524 357.877 417.54C358.037 417.556 358.197 417.575 358.357 417.598C358.517 417.621 358.677 417.648 358.836 417.678C358.995 417.708 359.154 417.741 359.312 417.778C359.83 417.899 360.338 418.056 360.833 418.248C361.328 418.439 361.809 418.665 362.274 418.924C362.739 419.182 363.187 419.474 363.616 419.796C364.045 420.118 364.453 420.471 364.839 420.853L364.845 420.859L364.852 420.866C365.282 421.304 365.675 421.774 366.028 422.272C366.38 422.769 366.692 423.292 366.961 423.836C367.23 424.38 367.455 424.943 367.633 425.52C367.811 426.097 367.942 426.687 368.023 427.284L368.035 427.379L368.035 427.475L368.033 427.781L368.023 429.784L368.023 429.829L368.02 429.873C367.97 430.556 367.893 431.232 367.789 431.901C367.684 432.57 367.552 433.232 367.393 433.885C367.233 434.538 367.046 435.182 366.833 435.818C366.619 436.453 366.378 437.079 366.11 437.694L369.544 441.676C370.1 440.654 370.599 439.622 371.035 438.596C371.47 437.57 371.842 436.55 372.144 435.555C372.447 434.56 372.68 433.589 372.837 432.66C372.995 431.731 373.076 430.844 373.077 430.016L373.077 430.001L373.077 429.986C373.081 429.846 373.082 429.705 373.081 429.564C373.081 429.424 373.078 429.283 373.073 429.143C373.069 429.003 373.063 428.864 373.054 428.725C373.046 428.586 373.035 428.448 373.023 428.31L373.015 428.216L373.02 428.122C373.022 428.082 373.022 428.042 373.022 428.002C373.022 427.961 373.02 427.921 373.017 427.88C373.015 427.839 373.011 427.798 373.006 427.757C373.001 427.716 372.994 427.675 372.987 427.634L372.985 427.624L372.983 427.614C372.971 427.538 372.959 427.461 372.948 427.384C372.937 427.306 372.928 427.228 372.919 427.15C372.91 427.072 372.902 426.993 372.895 426.914C372.888 426.835 372.882 426.756 372.877 426.677C372.753 425.819 372.558 424.971 372.296 424.142C372.034 423.313 371.706 422.504 371.316 421.723C370.925 420.942 370.473 420.189 369.964 419.475C369.455 418.761 368.889 418.084 368.271 417.455C367.911 417.087 367.538 416.738 367.15 416.408C366.763 416.078 366.362 415.766 365.948 415.475C365.535 415.183 365.108 414.911 364.669 414.659C364.231 414.407 363.78 414.175 363.317 413.963C362.855 413.751 362.387 413.562 361.914 413.397C361.44 413.231 360.961 413.088 360.478 412.968C359.995 412.848 359.508 412.752 359.017 412.679C358.526 412.605 358.031 412.555 357.534 412.529L357.45 412.525C356.668 412.49 355.891 412.511 355.125 412.586C354.359 412.662 353.604 412.791 352.864 412.973C352.125 413.155 351.401 413.39 350.698 413.676C349.996 413.963 349.314 414.3 348.658 414.688L347.922 415.124L347.194 414.604C346.546 414.143 345.873 413.73 345.179 413.367C344.486 413.005 343.771 412.693 343.041 412.434C342.312 412.174 341.567 411.967 340.811 411.814C340.056 411.661 339.291 411.562 338.52 411.519L338.475 411.516C337.562 411.468 336.657 411.502 335.769 411.616C334.882 411.73 334.013 411.924 333.171 412.193C332.329 412.463 331.515 412.808 330.739 413.226C329.963 413.644 329.225 414.135 328.534 414.695C327.846 415.253 327.216 415.871 326.649 416.54C326.083 417.208 325.58 417.927 325.145 418.689C324.71 419.45 324.343 420.253 324.049 421.089C323.756 421.925 323.536 422.793 323.394 423.686C323.391 423.746 323.387 423.804 323.381 423.86C323.376 423.917 323.369 423.971 323.362 424.023C323.354 424.075 323.347 424.125 323.339 424.173C323.331 424.221 323.323 424.267 323.315 424.311C323.312 424.328 323.308 424.347 323.305 424.366C323.302 424.384 323.299 424.403 323.296 424.421C323.293 424.438 323.29 424.455 323.288 424.47C323.286 424.484 323.285 424.497 323.284 424.506C323.282 424.529 323.28 424.552 323.278 424.575C323.276 424.599 323.273 424.622 323.271 424.647C323.269 424.671 323.266 424.696 323.264 424.721C323.261 424.746 323.259 424.771 323.256 424.796C323.252 424.835 323.248 424.874 323.244 424.912C323.24 424.951 323.237 424.989 323.233 425.026C323.23 425.064 323.227 425.1 323.224 425.135C323.221 425.17 323.219 425.204 323.218 425.235C323.217 425.317 323.215 425.398 323.212 425.478C323.21 425.558 323.207 425.637 323.203 425.716C323.199 425.794 323.195 425.872 323.19 425.949C323.186 426.027 323.181 426.103 323.176 426.179C323.172 426.251 323.168 426.322 323.164 426.392C323.159 426.462 323.156 426.531 323.152 426.599C323.149 426.668 323.146 426.735 323.144 426.802C323.142 426.869 323.141 426.935 323.14 427.001C323.141 427.688 323.168 428.374 323.223 429.058C323.278 429.743 323.359 430.426 323.468 431.106C323.576 431.786 323.711 432.463 323.873 433.136C324.035 433.809 324.224 434.479 324.438 435.143C324.642 435.772 324.868 436.393 325.117 437.005C325.365 437.617 325.636 438.22 325.928 438.814C326.22 439.407 326.534 439.99 326.87 440.563C327.205 441.136 327.562 441.697 327.94 442.248L327.984 442.151L328.083 441.934L328.252 441.772L331.114 439.028L331.131 439.012L331.147 438.997L331.349 438.818L331.199 438.608L331.172 438.571L331.148 438.532C330.613 437.677 330.142 436.793 329.736 435.887C329.331 434.981 328.992 434.052 328.72 433.107C328.449 432.163 328.244 431.202 328.11 430.231C327.975 429.261 327.909 428.28 327.914 427.296C327.914 427.178 327.915 427.06 327.917 426.943C327.92 426.825 327.923 426.707 327.929 426.591C327.934 426.474 327.94 426.357 327.948 426.242C327.956 426.126 327.966 426.011 327.977 425.896C327.975 425.86 327.975 425.823 327.974 425.786C327.974 425.75 327.974 425.713 327.974 425.677C327.975 425.64 327.976 425.603 327.977 425.567C327.979 425.53 327.981 425.494 327.983 425.458L327.984 425.32L327.984 425.276L327.987 425.231C327.99 425.193 327.994 425.155 327.998 425.117C328.002 425.078 328.006 425.04 328.012 425.001C328.017 424.962 328.023 424.923 328.03 424.884C328.036 424.845 328.044 424.806 328.052 424.767C328.148 424.133 328.302 423.516 328.509 422.925C328.716 422.333 328.976 421.765 329.286 421.228C329.596 420.692 329.955 420.186 330.361 419.717C330.766 419.248 331.218 418.816 331.712 418.428C332.184 418.057 332.687 417.733 333.215 417.457C333.742 417.182 334.295 416.954 334.865 416.777C335.435 416.6 336.023 416.473 336.622 416.399C337.221 416.326 337.832 416.305 338.446 416.338C338.476 416.34 338.506 416.342 338.536 416.344C338.566 416.346 338.597 416.348 338.627 416.35C338.657 416.352 338.687 416.355 338.718 416.357C338.748 416.359 338.778 416.362 338.808 416.365C338.959 416.377 339.109 416.394 339.26 416.413C339.411 416.433 339.561 416.455 339.711 416.482C339.862 416.508 340.012 416.538 340.161 416.57C340.31 416.603 340.459 416.64 340.607 416.679C340.717 416.707 340.826 416.736 340.936 416.767C341.045 416.798 341.155 416.831 341.264 416.866C341.372 416.901 341.481 416.937 341.589 416.975C341.696 417.013 341.803 417.052 341.91 417.094C341.992 417.125 342.075 417.157 342.157 417.191C342.239 417.224 342.321 417.259 342.403 417.295C342.484 417.33 342.565 417.367 342.646 417.405C342.726 417.443 342.806 417.481 342.886 417.521L343.212 417.675L346.296 419.128L343.171 420.169L342.992 420.229L342.802 420.316L342.605 420.424L342.407 420.573L342.33 420.637L342.199 420.775C342.188 420.787 342.177 420.8 342.166 420.812C342.155 420.824 342.144 420.837 342.134 420.849C342.123 420.862 342.113 420.875 342.103 420.887C342.093 420.9 342.083 420.913 342.074 420.925L342.065 420.937L342.057 420.948C342.011 421.006 341.97 421.067 341.931 421.129C341.893 421.192 341.858 421.256 341.827 421.322C341.795 421.388 341.767 421.456 341.743 421.526C341.719 421.595 341.699 421.667 341.682 421.739C341.669 421.797 341.658 421.855 341.649 421.914C341.64 421.972 341.633 422.031 341.628 422.09C341.623 422.149 341.62 422.208 341.619 422.267C341.618 422.327 341.619 422.386 341.622 422.445L341.622 422.448L341.622 422.452C341.624 422.49 341.626 422.529 341.63 422.567C341.633 422.606 341.638 422.644 341.643 422.682C341.648 422.72 341.654 422.758 341.661 422.796C341.668 422.833 341.676 422.871 341.685 422.908L341.738 423.13C341.748 423.159 341.759 423.188 341.77 423.217C341.781 423.246 341.793 423.275 341.805 423.304C341.817 423.333 341.83 423.362 341.843 423.391C341.856 423.42 341.869 423.449 341.883 423.478L341.998 423.675C342.005 423.687 342.012 423.699 342.02 423.71C342.027 423.722 342.035 423.734 342.043 423.746C342.051 423.758 342.06 423.77 342.069 423.782C342.077 423.794 342.086 423.807 342.096 423.82L342.102 423.828L342.109 423.837L342.214 423.982L342.233 424.005L342.315 424.1L344.453 426.389L344.476 426.414L344.498 426.439L345.759 427.922L347.069 429.314L349.722 432.138L351.046 433.555L352.386 434.944L352.396 434.954L352.405 434.964L360.144 443.306L361.232 444.479L359.99 445.333C359.843 445.434 359.697 445.532 359.552 445.627C359.407 445.721 359.263 445.813 359.12 445.902C358.977 445.99 358.835 446.075 358.694 446.157C358.554 446.239 358.415 446.317 358.277 446.392C357.617 446.753 356.933 447.075 356.23 447.354C355.528 447.634 354.807 447.872 354.073 448.067C353.34 448.262 352.593 448.415 351.839 448.523C351.084 448.632 350.322 448.696 349.556 448.715C349.402 448.719 349.246 448.721 349.091 448.722C348.935 448.722 348.779 448.72 348.623 448.717C348.467 448.713 348.311 448.708 348.155 448.701C347.999 448.694 347.844 448.685 347.688 448.674C347.073 448.632 346.461 448.562 345.853 448.464C345.246 448.367 344.644 448.242 344.047 448.089C343.45 447.937 342.859 447.758 342.274 447.551C341.69 447.345 341.112 447.112 340.542 446.852C340.374 446.777 340.205 446.699 340.037 446.618C339.869 446.537 339.701 446.454 339.534 446.368C339.367 446.283 339.2 446.195 339.034 446.104C338.868 446.014 338.703 445.921 338.539 445.826L336.899 444.879L338.21 443.652L346.854 435.564L346.471 435.152L343.822 432.314L343.433 431.895L330.367 444.182C330.303 444.266 330.24 444.35 330.179 444.435C330.117 444.52 330.056 444.605 329.996 444.692C329.937 444.778 329.878 444.865 329.82 444.952C329.762 445.039 329.706 445.127 329.65 445.216C329.65 445.227 329.649 445.239 329.648 445.25C329.647 445.261 329.646 445.273 329.645 445.284C329.644 445.296 329.643 445.307 329.642 445.319C329.641 445.331 329.64 445.342 329.638 445.354L329.638 445.43L329.638 445.464L329.636 445.498C329.627 445.653 329.629 445.809 329.642 445.963C329.655 446.118 329.679 446.272 329.713 446.424C329.748 446.576 329.793 446.726 329.848 446.873C329.903 447.02 329.969 447.165 330.045 447.305C330.064 447.336 330.084 447.366 330.104 447.396C330.124 447.426 330.145 447.455 330.167 447.484C330.188 447.512 330.211 447.54 330.233 447.568C330.256 447.595 330.279 447.622 330.303 447.648L330.524 447.874C330.551 447.897 330.577 447.92 330.604 447.942C330.632 447.964 330.659 447.985 330.687 448.005C330.715 448.026 330.743 448.045 330.771 448.064C330.8 448.082 330.828 448.1 330.857 448.117L330.873 448.126L330.888 448.136L330.964 448.183C330.994 448.199 331.024 448.214 331.055 448.228C331.086 448.243 331.116 448.257 331.147 448.271C331.178 448.285 331.208 448.298 331.239 448.311C331.27 448.323 331.3 448.336 331.331 448.347L331.342 448.352L331.353 448.356C331.366 448.361 331.378 448.366 331.39 448.37C331.402 448.375 331.414 448.379 331.426 448.383C331.438 448.386 331.45 448.39 331.462 448.393C331.473 448.396 331.485 448.399 331.496 448.402L331.545 448.414L331.592 448.429C331.596 448.43 331.6 448.431 331.604 448.432C331.608 448.433 331.611 448.434 331.615 448.435C331.619 448.436 331.622 448.437 331.626 448.438C331.629 448.439 331.633 448.439 331.636 448.44L332.008 448.466L332.056 448.469L332.104 448.476C332.114 448.477 332.124 448.479 332.135 448.48C332.145 448.481 332.155 448.483 332.166 448.484C332.176 448.485 332.186 448.486 332.197 448.487C332.207 448.487 332.217 448.488 332.228 448.489C332.237 448.49 332.247 448.49 332.257 448.491C332.266 448.491 332.276 448.492 332.286 448.492C332.295 448.492 332.305 448.493 332.315 448.493C332.324 448.493 332.334 448.493 332.344 448.493C332.355 448.493 332.365 448.492 332.375 448.492C332.385 448.491 332.395 448.49 332.405 448.49C332.415 448.489 332.424 448.487 332.433 448.486C332.443 448.485 332.452 448.483 332.461 448.482L332.749 448.427L332.912 448.396L332.939 448.398C332.941 448.397 332.944 448.396 332.946 448.395C332.949 448.394 332.951 448.393 332.954 448.392C332.956 448.391 332.959 448.39 332.961 448.39C332.964 448.389 332.966 448.388 332.969 448.387L333.636 448.114ZM341.473 444.385C341.476 444.386 341.478 444.387 341.481 444.388C341.483 444.389 341.486 444.39 341.488 444.392C341.491 444.393 341.493 444.394 341.495 444.395C341.498 444.396 341.5 444.397 341.503 444.398L341.507 444.4L341.511 444.402C342.005 444.626 342.506 444.828 343.013 445.006C343.519 445.184 344.032 445.339 344.549 445.471C345.066 445.602 345.589 445.71 346.115 445.794C346.641 445.878 347.171 445.938 347.704 445.974C347.839 445.983 347.973 445.991 348.108 445.997C348.243 446.003 348.378 446.007 348.513 446.01C348.648 446.013 348.783 446.014 348.918 446.014C349.053 446.013 349.187 446.011 349.321 446.008C349.984 445.991 350.644 445.934 351.297 445.839C351.95 445.745 352.596 445.612 353.231 445.442C353.866 445.272 354.489 445.066 355.097 444.823C355.705 444.58 356.297 444.302 356.868 443.989C356.885 443.979 356.903 443.97 356.92 443.96C356.938 443.95 356.955 443.94 356.973 443.931C356.991 443.921 357.008 443.911 357.026 443.901C357.043 443.891 357.061 443.881 357.079 443.871L350.49 436.757L350.086 436.338L349.699 436.7L341.473 444.385ZM333.341 437.15L333.539 437.424L342.502 428.983L342.906 428.602L342.525 428.154L340.394 425.868L340.374 425.847L340.355 425.825L340.234 425.685L340.214 425.661L340.194 425.636L340.139 425.567L340.122 425.545L340.105 425.522L339.989 425.363C339.965 425.33 339.941 425.298 339.918 425.265C339.895 425.232 339.872 425.199 339.85 425.166C339.828 425.133 339.806 425.1 339.785 425.067C339.764 425.034 339.744 425.001 339.724 424.967L339.721 424.962L339.718 424.957L339.569 424.702L339.541 424.654L339.517 424.604C339.486 424.54 339.456 424.477 339.428 424.413C339.399 424.35 339.372 424.286 339.345 424.222C339.319 424.158 339.294 424.094 339.27 424.031C339.246 423.967 339.223 423.903 339.201 423.84C339.191 423.813 339.181 423.787 339.172 423.76C339.163 423.733 339.154 423.706 339.145 423.678C339.136 423.651 339.128 423.623 339.12 423.594C339.111 423.565 339.104 423.536 339.096 423.507L339.08 423.447L339.07 423.386C339.068 423.373 339.066 423.361 339.065 423.348C339.063 423.336 339.061 423.324 339.06 423.311C339.058 423.299 339.057 423.286 339.056 423.274C339.055 423.262 339.054 423.249 339.053 423.237C339.04 423.171 339.028 423.105 339.017 423.038C339.006 422.972 338.997 422.905 338.988 422.838C338.98 422.771 338.973 422.704 338.968 422.637C338.962 422.57 338.958 422.503 338.955 422.436C338.949 422.317 338.948 422.198 338.95 422.079C338.952 421.96 338.958 421.841 338.969 421.723C338.979 421.605 338.993 421.487 339.011 421.37C339.029 421.253 339.05 421.137 339.076 421.021L339.077 421.016L339.078 421.012C339.115 420.849 339.161 420.69 339.214 420.534C339.268 420.378 339.33 420.226 339.399 420.079C339.468 419.931 339.546 419.787 339.631 419.647C339.716 419.508 339.809 419.373 339.909 419.242C339.81 419.217 339.711 419.195 339.611 419.174C339.512 419.153 339.412 419.135 339.312 419.118C339.212 419.101 339.112 419.087 339.011 419.074C338.911 419.061 338.811 419.051 338.711 419.042L338.706 419.042L338.702 419.042C338.679 419.039 338.656 419.037 338.634 419.036C338.611 419.034 338.588 419.032 338.565 419.03C338.543 419.028 338.52 419.027 338.497 419.025C338.474 419.024 338.452 419.023 338.429 419.021C337.971 418.995 337.515 419.011 337.068 419.065C336.621 419.12 336.182 419.214 335.756 419.346C335.331 419.477 334.918 419.647 334.524 419.852C334.13 420.058 333.754 420.3 333.402 420.576C333.031 420.867 332.692 421.191 332.388 421.543C332.083 421.895 331.814 422.275 331.582 422.678C331.35 423.081 331.156 423.507 331.001 423.952C330.847 424.397 330.733 424.86 330.662 425.337L330.656 425.378L330.648 425.418C330.645 425.428 330.643 425.438 330.641 425.448C330.64 425.458 330.638 425.467 330.636 425.477C330.635 425.487 330.633 425.496 330.632 425.505C330.631 425.515 330.63 425.524 330.628 425.533L330.628 425.656L330.627 425.702L330.624 425.747C330.622 425.767 330.621 425.787 330.621 425.807C330.62 425.827 330.619 425.847 330.619 425.868C330.619 425.888 330.619 425.908 330.62 425.928C330.62 425.948 330.621 425.969 330.622 425.989L330.629 426.099L330.618 426.208C330.608 426.307 330.599 426.407 330.591 426.508C330.584 426.609 330.578 426.711 330.573 426.813C330.568 426.916 330.564 427.018 330.562 427.122C330.56 427.225 330.559 427.328 330.56 427.432L330.56 427.439L330.56 427.447C330.555 428.296 330.611 429.143 330.727 429.981C330.843 430.819 331.019 431.649 331.252 432.465C331.486 433.281 331.778 434.083 332.127 434.865C332.475 435.648 332.881 436.412 333.341 437.15ZM357.349 429.49L363.687 436.281C363.91 435.752 364.111 435.214 364.29 434.668C364.469 434.123 364.625 433.57 364.759 433.01C364.893 432.45 365.005 431.883 365.094 431.31C365.183 430.737 365.249 430.158 365.292 429.573L365.303 427.619L365.304 427.412C365.24 426.976 365.14 426.545 365.006 426.124C364.873 425.703 364.706 425.291 364.508 424.894C364.31 424.497 364.08 424.115 363.822 423.751C363.563 423.388 363.276 423.043 362.962 422.723C362.673 422.436 362.367 422.172 362.046 421.931C361.725 421.689 361.389 421.471 361.04 421.277C360.692 421.083 360.331 420.913 359.96 420.769C359.589 420.626 359.209 420.507 358.82 420.416C358.702 420.388 358.582 420.363 358.463 420.34C358.343 420.318 358.223 420.298 358.103 420.28C357.983 420.263 357.863 420.248 357.742 420.236C357.622 420.224 357.501 420.214 357.381 420.207C357.289 420.202 357.197 420.199 357.106 420.196C357.014 420.194 356.923 420.194 356.831 420.195C356.74 420.196 356.649 420.198 356.558 420.202C356.468 420.206 356.377 420.211 356.287 420.218L357.837 421.859C358.026 422.061 358.199 422.274 358.355 422.497C358.51 422.72 358.648 422.953 358.768 423.194C358.887 423.435 358.989 423.684 359.071 423.94C359.154 424.196 359.217 424.458 359.261 424.725L359.265 424.751L359.268 424.778C359.274 424.826 359.279 424.873 359.282 424.921C359.286 424.968 359.288 425.016 359.289 425.063C359.29 425.111 359.289 425.158 359.288 425.205C359.286 425.253 359.283 425.3 359.279 425.347C359.28 425.371 359.28 425.395 359.28 425.419C359.28 425.443 359.28 425.467 359.28 425.491C359.279 425.515 359.279 425.539 359.278 425.563C359.277 425.587 359.276 425.61 359.275 425.634L359.273 425.991L359.273 426.061L359.265 426.13C359.237 426.389 359.189 426.643 359.122 426.89C359.056 427.136 358.97 427.375 358.867 427.606C358.763 427.837 358.642 428.058 358.503 428.27C358.365 428.481 358.209 428.682 358.037 428.871C357.984 428.928 357.93 428.984 357.875 429.039C357.82 429.094 357.764 429.147 357.707 429.198C357.649 429.25 357.591 429.3 357.531 429.349C357.472 429.397 357.411 429.444 357.349 429.49Z" fill="white"/>
<path d="M327.876 443.765L327.129 442.962L328.783 441.388L329.531 442.191L327.876 443.765Z" fill="white"/>
<defs>
<filter id="filter0_d_5349_58711" x="41.2891" y="116.674" width="324.938" height="337.35" filterUnits="userSpaceOnUse" color-interpolation-filters="sRGB">
<feFlood flood-opacity="0" result="BackgroundImageFix"/>
<feColorMatrix in="SourceAlpha" type="matrix" values="0 0 0 0 0 0 0 0 0 0 0 0 0 0 0 0 0 0 127 0" result="hardAlpha"/>
<feOffset dy="3"/>
<feGaussianBlur stdDeviation="6"/>
<feComposite in2="hardAlpha" operator="out"/>
<feColorMatrix type="matrix" values="0 0 0 0 0.141176 0 0 0 0 0.172549 0 0 0 0 0.239216 0 0 0 0.1 0"/>
<feBlend mode="normal" in2="BackgroundImageFix" result="effect1_dropShadow_5349_58711"/>
<feBlend mode="normal" in="SourceGraphic" in2="effect1_dropShadow_5349_58711" result="shape"/>
</filter>
<linearGradient id="paint0_linear_5349_58711" x1="742.142" y1="-81.9199" x2="329.47" y2="326.441" gradientUnits="userSpaceOnUse">
<stop stop-color="#293143" stop-opacity="0"/>
<stop offset="1" stop-color="#FF9AC1" stop-opacity="0.122"/>
</linearGradient>
<linearGradient id="paint1_linear_5349_58711" x1="142" y1="99.5" x2="392.5" y2="550.5" gradientUnits="userSpaceOnUse">
<stop offset="0.123487" stop-color="#343447"/>
<stop offset="1" stop-color="#222839" stop-opacity="0"/>
</linearGradient>
<linearGradient id="paint2_linear_5349_58711" x1="120" y1="135" x2="324.5" y2="438.5" gradientUnits="userSpaceOnUse">
<stop stop-color="#343447"/>
<stop offset="1" stop-color="#464056"/>
</linearGradient>
</defs>
</svg>
