<svg width="1263" height="689" viewBox="0 0 1263 689" fill="none" xmlns="http://www.w3.org/2000/svg">
<path d="M650.754 567.14C404.4 552.398 382.269 613.94 257.514 599.514C-27.9663 566.508 -20.5602 196.34 108.959 103.579C238.478 10.8184 391.59 -13.4208 608.859 6.46615C826.128 26.3532 978.021 183.151 978.021 183.151C978.021 183.151 1352.1 480.842 1242.93 658.489C1182.39 757.007 897.108 581.884 650.754 567.14Z" fill="url(#paint0_linear_5349_58711)"/>
<path d="M201.846 58.5331C229.898 55.5933 258.254 58.6777 285.015 67.5796C312.037 76.6354 336.862 91.2437 357.891 110.464C380.037 130.685 397.748 155.271 409.908 182.671C423.009 212.196 429.705 244.156 429.556 276.451C429.556 309.026 422.691 341.236 409.409 370.985C396.926 398.97 378.832 424.101 356.246 444.825C334.722 464.619 309.3 479.706 281.606 489.122C254.846 498.148 226.474 501.405 198.361 498.678C170.249 495.95 143.035 487.301 118.512 473.301C95.8486 460.292 75.8251 443.157 59.4777 422.782C43.26 402.598 30.7099 379.73 22.3974 355.215C5.22198 304.101 6.2885 248.622 25.4158 198.204C34.6059 174.046 47.8554 151.631 64.5936 131.926C81.3993 112.104 101.656 95.4817 124.385 82.8636C148.3 69.621 174.649 61.3451 201.846 58.5331Z" fill="url(#paint1_linear_5349_58711)"/>
<path d="M187.966 88.003C211.617 85.8405 235.457 88.7932 257.863 96.6602C280.391 104.632 301.001 117.22 318.373 133.617C336.629 150.832 351.166 171.597 361.089 194.635C371.772 219.438 377.191 246.185 377.004 273.187C376.94 300.427 371.266 327.363 360.335 352.319C350.059 375.814 335.153 397.002 316.507 414.62C298.714 431.473 277.623 444.466 254.56 452.78C232.163 460.802 208.309 463.952 184.595 462.02C160.88 460.089 137.852 453.119 117.051 441.579C97.6516 430.747 80.4865 416.334 66.467 399.107C52.4624 381.923 41.6175 362.396 34.4355 341.431C26.9786 319.641 23.4123 296.712 23.8994 273.69C24.315 250.642 28.7362 227.842 36.9657 206.306C44.8934 185.566 56.3346 166.344 70.7883 149.481C85.2128 132.616 102.603 118.529 122.1 107.915C142.466 96.8597 164.881 90.0835 187.966 88.003Z" fill="url(#paint2_linear_5349_58711)"/>
<path d="M193.752 464.46C193.513 464.438 193.285 464.368 193.076 464.258C192.867 464.148 192.677 463.999 192.516 463.82C192.355 463.642 192.222 463.433 192.127 463.204C192.032 462.975 191.975 462.727 191.964 462.467C191.953 462.198 191.993 461.943 192.075 461.712C192.157 461.481 192.28 461.275 192.437 461.103C192.594 460.931 192.783 460.793 192.996 460.7C193.208 460.607 193.445 460.558 193.695 460.565C195.942 460.622 198.194 460.633 200.449 460.599C202.708 460.564 204.969 460.483 207.229 460.355C209.493 460.228 211.755 460.054 214.011 459.833C216.271 459.612 218.526 459.345 220.77 459.031C220.803 459.027 220.836 459.023 220.869 459.02C220.902 459.018 220.934 459.016 220.967 459.015C221 459.014 221.032 459.014 221.065 459.015C221.097 459.016 221.13 459.018 221.162 459.021C221.377 459.039 221.586 459.097 221.782 459.188C221.977 459.278 222.16 459.402 222.32 459.553C222.481 459.704 222.621 459.882 222.731 460.082C222.841 460.281 222.922 460.501 222.967 460.737C223.018 461.007 223.015 461.272 222.967 461.52C222.918 461.768 222.824 461.997 222.692 462.198C222.56 462.398 222.39 462.569 222.19 462.698C221.99 462.828 221.76 462.916 221.508 462.951C219.215 463.267 216.912 463.536 214.603 463.757C212.299 463.978 209.989 464.151 207.677 464.277C205.37 464.403 203.061 464.482 200.754 464.513C198.452 464.544 196.152 464.529 193.859 464.466C193.85 464.466 193.841 464.465 193.832 464.465C193.823 464.465 193.814 464.464 193.805 464.464C193.796 464.463 193.787 464.463 193.779 464.462C193.77 464.461 193.761 464.46 193.752 464.46ZM149.568 457.282C149.54 457.28 149.512 457.276 149.484 457.272C149.456 457.268 149.427 457.264 149.399 457.258C149.371 457.253 149.343 457.247 149.314 457.239C149.286 457.232 149.258 457.225 149.229 457.216C147.087 456.564 144.955 455.866 142.835 455.126C140.72 454.388 138.617 453.606 136.531 452.783C134.45 451.962 132.384 451.099 130.339 450.197C128.298 449.297 126.276 448.357 124.278 447.379C124.059 447.272 123.868 447.122 123.709 446.942C123.55 446.763 123.423 446.553 123.335 446.328C123.246 446.103 123.196 445.861 123.188 445.617C123.18 445.372 123.216 445.125 123.299 444.888C123.365 444.703 123.455 444.537 123.564 444.395C123.673 444.252 123.802 444.131 123.944 444.036C124.086 443.941 124.241 443.87 124.404 443.827C124.568 443.784 124.739 443.769 124.912 443.783C124.96 443.787 125.009 443.793 125.057 443.802C125.106 443.811 125.154 443.822 125.202 443.835C125.251 443.848 125.299 443.864 125.347 443.882C125.395 443.901 125.443 443.921 125.491 443.944C127.451 444.899 129.433 445.817 131.435 446.696C133.44 447.577 135.465 448.418 137.506 449.219C139.551 450.022 141.613 450.784 143.686 451.504C145.764 452.226 147.855 452.905 149.955 453.541C150.19 453.612 150.404 453.731 150.589 453.886C150.775 454.041 150.932 454.231 151.053 454.444C151.174 454.657 151.26 454.893 151.303 455.139C151.346 455.385 151.346 455.642 151.296 455.896C151.252 456.119 151.172 456.322 151.066 456.499C150.959 456.677 150.825 456.829 150.671 456.951C150.517 457.073 150.343 457.164 150.156 457.221C149.97 457.278 149.771 457.3 149.568 457.282ZM266.002 450.226C265.824 450.212 265.649 450.173 265.48 450.111C265.311 450.048 265.149 449.963 264.999 449.857C264.849 449.75 264.71 449.623 264.588 449.477C264.467 449.331 264.361 449.166 264.278 448.984C264.16 448.727 264.096 448.461 264.081 448.199C264.067 447.938 264.102 447.681 264.181 447.444C264.261 447.206 264.386 446.987 264.551 446.801C264.715 446.615 264.92 446.462 265.16 446.356C267.307 445.409 269.441 444.413 271.561 443.371C273.684 442.326 275.792 441.236 277.881 440.1C279.974 438.962 282.048 437.78 284.098 436.554C286.152 435.327 288.182 434.056 290.186 432.744C290.274 432.687 290.365 432.638 290.458 432.597C290.552 432.557 290.647 432.524 290.745 432.5C290.842 432.476 290.941 432.459 291.04 432.451C291.139 432.442 291.239 432.442 291.339 432.449C291.494 432.46 291.648 432.489 291.799 432.536C291.949 432.583 292.095 432.648 292.234 432.73C292.373 432.811 292.504 432.91 292.625 433.024C292.745 433.139 292.855 433.269 292.951 433.415C293.109 433.655 293.214 433.913 293.268 434.174C293.322 434.436 293.326 434.7 293.282 434.954C293.238 435.207 293.146 435.449 293.009 435.664C292.873 435.879 292.69 436.067 292.466 436.213C290.417 437.551 288.34 438.846 286.24 440.097C284.143 441.346 282.022 442.551 279.882 443.71C277.746 444.867 275.591 445.978 273.42 447.041C271.253 448.103 269.07 449.116 266.876 450.081C266.805 450.112 266.734 450.138 266.662 450.159C266.589 450.18 266.516 450.197 266.443 450.209C266.37 450.221 266.296 450.228 266.222 450.231C266.149 450.234 266.075 450.232 266.002 450.226ZM88.2624 423.353C88.1823 423.347 88.1021 423.334 88.0225 423.315C87.9429 423.296 87.8638 423.27 87.7861 423.237C87.7084 423.204 87.6319 423.165 87.5573 423.119C87.4828 423.072 87.4102 423.019 87.3403 422.959C85.6707 421.52 84.0234 420.046 82.4011 418.539C80.7816 417.035 79.1869 415.498 77.6197 413.932C76.0552 412.368 74.518 410.774 73.0107 409.153C71.5058 407.535 70.0307 405.889 68.5879 404.22C68.4299 404.037 68.3109 403.828 68.2308 403.606C68.1508 403.384 68.1097 403.15 68.1077 402.917C68.1058 402.684 68.1429 402.452 68.2193 402.235C68.2956 402.018 68.4112 401.816 68.5662 401.643C68.6466 401.553 68.7337 401.475 68.8257 401.41C68.9178 401.344 69.0148 401.291 69.1151 401.249C69.2154 401.208 69.319 401.179 69.4241 401.161C69.5292 401.144 69.6359 401.139 69.7424 401.145C69.8412 401.152 69.9398 401.168 70.0369 401.195C70.1341 401.222 70.2297 401.259 70.3226 401.306C70.4154 401.353 70.5054 401.411 70.5913 401.478C70.6772 401.546 70.7588 401.623 70.835 401.711C72.252 403.347 73.7008 404.959 75.1786 406.544C76.6588 408.132 78.1684 409.693 79.7047 411.225C81.2435 412.759 82.8093 414.264 84.3993 415.737C85.9922 417.212 87.6094 418.655 89.2485 420.063C89.4322 420.221 89.5806 420.412 89.6914 420.622C89.8023 420.832 89.8758 421.062 89.9098 421.296C89.9438 421.531 89.9384 421.771 89.8914 422.002C89.8445 422.233 89.756 422.456 89.6241 422.656C89.5425 422.779 89.4491 422.887 89.3467 422.979C89.2444 423.07 89.133 423.146 89.0157 423.204C88.8984 423.263 88.775 423.305 88.6485 423.329C88.5219 423.354 88.3923 423.362 88.2624 423.353ZM328.472 404.314C328.356 404.308 328.24 404.291 328.125 404.265C328.01 404.239 327.896 404.202 327.785 404.156C327.674 404.11 327.565 404.053 327.461 403.987C327.356 403.921 327.256 403.845 327.16 403.759C326.945 403.564 326.777 403.336 326.657 403.092C326.538 402.847 326.467 402.586 326.445 402.322C326.424 402.059 326.453 401.794 326.532 401.543C326.612 401.292 326.742 401.056 326.925 400.848C328.562 398.992 330.168 397.098 331.738 395.167C333.311 393.234 334.848 391.266 336.348 389.265C337.849 387.262 339.313 385.227 340.736 383.164C342.16 381.099 343.544 379.005 344.883 376.887C344.982 376.731 345.099 376.594 345.23 376.476C345.361 376.359 345.505 376.261 345.66 376.183C345.814 376.106 345.978 376.049 346.148 376.013C346.317 375.977 346.492 375.963 346.667 375.97C346.759 375.974 346.852 375.984 346.943 376.001C347.035 376.017 347.127 376.04 347.217 376.069C347.308 376.097 347.397 376.133 347.485 376.174C347.573 376.216 347.66 376.264 347.744 376.319C347.989 376.478 348.192 376.678 348.349 376.903C348.506 377.128 348.618 377.378 348.68 377.639C348.742 377.899 348.754 378.169 348.713 378.434C348.673 378.698 348.579 378.957 348.428 379.194C347.057 381.359 345.641 383.498 344.183 385.608C342.727 387.715 341.229 389.794 339.692 391.839C338.157 393.883 336.584 395.893 334.974 397.867C333.367 399.839 331.725 401.774 330.049 403.669C329.947 403.784 329.834 403.884 329.713 403.969C329.591 404.054 329.462 404.124 329.327 404.177C329.192 404.231 329.051 404.27 328.908 404.293C328.765 404.316 328.619 404.323 328.472 404.314ZM45.2359 368.581C45.106 368.575 44.9773 368.55 44.8527 368.508C44.7281 368.466 44.6077 368.406 44.4946 368.33C44.3814 368.254 44.2756 368.161 44.1802 368.052C44.0847 367.943 43.9996 367.819 43.928 367.68C42.9172 365.721 41.9383 363.738 40.9928 361.737C40.0485 359.737 39.1374 357.719 38.261 355.684C37.3856 353.652 36.5447 351.604 35.7398 349.543C34.9358 347.485 34.1676 345.414 33.4367 343.333C33.3566 343.105 33.3201 342.869 33.3229 342.639C33.3257 342.408 33.3677 342.181 33.4444 341.973C33.5211 341.764 33.6324 341.572 33.7739 341.409C33.9154 341.247 34.0871 341.114 34.2844 341.024C34.3347 341 34.3855 340.98 34.4365 340.964C34.4875 340.947 34.5388 340.934 34.5902 340.923C34.6417 340.913 34.6932 340.906 34.7446 340.901C34.796 340.897 34.8473 340.896 34.8984 340.897C35.0477 340.902 35.1948 340.932 35.3351 340.985C35.4755 341.038 35.6092 341.114 35.7317 341.21C35.8542 341.307 35.9656 341.424 36.0613 341.559C36.157 341.695 36.2371 341.849 36.297 342.019C37.0154 344.059 37.7705 346.09 38.5608 348.109C39.3519 350.13 40.1784 352.139 41.0388 354.132C41.9001 356.127 42.7955 358.107 43.7236 360.067C44.6527 362.03 45.6146 363.974 46.6079 365.895C46.719 366.11 46.7873 366.34 46.8157 366.571C46.8441 366.803 46.8325 367.036 46.7839 367.258C46.7353 367.48 46.6497 367.69 46.5298 367.875C46.4101 368.061 46.2561 368.222 46.0709 368.345C46.0055 368.389 45.9383 368.426 45.87 368.457C45.8016 368.489 45.732 368.514 45.6617 368.533C45.5915 368.553 45.5205 368.566 45.4493 368.574C45.3782 368.582 45.3069 368.585 45.2359 368.581ZM368.101 333.575C368.051 333.574 368.001 333.571 367.951 333.566C367.9 333.562 367.85 333.555 367.799 333.546C367.749 333.538 367.698 333.528 367.648 333.515C367.597 333.503 367.547 333.489 367.497 333.473C367.217 333.384 366.968 333.244 366.757 333.067C366.546 332.889 366.373 332.675 366.246 332.438C366.118 332.201 366.036 331.941 366.007 331.672C365.978 331.403 366.002 331.125 366.087 330.852C366.841 328.415 367.55 325.955 368.211 323.479C368.872 321.001 369.485 318.506 370.05 315.998C370.615 313.49 371.132 310.969 371.598 308.439C372.065 305.91 372.482 303.372 372.849 300.832C372.886 300.572 372.971 300.33 373.094 300.114C373.217 299.898 373.378 299.707 373.567 299.55C373.756 299.392 373.973 299.267 374.208 299.182C374.443 299.098 374.696 299.053 374.957 299.056C374.981 299.056 375.005 299.056 375.029 299.057C375.053 299.058 375.078 299.06 375.102 299.062C375.126 299.064 375.151 299.066 375.175 299.069C375.199 299.071 375.224 299.074 375.248 299.078C375.539 299.12 375.807 299.217 376.044 299.358C376.281 299.498 376.487 299.682 376.65 299.896C376.814 300.11 376.937 300.354 377.008 300.616C377.079 300.878 377.099 301.157 377.058 301.442C376.683 304.04 376.256 306.635 375.778 309.221C375.3 311.807 374.772 314.385 374.193 316.95C373.615 319.515 372.987 322.066 372.31 324.599C371.634 327.132 370.909 329.646 370.136 332.138C370.067 332.362 369.962 332.566 369.829 332.744C369.696 332.923 369.536 333.077 369.356 333.202C369.176 333.327 368.976 333.423 368.765 333.487C368.553 333.55 368.329 333.581 368.101 333.575ZM25.0775 301.764C24.8924 301.762 24.7137 301.72 24.5483 301.646C24.383 301.572 24.2309 301.464 24.0989 301.33C23.9669 301.196 23.8549 301.034 23.7698 300.852C23.6847 300.67 23.6265 300.467 23.6019 300.249C23.3557 298.062 23.1453 295.863 22.971 293.656C22.7967 291.451 22.6584 289.237 22.5562 287.019C22.4541 284.802 22.388 282.58 22.3582 280.358C22.3284 278.136 22.3348 275.914 22.3777 273.694C22.3823 273.452 22.4293 273.221 22.5102 273.01C22.5911 272.8 22.7059 272.611 22.8464 272.452C22.9869 272.293 23.1531 272.164 23.3366 272.074C23.5201 271.985 23.721 271.935 23.9309 271.935C24.1409 271.934 24.34 271.983 24.5203 272.072C24.7007 272.16 24.8622 272.288 24.9969 272.447C25.1316 272.606 25.2394 272.795 25.3125 273.005C25.3855 273.216 25.4237 273.447 25.419 273.69C25.3773 275.869 25.3713 278.05 25.4009 280.231C25.4306 282.412 25.4959 284.593 25.5966 286.769C25.6974 288.946 25.8337 291.119 26.0054 293.283C26.1771 295.449 26.3842 297.607 26.6266 299.753C26.6539 299.994 26.6374 300.231 26.5844 300.452C26.5313 300.674 26.4417 300.88 26.3225 301.061C26.2033 301.241 26.0546 301.396 25.8835 301.513C25.7124 301.631 25.5188 301.713 25.3099 301.747C25.2904 301.75 25.2709 301.753 25.2514 301.755C25.2319 301.757 25.2124 301.759 25.193 301.761C25.1737 301.762 25.1543 301.763 25.1351 301.764C25.1158 301.764 25.0966 301.764 25.0775 301.764ZM375.681 251.427C375.415 251.429 375.159 251.384 374.922 251.297C374.686 251.21 374.468 251.083 374.28 250.922C374.092 250.761 373.934 250.567 373.815 250.347C373.695 250.127 373.616 249.882 373.585 249.619C373.293 247.081 372.95 244.548 372.558 242.022C372.166 239.498 371.724 236.982 371.234 234.479C370.744 231.977 370.206 229.488 369.62 227.017C369.035 224.548 368.402 222.096 367.722 219.667C367.646 219.395 367.63 219.119 367.667 218.853C367.704 218.586 367.793 218.33 367.927 218.098C368.061 217.865 368.24 217.656 368.455 217.484C368.67 217.313 368.922 217.178 369.202 217.095C369.249 217.081 369.296 217.069 369.343 217.059C369.39 217.048 369.438 217.039 369.485 217.032C369.531 217.024 369.578 217.018 369.625 217.014C369.672 217.01 369.718 217.007 369.765 217.006C369.996 217 370.222 217.031 370.436 217.096C370.649 217.161 370.849 217.259 371.029 217.387C371.208 217.514 371.367 217.671 371.497 217.852C371.626 218.034 371.727 218.24 371.791 218.467C372.487 220.951 373.136 223.457 373.736 225.981C374.337 228.508 374.889 231.052 375.391 233.609C375.893 236.169 376.346 238.741 376.749 241.322C377.151 243.904 377.503 246.495 377.802 249.089C377.835 249.373 377.807 249.651 377.729 249.91C377.65 250.17 377.521 250.411 377.352 250.621C377.182 250.831 376.972 251.01 376.732 251.146C376.491 251.281 376.22 251.373 375.929 251.41C375.908 251.412 375.887 251.415 375.867 251.417C375.846 251.419 375.825 251.42 375.804 251.422C375.784 251.423 375.763 251.424 375.742 251.425C375.722 251.426 375.701 251.426 375.681 251.427ZM349.821 174.74C349.643 174.748 349.466 174.733 349.295 174.697C349.124 174.66 348.959 174.602 348.804 174.523C348.65 174.443 348.506 174.344 348.376 174.224C348.247 174.104 348.133 173.965 348.038 173.807C346.774 171.697 345.467 169.612 344.118 167.555C342.771 165.501 341.384 163.474 339.958 161.479C338.535 159.487 337.073 157.526 335.576 155.6C334.081 153.677 332.552 151.788 330.989 149.938C330.815 149.732 330.693 149.497 330.622 149.25C330.551 149.002 330.532 148.742 330.561 148.484C330.59 148.227 330.669 147.971 330.795 147.734C330.921 147.496 331.095 147.276 331.314 147.089C331.409 147.009 331.508 146.938 331.61 146.876C331.712 146.815 331.818 146.762 331.926 146.719C332.034 146.676 332.144 146.642 332.255 146.617C332.366 146.592 332.478 146.577 332.59 146.57C332.739 146.562 332.887 146.569 333.032 146.593C333.177 146.616 333.318 146.655 333.454 146.711C333.589 146.766 333.719 146.837 333.839 146.923C333.96 147.01 334.072 147.112 334.171 147.23C335.77 149.118 337.336 151.046 338.866 153.009C340.398 154.975 341.895 156.977 343.352 159.012C344.812 161.049 346.232 163.118 347.611 165.216C348.992 167.317 350.33 169.446 351.624 171.601C351.767 171.837 351.852 172.094 351.884 172.355C351.916 172.615 351.896 172.881 351.826 173.136C351.757 173.391 351.639 173.635 351.476 173.854C351.313 174.073 351.106 174.266 350.858 174.418C350.776 174.468 350.692 174.513 350.607 174.551C350.522 174.589 350.436 174.622 350.349 174.648C350.261 174.675 350.174 174.696 350.085 174.711C349.997 174.726 349.909 174.736 349.821 174.74ZM296.882 118.378C296.78 118.386 296.678 118.385 296.577 118.376C296.475 118.367 296.375 118.351 296.276 118.325C296.177 118.3 296.081 118.266 295.987 118.224C295.893 118.182 295.801 118.131 295.714 118.071C293.78 116.755 291.819 115.479 289.834 114.244C287.852 113.012 285.847 111.822 283.821 110.675C281.8 109.53 279.758 108.428 277.7 107.372C275.646 106.318 273.575 105.31 271.492 104.348C271.259 104.24 271.062 104.088 270.906 103.903C270.751 103.719 270.636 103.504 270.566 103.271C270.496 103.038 270.47 102.788 270.494 102.534C270.518 102.279 270.591 102.022 270.717 101.774C270.804 101.601 270.912 101.445 271.034 101.307C271.157 101.169 271.295 101.049 271.443 100.949C271.592 100.848 271.751 100.768 271.916 100.709C272.081 100.65 272.251 100.612 272.424 100.598C272.499 100.592 272.575 100.591 272.651 100.594C272.727 100.597 272.803 100.605 272.878 100.618C272.953 100.63 273.028 100.648 273.101 100.67C273.175 100.693 273.248 100.721 273.319 100.753C275.449 101.732 277.565 102.759 279.665 103.831C281.769 104.906 283.857 106.028 285.924 107.194C287.995 108.362 290.045 109.574 292.071 110.829C294.102 112.087 296.107 113.388 298.084 114.729C298.301 114.876 298.474 115.063 298.602 115.275C298.73 115.487 298.812 115.724 298.847 115.972C298.882 116.22 298.869 116.478 298.807 116.733C298.744 116.987 298.632 117.236 298.468 117.467C298.37 117.605 298.26 117.728 298.14 117.836C298.02 117.943 297.89 118.036 297.754 118.113C297.617 118.19 297.474 118.251 297.328 118.295C297.182 118.34 297.032 118.368 296.882 118.378Z" fill="#FF529A"/>
<path d="M314.933 310.012C314.879 324.626 312.223 339.113 307.09 352.796C302.406 365.355 295.413 376.928 286.473 386.919C278.211 396.187 268.072 403.595 256.729 408.653C245.662 413.534 233.581 415.676 221.509 414.898C213.734 414.44 206.16 412.25 199.342 408.49C193.448 405.101 187.975 401.028 183.038 396.356C178.171 391.962 173.641 387.488 168.865 383.808C164.112 380.146 159.117 377.272 153.311 376.051C150.735 375.565 148.301 374.509 146.188 372.959C144.075 371.409 142.337 369.406 141.101 367.096C138.545 362.57 137.287 356.7 136.752 350.126C136.312 343.069 136.312 335.992 136.752 328.935C137.1 321.59 137.605 314.173 137.703 307.335C137.863 293.876 140.223 280.534 144.691 267.836C148.832 256.018 154.97 244.997 162.839 235.252C170.289 225.99 179.49 218.283 189.919 212.571C200.332 206.903 211.92 203.73 223.771 203.302C235.77 202.9 247.692 205.361 258.549 210.481C269.715 215.799 279.643 223.393 287.695 232.775C296.425 242.907 303.205 254.564 307.694 267.159C312.621 280.904 315.072 295.413 314.933 310.012Z" fill="#FF529A"/>
<g filter="url(#filter0_d_5349_58711)">
<path d="M187.089 122.085C181.523 122.485 175.987 123.226 170.512 124.305C165.074 125.376 159.707 126.775 154.438 128.492C149.18 130.205 144.028 132.227 139.009 134.549C133.976 136.876 129.083 139.495 124.355 142.391C119.625 145.29 115.064 148.457 110.694 151.875C106.335 155.288 102.169 158.941 98.2158 162.817C94.2559 166.697 90.5111 170.79 86.998 175.078C83.4659 179.388 80.1686 183.886 77.1205 188.551C74.0673 193.225 71.2642 198.056 68.7231 203.026C66.1861 207.988 63.91 213.078 61.9042 218.277C51.7981 244.492 48.6539 272.873 52.7772 300.661C54.6356 313.228 58.0045 325.525 62.8107 337.286C65.473 343.812 68.5754 350.15 72.0966 356.257C75.6116 362.35 79.546 368.192 83.8715 373.741C88.2125 379.31 92.9473 384.562 98.0396 389.456C100.627 391.943 103.298 394.319 106.054 396.587C108.81 398.854 111.65 401.017 114.574 403.075C117.502 405.13 120.503 407.068 123.578 408.889C126.653 410.709 129.804 412.411 133.033 413.993C133.303 414.124 133.58 414.24 133.862 414.341C134.141 414.442 134.426 414.527 134.714 414.597C135 414.666 135.29 414.719 135.581 414.757C135.872 414.795 136.165 414.816 136.458 414.821C137.629 414.841 138.789 414.596 139.852 414.105C140.119 413.981 140.379 413.843 140.63 413.691C140.883 413.538 141.126 413.371 141.361 413.192C141.597 413.01 141.824 412.817 142.039 412.611C142.258 412.403 142.465 412.183 142.66 411.953C142.857 411.721 143.041 411.479 143.213 411.227C143.386 410.974 143.545 410.712 143.692 410.442C143.839 410.171 143.973 409.891 144.095 409.603C144.216 409.315 144.323 409.02 144.417 408.718L171.943 318.711C172.102 318.191 172.219 317.659 172.293 317.12C172.441 316.045 172.416 314.953 172.22 313.885C172.122 313.35 171.981 312.825 171.798 312.313C171.617 311.805 171.394 311.313 171.133 310.842C170.876 310.379 170.581 309.939 170.251 309.525C169.926 309.116 169.566 308.736 169.176 308.389C168.789 308.043 168.373 307.732 167.932 307.46C166.545 306.618 165.218 305.682 163.96 304.659C162.699 303.634 161.51 302.525 160.399 301.34C159.28 300.147 158.241 298.882 157.289 297.552C156.326 296.207 155.452 294.802 154.672 293.344C153.887 291.875 153.196 290.358 152.604 288.802C152.011 287.243 151.517 285.648 151.124 284.028C150.729 282.399 150.436 280.748 150.245 279.084C149.559 273.087 150.215 267.013 152.167 261.3C152.632 259.938 153.17 258.601 153.779 257.296C154.385 255.997 155.061 254.731 155.804 253.504C156.542 252.288 157.345 251.113 158.21 249.984C159.071 248.861 159.993 247.787 160.973 246.767C161.95 245.749 162.984 244.787 164.07 243.886C165.149 242.99 166.279 242.157 167.454 241.391C168.618 240.631 169.825 239.94 171.07 239.321C172.308 238.704 173.581 238.162 174.884 237.695C176.185 237.23 177.513 236.844 178.86 236.538C181.544 235.928 184.293 235.648 187.045 235.704C191.196 235.792 195.294 236.646 199.133 238.223C200.419 238.752 201.672 239.359 202.885 240.04C204.106 240.726 205.285 241.484 206.415 242.312C207.559 243.149 208.651 244.054 209.685 245.021C210.73 245.997 211.716 247.034 212.638 248.127C213.565 249.225 214.428 250.377 215.223 251.575C216.024 252.785 216.755 254.039 217.413 255.332C218.078 256.64 218.668 257.984 219.181 259.358C219.698 260.743 220.137 262.156 220.495 263.589C220.855 265.027 221.135 266.483 221.333 267.951C222.338 275.38 221.271 282.943 218.25 289.806C217.652 291.162 216.979 292.483 216.234 293.764C215.804 294.505 215.35 295.23 214.875 295.938C214.4 296.647 213.903 297.338 213.386 298.011C212.869 298.684 212.332 299.338 211.773 299.974C211.215 300.611 210.638 301.227 210.043 301.822C209.434 302.43 208.807 303.015 208.163 303.578C207.519 304.141 206.859 304.68 206.184 305.194C205.508 305.709 204.817 306.2 204.11 306.666C203.404 307.132 202.684 307.573 201.95 307.989C201.487 308.25 201.048 308.551 200.638 308.89C200.227 309.228 199.847 309.602 199.501 310.006C199.151 310.414 198.837 310.851 198.561 311.311C198.28 311.779 198.039 312.27 197.841 312.778C197.641 313.29 197.483 313.818 197.37 314.356C197.028 315.977 197.087 317.658 197.541 319.251L224.16 413.871C224.253 414.197 224.361 414.518 224.484 414.834C224.608 415.149 224.745 415.458 224.897 415.759C225.049 416.061 225.215 416.355 225.395 416.641C225.575 416.928 225.766 417.205 225.969 417.473C226.175 417.741 226.393 417.998 226.623 418.243C226.853 418.489 227.093 418.722 227.343 418.942C227.593 419.163 227.853 419.37 228.122 419.565C228.392 419.759 228.669 419.94 228.956 420.106C229.241 420.272 229.535 420.423 229.835 420.559C230.132 420.694 230.437 420.813 230.746 420.917C231.054 421.021 231.367 421.108 231.683 421.179C231.999 421.25 232.319 421.305 232.641 421.342C232.96 421.379 233.281 421.4 233.603 421.403C234.241 421.41 234.878 421.347 235.502 421.218C235.814 421.153 236.121 421.071 236.424 420.973C240.025 419.781 243.578 418.44 247.083 416.949C250.588 415.459 254.044 413.818 257.45 412.027C260.856 410.234 264.196 408.299 267.47 406.22C270.744 404.14 273.949 401.915 277.086 399.545C283.306 394.834 289.151 389.647 294.568 384.032C300.044 378.356 305.079 372.271 309.63 365.83C314.245 359.3 318.361 352.433 321.943 345.285C334.256 320.706 340.112 293.402 338.961 265.94C338.566 256.413 337.322 246.939 335.246 237.631C333.178 228.359 330.274 219.292 326.568 210.543C323.537 203.365 319.966 196.427 315.883 189.79C311.887 183.291 307.398 177.108 302.457 171.293C297.601 165.578 292.309 160.248 286.628 155.349C281.016 150.511 275.032 146.121 268.731 142.22C262.535 138.385 256.046 135.046 249.323 132.233C229.669 123.997 208.345 120.52 187.09 122.085H187.089Z" fill="#222839"/>
</g>
<path d="M30.9871 235.179L32.4901 235.147C35.4565 235.083 38.4124 235.523 41.2312 236.448C42.1813 236.76 43.1133 237.124 44.0227 237.539C44.9413 237.959 45.8362 238.429 46.7032 238.947C47.5794 239.47 48.4269 240.04 49.242 240.654C50.0686 241.277 50.862 241.943 51.619 242.648C52.3892 243.366 53.1222 244.123 53.815 244.916C54.517 245.716 55.1792 246.554 55.8014 247.431C56.4237 248.308 57.0076 249.219 57.5533 250.164C58.097 251.108 58.5987 252.085 59.0582 253.092C59.5177 254.099 59.9325 255.134 60.3027 256.196C60.6728 257.257 60.9951 258.337 61.2696 259.436C61.544 260.534 61.7702 261.647 61.9483 262.773C62.1257 263.899 62.2534 265.034 62.3312 266.18C62.4091 267.326 62.4381 268.477 62.4183 269.633L62.3877 271.393C62.3679 272.548 62.2983 273.7 62.179 274.848C62.0597 275.996 61.8912 277.134 61.6735 278.262C61.4565 279.391 61.1911 280.507 60.8771 281.61C60.5631 282.713 60.2022 283.797 59.7943 284.861C59.3865 285.927 58.9344 286.967 58.4378 287.981C57.9413 288.995 57.404 289.977 56.8257 290.929C56.2475 291.88 55.6297 292.798 54.9724 293.682C54.315 294.566 53.6213 295.413 52.8912 296.22C52.1611 297.028 51.4 297.793 50.608 298.516C49.8239 299.229 49.0044 299.903 48.1525 300.534C47.3137 301.155 46.4433 301.733 45.5448 302.265C44.6573 302.791 43.7424 303.27 42.8041 303.699C41.8782 304.122 40.93 304.494 39.9637 304.814C39.0108 305.129 38.0412 305.391 37.0593 305.6C36.0864 305.806 35.1026 305.958 34.1127 306.054C33.1265 306.15 32.1357 306.19 31.145 306.174L29.6392 306.151C27.6706 306.122 25.7115 305.871 23.7996 305.401C22.8423 305.167 21.8989 304.879 20.9737 304.54C20.0409 304.197 19.1278 303.802 18.2386 303.358C17.3423 302.91 16.4709 302.415 15.6281 301.874C14.7782 301.328 13.9576 300.738 13.1697 300.106C12.3731 299.467 11.6098 298.788 10.8827 298.071C10.1507 297.35 9.44865 296.587 8.77662 295.782C8.10459 294.978 7.47692 294.138 6.8936 293.264C6.30135 292.392 5.74802 291.488 5.23363 290.552C4.71924 289.616 4.24537 288.653 3.81203 287.664C3.3806 286.674 2.9913 285.659 2.64412 284.619C2.29693 283.579 1.99634 282.525 1.74233 281.457C1.48705 280.387 1.27772 279.303 1.11434 278.205C0.95096 277.107 0.835126 276.005 0.766838 274.899C0.696636 273.788 0.673022 272.672 0.695998 271.551L0.730461 269.846C0.75216 268.727 0.820767 267.611 0.936282 266.499C1.0518 265.386 1.21199 264.283 1.41685 263.19C1.62427 262.095 1.87731 261.012 2.17599 259.938C2.47467 258.864 2.81771 257.812 3.2051 256.782C3.59249 255.744 4.022 254.729 4.49363 253.739C4.96526 252.748 5.47583 251.785 6.02532 250.851C6.57545 249.917 7.16388 249.012 7.7906 248.139C8.41731 247.265 9.07977 246.426 9.77796 245.622C10.4762 244.817 11.2053 244.052 11.9654 243.326C12.7255 242.601 13.5127 241.921 14.3271 241.288C15.1377 240.656 15.9796 240.065 16.8496 239.518C17.7103 238.975 18.5986 238.477 19.5109 238.026C20.4144 237.58 21.3411 237.183 22.2871 236.835C23.2208 236.492 24.1725 236.199 25.1379 235.959C26.0945 235.721 27.0635 235.537 28.0405 235.406C29.0177 235.275 30.0014 235.199 30.9871 235.179Z" fill="#FF529A"/>
<path d="M71.7871 310.78L46.3945 299.53L58.3025 283.827L71.7871 310.78Z" fill="#FF529A"/>
<path d="M39.6832 284.057C39.7935 284.057 39.9033 284.044 40.0106 284.019C40.0635 284.007 40.1156 283.992 40.1667 283.973C40.2179 283.955 40.2681 283.934 40.317 283.91C40.3659 283.886 40.4135 283.86 40.4596 283.831C40.5062 283.801 40.5512 283.769 40.5946 283.735C40.6386 283.702 40.6807 283.666 40.721 283.627C40.7612 283.589 40.8004 283.549 40.8387 283.506C40.8764 283.463 40.9121 283.418 40.9459 283.372C40.9797 283.325 41.0117 283.277 41.0417 283.227C41.0717 283.176 41.0997 283.124 41.1259 283.071C41.1521 283.017 41.176 282.962 41.1977 282.905C41.2194 282.848 41.2385 282.79 41.2551 282.731C41.2717 282.672 41.2861 282.611 41.2982 282.549C41.3103 282.486 41.3196 282.422 41.326 282.358C41.3324 282.294 41.3362 282.231 41.3375 282.167L41.6352 266.059C41.6352 265.996 41.6336 265.932 41.6304 265.868C41.6272 265.804 41.6202 265.741 41.6093 265.677C41.5998 265.613 41.5876 265.552 41.573 265.495C41.5583 265.438 41.5414 265.382 41.5222 265.329C41.5024 265.273 41.4807 265.218 41.4571 265.164C41.4335 265.111 41.4073 265.059 41.3786 265.009C41.3505 264.959 41.3202 264.91 41.2877 264.864C41.2551 264.817 41.221 264.773 41.1853 264.73C41.1495 264.687 41.1119 264.647 41.0723 264.609C41.0333 264.57 40.9924 264.534 40.9498 264.5C40.9074 264.466 40.8634 264.434 40.8176 264.405C40.7725 264.376 40.7258 264.35 40.6779 264.326C40.63 264.303 40.5807 264.282 40.5305 264.264C40.429 264.228 40.3236 264.203 40.2165 264.192C40.1618 264.185 40.1068 264.181 40.0518 264.181L22.4575 264.312C22.3497 264.313 22.2423 264.326 22.1377 264.352C22.0861 264.365 22.0353 264.381 21.9855 264.399C21.9356 264.418 21.8867 264.439 21.839 264.463C21.7911 264.487 21.7445 264.514 21.6993 264.543C21.6537 264.572 21.6096 264.604 21.5672 264.638C21.5244 264.672 21.4832 264.708 21.4437 264.746C21.4041 264.784 21.3658 264.825 21.3288 264.868C21.2924 264.91 21.2576 264.955 21.2245 265.002C21.1913 265.048 21.1594 265.096 21.1287 265.146C21.0994 265.196 21.0719 265.247 21.0464 265.301C21.0209 265.355 20.9976 265.409 20.9765 265.464C20.9555 265.521 20.9366 265.578 20.92 265.637C20.9034 265.695 20.8894 265.755 20.8779 265.816C20.8683 265.874 20.8604 265.934 20.854 265.998C20.8476 266.062 20.8438 266.126 20.8425 266.189L20.5342 282.083C20.5342 282.146 20.5342 282.21 20.5342 282.274C20.5342 282.338 20.5409 282.4 20.5543 282.46C20.5639 282.523 20.5757 282.583 20.5898 282.639C20.6038 282.695 20.6204 282.753 20.6395 282.811C20.6587 282.868 20.6797 282.922 20.7027 282.975C20.7257 283.028 20.7512 283.08 20.7793 283.13C20.8068 283.18 20.8361 283.228 20.8674 283.274C20.8987 283.321 20.9306 283.365 20.9631 283.407C20.9982 283.45 21.0349 283.49 21.0732 283.529C21.1112 283.567 21.1512 283.603 21.1929 283.637C21.2339 283.671 21.2767 283.703 21.3211 283.732C21.3653 283.761 21.411 283.788 21.458 283.812C21.5046 283.836 21.5526 283.857 21.6016 283.876C21.7515 283.933 21.9104 283.962 22.0707 283.963L39.6832 284.057ZM39.6306 286.899L22.0238 286.772C21.7562 286.77 21.4897 286.736 21.2302 286.67C21.1026 286.638 20.977 286.599 20.854 286.552C20.7311 286.505 20.6109 286.452 20.494 286.392C20.3769 286.332 20.2631 286.265 20.1532 286.192C20.0423 286.119 19.9352 286.04 19.8325 285.956C19.7285 285.871 19.6288 285.78 19.5339 285.684C19.4381 285.588 19.3469 285.487 19.2601 285.38C19.1733 285.274 19.0906 285.163 19.0121 285.047C18.9343 284.93 18.8609 284.81 18.7919 284.685C18.723 284.56 18.6592 284.433 18.6005 284.302C18.5424 284.17 18.4898 284.033 18.4425 283.893C18.3953 283.753 18.3538 283.61 18.3181 283.464C18.2855 283.315 18.2565 283.165 18.231 283.012C18.2054 282.86 18.1885 282.705 18.1802 282.548C18.17 282.392 18.1662 282.232 18.1687 282.07L18.4779 266.207C18.4779 266.046 18.4878 265.887 18.5076 265.728C18.5274 265.57 18.5504 265.416 18.5765 265.266C18.6059 265.114 18.641 264.965 18.6819 264.818C18.7227 264.671 18.7696 264.528 18.8226 264.389C18.8755 264.25 18.9336 264.114 18.9968 263.981C19.06 263.848 19.1283 263.72 19.2017 263.599C19.2751 263.471 19.3529 263.351 19.4353 263.238C19.5176 263.125 19.6044 263.014 19.6956 262.904C19.7869 262.798 19.8826 262.696 19.9828 262.6C20.083 262.504 20.1858 262.413 20.2911 262.328C20.3968 262.243 20.5067 262.163 20.6204 262.088C20.7329 262.015 20.8492 261.947 20.9689 261.886C21.0872 261.827 21.2086 261.774 21.3326 261.728C21.4579 261.681 21.5858 261.641 21.7156 261.609C21.9756 261.543 22.2426 261.507 22.5111 261.503L40.1045 261.343C40.5124 261.34 40.9179 261.408 41.302 261.545C41.428 261.59 41.5514 261.642 41.6716 261.701C41.7918 261.76 41.9088 261.826 42.0219 261.897C42.1361 261.969 42.2463 262.048 42.3522 262.131C42.4592 262.216 42.5617 262.307 42.6595 262.402C42.7578 262.498 42.8535 262.599 42.9467 262.706C43.0399 262.813 43.1251 262.925 43.2023 263.041C43.2827 263.158 43.3583 263.279 43.4292 263.404C43.5 263.53 43.5654 263.66 43.6254 263.794C43.6854 263.928 43.74 264.065 43.7891 264.207C43.8383 264.348 43.8813 264.493 43.9184 264.641C43.9554 264.789 43.9873 264.94 44.0141 265.094C44.0409 265.249 44.0584 265.405 44.0667 265.564C44.0776 265.723 44.0817 265.885 44.0792 266.048L43.7824 282.181C43.7824 282.345 43.7725 282.507 43.7527 282.666C43.733 282.825 43.7093 282.982 43.6819 283.137C43.6519 283.291 43.6155 283.442 43.5728 283.591C43.53 283.739 43.4818 283.885 43.4282 284.026C43.374 284.168 43.3143 284.306 43.2492 284.44C43.1841 284.575 43.1139 284.705 43.0386 284.83C42.9633 284.958 42.8829 285.079 42.7974 285.195C42.7118 285.31 42.6222 285.422 42.5284 285.53C42.4345 285.637 42.3366 285.738 42.2345 285.835C42.1323 285.931 42.0264 286.021 41.9166 286.106C41.8077 286.19 41.6946 286.269 41.5777 286.341C41.462 286.413 41.3425 286.479 41.2197 286.539C41.0976 286.598 40.9723 286.65 40.8444 286.695C40.7165 286.741 40.5861 286.779 40.4539 286.81C40.1864 286.874 39.9123 286.906 39.6373 286.906L39.6306 286.899Z" fill="white"/>
<path d="M36.9487 263.973C36.9091 263.972 36.8694 263.97 36.83 263.965C36.75 263.956 36.6713 263.938 36.5955 263.911C36.5579 263.897 36.5212 263.881 36.4854 263.864C36.4496 263.846 36.4147 263.826 36.3811 263.804C36.348 263.783 36.316 263.76 36.2853 263.735C36.252 263.71 36.2201 263.683 36.1896 263.654C36.1602 263.626 36.1322 263.595 36.1054 263.563C36.0785 263.532 36.0533 263.5 36.0297 263.468C36.0055 263.433 35.9831 263.397 35.9627 263.36C35.9423 263.322 35.9228 263.284 35.9043 263.244C35.8864 263.204 35.8702 263.163 35.8555 263.121C35.8408 263.079 35.8281 263.036 35.8172 262.992C35.8064 262.948 35.7974 262.903 35.7904 262.857C35.7834 262.811 35.7783 262.764 35.7751 262.716C35.7719 262.668 35.7719 262.62 35.7751 262.572L35.8364 259.309C35.8402 259.117 35.8357 258.93 35.8229 258.746C35.8102 258.563 35.7898 258.381 35.7617 258.201C35.7336 258.022 35.6982 257.847 35.6554 257.675C35.6127 257.503 35.5632 257.335 35.507 257.172C35.4509 257.009 35.3871 256.849 35.3156 256.694C35.2441 256.538 35.1685 256.388 35.0887 256.243C35.007 256.098 34.9196 255.958 34.8264 255.823C34.7332 255.689 34.6346 255.561 34.5306 255.441C34.4266 255.318 34.3177 255.201 34.2041 255.09C34.0915 254.98 33.9732 254.876 33.8499 254.778C33.7272 254.681 33.5994 254.591 33.467 254.507C33.3363 254.425 33.2011 254.349 33.0621 254.282C32.9236 254.214 32.7813 254.154 32.6361 254.103C32.1925 253.945 31.7244 253.868 31.2537 253.875H31.226C31.1487 253.875 31.0715 253.878 30.9943 253.885C30.9171 253.891 30.8405 253.899 30.7645 253.908C30.6886 253.917 30.613 253.929 30.5377 253.943C30.4624 253.957 30.3874 253.973 30.3127 253.992C30.238 254.01 30.164 254.031 30.0906 254.053C30.0172 254.075 29.9441 254.1 29.8714 254.127C29.7986 254.154 29.7268 254.182 29.656 254.213C29.5851 254.243 29.5146 254.275 29.4444 254.309C29.3742 254.343 29.305 254.379 29.2367 254.418C29.1684 254.456 29.1004 254.496 29.0328 254.539C28.9658 254.582 28.8994 254.626 28.8337 254.672C28.7679 254.718 28.7041 254.766 28.6422 254.816C28.5784 254.866 28.5146 254.918 28.4507 254.972C28.3869 255.026 28.326 255.082 28.2679 255.139C28.2079 255.196 28.1489 255.255 28.0908 255.317C28.0327 255.378 27.9756 255.442 27.9194 255.508C27.8633 255.572 27.8084 255.638 27.7548 255.707C27.7012 255.776 27.6495 255.844 27.5997 255.913C27.5493 255.983 27.5008 256.055 27.4542 256.127C27.4076 256.199 27.3623 256.272 27.3182 256.347C27.2742 256.421 27.2321 256.497 27.1919 256.573C27.1517 256.65 27.1127 256.727 27.0751 256.806C27.0381 256.884 27.0023 256.963 26.9679 257.044C26.9334 257.124 26.9021 257.203 26.874 257.282C26.8434 257.364 26.8144 257.447 26.7869 257.531C26.7595 257.614 26.734 257.699 26.7103 257.784C26.6867 257.869 26.6647 257.955 26.6443 258.041C26.6239 258.128 26.6047 258.215 26.5869 258.301C26.5703 258.389 26.5553 258.478 26.5419 258.566C26.5285 258.655 26.517 258.744 26.5074 258.834C26.4978 258.924 26.4902 259.014 26.4844 259.105C26.4787 259.195 26.4745 259.285 26.472 259.374V259.403L26.4098 262.647C26.4098 262.696 26.4069 262.744 26.4011 262.791C26.3954 262.838 26.3884 262.884 26.3801 262.93C26.3711 262.976 26.3606 263.021 26.3485 263.065C26.3364 263.109 26.3223 263.153 26.3064 263.195C26.2904 263.237 26.2729 263.278 26.2537 263.319C26.2346 263.359 26.2138 263.398 26.1915 263.435C26.1692 263.473 26.1455 263.509 26.1206 263.544C26.0958 263.579 26.0696 263.613 26.0421 263.645C26.0147 263.677 25.986 263.709 25.956 263.74C25.926 263.772 25.8941 263.799 25.8603 263.822C25.8295 263.847 25.7976 263.87 25.7645 263.892C25.7305 263.914 25.6954 263.935 25.6592 263.953C25.6234 263.971 25.5867 263.987 25.5491 264.001C25.5115 264.014 25.4732 264.026 25.4343 264.036C25.316 264.065 25.1935 264.073 25.0724 264.06C24.9937 264.051 24.9162 264.033 24.8417 264.006C24.8048 263.993 24.7686 263.977 24.7335 263.959C24.6983 263.942 24.6642 263.922 24.6311 263.901C24.598 263.88 24.566 263.856 24.5353 263.831C24.504 263.806 24.474 263.779 24.4454 263.751C24.4164 263.722 24.389 263.692 24.363 263.661C24.3369 263.629 24.312 263.597 24.2884 263.565C24.2648 263.534 24.2427 263.498 24.2223 263.458C24.2019 263.421 24.1827 263.383 24.1649 263.344C24.147 263.304 24.131 263.263 24.117 263.221C24.103 263.179 24.0905 263.136 24.0797 263.093C24.0688 263.05 24.0599 263.005 24.0529 262.959C24.0458 262.913 24.0407 262.867 24.0375 262.819C24.0344 262.772 24.0344 262.724 24.0375 262.676L24.0912 259.429V259.396C24.0912 259.258 24.0972 259.12 24.1093 258.983C24.1215 258.846 24.1333 258.709 24.1448 258.571C24.1594 258.435 24.1757 258.3 24.1936 258.167C24.2115 258.033 24.2341 257.899 24.2616 257.767C24.2871 257.634 24.3152 257.503 24.3458 257.372C24.3764 257.241 24.4083 257.111 24.4415 256.983C24.4773 256.855 24.5159 256.728 24.5574 256.6C24.5989 256.472 24.6426 256.347 24.6885 256.224C24.7415 256.099 24.7922 255.976 24.8407 255.855C24.8892 255.734 24.9432 255.614 25.0025 255.494C25.0587 255.376 25.1174 255.259 25.1787 255.142C25.2399 255.026 25.3037 254.912 25.3701 254.8C25.4339 254.687 25.5025 254.576 25.5759 254.466C25.6493 254.357 25.7227 254.249 25.7961 254.143C25.8721 254.037 25.9502 253.933 26.0307 253.83C26.1111 253.728 26.1937 253.627 26.2786 253.529C26.3628 253.431 26.449 253.336 26.5371 253.242C26.6251 253.148 26.7145 253.059 26.8051 252.973C26.8957 252.887 26.988 252.803 27.0818 252.721C27.1756 252.639 27.2713 252.561 27.369 252.485C27.4653 252.409 27.563 252.336 27.6619 252.266C27.7608 252.196 27.861 252.128 27.9625 252.064C28.064 252 28.1667 251.939 28.2708 251.879C28.3748 251.82 28.4788 251.765 28.5828 251.714C28.6888 251.662 28.7957 251.612 28.9035 251.566C29.0114 251.519 29.1202 251.476 29.23 251.436C29.3398 251.396 29.4502 251.359 29.5612 251.325C29.6723 251.29 29.7843 251.258 29.8972 251.229C30.0102 251.201 30.1235 251.176 30.2371 251.155C30.3507 251.134 30.4655 251.117 30.5817 251.103C30.6972 251.087 30.813 251.076 30.9292 251.067C31.0454 251.059 31.1615 251.055 31.2777 251.054H31.3083C31.5489 251.049 31.7896 251.059 32.0291 251.083C32.4973 251.132 32.9581 251.236 33.4019 251.392C33.622 251.47 33.8374 251.56 34.0471 251.662C34.2575 251.765 34.462 251.879 34.6598 252.004C34.8583 252.13 35.0501 252.266 35.2342 252.412C35.4215 252.56 35.601 252.717 35.7722 252.883C35.9445 253.051 36.1095 253.227 36.2671 253.413C36.4248 253.6 36.5741 253.795 36.7152 253.999C36.8562 254.203 36.9889 254.415 37.1134 254.635C37.2378 254.855 37.3524 255.082 37.4571 255.317C37.5624 255.551 37.6581 255.793 37.7443 256.041C37.8304 256.29 37.9057 256.545 37.9702 256.807C38.034 257.067 38.0876 257.332 38.131 257.603C38.1744 257.874 38.2063 258.15 38.2267 258.43C38.2459 258.709 38.2529 258.993 38.2478 259.281L38.1865 262.549C38.1865 262.598 38.1837 262.646 38.1779 262.693C38.1722 262.74 38.1652 262.787 38.1569 262.834C38.1479 262.88 38.1371 262.925 38.1243 262.97C38.1115 263.014 38.0972 263.058 38.0812 263.101C38.0653 263.143 38.0474 263.185 38.0276 263.225C38.0078 263.265 37.9868 263.304 37.9644 263.343C37.9421 263.38 37.9182 263.417 37.8926 263.453C37.8671 263.488 37.8403 263.522 37.8122 263.554C37.7841 263.586 37.7548 263.618 37.7242 263.65C37.6935 263.681 37.6616 263.708 37.6284 263.732C37.5959 263.757 37.5621 263.781 37.527 263.804C37.4923 263.826 37.4565 263.846 37.4197 263.865C37.3833 263.883 37.3459 263.899 37.3077 263.914C37.2695 263.927 37.2305 263.939 37.1909 263.949C37.111 263.969 37.0291 263.979 36.9468 263.98L36.9487 263.973Z" fill="white"/>
<path d="M30.7689 278.653C30.6876 278.653 30.6066 278.643 30.5277 278.624C30.4891 278.614 30.451 278.602 30.4138 278.588C30.3765 278.574 30.3401 278.558 30.3046 278.539C30.2691 278.522 30.2346 278.502 30.2012 278.48C30.1681 278.458 30.1362 278.435 30.1055 278.409C30.0732 278.384 30.0422 278.357 30.0126 278.329C29.9833 278.3 29.9555 278.268 29.9294 278.233C29.9032 278.198 29.8793 278.166 29.8576 278.137C29.834 278.102 29.8116 278.065 29.7906 278.028C29.7695 277.99 29.7503 277.951 29.7331 277.911C29.7152 277.871 29.6993 277.83 29.6852 277.788C29.6712 277.746 29.6584 277.703 29.647 277.659C29.6336 277.615 29.6233 277.57 29.6163 277.524C29.6093 277.478 29.6039 277.431 29.6 277.383C29.5969 277.336 29.5969 277.288 29.6 277.239L29.7034 271.638C29.7034 271.59 29.7063 271.542 29.7121 271.494C29.7178 271.446 29.7248 271.399 29.7331 271.354C29.742 271.308 29.7516 271.263 29.7618 271.218C29.772 271.174 29.7874 271.131 29.8078 271.089C29.8237 271.046 29.8403 271.005 29.8576 270.966C29.8748 270.926 29.8965 270.887 29.9227 270.849C29.9431 270.812 29.9667 270.775 29.9935 270.74C30.0203 270.705 30.0468 270.672 30.073 270.64C30.101 270.608 30.1301 270.578 30.1601 270.549C30.1901 270.52 30.222 270.493 30.2558 270.468C30.2865 270.442 30.3185 270.419 30.3515 270.397C30.3865 270.375 30.4226 270.355 30.4597 270.337C30.4958 270.319 30.5329 270.303 30.5708 270.289C30.6087 270.275 30.6473 270.263 30.6866 270.253C30.8059 270.224 30.9293 270.216 31.0513 270.23C31.1308 270.24 31.2088 270.258 31.284 270.286C31.3199 270.3 31.355 270.315 31.3893 270.333C31.4248 270.351 31.4593 270.37 31.4926 270.392C31.5258 270.414 31.5577 270.438 31.5884 270.463C31.6223 270.488 31.6549 270.515 31.686 270.543C31.7154 270.572 31.7431 270.604 31.7693 270.639C31.7955 270.674 31.8207 270.706 31.8449 270.734C31.8685 270.769 31.8909 270.805 31.9119 270.842C31.933 270.879 31.9525 270.918 31.9703 270.959C31.9882 270.999 32.0042 271.04 32.0182 271.083C32.0322 271.125 32.045 271.168 32.0565 271.213C32.0673 271.257 32.0763 271.302 32.0833 271.347C32.0903 271.393 32.0954 271.44 32.0986 271.487C32.1018 271.534 32.1018 271.582 32.0986 271.631L31.9962 277.242C31.9962 277.29 31.9933 277.338 31.9876 277.386C31.9818 277.434 31.9739 277.481 31.9636 277.527C31.9547 277.573 31.9439 277.618 31.9311 277.662C31.9183 277.707 31.904 277.75 31.888 277.792C31.8721 277.834 31.8545 277.875 31.8354 277.915C31.8162 277.955 31.7952 277.994 31.7722 278.032C31.7498 278.069 31.7262 278.106 31.7013 278.141C31.6764 278.176 31.65 278.208 31.6219 278.236C31.5938 278.268 31.5648 278.3 31.5348 278.332C31.5048 278.364 31.4729 278.391 31.439 278.413C31.4083 278.438 31.3764 278.462 31.3433 278.484C31.3089 278.506 31.2735 278.525 31.237 278.543C31.2009 278.561 31.1638 278.577 31.126 278.59C31.0881 278.604 31.0494 278.615 31.0102 278.625C30.9707 278.634 30.9308 278.641 30.8905 278.646C30.8502 278.651 30.8096 278.653 30.7689 278.653Z" fill="white"/>
<path d="M211.973 87.6288L285.051 81.067C286.063 80.976 287.079 80.9358 288.095 80.9465C289.102 80.9569 290.108 81.0185 291.109 81.1311C292.103 81.2432 293.092 81.4066 294.07 81.6208C295.045 81.8343 296.008 82.0989 296.956 82.4136C297.9 82.7269 298.827 83.0902 299.732 83.502C303.357 85.1506 306.583 87.5629 309.187 90.5735C309.84 91.3277 310.452 92.1163 311.021 92.9358C311.592 93.7601 312.12 94.6141 312.601 95.4941C313.087 96.3832 313.526 97.2972 313.917 98.2323C314.31 99.1744 314.654 100.136 314.948 101.114C315.244 102.098 315.49 103.096 315.685 104.104C315.881 105.117 316.026 106.143 316.12 107.181C316.215 108.22 316.258 109.266 316.25 110.321C316.242 111.376 316.183 112.43 316.072 113.485C315.962 114.539 315.801 115.589 315.589 116.633C315.378 117.678 315.116 118.714 314.805 119.742C314.493 120.771 314.134 121.786 313.726 122.788C313.318 123.791 312.865 124.772 312.366 125.733C311.867 126.694 311.324 127.63 310.738 128.541C310.154 129.452 309.529 130.335 308.863 131.19C308.197 132.046 307.493 132.87 306.751 133.662C306.009 134.454 305.235 135.208 304.429 135.924C303.622 136.641 302.788 137.317 301.925 137.951C301.063 138.589 300.175 139.181 299.261 139.729C298.347 140.277 297.412 140.782 296.456 141.245C295.499 141.705 294.529 142.116 293.545 142.48C292.562 142.843 291.568 143.156 290.564 143.42C289.561 143.684 288.552 143.898 287.535 144.061C286.518 144.225 285.5 144.338 284.48 144.4L211.236 148.846C210.289 148.904 209.341 148.912 208.394 148.871C207.457 148.83 206.524 148.74 205.597 148.601C204.678 148.463 203.766 148.276 202.866 148.041C198.372 146.864 194.282 144.493 191.028 141.181C190.377 140.518 189.761 139.821 189.182 139.094C188.601 138.363 188.058 137.603 187.555 136.817C187.049 136.024 186.584 135.206 186.161 134.367C185.736 133.523 185.353 132.654 185.012 131.76C184.672 130.866 184.371 129.956 184.112 129.028C183.856 128.101 183.645 127.159 183.478 126.202C183.311 125.245 183.188 124.278 183.111 123.302C183.034 122.326 183.002 121.341 183.014 120.349C183.027 119.356 183.085 118.365 183.187 117.375C183.29 116.386 183.439 115.4 183.632 114.417C183.825 113.435 184.062 112.46 184.342 111.494C184.622 110.527 184.946 109.571 185.314 108.624C185.681 107.678 186.089 106.752 186.537 105.847C186.984 104.94 187.47 104.054 187.996 103.189C188.522 102.325 189.084 101.485 189.681 100.67C190.28 99.8553 190.913 99.0682 191.581 98.3088C192.25 97.5494 192.948 96.8241 193.677 96.133C194.405 95.4418 195.16 94.7874 195.943 94.1695C196.725 93.5517 197.532 92.9721 198.362 92.4308C199.192 91.8901 200.044 91.3903 200.92 90.9312C201.796 90.4721 202.684 90.0577 203.586 89.6879C204.489 89.3187 205.404 88.9958 206.33 88.7191C207.256 88.4424 208.189 88.2128 209.131 88.0305C210.071 87.8484 211.019 87.7144 211.973 87.6288Z" fill="#FF529A"/>
<path d="M234.392 128.191H234.348H234.261H234.218H234.174H234.131L234.088 128.185L234.045 128.179L234.002 128.17L233.959 128.161L233.916 128.15L233.873 128.138L233.83 128.123L233.788 128.108L233.747 128.092L233.706 128.073L219.059 121.379C219.027 121.364 218.995 121.348 218.964 121.332C218.932 121.315 218.902 121.297 218.874 121.278C218.846 121.259 218.818 121.239 218.791 121.218C218.764 121.197 218.74 121.173 218.717 121.146C218.691 121.123 218.667 121.099 218.644 121.075C218.621 121.05 218.598 121.024 218.576 120.998C218.554 120.972 218.534 120.945 218.515 120.917C218.497 120.889 218.478 120.86 218.459 120.831C218.441 120.801 218.425 120.771 218.409 120.74C218.394 120.709 218.379 120.677 218.365 120.644C218.352 120.612 218.339 120.58 218.328 120.549C218.316 120.517 218.306 120.483 218.295 120.444C218.286 120.412 218.277 120.377 218.27 120.339C218.263 120.301 218.258 120.265 218.253 120.231C218.249 120.195 218.246 120.158 218.244 120.121C218.242 120.084 218.242 120.047 218.244 120.009C218.244 119.972 218.245 119.934 218.248 119.896C218.252 119.859 218.256 119.821 218.261 119.784C218.266 119.747 218.272 119.711 218.28 119.674C218.288 119.638 218.297 119.602 218.307 119.565C218.317 119.53 218.328 119.494 218.34 119.459C218.352 119.424 218.366 119.389 218.38 119.355C218.394 119.321 218.409 119.287 218.426 119.254C218.442 119.221 218.46 119.189 218.478 119.158C218.497 119.126 218.516 119.094 218.537 119.062C218.557 119.031 218.578 118.999 218.601 118.967C218.623 118.937 218.646 118.908 218.671 118.88C218.695 118.852 218.72 118.824 218.745 118.797C218.771 118.771 218.798 118.745 218.826 118.72C218.853 118.695 218.882 118.671 218.911 118.647C218.94 118.624 218.97 118.602 219.001 118.58C219.031 118.559 219.061 118.54 219.09 118.523L233.912 109.649L233.953 109.625L233.995 109.602L234.037 109.58L234.079 109.56L234.12 109.542L234.163 109.524L234.206 109.508L234.253 109.494L234.296 109.48L234.34 109.468L234.384 109.457L234.428 109.448L234.471 109.44L234.514 109.433L234.558 109.428H234.602C234.637 109.428 234.672 109.428 234.707 109.428C234.742 109.428 234.777 109.428 234.812 109.428C234.846 109.428 234.881 109.431 234.915 109.438C234.95 109.445 234.983 109.451 235.017 109.456C235.05 109.463 235.082 109.472 235.112 109.481C235.143 109.491 235.175 109.502 235.208 109.514C235.24 109.526 235.272 109.539 235.304 109.553C235.336 109.567 235.366 109.579 235.396 109.589C235.426 109.606 235.455 109.624 235.484 109.643C235.512 109.662 235.54 109.682 235.567 109.703C235.594 109.724 235.621 109.747 235.646 109.77C235.672 109.794 235.697 109.818 235.721 109.843C235.745 109.868 235.769 109.895 235.791 109.922C235.813 109.95 235.835 109.978 235.855 110.008C235.876 110.038 235.895 110.07 235.914 110.104C235.932 110.138 235.95 110.17 235.966 110.2C235.99 110.247 236.01 110.295 236.028 110.345C236.046 110.394 236.062 110.444 236.074 110.495C236.087 110.545 236.097 110.596 236.105 110.648C236.113 110.7 236.118 110.751 236.12 110.803C236.12 110.855 236.12 110.907 236.12 110.959C236.12 111.011 236.116 111.063 236.107 111.114C236.1 111.165 236.091 111.217 236.079 111.268C236.068 111.319 236.054 111.369 236.038 111.419C236.022 111.469 236.004 111.518 235.983 111.567C235.963 111.616 235.94 111.664 235.915 111.711C235.891 111.757 235.864 111.803 235.835 111.848C235.806 111.894 235.774 111.937 235.739 111.978C235.707 112.021 235.672 112.061 235.635 112.101C235.598 112.14 235.559 112.178 235.519 112.214C235.478 112.25 235.436 112.284 235.392 112.317C235.348 112.35 235.302 112.381 235.254 112.413L223.143 119.646L235.116 125.097C235.163 125.119 235.209 125.142 235.253 125.169C235.339 125.22 235.419 125.281 235.491 125.35C235.527 125.384 235.561 125.419 235.593 125.457C235.625 125.494 235.655 125.533 235.683 125.573C235.711 125.614 235.737 125.656 235.76 125.7C235.784 125.743 235.805 125.788 235.825 125.834C235.844 125.88 235.861 125.926 235.876 125.974C235.891 126.022 235.904 126.07 235.915 126.12C235.925 126.169 235.934 126.219 235.939 126.27C235.945 126.321 235.949 126.372 235.95 126.424C235.951 126.475 235.951 126.527 235.95 126.58C235.946 126.632 235.94 126.684 235.931 126.737C235.922 126.79 235.911 126.843 235.897 126.895C235.883 126.947 235.867 127 235.848 127.052C235.828 127.104 235.807 127.156 235.782 127.207C235.765 127.243 235.747 127.279 235.728 127.313C235.709 127.348 235.689 127.381 235.668 127.415C235.646 127.447 235.624 127.479 235.602 127.51C235.579 127.541 235.555 127.571 235.53 127.6C235.505 127.629 235.479 127.657 235.453 127.684C235.427 127.711 235.397 127.737 235.364 127.761C235.337 127.786 235.308 127.81 235.279 127.833C235.25 127.857 235.22 127.879 235.19 127.899C235.16 127.92 235.128 127.941 235.094 127.96C235.06 127.979 235.028 127.997 234.998 128.013C234.966 128.03 234.935 128.045 234.903 128.06C234.871 128.075 234.839 128.088 234.807 128.1C234.773 128.112 234.739 128.123 234.705 128.133C234.67 128.142 234.636 128.151 234.601 128.159C234.567 128.166 234.532 128.172 234.497 128.177C234.462 128.181 234.427 128.186 234.392 128.191Z" fill="white"/>
<path d="M260.627 126.362C260.591 126.362 260.555 126.362 260.52 126.362C260.484 126.362 260.448 126.362 260.412 126.362C260.377 126.362 260.342 126.358 260.307 126.35C260.273 126.343 260.238 126.336 260.204 126.331C260.169 126.324 260.135 126.315 260.102 126.306C260.069 126.296 260.037 126.285 260.007 126.272C259.974 126.26 259.942 126.247 259.911 126.232C259.88 126.217 259.848 126.201 259.815 126.184C259.783 126.167 259.752 126.149 259.722 126.13C259.693 126.11 259.664 126.09 259.636 126.068C259.608 126.047 259.581 126.024 259.555 126C259.529 125.977 259.503 125.953 259.478 125.928C259.453 125.902 259.429 125.875 259.406 125.846C259.383 125.818 259.361 125.788 259.339 125.757C259.318 125.727 259.298 125.695 259.279 125.661C259.26 125.627 259.242 125.595 259.225 125.565C259.202 125.517 259.181 125.468 259.162 125.417C259.144 125.367 259.128 125.316 259.115 125.265C259.103 125.214 259.092 125.162 259.084 125.11C259.075 125.058 259.071 125.005 259.07 124.952C259.07 124.9 259.07 124.847 259.07 124.794C259.07 124.742 259.075 124.689 259.084 124.638C259.091 124.585 259.1 124.533 259.111 124.482C259.123 124.43 259.137 124.379 259.154 124.329C259.17 124.278 259.189 124.229 259.209 124.179C259.23 124.13 259.253 124.082 259.278 124.035C259.304 123.988 259.331 123.942 259.36 123.896C259.39 123.851 259.422 123.807 259.456 123.765C259.489 123.723 259.525 123.682 259.562 123.642C259.6 123.602 259.64 123.565 259.681 123.528C259.723 123.492 259.766 123.457 259.811 123.425C259.857 123.392 259.903 123.36 259.952 123.329L272.486 115.984L260.078 110.495C260.031 110.474 259.984 110.451 259.94 110.425C259.808 110.349 259.691 110.252 259.591 110.138C259.526 110.063 259.468 109.981 259.42 109.894C259.395 109.85 259.373 109.806 259.354 109.76C259.334 109.714 259.316 109.666 259.301 109.618C259.285 109.569 259.272 109.52 259.262 109.47C259.252 109.42 259.243 109.37 259.236 109.318C259.23 109.267 259.227 109.216 259.225 109.163C259.224 109.111 259.224 109.058 259.225 109.005C259.229 108.952 259.236 108.9 259.245 108.847C259.253 108.794 259.265 108.741 259.279 108.687C259.293 108.634 259.31 108.581 259.329 108.528C259.348 108.475 259.37 108.423 259.395 108.371C259.415 108.334 259.435 108.298 259.455 108.263C259.475 108.228 259.496 108.194 259.517 108.161C259.539 108.128 259.562 108.096 259.585 108.065C259.609 108.035 259.633 108.003 259.658 107.97C259.684 107.94 259.71 107.912 259.737 107.884C259.763 107.856 259.791 107.829 259.818 107.805C259.846 107.78 259.875 107.755 259.905 107.732C259.935 107.708 259.966 107.684 259.997 107.661C260.028 107.639 260.06 107.619 260.093 107.6C260.125 107.58 260.157 107.562 260.188 107.545C260.222 107.528 260.254 107.512 260.284 107.497C260.315 107.483 260.351 107.469 260.392 107.458C260.427 107.445 260.462 107.434 260.497 107.424C260.532 107.413 260.567 107.404 260.603 107.397C260.639 107.389 260.674 107.382 260.71 107.377C260.746 107.371 260.782 107.367 260.817 107.364H260.862H260.906H260.995H261.04H261.085L261.129 107.369L261.174 107.376L261.218 107.383L261.262 107.393L261.306 107.403L261.35 107.416L261.393 107.429L261.436 107.445L261.479 107.461L261.521 107.479L276.772 114.206C276.806 114.221 276.838 114.237 276.868 114.254C276.898 114.271 276.93 114.289 276.963 114.309C276.994 114.328 277.023 114.348 277.051 114.37C277.079 114.391 277.107 114.414 277.135 114.437C277.161 114.46 277.187 114.485 277.212 114.51C277.237 114.536 277.261 114.562 277.284 114.589C277.307 114.616 277.329 114.644 277.35 114.673C277.371 114.702 277.391 114.732 277.41 114.762C277.429 114.793 277.446 114.824 277.463 114.858C277.48 114.891 277.495 114.923 277.51 114.953C277.525 114.986 277.538 115.02 277.55 115.055C277.562 115.089 277.573 115.124 277.584 115.159C277.593 115.195 277.602 115.231 277.61 115.267C277.617 115.303 277.623 115.34 277.628 115.378C277.633 115.415 277.636 115.452 277.638 115.491C277.64 115.529 277.64 115.567 277.638 115.605C277.638 115.644 277.637 115.683 277.633 115.721C277.63 115.759 277.626 115.798 277.621 115.836C277.615 115.874 277.609 115.912 277.601 115.95C277.593 115.987 277.584 116.025 277.573 116.062C277.562 116.099 277.55 116.135 277.538 116.172C277.525 116.208 277.511 116.244 277.496 116.279C277.48 116.314 277.464 116.349 277.447 116.383C277.43 116.417 277.411 116.451 277.392 116.484C277.372 116.518 277.352 116.549 277.331 116.58C277.31 116.611 277.287 116.642 277.263 116.676C277.239 116.706 277.215 116.736 277.189 116.766C277.164 116.795 277.137 116.823 277.11 116.851C277.082 116.878 277.054 116.905 277.026 116.93C276.997 116.956 276.967 116.98 276.936 117.005C276.905 117.028 276.873 117.051 276.84 117.074C276.807 117.096 276.775 117.117 276.744 117.137L261.331 126.143L261.289 126.167L261.246 126.19L261.203 126.211L261.159 126.231L261.115 126.25L261.071 126.267L261.027 126.284L260.983 126.298L260.939 126.311L260.894 126.323L260.849 126.333L260.804 126.342L260.759 126.35L260.715 126.356L260.67 126.361L260.627 126.362Z" fill="white"/>
<path d="M241.522 134.216H241.489H241.358H241.325H241.293H241.26H241.227L241.193 134.212L241.16 134.206L241.124 134.189L241.092 134.181L241.059 134.172L241.028 134.164L240.996 134.154C240.946 134.139 240.898 134.12 240.85 134.1C240.804 134.079 240.758 134.056 240.714 134.031C240.628 133.981 240.548 133.922 240.474 133.855C240.438 133.822 240.403 133.786 240.371 133.75C240.337 133.713 240.305 133.675 240.275 133.635C240.246 133.595 240.219 133.553 240.195 133.51C240.172 133.468 240.151 133.426 240.131 133.382C240.11 133.339 240.09 133.291 240.071 133.24C240.058 133.192 240.046 133.144 240.035 133.095C240.023 133.047 240.014 132.997 240.007 132.945C240 132.894 239.996 132.843 239.994 132.79C239.992 132.738 239.992 132.685 239.994 132.633C239.994 132.58 239.999 132.526 240.01 132.473C240.021 132.419 240.032 132.366 240.042 132.312C240.056 132.259 240.072 132.205 240.091 132.151L252.133 97.8802C252.148 97.8382 252.164 97.7967 252.182 97.7559C252.2 97.7151 252.219 97.6756 252.239 97.6373C252.259 97.5984 252.28 97.5608 252.303 97.5245C252.325 97.4881 252.349 97.4524 252.374 97.4173C252.399 97.3829 252.425 97.3491 252.452 97.316C252.479 97.2828 252.507 97.2509 252.536 97.2203C252.566 97.1897 252.596 97.1604 252.626 97.1323C252.657 97.1043 252.689 97.0775 252.722 97.052C252.755 97.0265 252.786 97.002 252.818 96.9784C252.849 96.9548 252.884 96.9328 252.922 96.9124C252.957 96.892 252.993 96.8725 253.03 96.854C253.067 96.8355 253.104 96.819 253.141 96.8043C253.179 96.789 253.217 96.7753 253.255 96.7632C253.293 96.7511 253.334 96.7405 253.378 96.7316C253.417 96.7221 253.456 96.7141 253.495 96.7077C253.535 96.7013 253.575 96.6965 253.614 96.6934H253.648H253.681H253.815H253.849H253.882H253.916H253.949L253.983 96.6981L254.016 96.7039L254.048 96.7211L254.081 96.7287L254.115 96.7374L254.148 96.7469C254.198 96.7614 254.247 96.7787 254.295 96.7986C254.387 96.8374 254.474 96.8862 254.555 96.9439C254.636 96.9994 254.71 97.0636 254.776 97.1352C254.842 97.208 254.901 97.2875 254.951 97.3724C254.975 97.4152 254.998 97.4593 255.019 97.5044C255.04 97.5496 255.058 97.5959 255.074 97.6431C255.09 97.6902 255.104 97.7387 255.116 97.7884C255.128 97.8375 255.137 97.8879 255.144 97.9395C255.151 97.9912 255.155 98.0428 255.157 98.0945C255.157 98.1468 255.157 98.1997 255.157 98.2532C255.157 98.3068 255.152 98.3603 255.141 98.4139C255.133 98.4675 255.122 98.5213 255.109 98.5755C255.095 98.6297 255.079 98.6839 255.06 98.7381L242.99 133.056C242.975 133.098 242.959 133.139 242.942 133.18C242.925 133.22 242.906 133.259 242.886 133.297C242.866 133.335 242.844 133.373 242.822 133.409C242.799 133.445 242.775 133.481 242.751 133.515C242.726 133.55 242.7 133.582 242.673 133.611C242.646 133.64 242.619 133.672 242.59 133.707C242.561 133.737 242.531 133.765 242.501 133.793C242.47 133.82 242.438 133.846 242.405 133.872C242.373 133.897 242.341 133.921 242.309 133.944C242.277 133.967 242.243 133.988 242.206 134.008C242.171 134.028 242.135 134.046 242.099 134.064C242.062 134.082 242.026 134.098 241.989 134.112C241.952 134.127 241.914 134.14 241.876 134.151C241.837 134.163 241.799 134.173 241.761 134.182C241.722 134.191 241.683 134.198 241.644 134.204C241.605 134.21 241.565 134.214 241.522 134.216Z" fill="white"/>
<path d="M175.973 162.127L193.896 129.218L208.671 147.232L175.973 162.127Z" fill="#FF529A"/>
<path d="M372.437 388.23L372.916 388.977C373.834 390.411 374.68 391.882 375.452 393.392C376.224 394.902 376.92 396.442 377.539 398.013C378.158 399.585 378.698 401.181 379.16 402.803C379.621 404.425 380 406.065 380.298 407.724C380.581 409.309 380.784 410.898 380.909 412.491C381.033 414.085 381.077 415.674 381.042 417.261C381.007 418.843 380.893 420.423 380.699 421.994C380.506 423.56 380.232 425.115 379.88 426.653C379.536 428.165 379.112 429.658 378.61 431.126C378.112 432.582 377.537 434.011 376.887 435.406C375.596 438.185 374.01 440.817 372.158 443.258C368.35 448.252 363.465 452.324 357.865 455.171L357.33 455.444C355.938 456.155 354.509 456.79 353.048 457.346C351.588 457.902 350.099 458.379 348.587 458.775C347.071 459.172 345.536 459.488 343.986 459.722C342.428 459.957 340.858 460.11 339.283 460.18C337.751 460.243 336.221 460.236 334.693 460.157C333.164 460.078 331.64 459.923 330.122 459.693C328.606 459.466 327.099 459.167 325.601 458.796C324.103 458.425 322.624 457.983 321.163 457.472C318.171 456.427 315.28 455.111 312.527 453.541C304.278 448.831 297.437 442.005 292.711 433.77L292.298 433.053C291.507 431.684 290.781 430.287 290.12 428.861C289.46 427.435 288.866 425.987 288.34 424.519C287.815 423.049 287.358 421.56 286.97 420.052C286.582 418.543 286.265 417.022 286.018 415.49C285.785 414.029 285.619 412.565 285.52 411.095C285.421 409.625 285.389 408.162 285.424 406.706C285.46 405.247 285.563 403.795 285.733 402.35C285.904 400.904 286.141 399.472 286.445 398.052C286.747 396.644 287.114 395.259 287.546 393.896C287.979 392.534 288.476 391.199 289.037 389.893C289.597 388.586 290.22 387.311 290.905 386.067C291.591 384.823 292.337 383.615 293.143 382.443C296.493 377.59 300.837 373.503 305.886 370.453L306.375 370.157C308.94 368.6 311.662 367.318 314.496 366.331C315.922 365.834 317.372 365.411 318.842 365.064C320.324 364.711 321.825 364.435 323.336 364.237C324.83 364.045 326.331 363.927 327.841 363.882C329.351 363.837 330.864 363.864 332.381 363.965C333.898 364.066 335.412 364.24 336.924 364.486C338.436 364.733 339.942 365.052 341.441 365.443C344.589 366.27 347.652 367.394 350.587 368.801C353.529 370.21 356.334 371.889 358.964 373.818C364.314 377.742 368.884 382.63 372.437 388.23Z" fill="#FF529A"/>
<path d="M283.133 348.829L318.124 368.286L298.882 386.17L283.133 348.829Z" fill="#FF529A"/>
<path d="M332.904 437.902C331.809 437.823 330.718 437.675 329.638 437.461C328.559 437.247 327.49 436.966 326.439 436.622C325.39 436.278 324.358 435.87 323.351 435.401C322.346 434.933 321.365 434.403 320.417 433.814C320.311 433.748 320.205 433.681 320.098 433.613C319.992 433.545 319.885 433.475 319.777 433.404C319.67 433.333 319.561 433.261 319.452 433.187C319.343 433.113 319.233 433.037 319.122 432.96L319.104 432.964L319.003 432.957L318.88 432.98C318.837 432.988 318.793 432.995 318.749 433.001C318.705 433.008 318.66 433.013 318.615 433.017C318.57 433.022 318.525 433.025 318.48 433.028C318.435 433.03 318.389 433.032 318.343 433.032L318.336 433.033L318.329 433.032C318.304 433.033 318.279 433.032 318.254 433.032C318.229 433.032 318.203 433.031 318.178 433.03C318.153 433.029 318.128 433.028 318.102 433.027C318.077 433.026 318.052 433.024 318.027 433.022C318.006 433.021 317.985 433.019 317.964 433.017C317.943 433.016 317.922 433.014 317.901 433.012C317.88 433.009 317.859 433.007 317.838 433.005C317.817 433.002 317.796 433 317.775 432.997L317.414 432.972L317.382 432.969L317.35 432.965C317.31 432.961 317.27 432.955 317.23 432.948C317.189 432.941 317.149 432.934 317.109 432.925C317.069 432.917 317.029 432.908 316.988 432.897C316.948 432.887 316.908 432.876 316.868 432.864C316.83 432.854 316.792 432.844 316.754 432.833C316.716 432.822 316.678 432.811 316.64 432.798C316.602 432.786 316.564 432.773 316.526 432.759C316.488 432.745 316.45 432.731 316.412 432.716C316.355 432.694 316.298 432.671 316.24 432.647C316.183 432.623 316.126 432.598 316.069 432.572C316.012 432.546 315.956 432.519 315.899 432.491C315.843 432.463 315.787 432.435 315.731 432.405L315.69 432.383L315.65 432.359L315.548 432.295C315.478 432.253 315.408 432.21 315.34 432.164C315.271 432.118 315.203 432.07 315.137 432.021C315.07 431.971 315.005 431.92 314.94 431.866C314.876 431.813 314.813 431.758 314.751 431.701L314.725 431.677L314.699 431.651L314.443 431.389L314.428 431.374L314.414 431.359C314.357 431.297 314.301 431.233 314.246 431.168C314.192 431.102 314.139 431.035 314.088 430.967C314.037 430.899 313.987 430.829 313.939 430.759C313.892 430.688 313.845 430.615 313.801 430.542L313.787 430.518L313.773 430.493C313.647 430.264 313.536 430.028 313.441 429.787C313.346 429.547 313.267 429.302 313.204 429.054C313.142 428.805 313.095 428.554 313.065 428.301C313.035 428.048 313.022 427.794 313.026 427.539C313.019 427.528 313.012 427.517 313.005 427.507C312.999 427.496 312.993 427.486 312.987 427.477C312.981 427.467 312.976 427.459 312.97 427.45C312.965 427.442 312.961 427.434 312.956 427.426C312.944 427.406 312.931 427.385 312.919 427.364C312.907 427.342 312.894 427.321 312.882 427.299C312.87 427.277 312.857 427.254 312.845 427.232C312.832 427.209 312.82 427.186 312.807 427.163L312.166 426.259C311.734 425.651 311.327 425.029 310.944 424.394C310.562 423.76 310.205 423.112 309.874 422.453C309.543 421.794 309.237 421.123 308.957 420.441C308.678 419.76 308.424 419.068 308.197 418.366C307.97 417.665 307.771 416.958 307.601 416.247C307.43 415.536 307.287 414.821 307.173 414.103C307.059 413.385 306.973 412.664 306.915 411.941C306.858 411.218 306.828 410.494 306.828 409.768L306.828 409.763L306.828 409.759C306.829 409.678 306.83 409.598 306.833 409.519C306.835 409.441 306.838 409.362 306.842 409.285C306.846 409.208 306.85 409.131 306.854 409.055C306.859 408.979 306.863 408.904 306.868 408.829C306.872 408.76 306.876 408.692 306.88 408.625C306.884 408.557 306.888 408.491 306.891 408.425C306.894 408.36 306.897 408.295 306.899 408.23C306.901 408.166 306.902 408.103 306.903 408.04L306.903 408.016L306.904 407.992C306.906 407.943 306.909 407.893 306.912 407.844C306.916 407.794 306.92 407.744 306.924 407.694C306.929 407.645 306.933 407.596 306.938 407.548C306.943 407.5 306.947 407.452 306.952 407.407C306.954 407.386 306.956 407.366 306.958 407.345C306.96 407.325 306.962 407.305 306.964 407.285C306.966 407.266 306.968 407.246 306.97 407.227C306.972 407.208 306.973 407.189 306.975 407.171C306.978 407.134 306.982 407.097 306.986 407.061C306.991 407.025 306.996 406.99 307.001 406.955C307.006 406.921 307.012 406.887 307.017 406.854C307.023 406.822 307.029 406.79 307.034 406.759C307.038 406.734 307.043 406.708 307.047 406.682C307.052 406.656 307.056 406.629 307.06 406.604C307.064 406.579 307.067 406.555 307.07 406.534C307.072 406.512 307.073 406.493 307.074 406.479L307.074 406.385L307.088 406.294C307.244 405.283 307.488 404.299 307.816 403.352C308.145 402.406 308.556 401.496 309.046 400.634C309.535 399.772 310.103 398.957 310.742 398.2C311.382 397.443 312.094 396.743 312.872 396.112C313.648 395.483 314.477 394.931 315.348 394.461C316.22 393.991 317.134 393.602 318.079 393.299C319.025 392.995 320.002 392.777 320.999 392.647C321.997 392.518 323.015 392.478 324.041 392.532L324.091 392.534C324.885 392.578 325.673 392.675 326.452 392.822C327.231 392.97 328.001 393.169 328.757 393.418C329.514 393.666 330.256 393.965 330.981 394.312C331.705 394.659 332.411 395.054 333.094 395.497C333.783 395.132 334.494 394.814 335.224 394.545C335.954 394.276 336.703 394.056 337.466 393.886C338.23 393.716 339.008 393.596 339.795 393.527C340.584 393.458 341.382 393.44 342.185 393.474L342.284 393.479C342.844 393.508 343.401 393.564 343.953 393.646C344.506 393.727 345.055 393.835 345.599 393.969C346.143 394.103 346.683 394.264 347.216 394.449C347.749 394.636 348.277 394.847 348.797 395.085C349.318 395.323 349.826 395.583 350.321 395.866C350.815 396.15 351.296 396.455 351.762 396.783C352.228 397.11 352.68 397.46 353.116 397.83C353.552 398.201 353.973 398.593 354.377 399.006C355.076 399.715 355.716 400.478 356.291 401.284C356.866 402.091 357.376 402.941 357.816 403.823C358.257 404.706 358.627 405.621 358.921 406.558C359.215 407.495 359.433 408.453 359.57 409.423L359.578 409.477L359.581 409.531C359.584 409.588 359.588 409.645 359.593 409.701C359.597 409.757 359.603 409.813 359.609 409.869C359.615 409.924 359.622 409.979 359.629 410.034C359.637 410.089 359.645 410.143 359.654 410.196C359.668 410.276 359.68 410.356 359.69 410.436C359.701 410.516 359.709 410.596 359.715 410.676C359.721 410.757 359.725 410.836 359.727 410.916C359.729 410.996 359.728 411.075 359.726 411.155C359.738 411.302 359.749 411.451 359.757 411.6C359.766 411.749 359.772 411.899 359.777 412.049C359.782 412.199 359.784 412.349 359.785 412.5C359.786 412.65 359.784 412.801 359.781 412.951C359.78 413.505 359.749 414.076 359.688 414.661C359.627 415.247 359.536 415.848 359.416 416.462C359.295 417.077 359.145 417.705 358.965 418.347C358.786 418.988 358.576 419.642 358.338 420.308C358.154 420.822 357.953 421.34 357.737 421.859C357.521 422.377 357.29 422.896 357.046 423.413C356.801 423.929 356.543 424.443 356.273 424.951C356.003 425.459 355.721 425.961 355.429 426.455L356.104 427.155L356.111 427.161L356.117 427.168C356.141 427.194 356.164 427.219 356.188 427.245C356.211 427.271 356.234 427.298 356.257 427.324C356.279 427.351 356.302 427.378 356.324 427.405C356.346 427.433 356.368 427.46 356.39 427.488C356.418 427.52 356.445 427.553 356.472 427.586C356.498 427.619 356.524 427.652 356.549 427.686C356.574 427.72 356.598 427.755 356.621 427.79C356.644 427.825 356.667 427.86 356.688 427.896C356.762 428.005 356.831 428.117 356.895 428.23C356.96 428.344 357.021 428.459 357.077 428.576C357.133 428.694 357.184 428.813 357.231 428.934C357.278 429.056 357.321 429.179 357.358 429.303C357.392 429.38 357.42 429.459 357.443 429.538C357.466 429.618 357.484 429.699 357.497 429.78C357.509 429.862 357.517 429.944 357.519 430.025C357.52 430.107 357.517 430.188 357.507 430.269L357.506 430.286L357.503 430.302C357.49 430.4 357.479 430.477 357.472 430.54C357.464 430.602 357.46 430.649 357.457 430.686C357.454 430.723 357.452 430.749 357.452 430.769C357.451 430.79 357.452 430.804 357.452 430.817L357.453 430.843L357.453 430.868L357.453 430.906C357.454 430.923 357.454 430.941 357.455 430.959C357.455 430.977 357.455 430.995 357.456 431.012C357.456 431.03 357.456 431.048 357.455 431.066C357.455 431.083 357.455 431.101 357.454 431.119C357.456 431.157 357.457 431.195 357.458 431.234C357.458 431.272 357.458 431.311 357.458 431.349C357.457 431.388 357.455 431.426 357.453 431.464C357.451 431.503 357.448 431.541 357.445 431.579L357.434 431.702L357.399 431.819C357.397 431.827 357.395 431.835 357.393 431.843C357.39 431.85 357.388 431.858 357.386 431.866C357.384 431.873 357.382 431.881 357.381 431.888C357.379 431.896 357.377 431.903 357.375 431.911C357.374 431.935 357.372 431.959 357.37 431.982C357.367 432.006 357.364 432.03 357.36 432.053C357.356 432.077 357.352 432.1 357.347 432.123C357.342 432.147 357.336 432.17 357.33 432.193C357.319 432.235 357.306 432.278 357.293 432.32C357.28 432.362 357.266 432.404 357.25 432.446C357.235 432.489 357.219 432.53 357.202 432.572C357.185 432.614 357.167 432.656 357.148 432.697C357.145 432.704 357.142 432.711 357.138 432.718C357.135 432.725 357.132 432.732 357.129 432.739C357.126 432.745 357.123 432.752 357.12 432.759C357.116 432.765 357.113 432.772 357.11 432.778L357.109 432.934L356.899 433.242C356.838 433.331 356.775 433.417 356.708 433.5C356.642 433.584 356.573 433.664 356.501 433.742C356.428 433.821 356.353 433.896 356.276 433.968C356.198 434.041 356.118 434.11 356.035 434.177C355.799 434.39 355.544 434.576 355.273 434.733C355.003 434.891 354.718 435.02 354.421 435.119C354.124 435.219 353.815 435.289 353.499 435.329C353.182 435.369 352.858 435.378 352.528 435.355L352.259 435.336C352.241 435.336 352.223 435.336 352.206 435.336C352.188 435.335 352.17 435.335 352.153 435.334C352.135 435.334 352.117 435.333 352.099 435.332C352.082 435.331 352.064 435.33 352.046 435.329C352.022 435.327 351.998 435.325 351.974 435.323C351.95 435.321 351.926 435.318 351.902 435.315C351.878 435.312 351.854 435.309 351.83 435.306C351.807 435.302 351.783 435.299 351.759 435.295L351.685 435.282L351.613 435.262L351.273 435.165L351.224 435.151L351.175 435.133C351.092 435.102 351.009 435.069 350.927 435.034C350.844 434.999 350.763 434.962 350.683 434.923C350.603 434.884 350.523 434.844 350.445 434.801C350.367 434.758 350.29 434.713 350.214 434.666L350.202 434.659L350.191 434.652L349.934 434.487L349.883 434.454L349.834 434.416L349.586 434.225L349.529 434.181L349.477 434.132L349.403 434.062L349.398 434.057L349.392 434.051L349.136 433.805L349.109 433.779L349.084 433.752L348.986 433.646C348.933 433.682 348.881 433.717 348.829 433.751C348.777 433.785 348.725 433.819 348.674 433.853C348.622 433.886 348.57 433.919 348.519 433.951C348.467 433.984 348.416 434.016 348.365 434.048C347.341 434.702 346.274 435.278 345.171 435.773C344.07 436.267 342.932 436.68 341.768 437.009C340.605 437.339 339.415 437.585 338.205 437.745C336.997 437.905 335.771 437.981 334.533 437.968C334.398 437.967 334.262 437.965 334.126 437.961C333.991 437.958 333.854 437.953 333.718 437.948C333.582 437.942 333.446 437.935 333.31 437.928C333.174 437.92 333.039 437.911 332.904 437.902ZM319.392 430.098L319.984 430.523C320.131 430.628 320.275 430.731 320.417 430.829C320.559 430.928 320.699 431.024 320.837 431.117C320.975 431.21 321.111 431.3 321.247 431.387C321.382 431.475 321.516 431.559 321.649 431.642C322.505 432.172 323.39 432.649 324.298 433.071C325.207 433.494 326.138 433.86 327.086 434.17C328.034 434.479 328.998 434.731 329.972 434.923C330.947 435.115 331.932 435.248 332.919 435.318C333.041 435.326 333.163 435.334 333.286 435.341C333.408 435.347 333.531 435.353 333.654 435.358C333.777 435.363 333.9 435.367 334.022 435.37C334.145 435.373 334.267 435.375 334.389 435.376C335.506 435.386 336.613 435.317 337.704 435.171C338.795 435.024 339.869 434.801 340.918 434.502C341.968 434.204 342.994 433.83 343.988 433.383C344.982 432.935 345.944 432.414 346.867 431.822L346.876 431.816L346.885 431.81C346.996 431.742 347.107 431.672 347.219 431.598C347.331 431.525 347.444 431.449 347.559 431.37C347.674 431.291 347.79 431.209 347.908 431.124C348.026 431.038 348.146 430.95 348.268 430.857L349.187 430.164L350.024 431.058L350.916 432.011L351.14 432.226L351.156 432.242L351.299 432.351L351.491 432.475C351.523 432.494 351.555 432.513 351.587 432.53C351.62 432.548 351.653 432.566 351.687 432.582C351.72 432.599 351.754 432.614 351.789 432.629C351.823 432.644 351.858 432.659 351.893 432.672L352.076 432.724L352.078 432.724L352.081 432.724L352.083 432.724L352.085 432.724L352.151 432.722L352.216 432.727L352.54 432.749C352.698 432.76 352.854 432.755 353.006 432.735C353.158 432.716 353.306 432.681 353.449 432.632C353.591 432.584 353.728 432.521 353.857 432.444C353.987 432.367 354.109 432.276 354.222 432.173L354.255 432.142L354.29 432.114C354.315 432.095 354.339 432.075 354.362 432.055C354.386 432.034 354.409 432.013 354.432 431.991C354.454 431.969 354.476 431.947 354.498 431.924C354.519 431.902 354.541 431.878 354.561 431.854C354.576 431.811 354.592 431.771 354.608 431.733C354.625 431.696 354.642 431.661 354.659 431.63C354.675 431.598 354.692 431.57 354.707 431.544C354.722 431.519 354.736 431.497 354.749 431.478C354.75 431.476 354.75 431.474 354.751 431.472C354.752 431.47 354.753 431.468 354.754 431.466C354.755 431.464 354.756 431.462 354.756 431.46C354.757 431.458 354.758 431.456 354.759 431.454L354.759 431.45C354.764 431.421 354.768 431.392 354.774 431.363C354.779 431.333 354.784 431.304 354.79 431.275C354.796 431.245 354.802 431.216 354.809 431.186C354.815 431.157 354.822 431.128 354.829 431.098C354.829 431.096 354.829 431.093 354.829 431.09C354.829 431.087 354.829 431.085 354.829 431.082C354.829 431.079 354.828 431.076 354.828 431.074C354.828 431.071 354.828 431.068 354.828 431.066L354.82 430.967L354.827 430.87L354.827 430.866C354.827 430.866 354.827 430.862 354.827 430.86C354.827 430.858 354.827 430.856 354.827 430.854C354.827 430.851 354.827 430.849 354.827 430.846L354.824 430.804L354.824 430.762L354.825 430.712C354.823 430.666 354.823 430.619 354.824 430.571C354.824 430.522 354.826 430.471 354.829 430.415C354.833 430.359 354.837 430.298 354.844 430.229C354.851 430.16 354.86 430.084 354.871 429.997L354.864 429.973C354.846 429.907 354.825 429.842 354.801 429.778C354.778 429.714 354.751 429.651 354.723 429.59C354.694 429.528 354.662 429.467 354.629 429.408C354.595 429.348 354.558 429.29 354.519 429.234L354.485 429.184L354.455 429.132L354.405 429.077L354.361 429.019C354.352 429.008 354.344 428.997 354.335 428.986C354.327 428.975 354.318 428.965 354.31 428.954C354.301 428.944 354.292 428.934 354.283 428.923C354.275 428.913 354.266 428.904 354.257 428.894L353.107 427.7L353.1 427.693L353.093 427.686L351.771 426.276L349.139 423.473L347.744 422.04L347.734 422.029L347.723 422.018L339.012 412.677L337.436 410.987L339.616 410.55C339.731 410.527 339.842 410.496 339.95 410.456C340.058 410.416 340.161 410.369 340.261 410.313C340.36 410.257 340.454 410.194 340.543 410.123C340.632 410.052 340.716 409.974 340.794 409.889C340.869 409.808 340.936 409.721 340.997 409.63C341.057 409.539 341.11 409.444 341.156 409.345C341.202 409.246 341.241 409.144 341.271 409.038C341.302 408.933 341.325 408.824 341.34 408.713L341.342 408.414L341.342 408.379L341.344 408.344C341.345 408.332 341.346 408.32 341.346 408.309C341.346 408.297 341.347 408.285 341.347 408.273C341.347 408.262 341.347 408.25 341.346 408.238C341.346 408.226 341.346 408.215 341.345 408.203L341.339 408.083L341.355 407.969C341.334 407.852 341.304 407.737 341.266 407.625C341.228 407.513 341.182 407.403 341.128 407.298C341.075 407.192 341.013 407.09 340.945 406.992C340.876 406.894 340.8 406.8 340.716 406.712L337.677 403.492L336.322 402.057L338.1 401.41C338.421 401.294 338.747 401.194 339.077 401.11C339.407 401.027 339.741 400.961 340.078 400.912C340.415 400.862 340.756 400.83 341.099 400.815C341.443 400.8 341.789 400.802 342.138 400.821C342.291 400.83 342.445 400.842 342.598 400.857C342.752 400.872 342.905 400.891 343.058 400.913C343.211 400.935 343.364 400.96 343.516 400.989C343.669 401.018 343.82 401.05 343.971 401.085C344.468 401.201 344.954 401.351 345.428 401.534C345.901 401.717 346.362 401.933 346.807 402.18C347.253 402.428 347.682 402.706 348.092 403.014C348.502 403.322 348.894 403.66 349.262 404.025L349.269 404.032L349.276 404.038C349.687 404.457 350.063 404.907 350.401 405.382C350.738 405.858 351.037 406.359 351.294 406.879C351.551 407.399 351.767 407.937 351.937 408.489C352.108 409.041 352.233 409.605 352.311 410.176L352.323 410.267L352.322 410.358L352.321 410.652L352.311 412.567L352.311 412.61L352.308 412.653C352.261 413.306 352.187 413.952 352.087 414.592C351.987 415.232 351.86 415.864 351.707 416.489C351.555 417.114 351.376 417.73 351.171 418.338C350.967 418.945 350.736 419.544 350.48 420.132L353.767 423.94C354.299 422.963 354.777 421.976 355.194 420.995C355.611 420.013 355.967 419.038 356.256 418.087C356.546 417.135 356.769 416.206 356.92 415.318C357.07 414.429 357.149 413.581 357.149 412.789L357.149 412.775L357.15 412.76C357.153 412.626 357.154 412.491 357.153 412.357C357.153 412.223 357.15 412.088 357.146 411.954C357.142 411.821 357.135 411.687 357.127 411.554C357.119 411.421 357.109 411.289 357.098 411.157L357.09 411.067L357.094 410.977C357.096 410.939 357.097 410.901 357.097 410.862C357.096 410.824 357.095 410.785 357.092 410.746C357.09 410.707 357.086 410.668 357.081 410.629C357.076 410.59 357.07 410.55 357.063 410.511L357.061 410.501L357.059 410.492C357.047 410.419 357.036 410.345 357.026 410.271C357.015 410.197 357.006 410.123 356.998 410.048C356.989 409.973 356.982 409.898 356.975 409.822C356.968 409.747 356.962 409.671 356.958 409.595C356.839 408.775 356.652 407.964 356.402 407.171C356.151 406.379 355.837 405.604 355.463 404.857C355.089 404.11 354.657 403.391 354.169 402.707C353.682 402.024 353.14 401.378 352.548 400.776C352.204 400.424 351.846 400.09 351.475 399.774C351.105 399.458 350.721 399.161 350.325 398.882C349.929 398.603 349.52 398.343 349.1 398.102C348.68 397.861 348.249 397.639 347.806 397.436C347.364 397.234 346.916 397.053 346.462 396.894C346.009 396.736 345.551 396.599 345.088 396.484C344.626 396.37 344.159 396.278 343.689 396.208C343.219 396.138 342.746 396.09 342.27 396.065L342.189 396.06C341.441 396.027 340.697 396.048 339.963 396.119C339.23 396.191 338.507 396.315 337.799 396.489C337.091 396.663 336.399 396.888 335.726 397.162C335.053 397.436 334.401 397.759 333.773 398.129L333.068 398.546L332.371 398.05C331.751 397.608 331.107 397.213 330.442 396.866C329.779 396.52 329.095 396.222 328.396 395.973C327.698 395.725 326.984 395.527 326.261 395.381C325.538 395.235 324.805 395.14 324.067 395.098L324.025 395.096C323.151 395.05 322.284 395.083 321.434 395.192C320.585 395.301 319.753 395.486 318.947 395.744C318.141 396.001 317.362 396.332 316.619 396.732C315.876 397.131 315.169 397.601 314.508 398.136C313.849 398.67 313.246 399.261 312.703 399.9C312.161 400.54 311.68 401.228 311.263 401.956C310.847 402.684 310.496 403.452 310.215 404.251C309.934 405.05 309.723 405.881 309.587 406.735C309.584 406.793 309.58 406.848 309.575 406.902C309.57 406.956 309.563 407.007 309.556 407.057C309.549 407.107 309.542 407.155 309.534 407.201C309.527 407.247 309.519 407.291 309.512 407.332C309.509 407.349 309.506 407.367 309.502 407.385C309.499 407.403 309.496 407.421 309.493 407.438C309.491 407.455 309.488 407.471 309.486 407.485C309.484 407.498 309.483 407.51 309.482 407.519C309.48 407.541 309.478 407.563 309.476 407.585C309.474 407.608 309.472 407.631 309.469 407.654C309.467 407.677 309.465 407.701 309.462 407.725C309.46 407.748 309.458 407.772 309.455 407.797C309.451 407.834 309.448 407.871 309.444 407.908C309.44 407.945 309.437 407.981 309.434 408.017C309.43 408.053 309.427 408.088 309.425 408.121C309.422 408.155 309.42 408.187 309.418 408.217C309.418 408.295 309.416 408.372 309.413 408.449C309.411 408.525 309.408 408.601 309.404 408.676C309.401 408.751 309.397 408.826 309.392 408.9C309.388 408.974 309.383 409.047 309.379 409.119C309.375 409.188 309.371 409.256 309.367 409.323C309.363 409.39 309.359 409.456 309.356 409.521C309.353 409.587 309.35 409.651 309.348 409.715C309.346 409.779 309.345 409.843 309.344 409.905C309.345 410.562 309.371 411.218 309.424 411.873C309.476 412.528 309.554 413.181 309.658 413.831C309.762 414.481 309.891 415.129 310.046 415.773C310.201 416.417 310.381 417.057 310.587 417.692C310.782 418.294 310.999 418.888 311.236 419.473C311.474 420.059 311.733 420.636 312.013 421.203C312.293 421.77 312.594 422.328 312.915 422.876C313.236 423.424 313.578 423.961 313.939 424.487L313.981 424.394L314.076 424.187L314.238 424.032L316.978 421.408L316.994 421.393L317.01 421.379L317.203 421.207L317.059 421.007L317.033 420.971L317.01 420.934C316.498 420.116 316.047 419.271 315.659 418.404C315.271 417.537 314.946 416.649 314.686 415.745C314.426 414.842 314.231 413.923 314.102 412.995C313.972 412.067 313.91 411.129 313.915 410.188C313.914 410.075 313.915 409.962 313.917 409.85C313.92 409.737 313.923 409.625 313.928 409.513C313.933 409.401 313.94 409.29 313.947 409.179C313.955 409.068 313.964 408.958 313.974 408.849C313.973 408.814 313.972 408.779 313.972 408.744C313.972 408.709 313.972 408.674 313.972 408.639C313.973 408.604 313.974 408.569 313.975 408.534C313.976 408.499 313.978 408.464 313.98 408.429L313.981 408.298L313.982 408.255L313.985 408.213C313.987 408.176 313.991 408.14 313.994 408.103C313.998 408.067 314.003 408.03 314.008 407.993C314.013 407.956 314.019 407.918 314.025 407.881C314.032 407.844 314.039 407.807 314.046 407.769C314.139 407.162 314.286 406.573 314.484 406.007C314.682 405.441 314.931 404.898 315.228 404.385C315.524 403.871 315.868 403.387 316.257 402.939C316.645 402.49 317.077 402.077 317.55 401.706C318.002 401.352 318.484 401.042 318.989 400.778C319.494 400.514 320.023 400.297 320.568 400.127C321.114 399.958 321.677 399.837 322.251 399.766C322.824 399.696 323.409 399.675 323.997 399.708C324.025 399.709 324.054 399.711 324.083 399.713C324.112 399.715 324.141 399.717 324.17 399.719C324.199 399.721 324.228 399.723 324.257 399.726C324.286 399.728 324.315 399.73 324.343 399.733C324.487 399.745 324.632 399.761 324.776 399.779C324.92 399.798 325.064 399.82 325.208 399.845C325.352 399.87 325.495 399.898 325.638 399.93C325.781 399.961 325.924 399.996 326.065 400.034C326.17 400.06 326.275 400.088 326.38 400.118C326.485 400.148 326.59 400.179 326.694 400.213C326.798 400.246 326.902 400.28 327.005 400.317C327.108 400.353 327.211 400.391 327.313 400.43C327.392 400.46 327.471 400.491 327.549 400.523C327.628 400.555 327.707 400.588 327.785 400.623C327.863 400.657 327.94 400.692 328.017 400.728C328.094 400.764 328.171 400.801 328.247 400.839L328.559 400.986L331.512 402.376L328.52 403.371L328.348 403.429L328.167 403.512L327.978 403.615L327.788 403.758L327.714 403.819L327.59 403.951C327.579 403.963 327.568 403.975 327.558 403.986C327.547 403.998 327.537 404.01 327.527 404.022C327.517 404.034 327.507 404.046 327.498 404.058C327.488 404.07 327.479 404.083 327.47 404.095L327.462 404.106L327.453 404.116C327.41 404.172 327.37 404.23 327.333 404.29C327.296 404.349 327.263 404.411 327.233 404.474C327.203 404.537 327.176 404.602 327.153 404.669C327.13 404.735 327.11 404.804 327.094 404.873C327.082 404.929 327.072 404.984 327.063 405.04C327.055 405.096 327.048 405.152 327.043 405.209C327.038 405.265 327.036 405.322 327.034 405.378C327.033 405.435 327.034 405.492 327.037 405.548L327.037 405.551L327.037 405.554C327.039 405.591 327.041 405.628 327.044 405.665C327.048 405.702 327.052 405.738 327.057 405.775C327.062 405.811 327.068 405.848 327.075 405.884C327.081 405.919 327.089 405.955 327.097 405.991L327.148 406.204C327.158 406.231 327.168 406.258 327.179 406.286C327.19 406.314 327.201 406.341 327.212 406.369C327.224 406.397 327.236 406.425 327.248 406.453C327.261 406.481 327.274 406.509 327.287 406.536L327.397 406.725C327.404 406.736 327.411 406.747 327.418 406.758C327.425 406.77 327.432 406.781 327.44 406.792C327.448 406.804 327.456 406.815 327.465 406.827C327.473 406.839 327.482 406.851 327.491 406.863L327.497 406.871L327.503 406.879L327.604 407.018L327.622 407.04L327.7 407.131L329.747 409.32L329.769 409.344L329.79 409.368L330.998 410.786L332.251 412.117L334.791 414.818L336.059 416.174L337.341 417.502L337.351 417.512L337.36 417.522L344.768 425.499L345.81 426.621L344.62 427.438C344.48 427.535 344.34 427.628 344.202 427.719C344.063 427.809 343.925 427.897 343.788 427.982C343.651 428.066 343.515 428.148 343.38 428.226C343.246 428.304 343.113 428.379 342.981 428.451C342.349 428.797 341.694 429.104 341.022 429.371C340.349 429.638 339.66 429.866 338.957 430.053C338.255 430.239 337.54 430.385 336.817 430.489C336.095 430.593 335.365 430.655 334.633 430.673C334.485 430.677 334.336 430.679 334.187 430.679C334.038 430.679 333.889 430.677 333.739 430.674C333.59 430.671 333.44 430.666 333.291 430.659C333.142 430.652 332.993 430.644 332.845 430.634C332.255 430.593 331.669 430.526 331.088 430.433C330.507 430.339 329.93 430.22 329.358 430.074C328.787 429.928 328.221 429.757 327.661 429.56C327.102 429.362 326.549 429.14 326.003 428.891C325.842 428.819 325.681 428.744 325.52 428.667C325.359 428.59 325.199 428.51 325.038 428.428C324.878 428.346 324.719 428.262 324.56 428.176C324.401 428.089 324.243 428 324.086 427.91L322.516 427.003L323.771 425.831L332.045 418.095L331.679 417.701L329.143 414.987L328.771 414.586L316.262 426.337C316.201 426.417 316.141 426.498 316.082 426.579C316.023 426.66 315.965 426.742 315.908 426.824C315.851 426.907 315.794 426.99 315.739 427.074C315.684 427.157 315.63 427.241 315.576 427.326C315.576 427.337 315.575 427.348 315.574 427.359C315.574 427.369 315.573 427.38 315.572 427.391C315.571 427.402 315.57 427.414 315.569 427.425C315.568 427.436 315.566 427.447 315.565 427.458L315.565 427.531L315.564 427.563L315.563 427.596C315.554 427.744 315.556 427.893 315.569 428.041C315.581 428.189 315.604 428.336 315.637 428.481C315.67 428.626 315.713 428.77 315.766 428.911C315.819 429.052 315.882 429.19 315.954 429.324C315.973 429.354 315.992 429.383 316.011 429.411C316.03 429.439 316.05 429.467 316.071 429.495C316.092 429.522 316.113 429.549 316.134 429.575C316.156 429.601 316.178 429.627 316.201 429.652L316.413 429.868C316.439 429.89 316.464 429.912 316.49 429.933C316.516 429.954 316.542 429.974 316.569 429.994C316.595 430.013 316.622 430.032 316.649 430.05C316.677 430.068 316.704 430.085 316.732 430.101L316.747 430.11L316.761 430.119L316.834 430.164C316.863 430.179 316.892 430.193 316.921 430.207C316.951 430.221 316.98 430.235 317.009 430.248C317.039 430.261 317.068 430.274 317.097 430.286C317.127 430.298 317.156 430.31 317.185 430.321L317.196 430.325L317.207 430.329C317.219 430.334 317.23 430.338 317.242 430.343C317.254 430.347 317.265 430.351 317.277 430.355C317.288 430.358 317.299 430.362 317.311 430.365C317.322 430.368 317.333 430.371 317.344 430.373L317.39 430.384L317.435 430.399C317.439 430.4 317.443 430.401 317.447 430.402C317.45 430.403 317.454 430.404 317.457 430.405C317.461 430.406 317.464 430.407 317.468 430.407C317.471 430.408 317.475 430.409 317.478 430.41L317.833 430.434L317.88 430.437L317.925 430.444C317.935 430.445 317.945 430.446 317.955 430.448C317.965 430.449 317.975 430.45 317.985 430.451C317.994 430.452 318.004 430.453 318.014 430.454C318.024 430.455 318.034 430.456 318.044 430.456C318.053 430.457 318.062 430.458 318.071 430.458C318.081 430.459 318.09 430.459 318.099 430.459C318.109 430.46 318.118 430.46 318.127 430.46C318.136 430.46 318.146 430.46 318.155 430.46C318.165 430.46 318.175 430.46 318.185 430.459C318.195 430.458 318.204 430.458 318.214 430.457C318.223 430.456 318.232 430.455 318.241 430.454C318.25 430.452 318.258 430.451 318.267 430.449L318.543 430.397L318.699 430.368L318.725 430.369C318.727 430.368 318.73 430.368 318.732 430.367C318.734 430.366 318.737 430.365 318.739 430.364C318.741 430.363 318.744 430.362 318.746 430.361C318.749 430.36 318.751 430.359 318.753 430.358L319.392 430.098ZM326.895 426.531C326.897 426.532 326.899 426.533 326.902 426.534C326.904 426.535 326.907 426.536 326.909 426.538C326.911 426.539 326.914 426.54 326.916 426.541C326.918 426.542 326.921 426.543 326.923 426.544L326.927 426.546L326.931 426.547C327.404 426.762 327.884 426.955 328.368 427.125C328.853 427.296 329.344 427.444 329.839 427.57C330.334 427.695 330.834 427.798 331.338 427.879C331.842 427.959 332.349 428.017 332.86 428.051C332.988 428.06 333.117 428.067 333.247 428.073C333.376 428.078 333.505 428.083 333.634 428.085C333.764 428.088 333.893 428.089 334.022 428.089C334.151 428.089 334.28 428.087 334.408 428.083C335.042 428.067 335.674 428.013 336.299 427.922C336.924 427.832 337.543 427.705 338.15 427.543C338.758 427.38 339.355 427.182 339.937 426.95C340.519 426.718 341.085 426.452 341.632 426.152C341.649 426.143 341.666 426.134 341.682 426.125C341.699 426.115 341.716 426.106 341.733 426.097C341.75 426.087 341.766 426.078 341.783 426.068C341.8 426.059 341.817 426.049 341.834 426.04L335.527 419.236L335.14 418.835L334.769 419.182L326.895 426.531ZM319.11 419.612L319.299 419.874L327.88 411.801L328.266 411.437L327.902 411.008L325.861 408.822L325.842 408.802L325.824 408.781L325.708 408.647L325.689 408.624L325.67 408.6L325.617 408.534L325.601 408.513L325.585 408.491L325.474 408.339C325.451 408.308 325.428 408.276 325.406 408.245C325.384 408.213 325.362 408.182 325.341 408.15C325.319 408.119 325.299 408.087 325.279 408.056C325.259 408.024 325.239 407.992 325.22 407.961L325.217 407.956L325.215 407.951L325.072 407.707L325.045 407.661L325.022 407.613C324.992 407.552 324.964 407.491 324.937 407.431C324.909 407.37 324.883 407.309 324.858 407.248C324.832 407.187 324.808 407.126 324.785 407.065C324.762 407.004 324.74 406.943 324.719 406.882C324.71 406.857 324.701 406.831 324.692 406.806C324.683 406.78 324.674 406.754 324.666 406.728C324.657 406.701 324.649 406.674 324.642 406.647C324.634 406.62 324.626 406.592 324.619 406.564L324.604 406.506L324.594 406.448C324.592 406.436 324.591 406.424 324.589 406.412C324.587 406.4 324.586 406.388 324.584 406.377C324.583 406.365 324.582 406.353 324.581 406.341C324.58 406.329 324.579 406.317 324.578 406.305C324.565 406.242 324.553 406.179 324.543 406.116C324.533 406.052 324.524 405.988 324.516 405.924C324.508 405.86 324.502 405.796 324.496 405.732C324.491 405.668 324.487 405.604 324.484 405.539C324.479 405.425 324.477 405.311 324.479 405.198C324.481 405.084 324.487 404.971 324.497 404.858C324.507 404.745 324.52 404.632 324.537 404.52C324.554 404.408 324.575 404.297 324.6 404.186L324.601 404.182L324.602 404.178C324.638 404.022 324.681 403.869 324.732 403.72C324.784 403.572 324.843 403.426 324.909 403.285C324.975 403.144 325.049 403.006 325.131 402.873C325.212 402.739 325.301 402.61 325.397 402.485C325.303 402.461 325.208 402.439 325.112 402.42C325.017 402.4 324.921 402.382 324.826 402.366C324.73 402.35 324.634 402.336 324.538 402.324C324.442 402.312 324.346 402.302 324.25 402.294L324.246 402.293L324.242 402.293C324.22 402.291 324.198 402.289 324.176 402.287C324.155 402.286 324.133 402.284 324.111 402.282C324.089 402.281 324.067 402.279 324.046 402.278C324.024 402.276 324.002 402.275 323.98 402.274C323.542 402.249 323.106 402.264 322.678 402.316C322.25 402.368 321.83 402.458 321.422 402.584C321.015 402.71 320.62 402.872 320.242 403.069C319.865 403.265 319.505 403.496 319.168 403.761C318.813 404.039 318.488 404.349 318.197 404.685C317.906 405.022 317.648 405.385 317.426 405.771C317.204 406.156 317.018 406.564 316.87 406.99C316.722 407.415 316.613 407.858 316.545 408.314L316.539 408.353L316.531 408.391C316.529 408.401 316.527 408.41 316.525 408.42C316.524 408.429 316.522 408.439 316.52 408.448C316.519 408.457 316.518 408.466 316.516 408.475C316.515 408.484 316.514 408.493 316.513 408.501L316.512 408.619L316.512 408.663L316.509 408.706C316.507 408.725 316.506 408.744 316.505 408.764C316.505 408.783 316.504 408.802 316.504 408.821C316.504 408.841 316.504 408.86 316.505 408.879C316.505 408.899 316.506 408.918 316.507 408.937L316.514 409.043L316.503 409.147C316.493 409.242 316.485 409.338 316.477 409.434C316.47 409.531 316.464 409.628 316.46 409.726C316.455 409.824 316.452 409.922 316.449 410.021C316.447 410.119 316.447 410.219 316.447 410.318L316.447 410.325L316.447 410.332C316.442 411.144 316.496 411.954 316.607 412.755C316.718 413.557 316.887 414.351 317.11 415.131C317.334 415.911 317.614 416.678 317.947 417.427C318.281 418.175 318.669 418.906 319.11 419.612ZM342.093 412.286L348.16 418.781C348.374 418.274 348.566 417.76 348.737 417.238C348.909 416.717 349.058 416.188 349.187 415.652C349.315 415.116 349.422 414.574 349.507 414.026C349.592 413.478 349.655 412.925 349.697 412.366L349.707 410.497L349.708 410.298C349.647 409.881 349.551 409.469 349.423 409.066C349.295 408.664 349.136 408.27 348.946 407.891C348.756 407.511 348.536 407.145 348.289 406.797C348.042 406.45 347.767 406.12 347.466 405.814C347.19 405.54 346.897 405.287 346.589 405.056C346.282 404.825 345.96 404.617 345.627 404.431C345.293 404.246 344.948 404.083 344.592 403.946C344.238 403.808 343.873 403.695 343.501 403.608C343.388 403.581 343.273 403.557 343.159 403.535C343.045 403.514 342.93 403.494 342.815 403.478C342.7 403.461 342.584 403.447 342.469 403.435C342.354 403.424 342.239 403.415 342.124 403.408C342.035 403.403 341.947 403.4 341.86 403.398C341.772 403.396 341.684 403.395 341.597 403.396C341.51 403.397 341.423 403.399 341.336 403.403C341.249 403.407 341.162 403.412 341.076 403.419L342.56 404.988C342.741 405.181 342.907 405.385 343.055 405.598C343.204 405.812 343.336 406.034 343.451 406.265C343.565 406.495 343.662 406.733 343.741 406.978C343.82 407.222 343.881 407.473 343.923 407.729L343.927 407.754L343.93 407.78C343.936 407.825 343.94 407.87 343.943 407.916C343.947 407.961 343.949 408.007 343.95 408.052C343.95 408.098 343.95 408.143 343.949 408.188C343.947 408.233 343.944 408.279 343.941 408.324C343.941 408.347 343.941 408.369 343.941 408.392C343.941 408.415 343.941 408.438 343.941 408.461C343.941 408.484 343.94 408.507 343.939 408.53C343.939 408.553 343.938 408.576 343.937 408.598L343.935 408.939L343.934 409.006L343.927 409.072C343.9 409.32 343.854 409.563 343.79 409.799C343.726 410.035 343.645 410.264 343.546 410.484C343.447 410.705 343.331 410.917 343.198 411.119C343.065 411.321 342.916 411.513 342.751 411.694C342.701 411.749 342.649 411.802 342.596 411.855C342.544 411.907 342.49 411.958 342.435 412.007C342.38 412.056 342.324 412.104 342.267 412.151C342.21 412.197 342.152 412.242 342.093 412.286Z" fill="white"/>
<path d="M313.879 425.938L313.164 425.17L314.747 423.665L315.463 424.433L313.879 425.938Z" fill="white"/>
<defs>
<filter id="filter0_d_5349_58711" x="39.0156" y="112.72" width="312.086" height="323.684" filterUnits="userSpaceOnUse" color-interpolation-filters="sRGB">
<feFlood flood-opacity="0" result="BackgroundImageFix"/>
<feColorMatrix in="SourceAlpha" type="matrix" values="0 0 0 0 0 0 0 0 0 0 0 0 0 0 0 0 0 0 127 0" result="hardAlpha"/>
<feOffset dy="3"/>
<feGaussianBlur stdDeviation="6"/>
<feComposite in2="hardAlpha" operator="out"/>
<feColorMatrix type="matrix" values="0 0 0 0 0.141176 0 0 0 0 0.172549 0 0 0 0 0.239216 0 0 0 0.1 0"/>
<feBlend mode="normal" in2="BackgroundImageFix" result="effect1_dropShadow_5349_58711"/>
<feBlend mode="normal" in="SourceGraphic" in2="effect1_dropShadow_5349_58711" result="shape"/>
</filter>
<linearGradient id="paint0_linear_5349_58711" x1="742.142" y1="-81.9199" x2="329.47" y2="326.441" gradientUnits="userSpaceOnUse">
<stop stop-color="#293143" stop-opacity="0"/>
<stop offset="1" stop-color="#FF9AC1" stop-opacity="0.122"/>
</linearGradient>
<linearGradient id="paint1_linear_5349_58711" x1="46.4294" y1="247.796" x2="375.477" y2="528.33" gradientUnits="userSpaceOnUse">
<stop offset="0.123487" stop-color="#343447"/>
<stop offset="1" stop-color="#222839" stop-opacity="0"/>
</linearGradient>
<linearGradient id="paint2_linear_5349_58711" x1="114.878" y1="130.639" x2="310.389" y2="421.076" gradientUnits="userSpaceOnUse">
<stop stop-color="#343447"/>
<stop offset="1" stop-color="#464056"/>
</linearGradient>
</defs>
</svg>
